<svg width="296" height="396" viewBox="0 0 296 396" fill="none" xmlns="http://www.w3.org/2000/svg">
<path d="M3.77235 391.933C3.77235 391.933 -8.21661 299.476 84.199 291.12H106.386C106.386 291.12 113.647 286.427 118.759 286.427V273.2C118.759 273.2 146.452 287.008 175.079 273.627V285.573C175.079 285.573 176.296 283.287 188.732 291.547H222.012C222.012 291.547 292.772 300.275 292.772 391.933H3.77235Z" fill="white"/>
<path fill-rule="evenodd" clip-rule="evenodd" d="M290.034 395.52H5.51788H0L1.37735 371.99C4.06665 326.048 40.2642 290.987 81.6873 290.987H110.171C108.323 292.515 106.969 294.1 105.995 295.68H84.2021C44.2787 295.68 9.39166 329.428 6.79971 373.65L5.84299 389.973H289.283L288.752 373.65C286.16 329.428 251.273 295.68 211.35 295.68H189.538C188.704 294.112 187.518 292.527 185.862 290.987H213.612C255.035 290.987 291.232 326.048 293.922 371.99L295.299 395.52H290.034ZM177.423 295.68H175.932V290.987H177.588C177.489 292.206 177.426 293.744 177.423 295.68ZM117.412 290.987H119.186V295.68H117.652C117.629 293.687 117.538 292.157 117.412 290.987Z" fill="#3B434F"/>
<path d="M160.999 356.267C162.648 356.267 163.986 357.604 163.986 359.253C163.986 360.903 162.648 362.24 160.999 362.24C159.35 362.24 158.012 360.903 158.012 359.253C158.012 357.604 159.35 356.267 160.999 356.267Z" fill="#3B434F"/>
<path d="M160.999 375.893C162.648 375.893 163.986 377.23 163.986 378.88C163.986 380.529 162.648 381.867 160.999 381.867C159.35 381.867 158.012 380.529 158.012 378.88C158.012 377.23 159.35 375.893 160.999 375.893Z" fill="#3B434F"/>
<path fill-rule="evenodd" clip-rule="evenodd" d="M195.559 316.16L173.799 348.587C167.88 330.239 150.759 337.067 150.759 337.067V391.255C150.759 392.668 149.422 393.813 147.772 393.813C146.123 393.813 144.786 392.668 144.786 391.255V337.065C144.647 337.01 127.663 330.314 121.774 348.587L100.038 316.16C100.038 316.16 91.6295 294.783 117.086 285.44C117.086 276.117 117.086 275.627 117.086 275.627H121.899C121.899 275.627 121.899 293.451 121.899 306.51C122.517 311.827 126.178 326.975 147.772 331.947C169.391 326.975 173.055 311.827 173.674 306.51C173.674 293.451 173.674 275.627 173.674 275.627H178.492C178.492 275.627 178.492 276.117 178.492 285.44C203.976 294.783 195.559 316.16 195.559 316.16ZM121.522 319.031C120.361 317.717 118.69 314.453 118.69 314.453C118.69 314.453 117.086 309.113 117.086 306.773C117.086 303.867 117.086 300.052 117.086 295.951C116.723 291.07 115.807 290.987 115.807 290.987C96.8134 300.342 105.152 314.88 105.152 314.88L120.922 339.627C127.08 329.192 133.708 331.093 133.708 331.093C127.856 328.111 124.018 323.482 121.522 319.031ZM179.772 290.987C179.772 290.987 178.856 291.07 178.492 295.951C178.492 300.052 178.492 303.867 178.492 306.773C178.492 309.113 176.886 314.453 176.886 314.453C176.886 314.453 175.213 317.717 174.052 319.031C171.553 323.482 167.711 328.111 161.852 331.093C161.852 331.093 168.488 329.192 174.652 339.627L190.439 314.88C190.439 314.88 198.787 300.342 179.772 290.987Z" fill="#3B434F"/>
<path d="M147.987 6.40002C201.065 6.40002 242.959 56.0013 241.597 115.598L240.149 178.939C238.866 235.086 197.618 279.467 147.987 279.467C98.3562 279.467 57.108 235.086 55.8247 178.939L54.3769 115.598C53.0147 56.0013 94.9091 6.40002 147.987 6.40002Z" fill="white"/>
<path fill-rule="evenodd" clip-rule="evenodd" d="M245.862 113.634L244.345 179.549C243 237.976 199.779 284.16 147.774 284.16C95.7688 284.16 52.5475 237.976 51.2028 179.549L49.6857 113.634C48.2584 51.6163 92.1568 0 147.774 0C203.391 0 247.289 51.6163 245.862 113.634ZM147.561 6.82666C95.2084 6.82666 53.8867 56.0404 55.2303 115.172L56.6583 178.018C57.9241 233.726 98.6084 277.76 147.561 277.76C196.513 277.76 237.197 233.726 238.463 178.018L239.891 115.172C241.235 56.0404 199.913 6.82666 147.561 6.82666Z" fill="#3B434F"/>
<path opacity="0.058824" fill-rule="evenodd" clip-rule="evenodd" d="M243.199 124.587L238.932 194.56C238.932 194.56 219.982 275.331 146.772 284.895V285.013C146.628 284.996 146.489 284.972 146.346 284.954C146.202 284.972 146.063 284.996 145.919 285.013V284.895C72.7092 275.331 53.759 194.56 53.759 194.56L49.4923 124.587C68.4901 208.913 84.479 214.187 84.479 214.187C81.2434 188.616 107.519 191.147 107.519 191.147C123.533 193.852 136.281 195.159 146.346 195.648C156.41 195.159 169.158 193.852 185.172 191.147C185.172 191.147 211.448 188.616 208.212 214.187C208.212 214.187 224.201 208.913 243.199 124.587ZM195.755 222.86C194.513 207.818 185.443 209.094 185.443 209.094C169.319 213.838 156.661 216.474 146.772 217.814V217.715C136.953 216.387 124.384 213.772 108.372 209.067C108.372 209.067 99.3656 207.802 98.1323 222.72C98.1323 222.72 94.5156 237.667 106.666 244.053L122.026 260.267C122.026 260.267 132.522 263.593 132.266 250.88C132.266 250.88 131.197 241.398 137.386 239.787H146.772V240.067H156.225C162.457 241.692 161.381 251.252 161.381 251.252C161.123 264.071 171.694 260.717 171.694 260.717L187.162 244.369C199.398 237.93 195.755 222.86 195.755 222.86Z" fill="#3B434F"/>
<path d="M193.852 217.259C186.097 223.993 168.58 230.4 148.199 230.4C127.818 230.4 110.301 223.993 102.546 217.259C102.546 217.259 101.752 215.076 102.916 213.912C104.102 212.726 105.959 212.984 105.959 212.984C113.706 219.723 127.81 225.28 148.199 225.28C168.588 225.28 182.692 219.723 190.439 212.984C190.439 212.984 192.334 212.28 193.255 213.201C195.028 214.974 193.852 217.259 193.852 217.259Z" fill="#3B434F"/>
<path d="M134.119 240.64H161.426V244.907H134.119V240.64Z" fill="#3B434F"/>
<path d="M49.5795 123.246C49.5678 123.247 48.5319 122.42 46.5759 121.804C45.5983 121.497 44.3833 121.244 42.9985 121.182C42.6526 121.166 42.2967 121.163 41.9324 121.173C41.5682 121.183 41.1957 121.208 40.817 121.248C40.0598 121.329 39.2777 121.474 38.4907 121.701C35.3396 122.606 32.125 124.808 30.2371 129.352C29.2894 131.625 28.6642 134.483 28.4989 138.059C28.4576 138.953 28.445 139.892 28.4631 140.878C28.4812 141.864 28.5302 142.897 28.6119 143.979C28.7754 146.142 29.0705 148.502 29.5102 151.073C29.5006 151.07 29.1001 158.843 31.8788 167.774C34.491 176.506 40.7638 187.233 52.3456 190.298C51.0136 168.118 50.9722 145.523 49.5795 123.246Z" fill="white"/>
<path d="M50.9002 124.141C50.9002 124.141 30.7238 117.889 31.4338 138.631C31.4338 138.631 34.4377 168.709 35.7422 171.481C35.7422 171.481 43.666 188.993 56.7432 189.769C69.5242 190.527 56.7432 189.769 56.7432 189.769L56.9019 195.413C56.9019 195.413 33.9172 192.466 29.4779 165.979L25.974 141.916C25.974 141.916 23.2534 110.071 49.6435 118.168C75.3528 126.056 49.6435 118.168 49.6435 118.168L50.9002 124.141Z" fill="#3B434F"/>
<path d="M44.2406 165.928C44.2406 165.928 43.1115 166.781 42.1415 166.781C41.1715 166.781 40.0561 165.928 40.0561 165.928L37.9739 144.945C37.9739 144.945 40.8468 134.612 53.0377 140.073L53.3259 146.073C53.3259 146.073 42.6302 142.279 42.8514 147.003C43.0643 151.549 44.2406 165.928 44.2406 165.928Z" fill="#3B434F"/>
<path d="M246.586 123.295C246.598 123.296 247.638 122.47 249.602 121.854C250.584 121.547 251.805 121.294 253.196 121.232C253.543 121.217 253.9 121.213 254.266 121.223C254.632 121.234 255.006 121.258 255.387 121.298C256.147 121.379 256.933 121.525 257.723 121.751C260.888 122.656 264.117 124.856 266.013 129.397C266.965 131.668 267.593 134.524 267.759 138.098C267.8 138.992 267.813 139.93 267.795 140.915C267.776 141.9 267.727 142.932 267.645 144.014C267.481 146.176 267.185 148.534 266.743 151.103C266.753 151.101 267.155 158.868 264.364 167.793C261.74 176.519 255.44 187.238 243.807 190.301C245.145 168.137 245.187 145.557 246.586 123.295Z" fill="#F7FBFB"/>
<path d="M244.255 124.189C244.255 124.189 264.52 117.942 263.807 138.67C263.807 138.67 260.789 168.727 259.479 171.497C259.479 171.497 251.521 188.997 238.386 189.773C225.549 190.531 238.386 189.773 238.386 189.773L238.227 195.413C238.227 195.413 261.312 192.468 265.771 165.999L269.29 141.952C269.29 141.952 272.023 110.129 245.517 118.221C219.695 126.103 245.517 118.221 245.517 118.221L244.255 124.189Z" fill="#3B434F"/>
<path d="M250.944 165.948C250.944 165.948 252.078 166.801 253.052 166.801C254.026 166.801 255.146 165.948 255.146 165.948L257.238 144.98C257.238 144.98 254.352 134.653 242.108 140.11L241.819 146.106C241.819 146.106 252.561 142.315 252.339 147.036C252.125 151.579 250.944 165.948 250.944 165.948Z" fill="#3B434F"/>
<path d="M245.115 123.283C245.127 123.283 246.164 122.452 248.122 121.834C249.101 121.525 250.317 121.271 251.703 121.208C252.05 121.193 252.406 121.189 252.771 121.2C253.135 121.21 253.508 121.234 253.887 121.275C254.645 121.356 255.428 121.502 256.216 121.73C259.371 122.64 262.589 124.851 264.479 129.417C265.428 131.7 266.054 134.571 266.219 138.164C266.26 139.062 266.273 140.006 266.255 140.996C266.237 141.986 266.188 143.024 266.106 144.111C265.942 146.284 265.647 148.655 265.207 151.238C265.216 151.236 265.617 159.044 262.835 168.017C260.22 176.789 253.94 187.565 242.346 190.644C243.679 168.362 243.721 145.663 245.115 123.283Z" fill="white"/>
<path d="M244.695 124.189C244.695 124.189 264.96 117.942 264.247 138.67C264.247 138.67 261.23 168.727 259.919 171.497C259.919 171.497 251.961 188.997 238.826 189.773C225.989 190.531 238.826 189.773 238.826 189.773L238.667 195.413C238.667 195.413 261.752 192.468 266.211 165.999L269.73 141.952C269.73 141.952 272.463 110.129 245.957 118.221C220.135 126.103 245.957 118.221 245.957 118.221L244.695 124.189Z" fill="#3B434F"/>
<path d="M251.384 165.948H255.587L257.678 144.98C257.678 144.98 254.792 134.653 242.548 140.11L242.259 146.106C242.259 146.106 253.001 142.315 252.779 147.036C252.565 151.579 251.384 165.948 251.384 165.948Z" fill="#3B434F"/>
<path fill-rule="evenodd" clip-rule="evenodd" d="M155.666 164.267C156.163 164.267 156.661 164.267 157.159 164.267C160.246 168.46 161.503 174.903 163.132 180.48C163.637 182.208 163.147 185.231 162.706 186.453C161.088 190.929 156.008 190.849 151.826 192.853C150.702 193.392 149.867 194.321 148.412 194.56C147.464 193.725 146.319 193.561 145.852 192.213C144.7 190.627 146.185 189.636 147.346 189.013C149.452 187.884 155.954 186.77 156.732 184.747C157.696 183.651 157.055 180.357 156.732 179.2C155.906 176.238 155.509 173.765 154.386 171.093C153.639 169.319 152.329 167.448 153.106 165.333C153.749 165.057 155.139 164.743 155.666 164.267Z" fill="#3B434F"/>
<path d="M96.5723 131.413H102.546C105.845 131.413 108.519 134.088 108.519 137.387C108.519 140.686 105.845 143.36 102.546 143.36H96.5723C93.2733 143.36 90.599 140.686 90.599 137.387C90.599 134.088 93.2733 131.413 96.5723 131.413Z" fill="#3B434F"/>
<path d="M193.852 131.413H199.826C203.125 131.413 205.799 134.088 205.799 137.387C205.799 140.686 203.125 143.36 199.826 143.36H193.852C190.553 143.36 187.879 140.686 187.879 137.387C187.879 134.088 190.553 131.413 193.852 131.413Z" fill="#3B434F"/>
<path opacity="0.14902" d="M72.679 116.053H129.852C133.151 116.053 135.826 118.728 135.826 122.027V158.72C135.826 162.019 133.151 164.693 129.852 164.693H72.679C69.3801 164.693 66.7057 162.019 66.7057 158.72V122.027C66.7057 118.728 69.3801 116.053 72.679 116.053Z" fill="#3B434F"/>
<path opacity="0.14902" d="M164.839 116.053H222.012C225.311 116.053 227.986 118.728 227.986 122.027V158.72C227.986 162.019 225.311 164.693 222.012 164.693H164.839C161.54 164.693 158.866 162.019 158.866 158.72V122.027C158.866 118.728 161.54 116.053 164.839 116.053Z" fill="#3B434F"/>
<path fill-rule="evenodd" clip-rule="evenodd" d="M233.106 120.32V151.893C233.106 159.609 225.579 171.649 213.315 172.338C211.514 172.252 175.079 172.373 175.079 172.373C158.701 172.373 155.452 152.747 155.452 152.747V131.413H140.092V152.747C140.092 152.747 136.844 172.373 120.466 172.373C120.466 172.373 84.0311 172.252 82.2295 172.338C69.9654 171.649 62.439 159.609 62.439 151.893V120.32H48.7856V111.787H128.146C128.146 111.787 140.092 113.717 140.092 122.027H155.452C155.452 113.717 167.399 111.787 167.399 111.787H246.759V120.32H233.106ZM131.559 124.587C131.559 121.545 128.146 121.173 128.146 121.173H70.9723V151.04C70.9723 160.346 83.7723 163.84 83.7723 163.84H118.759C130.796 163.84 131.559 151.04 131.559 151.04C131.559 151.04 131.559 127.628 131.559 124.587ZM224.572 121.173H167.399C167.399 121.173 163.986 121.545 163.986 124.587C163.986 127.628 163.986 151.04 163.986 151.04C163.986 151.04 164.748 163.84 176.786 163.84H211.772C211.772 163.84 224.572 160.346 224.572 151.04V121.173ZM212.626 172.373C212.858 172.368 213.086 172.351 213.315 172.338C213.508 172.348 213.314 172.359 212.626 172.373ZM82.2295 172.338C82.4588 172.351 82.6863 172.368 82.919 172.373C82.2303 172.359 82.0366 172.348 82.2295 172.338Z" fill="#3B434F"/>
</svg>
