<svg width="321" height="438" viewBox="0 0 321 438" fill="none" xmlns="http://www.w3.org/2000/svg">
<path d="M320.853 324.978C300.458 414.186 196.064 379.249 160.427 364.427V364.333C124.789 379.166 20.3951 414.13 0 324.853C0 324.853 36.58 325.247 25.6 210.507C25.6 210.507 -14.0301 -16.7933 160.427 2.20531V2.57777C334.883 -16.4062 295.253 210.719 295.253 210.719C284.273 325.371 320.853 324.978 320.853 324.978Z" fill="#3B434F"/>
<path d="M17.7866 433.48C17.7866 433.48 11.1716 343.492 95.8667 335.093H133.84V317.6C133.84 317.6 160.552 329.073 187.6 318.88L188.453 335.093H232.827C232.827 335.093 308.812 338.078 305.36 434.333L17.7866 433.48Z" fill="white"/>
<path d="M306.102 437.067H21.5855H16.0676L17.445 413.537C20.1343 367.595 56.3318 332.533 97.755 332.533H129.28V337.227H100.27C60.3463 337.227 25.4593 370.975 22.8673 415.197L21.9106 431.52H305.35L304.82 415.197C302.228 370.975 267.341 337.227 227.418 337.227H188.587V332.533H229.679C271.103 332.533 307.3 367.595 309.989 413.537L311.367 437.067H306.102Z" fill="#3B434F"/>
<path d="M159.147 385.44C136.289 385.44 117.76 366.911 117.76 344.053C117.76 340.054 118.339 336.192 119.397 332.533H119.467H123.858H131.413V337.227H122.665C122.251 339.44 122.027 341.72 122.027 344.053C122.027 364.554 138.646 381.173 159.147 381.173C179.647 381.173 196.267 364.554 196.267 344.053C196.267 341.72 196.042 339.44 195.628 337.227H186.88V332.533H194.435H198.827H198.896C199.955 336.192 200.533 340.054 200.533 344.053C200.533 366.911 182.004 385.44 159.147 385.44Z" fill="#3B434F"/>
<path d="M134.827 315.626V341.941C134.827 355.597 145.906 366.667 159.573 366.667C173.241 366.667 184.32 355.597 184.32 341.941V316.169C185.756 315.732 187.179 315.257 188.587 314.744V342.12C188.587 358.269 175.501 371.36 159.36 371.36C143.219 371.36 130.133 358.269 130.133 342.12V313.934C131.679 314.545 133.245 315.107 134.827 315.626Z" fill="#3B434F"/>
<path d="M160.641 47.9467C213.719 47.9467 255.614 97.5479 254.251 157.145L252.804 220.486C251.52 276.632 210.272 321.013 160.641 321.013C111.011 321.013 69.7623 276.632 68.479 220.486L67.0312 157.145C65.669 97.5479 107.563 47.9467 160.641 47.9467Z" fill="white"/>
<path fill-rule="evenodd" clip-rule="evenodd" d="M258.516 155.181L256.999 221.095C255.654 279.523 212.433 325.707 160.428 325.707C108.423 325.707 65.2018 279.523 63.8571 221.095L62.34 155.181C60.9127 93.1629 104.811 41.5466 160.428 41.5466C216.045 41.5466 259.943 93.1629 258.516 155.181ZM160.215 48.3733C107.863 48.3733 66.541 97.587 67.8846 156.718L69.3126 219.565C70.5784 275.272 111.263 319.307 160.215 319.307C209.167 319.307 249.851 275.272 251.117 219.565L252.545 156.718C253.889 97.587 212.567 48.3733 160.215 48.3733Z" fill="#3B434F"/>
<path d="M206.507 258.806C198.751 265.54 181.235 271.947 160.853 271.947C140.472 271.947 122.955 265.54 115.2 258.806C115.2 258.806 114.407 256.623 115.571 255.458C116.756 254.273 118.613 254.531 118.613 254.531C126.36 261.269 140.464 266.827 160.853 266.827C181.242 266.827 195.346 261.269 203.093 254.531C203.093 254.531 204.988 253.827 205.909 254.747C207.682 256.52 206.507 258.806 206.507 258.806Z" fill="#3B434F"/>
<path d="M146.773 282.187H174.08V286.453H146.773V282.187Z" fill="#3B434F"/>
<path d="M62.2338 164.793C62.2221 164.794 61.1862 163.967 59.2302 163.351C58.2526 163.043 57.0376 162.791 55.6528 162.728C55.3069 162.713 54.951 162.709 54.5867 162.719C54.2225 162.73 53.85 162.754 53.4713 162.795C52.7141 162.875 51.932 163.021 51.145 163.247C47.9939 164.153 44.7793 166.355 42.8914 170.899C41.9437 173.171 41.3185 176.03 41.1532 179.606C41.1119 180.5 41.0993 181.439 41.1174 182.425C41.1355 183.411 41.1845 184.443 41.2662 185.525C41.4297 187.689 41.7248 190.048 42.1645 192.62C42.1549 192.617 41.7544 200.39 44.5331 209.321C47.1453 218.053 53.4181 228.779 64.9999 231.844C63.6679 209.665 63.6265 187.07 62.2338 164.793Z" fill="white"/>
<path d="M63.5545 165.687C63.5545 165.687 43.3781 159.436 44.0881 180.178C44.0881 180.178 47.092 210.255 48.3965 213.027C48.3965 213.027 56.3203 230.539 69.3975 231.316C82.1785 232.074 69.3975 231.316 69.3975 231.316L69.5562 236.96C69.5562 236.96 46.5715 234.013 42.1322 207.525L38.6283 183.463C38.6283 183.463 35.9077 151.618 62.2978 159.715C88.0071 167.603 62.2978 159.715 62.2978 159.715L63.5545 165.687Z" fill="#3B434F"/>
<path d="M56.8949 207.475C56.8949 207.475 55.7658 208.328 54.7958 208.328C53.8258 208.328 52.7104 207.475 52.7104 207.475L50.6282 186.492C50.6282 186.492 53.5011 176.159 65.692 181.62L65.9802 187.619C65.9802 187.619 55.2845 183.826 55.5057 188.549C55.7186 193.096 56.8949 207.475 56.8949 207.475Z" fill="#3B434F"/>
<path d="M258.24 164.842C258.252 164.843 259.292 164.016 261.257 163.401C262.239 163.094 263.459 162.841 264.85 162.779C265.197 162.763 265.555 162.76 265.921 162.77C266.286 162.78 266.661 162.805 267.041 162.845C267.801 162.926 268.587 163.071 269.377 163.297C272.542 164.202 275.771 166.403 277.667 170.944C278.619 173.215 279.247 176.071 279.413 179.645C279.454 180.538 279.467 181.477 279.449 182.462C279.431 183.447 279.382 184.479 279.299 185.56C279.135 187.722 278.839 190.08 278.397 192.65C278.407 192.647 278.809 200.415 276.018 209.34C273.395 218.066 267.094 228.785 255.462 231.848C256.8 209.684 256.841 187.104 258.24 164.842Z" fill="white"/>
<path d="M256.909 165.736C256.909 165.736 277.174 159.488 276.461 180.217C276.461 180.217 273.444 210.273 272.134 213.044C272.134 213.044 264.175 230.544 251.041 231.319C238.204 232.077 251.041 231.319 251.041 231.319L250.881 236.96C250.881 236.96 273.967 234.015 278.425 207.545L281.945 183.499C281.945 183.499 284.677 151.676 258.171 159.767C232.35 167.65 258.171 159.767 258.171 159.767L256.909 165.736Z" fill="#3B434F"/>
<path d="M263.598 207.495C263.598 207.495 264.732 208.348 265.706 208.348C266.681 208.348 267.801 207.495 267.801 207.495L269.892 186.526C269.892 186.526 267.007 176.2 254.762 181.657L254.473 187.653C254.473 187.653 265.215 183.862 264.993 188.582C264.779 193.126 263.598 207.495 263.598 207.495Z" fill="#3B434F"/>
<path fill-rule="evenodd" clip-rule="evenodd" d="M168.32 205.813C168.818 205.813 169.316 205.813 169.813 205.813C172.901 210.006 174.157 216.45 175.787 222.027C176.292 223.755 175.802 226.778 175.36 228C173.742 232.476 168.662 232.395 164.48 234.4C163.357 234.938 162.521 235.868 161.067 236.107C160.118 235.271 158.973 235.107 158.507 233.76C157.354 232.173 158.839 231.182 160 230.56C162.106 229.43 168.608 228.317 169.387 226.293C170.35 225.198 169.709 221.903 169.387 220.747C168.56 217.785 168.163 215.312 167.04 212.64C166.294 210.866 164.984 208.995 165.76 206.88C166.403 206.604 167.793 206.29 168.32 205.813Z" fill="#3B434F"/>
<path d="M106.24 175.691H121.6C123.721 175.691 125.44 177.754 125.44 180.299C125.44 182.844 123.721 184.907 121.6 184.907H106.24C104.119 184.907 102.4 182.844 102.4 180.299C102.4 177.754 104.119 175.691 106.24 175.691Z" fill="#3B434F"/>
<path d="M200.107 174.667H215.467C217.587 174.667 219.307 176.73 219.307 179.275C219.307 181.82 217.587 183.883 215.467 183.883H200.107C197.986 183.883 196.267 181.82 196.267 179.275C196.267 176.73 197.986 174.667 200.107 174.667Z" fill="#3B434F"/>
<path d="M212.053 201.12C217.944 201.12 222.72 205.896 222.72 211.787C222.72 217.678 217.944 222.453 212.053 222.453C206.162 222.453 201.387 217.678 201.387 211.787C201.387 205.896 206.162 201.12 212.053 201.12Z" fill="#EDF1F1"/>
<path d="M108.8 201.12C114.691 201.12 119.467 205.896 119.467 211.787C119.467 217.678 114.691 222.453 108.8 222.453C102.909 222.453 98.1333 217.678 98.1333 211.787C98.1333 205.896 102.909 201.12 108.8 201.12Z" fill="#EDF1F1"/>
<path fill-rule="evenodd" clip-rule="evenodd" d="M245.76 161.867V193.44C245.76 201.156 238.234 213.195 225.969 213.885C224.168 213.799 187.733 213.92 187.733 213.92C171.355 213.92 168.107 194.293 168.107 194.293V172.96H152.747V194.293C152.747 194.293 149.498 213.92 133.12 213.92C133.12 213.92 96.6854 213.799 94.8838 213.885C82.6197 213.195 75.0933 201.156 75.0933 193.44V161.867H61.4399V153.333H140.8C140.8 153.333 152.747 155.263 152.747 163.573H168.107C168.107 155.263 180.053 153.333 180.053 153.333H259.413V161.867H245.76ZM144.213 166.133C144.213 163.092 140.8 162.72 140.8 162.72H83.6266V192.587C83.6266 201.892 96.4266 205.387 96.4266 205.387H131.413C143.451 205.387 144.213 192.587 144.213 192.587C144.213 192.587 144.213 169.175 144.213 166.133ZM237.227 162.72H180.053C180.053 162.72 176.64 163.092 176.64 166.133C176.64 169.175 176.64 192.587 176.64 192.587C176.64 192.587 177.402 205.387 189.44 205.387H224.427C224.427 205.387 237.227 201.892 237.227 192.587V162.72ZM225.28 213.92C225.513 213.915 225.74 213.898 225.969 213.885C226.162 213.894 225.969 213.906 225.28 213.92ZM94.8838 213.885C95.1131 213.898 95.3406 213.915 95.5733 213.92C94.8846 213.906 94.6909 213.894 94.8838 213.885Z" fill="#3B434F"/>
<path fill-rule="evenodd" clip-rule="evenodd" d="M160.427 94.4894V0.0108032C160.711 0.00860622 160.995 0 161.28 0C221.133 0 269.653 48.5204 269.653 108.373V143.203C269.632 144.417 269.63 145.608 269.653 146.773C269.653 146.773 169.005 119.553 160.427 94.4894ZM51.2 146.773C51.2228 145.608 51.2217 144.417 51.2 143.203V108.373C51.2 48.5204 99.7203 0 159.573 0C159.859 0 160.142 0.00860622 160.427 0.0108032V94.4894C151.849 119.553 51.2 146.773 51.2 146.773Z" fill="#3B434F"/>
</svg>
