<svg width="296" height="422" viewBox="0 0 296 422" fill="none" xmlns="http://www.w3.org/2000/svg">
<path d="M2.77238 420.407C2.77238 420.407 -7.5295 330.096 81.2124 320.021H119.186V302.527C119.186 302.527 145.897 314.001 172.946 303.807L173.799 320.021H218.172C218.172 320.021 295.446 327.735 290.772 420.407H2.77238Z" fill="white"/>
<path d="M134.772 367.407L146.772 354.407L159.772 367.407L152.772 374.407L163.772 419.407H129.772L141.772 374.407L134.772 367.407Z" fill="#3B434F"/>
<path d="M290.034 421.994H5.51788H0L1.37735 398.464C4.06665 352.522 40.2642 317.461 81.6873 317.461H119.186V322.154H84.2021C44.2787 322.154 9.39166 355.902 6.79971 400.124L5.84299 416.447H289.283L288.752 400.124C286.16 355.902 251.273 322.154 211.35 322.154H175.932V317.461H213.612C255.035 317.461 291.232 352.522 293.922 398.464L295.299 421.994H290.034Z" fill="#3B434F"/>
<path d="M122.172 300.553V326.869C122.172 340.524 133.252 351.594 146.919 351.594C160.586 351.594 171.666 340.524 171.666 326.869V301.096C173.102 300.659 174.524 300.184 175.932 299.672V327.048C175.932 343.196 162.847 356.287 146.706 356.287C130.564 356.287 117.479 343.196 117.479 327.048V298.861C119.025 299.472 120.591 300.035 122.172 300.553Z" fill="#3B434F"/>
<path d="M223.492 373.897L211.407 399.104C210.796 400.379 209.267 400.917 207.992 400.305C206.717 399.694 206.179 398.165 206.79 396.89L218.462 372.545L209.342 356.749C208.635 355.524 209.055 353.959 210.279 353.252C211.503 352.545 213.069 352.964 213.776 354.189L223.589 371.186C224.095 372.062 224.022 373.111 223.492 373.897Z" fill="#3B434F"/>
<path d="M70.1347 373.921L82.2849 399.206C82.8994 400.485 84.4366 401.024 85.7183 400.411C87.0001 399.798 87.541 398.264 86.9264 396.985L75.1918 372.566L84.3609 356.721C85.0716 355.492 84.6498 353.922 83.4189 353.213C82.1878 352.504 80.6138 352.924 79.9031 354.153L70.0371 371.202C69.5287 372.081 69.6024 373.133 70.1347 373.921Z" fill="#3B434F"/>
<path d="M117.479 316.607H122.172V420.287H117.479V316.607Z" fill="#3B434F"/>
<path d="M171.666 317.461H176.359V421.141H171.666V317.461Z" fill="#3B434F"/>
<path fill-rule="evenodd" clip-rule="evenodd" d="M162.472 420.097L150.378 374.962L152.892 374.207L154.56 372.436L167.351 420.173L162.472 420.097ZM128.357 419.564L140.983 372.655L141.799 373.354L144.359 375.061L145.203 375.145L133.227 419.64L128.357 419.564Z" fill="#3B434F"/>
<path fill-rule="evenodd" clip-rule="evenodd" d="M175.918 380.195L172.599 383.514L159.686 370.6C157.194 374.558 152.795 377.194 147.772 377.194C142.547 377.194 137.997 374.341 135.567 370.114L122.088 383.594L118.76 380.266L145.299 353.727L147.375 351.803L149.45 353.727L175.918 380.195ZM138.178 367.504C139.879 370.968 143.439 373.354 147.559 373.354C151.587 373.354 155.073 371.071 156.818 367.732L147.383 358.298L138.178 367.504Z" fill="#3B434F"/>
<path d="M147.779 41.834C201.809 41.834 242.91 89.2177 240.711 143.437L237.726 217.017C229.271 266.972 194.831 303.038 148.156 308.074C102.627 303.289 67.5114 266.959 57.8326 217.017L54.8481 143.437C52.6489 89.2177 93.75 41.834 147.779 41.834Z" fill="white"/>
<path fill-rule="evenodd" clip-rule="evenodd" d="M246.679 140.316L243.503 217.198C234.504 269.394 197.849 307.078 148.174 312.341C99.7171 307.341 62.3438 269.381 52.0426 217.198L48.8662 140.316C46.5256 83.6639 90.2694 34.1541 147.773 34.1541C205.276 34.1541 249.02 83.6639 246.679 140.316ZM147.779 40.1274C93.7499 40.1274 52.6488 87.5111 54.848 141.731L57.8325 215.31C67.5114 265.253 102.627 301.583 148.156 306.367C194.831 301.331 229.271 265.265 237.726 215.31L240.71 141.731C242.91 87.5111 201.809 40.1274 147.779 40.1274Z" fill="#3B434F"/>
<path d="M193.852 243.733C186.097 250.467 168.58 256.874 148.199 256.874C127.818 256.874 110.301 250.467 102.546 243.733C102.546 243.733 101.752 241.55 102.916 240.386C104.102 239.2 105.959 239.458 105.959 239.458C113.706 246.197 127.81 251.754 148.199 251.754C168.588 251.754 182.692 246.197 190.439 239.458C190.439 239.458 192.334 238.754 193.255 239.675C195.028 241.448 193.852 243.733 193.852 243.733Z" fill="#3B434F"/>
<path d="M134.119 267.114H161.426V271.381H134.119V267.114Z" fill="#3B434F"/>
<path d="M49.5796 149.721C49.5678 149.721 48.532 148.894 46.576 148.278C45.5984 147.971 44.3834 147.718 42.9985 147.656C42.6527 147.64 42.2967 147.637 41.9325 147.647C41.5683 147.657 41.1957 147.682 40.8171 147.722C40.0599 147.803 39.2778 147.948 38.4908 148.175C35.3396 149.08 32.1251 151.282 30.2372 155.827C29.2895 158.099 28.6643 160.957 28.499 164.533C28.4576 165.427 28.445 166.366 28.4631 167.352C28.4813 168.338 28.5303 169.371 28.612 170.453C28.7754 172.616 29.0705 174.976 29.5102 177.547C29.5006 177.545 29.1001 185.317 31.8788 194.248C34.4911 202.98 40.7639 213.707 52.3457 216.772C51.0137 194.592 50.9723 171.997 49.5796 149.721Z" fill="white"/>
<path d="M50.9002 150.615C50.9002 150.615 30.7238 144.363 31.4338 165.105C31.4338 165.105 34.4377 195.183 35.7422 197.955C35.7422 197.955 43.666 215.467 56.7432 216.243C69.5242 217.001 56.7432 216.243 56.7432 216.243L56.9019 221.887C56.9019 221.887 33.9172 218.94 29.4779 192.453L25.974 168.39C25.974 168.39 23.2534 136.545 49.6435 144.642C75.3528 152.53 49.6435 144.642 49.6435 144.642L50.9002 150.615Z" fill="#3B434F"/>
<path d="M44.2406 192.402C44.2406 192.402 43.1115 193.256 42.1415 193.256C41.1715 193.256 40.0561 192.402 40.0561 192.402L37.9739 171.419C37.9739 171.419 40.8468 161.086 53.0377 166.547L53.3259 172.547C53.3259 172.547 42.6302 168.753 42.8514 173.477C43.0643 178.023 44.2406 192.402 44.2406 192.402Z" fill="#3B434F"/>
<path d="M245.586 149.769C245.598 149.77 246.638 148.943 248.602 148.328C249.584 148.021 250.805 147.768 252.196 147.706C252.543 147.691 252.9 147.687 253.266 147.697C253.632 147.708 254.006 147.732 254.387 147.772C255.147 147.853 255.933 147.998 256.723 148.225C259.888 149.13 263.117 151.33 265.013 155.871C265.965 158.142 266.593 160.998 266.759 164.572C266.8 165.466 266.813 166.404 266.795 167.389C266.776 168.374 266.727 169.406 266.645 170.487C266.481 172.65 266.185 175.008 265.743 177.577C265.753 177.575 266.155 185.342 263.364 194.267C260.74 202.993 254.44 213.712 242.807 216.775C244.145 194.611 244.187 172.031 245.586 149.769Z" fill="white"/>
<path d="M244.255 150.663C244.255 150.663 264.52 144.416 263.807 165.144C263.807 165.144 260.789 195.201 259.479 197.971C259.479 197.971 251.521 215.471 238.386 216.247C225.549 217.005 238.386 216.247 238.386 216.247L238.227 221.887C238.227 221.887 261.312 218.942 265.771 192.473L269.29 168.426C269.29 168.426 272.023 136.603 245.517 144.695C219.695 152.577 245.517 144.695 245.517 144.695L244.255 150.663Z" fill="#3B434F"/>
<path d="M250.944 192.422C250.944 192.422 252.078 193.275 253.052 193.275C254.026 193.275 255.146 192.422 255.146 192.422L257.238 171.454C257.238 171.454 254.352 161.127 242.108 166.584L241.819 172.58C241.819 172.58 252.561 168.789 252.339 173.51C252.125 178.053 250.944 192.422 250.944 192.422Z" fill="#3B434F"/>
<path fill-rule="evenodd" clip-rule="evenodd" d="M155.666 190.741C156.163 190.741 156.661 190.741 157.159 190.741C160.246 194.934 161.503 201.377 163.132 206.954C163.637 208.682 163.147 211.705 162.706 212.927C161.088 217.403 156.008 217.323 151.826 219.327C150.702 219.866 149.867 220.795 148.412 221.034C147.464 220.199 146.319 220.035 145.852 218.687C144.7 217.101 146.185 216.11 147.346 215.487C149.452 214.358 155.954 213.244 156.732 211.221C157.696 210.125 157.055 206.831 156.732 205.674C155.906 202.712 155.509 200.239 154.386 197.567C153.639 195.793 152.329 193.922 153.106 191.807C153.749 191.531 155.139 191.217 155.666 190.741Z" fill="#3B434F"/>
<path d="M96.5723 157.887H102.546C105.845 157.887 108.519 160.562 108.519 163.861C108.519 167.16 105.845 169.834 102.546 169.834H96.5723C93.2733 169.834 90.599 167.16 90.599 163.861C90.599 160.562 93.2733 157.887 96.5723 157.887Z" fill="#3B434F"/>
<path d="M193.852 157.887H199.826C203.125 157.887 205.799 160.562 205.799 163.861C205.799 167.16 203.125 169.834 199.826 169.834H193.852C190.553 169.834 187.879 167.16 187.879 163.861C187.879 160.562 190.553 157.887 193.852 157.887Z" fill="#3B434F"/>
<path d="M100.412 186.047C108.66 186.047 115.346 186.521 115.346 195.861C115.346 205.495 108.66 205.674 100.412 205.674C92.1649 205.674 85.479 203.919 85.479 195.861C85.479 186.447 92.1649 186.047 100.412 186.047Z" fill="#F5F3EF"/>
<path d="M199.399 186.047C207.646 186.047 214.332 186.521 214.332 195.861C214.332 205.495 207.646 205.674 199.399 205.674C191.152 205.674 184.466 203.919 184.466 195.861C184.466 186.447 191.152 186.047 199.399 186.047Z" fill="#F5F3EF"/>
<path d="M175.099 142.848C175.099 142.848 200.644 128.243 218.892 144.334L223.719 145.083C223.719 145.083 217.537 122.585 172.519 137.214L173.772 141.407M174.772 141.407C174.772 141.407 200.76 126.481 217.892 145.334L226.719 145.083C226.719 145.083 215.71 121.051 170.519 136.214L174.772 142.407" fill="#3B434F"/>
<path d="M120.211 142.933C120.211 142.933 94.7513 128.457 76.5639 144.406L71.7532 145.147C71.7532 145.147 77.915 122.849 122.782 137.348L121.533 141.505M120.536 141.505C120.536 141.505 94.636 126.71 77.5606 145.397L68.7632 145.147C68.7632 145.147 79.7351 121.328 124.776 136.357L120.536 142.496" fill="#3B434F"/>
<path d="M57.4096 133.972C57.4096 133.972 85.5028 119.728 82.3977 70.7493C82.3977 70.7493 127.338 119.991 235.666 104.981L240.786 151.061C240.786 151.061 304.468 33.0608 190.439 5.99402C78.8477 -20.4943 77.5613 49.3904 77.5613 49.3904C77.5613 49.3904 43.3397 44.2766 40.4822 77.5841C37.6247 110.892 47.9324 145.941 47.9324 145.941L56.4657 152.767L57.4096 133.972Z" fill="#3B434F"/>
</svg>
