<svg width="296" height="413" viewBox="0 0 296 413" fill="none" xmlns="http://www.w3.org/2000/svg">
<path d="M15.8586 345.439C15.8586 345.439 33.9818 218.71 27.3665 159.296C20.7097 99.5094 39.4587 0 157.514 0C261.632 0 273.26 113.913 270.782 134.95C268.023 158.368 247.16 306.093 271.179 357.742C294.934 408.822 194.342 388.227 194.342 388.227L59.3496 385.476L15.8586 345.439Z" fill="#3B434F"/>
<path d="M3.13234 408.933C3.13234 408.933 -3.48265 318.945 81.2124 310.547H119.186V293.053C119.186 293.053 145.897 304.527 172.946 294.333L173.799 310.547H218.172C218.172 310.547 294.158 313.531 290.706 409.787L3.13234 408.933Z" fill="white"/>
<path d="M2.77232 410.933C2.77232 410.933 -7.52956 320.622 81.2123 310.547H119.186V293.053C119.186 293.053 145.897 304.527 172.946 294.333L173.799 310.547H218.172C218.172 310.547 295.446 318.261 290.772 410.933H2.77232Z" fill="white"/>
<path d="M290.034 412.52H5.51788H0L1.37735 388.99C4.06665 343.048 40.2642 307.987 81.6873 307.987H113.212V312.68H84.2021C44.2787 312.68 9.39166 346.428 6.79971 390.65L5.84299 406.973H289.283L288.752 390.65C286.16 346.428 251.273 312.68 211.35 312.68H172.519V307.987H213.612C255.035 307.987 291.232 343.048 293.922 388.99L295.299 412.52H290.034Z" fill="#3B434F"/>
<path d="M123.452 291.079V317.394C123.452 331.05 134.532 342.12 148.199 342.12C161.866 342.12 172.946 331.05 172.946 317.394V291.622C174.382 291.185 175.804 290.71 177.212 290.197V317.574C177.212 333.722 164.127 346.813 147.986 346.813C131.844 346.813 118.759 333.722 118.759 317.574V289.387C120.305 289.998 121.871 290.56 123.452 291.079Z" fill="#3B434F"/>
<path d="M118.546 341.693C120.077 341.693 121.319 342.935 121.319 344.467V386.28C121.319 387.812 120.077 389.053 118.546 389.053C117.014 389.053 115.772 387.812 115.772 386.28V344.467C115.772 342.935 117.014 341.693 118.546 341.693Z" fill="#3B434F"/>
<path d="M176.786 341.267C178.435 341.267 179.772 342.604 179.772 344.253V370.28C179.772 371.93 178.435 373.267 176.786 373.267C175.136 373.267 173.799 371.93 173.799 370.28V344.253C173.799 342.604 175.136 341.267 176.786 341.267Z" fill="#3B434F"/>
<path d="M118.546 386.067C119.37 386.067 120.039 386.735 120.039 387.56V398.227C120.039 399.051 119.37 399.72 118.546 399.72C117.721 399.72 117.052 399.051 117.052 398.227V387.56C117.052 386.735 117.721 386.067 118.546 386.067Z" fill="#3B434F"/>
<path d="M176.999 370.28C177.824 370.28 178.492 370.949 178.492 371.773V382.44C178.492 383.265 177.824 383.933 176.999 383.933C176.174 383.933 175.506 383.265 175.506 382.44V371.773C175.506 370.949 176.174 370.28 176.999 370.28Z" fill="#3B434F"/>
<path d="M102.538 280.579L75.5142 286.785C75.5142 286.785 42.4212 294.281 64.438 316.584C86.4548 338.888 143.079 342.827 143.079 342.827C143.079 342.827 128.108 335.735 121.746 325.76L119.612 289.92L102.538 280.579Z" fill="#F5F3EF"/>
<path fill-rule="evenodd" clip-rule="evenodd" d="M143.932 344.96C142.256 347.082 95.1057 345.623 62.439 317.227C38.7864 296.666 74.3857 284.8 74.3857 284.8L100.412 278.827L123.026 290.347L124.732 324.907C134.252 339.833 146.632 341.543 143.932 344.96ZM120.466 326.613L117.906 290.347L104.252 282.667L78.2257 289.067C78.2257 289.067 46.7008 295.531 66.7057 314.24C88.295 334.43 128.234 339.849 132.412 339.413C136.743 338.962 129.985 341.54 120.466 326.613Z" fill="#3B434F"/>
<path d="M193.832 281.585L220.871 287.809C220.871 287.809 253.984 295.327 231.954 317.697C209.924 340.068 153.266 344.018 153.266 344.018C153.266 344.018 168.247 336.906 174.612 326.901L176.747 290.953L193.832 281.585Z" fill="#F5F3EF"/>
<path fill-rule="evenodd" clip-rule="evenodd" d="M152.413 345.731C154.09 347.86 201.268 346.396 233.954 317.915C257.621 297.293 222 285.391 222 285.391L195.958 279.4L173.332 290.954L171.624 325.618C162.099 340.589 149.712 342.305 152.413 345.731ZM175.893 327.33L178.455 290.954L192.116 283.252L218.158 289.671C218.158 289.671 249.702 296.155 229.685 314.919C208.083 335.17 168.12 340.605 163.939 340.168C159.606 339.715 166.368 342.301 175.893 327.33Z" fill="#3B434F"/>
<path d="M147.987 23.4C201.065 23.4 242.959 73.0013 241.597 132.598L240.149 195.939C238.866 252.086 197.618 296.467 147.987 296.467C98.3562 296.467 57.108 252.086 55.8247 195.939L54.3769 132.598C53.0147 73.0013 94.9091 23.4 147.987 23.4Z" fill="white"/>
<path fill-rule="evenodd" clip-rule="evenodd" d="M245.862 130.634L244.345 196.549C243 254.976 199.779 301.16 147.774 301.16C95.7688 301.16 52.5475 254.976 51.2028 196.549L49.6857 130.634C48.2584 68.6163 92.1568 17 147.774 17C203.391 17 247.289 68.6163 245.862 130.634ZM147.561 23.8267C95.2084 23.8267 53.8867 73.0404 55.2303 132.172L56.6583 195.018C57.9241 250.726 98.6084 294.76 147.561 294.76C196.513 294.76 237.197 250.726 238.463 195.018L239.891 132.172C241.235 73.0404 199.913 23.8267 147.561 23.8267Z" fill="#3B434F"/>
<path d="M193.852 234.259C186.097 240.993 168.58 247.4 148.199 247.4C127.818 247.4 110.301 240.993 102.546 234.259C102.546 234.259 101.752 232.076 102.916 230.912C104.102 229.726 105.959 229.984 105.959 229.984C113.706 236.723 127.81 242.28 148.199 242.28C168.588 242.28 182.692 236.723 190.439 229.984C190.439 229.984 192.334 229.28 193.255 230.201C195.028 231.974 193.852 234.259 193.852 234.259Z" fill="#3B434F"/>
<path d="M134.119 257.64H161.426V261.907H134.119V257.64Z" fill="#3B434F"/>
<path d="M48.5795 140.246C48.5678 140.247 47.5319 139.42 45.5759 138.804C44.5983 138.497 43.3833 138.244 41.9985 138.182C41.6526 138.166 41.2967 138.162 40.9324 138.173C40.5682 138.183 40.1957 138.208 39.817 138.248C39.0598 138.329 38.2777 138.474 37.4907 138.701C34.3396 139.606 31.125 141.808 29.2371 146.352C28.2894 148.625 27.6642 151.483 27.4989 155.059C27.4576 155.953 27.445 156.892 27.4631 157.878C27.4812 158.864 27.5302 159.897 27.6119 160.979C27.7754 163.142 28.0705 165.502 28.5102 168.073C28.5006 168.07 28.1001 175.843 30.8788 184.774C33.491 193.506 39.7638 204.233 51.3456 207.298C50.0136 185.118 49.9722 162.523 48.5795 140.246Z" fill="white"/>
<path d="M50.9002 141.141C50.9002 141.141 30.7238 134.889 31.4339 155.631C31.4339 155.631 34.4378 185.709 35.7422 188.481C35.7422 188.481 43.666 205.993 56.7432 206.769C69.5242 207.527 56.7432 206.769 56.7432 206.769L56.9019 212.413C56.9019 212.413 33.9173 209.466 29.4779 182.979L25.9741 158.916C25.9741 158.916 23.2534 127.071 49.6435 135.168C75.3528 143.056 49.6435 135.168 49.6435 135.168L50.9002 141.141Z" fill="#3B434F"/>
<path d="M44.2407 182.928C44.2407 182.928 43.1115 183.781 42.1415 183.781C41.1715 183.781 40.0561 182.928 40.0561 182.928L37.9739 161.945C37.9739 161.945 40.8468 151.612 53.0377 157.073L53.3259 163.072C53.3259 163.072 42.6302 159.279 42.8514 164.003C43.0643 168.549 44.2407 182.928 44.2407 182.928Z" fill="#3B434F"/>
<path d="M245.586 140.296C245.598 140.296 246.638 139.47 248.603 138.854C249.584 138.547 250.805 138.295 252.196 138.232C252.543 138.217 252.901 138.213 253.266 138.223C253.632 138.234 254.006 138.258 254.387 138.298C255.147 138.379 255.933 138.525 256.723 138.751C259.888 139.656 263.117 141.856 265.013 146.397C265.965 148.668 266.593 151.524 266.759 155.098C266.8 155.992 266.813 156.93 266.795 157.915C266.776 158.9 266.727 159.933 266.645 161.014C266.481 163.176 266.185 165.534 265.743 168.103C265.753 168.101 266.155 175.868 263.364 184.793C260.74 193.519 254.44 204.238 242.808 207.301C244.145 185.137 244.187 162.557 245.586 140.296Z" fill="white"/>
<path d="M244.255 141.189C244.255 141.189 264.52 134.942 263.807 155.67C263.807 155.67 260.79 185.727 259.479 188.497C259.479 188.497 251.521 205.997 238.386 206.773C225.549 207.531 238.386 206.773 238.386 206.773L238.227 212.413C238.227 212.413 261.312 209.468 265.771 182.999L269.29 158.952C269.29 158.952 272.023 127.129 245.517 135.221C219.695 143.103 245.517 135.221 245.517 135.221L244.255 141.189Z" fill="#3B434F"/>
<path d="M250.944 182.948C250.944 182.948 252.078 183.801 253.052 183.801C254.026 183.801 255.147 182.948 255.147 182.948L257.238 161.98C257.238 161.98 254.352 151.653 242.108 157.11L241.819 163.106C241.819 163.106 252.561 159.315 252.339 164.036C252.125 168.579 250.944 182.948 250.944 182.948Z" fill="#3B434F"/>
<path fill-rule="evenodd" clip-rule="evenodd" d="M155.666 181.267C156.163 181.267 156.661 181.267 157.159 181.267C160.246 185.46 161.503 191.903 163.132 197.48C163.637 199.208 163.147 202.231 162.706 203.453C161.088 207.929 156.008 207.849 151.826 209.853C150.702 210.392 149.867 211.321 148.412 211.56C147.464 210.725 146.319 210.561 145.852 209.213C144.7 207.627 146.185 206.636 147.346 206.013C149.452 204.884 155.954 203.77 156.732 201.747C157.696 200.651 157.055 197.357 156.732 196.2C155.906 193.238 155.509 190.765 154.386 188.093C153.64 186.319 152.329 184.448 153.106 182.333C153.749 182.057 155.139 181.743 155.666 181.267Z" fill="#3B434F"/>
<path d="M100.839 145C105.552 145 109.372 148.82 109.372 153.533C109.372 158.246 105.552 162.067 100.839 162.067C96.1262 162.067 92.3057 158.246 92.3057 153.533C92.3057 148.82 96.1262 145 100.839 145Z" fill="#3B434F"/>
<path d="M195.559 145C200.272 145 204.092 148.82 204.092 153.533C204.092 158.246 200.272 162.067 195.559 162.067C190.846 162.067 187.026 158.246 187.026 153.533C187.026 148.82 190.846 145 195.559 145Z" fill="#3B434F"/>
<path d="M100.412 176.573C108.66 176.573 115.346 177.047 115.346 186.387C115.346 196.021 108.66 196.2 100.412 196.2C92.1649 196.2 85.479 194.445 85.479 186.387C85.479 176.973 92.1649 176.573 100.412 176.573Z" fill="#F5F3EF"/>
<path d="M199.399 176.573C207.646 176.573 214.332 177.047 214.332 186.387C214.332 196.021 207.646 196.2 199.399 196.2C191.152 196.2 184.466 194.445 184.466 186.387C184.466 176.973 191.152 176.573 199.399 176.573Z" fill="#F5F3EF"/>
<path d="M170.772 129.543L173.244 132.683L174.777 134.628C174.777 134.628 201.927 119.636 220.772 136.933L222.781 137.918C222.781 137.918 218.139 112.842 177.5 127.51C175.356 128.091 173.119 128.763 170.772 129.543Z" fill="#3B434F"/>
<path d="M123.772 129.561L121.301 132.694L119.768 134.635C119.768 134.635 92.6172 119.674 73.7723 136.935L71.7632 137.918C71.7632 137.918 76.4056 112.894 117.045 127.531C119.189 128.112 121.426 128.782 123.772 129.561Z" fill="#3B434F"/>
<path d="M53.0523 130.92C53.0523 130.92 53.1649 155.798 53.479 155.24C56.3375 150.164 52.7024 92.042 134.546 93.8C180.174 94.7801 187.026 67.1334 187.026 67.1334C187.026 67.1334 198.776 71.72 216.892 90.3867C236.314 110.398 239.932 135.613 239.932 135.613L255.719 78.44L197.266 17.8533L153.746 15.2933L115.772 21.2667L87.6123 34.4933L56.4657 74.1733" fill="#3B434F"/>
</svg>
