<svg width="296" height="425" viewBox="0 0 296 425" fill="none" xmlns="http://www.w3.org/2000/svg">
<path d="M3.77235 423.281C3.77235 423.281 -8.21661 330.824 84.199 322.468H106.386C106.386 322.468 113.647 317.774 118.759 317.774V304.548C118.759 304.548 146.452 318.356 175.079 304.974V316.921C175.079 316.921 176.296 314.634 188.732 322.894H222.012C222.012 322.894 292.772 331.623 292.772 423.281H3.77235Z" fill="white"/>
<path fill-rule="evenodd" clip-rule="evenodd" d="M290.034 424.868H5.51788H0L1.37735 401.338C4.06665 355.396 40.2642 320.334 81.6873 320.334H110.171C108.323 321.863 106.969 323.448 105.995 325.028H84.2021C44.2787 325.028 9.39166 358.776 6.79971 402.998L5.84299 419.321H289.283L288.752 402.998C286.16 358.776 251.273 325.028 211.35 325.028H189.538C188.704 323.459 187.518 321.874 185.862 320.334H213.612C255.035 320.334 291.232 355.396 293.922 401.338L295.299 424.868H290.034ZM177.423 325.028H175.932V320.334H177.588C177.489 321.554 177.426 323.091 177.423 325.028ZM117.412 320.334H119.186V325.028H117.652C117.629 323.034 117.538 321.505 117.412 320.334Z" fill="#3B434F"/>
<path d="M160.999 385.614C162.648 385.614 163.986 386.951 163.986 388.601C163.986 390.25 162.648 391.588 160.999 391.588C159.35 391.588 158.012 390.25 158.012 388.601C158.012 386.951 159.35 385.614 160.999 385.614Z" fill="#3B434F"/>
<path d="M160.999 405.241C162.648 405.241 163.986 406.578 163.986 408.228C163.986 409.877 162.648 411.214 160.999 411.214C159.35 411.214 158.012 409.877 158.012 408.228C158.012 406.578 159.35 405.241 160.999 405.241Z" fill="#3B434F"/>
<path fill-rule="evenodd" clip-rule="evenodd" d="M195.559 345.508L173.799 377.934C167.88 359.587 150.759 366.414 150.759 366.414V420.602C150.759 422.015 149.422 423.161 147.772 423.161C146.123 423.161 144.786 422.015 144.786 420.602V366.413C144.647 366.358 127.663 359.662 121.774 377.934L100.038 345.508C100.038 345.508 91.6295 324.131 117.086 314.788C117.086 305.465 117.086 304.974 117.086 304.974H121.899C121.899 304.974 121.899 322.798 121.899 335.858C122.517 341.174 126.178 356.322 147.772 361.294C169.391 356.322 173.055 341.174 173.674 335.858C173.674 322.798 173.674 304.974 173.674 304.974H178.492C178.492 304.974 178.492 305.465 178.492 314.788C203.976 324.131 195.559 345.508 195.559 345.508ZM121.522 348.378C120.361 347.064 118.69 343.801 118.69 343.801C118.69 343.801 117.086 338.461 117.086 336.121C117.086 333.215 117.086 329.4 117.086 325.299C116.723 320.418 115.807 320.334 115.807 320.334C96.8134 329.689 105.152 344.228 105.152 344.228L120.922 368.974C127.08 358.54 133.708 360.441 133.708 360.441C127.856 357.458 124.018 352.829 121.522 348.378ZM179.772 320.334C179.772 320.334 178.856 320.418 178.492 325.299C178.492 329.4 178.492 333.215 178.492 336.121C178.492 338.461 176.886 343.801 176.886 343.801C176.886 343.801 175.213 347.064 174.052 348.378C171.553 352.829 167.711 357.458 161.852 360.441C161.852 360.441 168.488 358.54 174.652 368.974L190.439 344.228C190.439 344.228 198.787 329.689 179.772 320.334Z" fill="#3B434F"/>
<path d="M147.774 45.2797C201.066 45.2797 241.761 75.2499 241.761 146.981L239.437 208.944C225.238 288.494 189.552 307.284 147.774 307.284C105.993 307.284 68.6742 287.707 56.1101 208.944L53.7861 146.981C53.7861 75.5595 94.4818 45.2797 147.774 45.2797Z" fill="white"/>
<path fill-rule="evenodd" clip-rule="evenodd" d="M243.894 208.589C229.005 291.497 191.583 311.081 147.774 311.081C103.962 311.081 64.8285 290.677 51.6535 208.589L49.2165 144.01C49.2165 69.5724 91.8908 38.0142 147.774 38.0142C203.657 38.0142 246.331 69.2498 246.331 144.01L243.894 208.589ZM147.774 43.5608C95.527 43.5608 55.6295 73.837 55.6295 145.25L57.908 207.206C70.2257 285.959 106.812 305.534 147.774 305.534C188.732 305.534 223.719 286.746 237.639 207.206L239.918 145.25C239.918 73.5275 200.02 43.5608 147.774 43.5608Z" fill="#3B434F"/>
<path d="M193.852 246.607C186.097 253.341 168.58 259.748 148.199 259.748C127.818 259.748 110.301 253.341 102.546 246.607C102.546 246.607 101.752 244.424 102.916 243.259C104.102 242.074 105.959 242.332 105.959 242.332C113.706 249.07 127.81 254.628 148.199 254.628C168.588 254.628 182.692 249.07 190.439 242.332C190.439 242.332 192.334 241.628 193.255 242.548C195.028 244.321 193.852 246.607 193.852 246.607Z" fill="#3B434F"/>
<path d="M134.119 269.988H161.426V274.254H134.119V269.988Z" fill="#3B434F"/>
<path d="M49.5795 152.594C49.5678 152.595 48.5319 151.768 46.5759 151.152C45.5983 150.844 44.3833 150.592 42.9985 150.529C42.6526 150.514 42.2967 150.51 41.9324 150.52C41.5682 150.531 41.1957 150.555 40.817 150.596C40.0598 150.677 39.2777 150.822 38.4907 151.048C35.3396 151.954 32.125 154.156 30.2371 158.7C29.2894 160.972 28.6642 163.831 28.4989 167.407C28.4576 168.301 28.445 169.24 28.4631 170.226C28.4812 171.212 28.5302 172.244 28.6119 173.326C28.7754 175.49 29.0705 177.849 29.5102 180.421C29.5006 180.418 29.1001 188.191 31.8788 197.122C34.491 205.854 40.7638 216.58 52.3456 219.645C51.0136 197.466 50.9722 174.871 49.5795 152.594Z" fill="white"/>
<path d="M50.9002 153.488C50.9002 153.488 30.7238 147.237 31.4338 167.979C31.4338 167.979 34.4377 198.056 35.7422 200.828C35.7422 200.828 43.666 218.34 56.7432 219.116C69.5242 219.875 56.7432 219.116 56.7432 219.116L56.9019 224.761C56.9019 224.761 33.9172 221.814 29.4779 195.326L25.974 171.264C25.974 171.264 23.2534 139.419 49.6435 147.516C75.3528 155.404 49.6435 147.516 49.6435 147.516L50.9002 153.488Z" fill="#3B434F"/>
<path d="M44.2406 195.276C44.2406 195.276 43.1115 196.129 42.1415 196.129C41.1715 196.129 40.0561 195.276 40.0561 195.276L37.9739 174.293C37.9739 174.293 40.8468 163.959 53.0377 169.42L53.3259 175.42C53.3259 175.42 42.6302 171.627 42.8514 176.35C43.0643 180.897 44.2406 195.276 44.2406 195.276Z" fill="#3B434F"/>
<path d="M244.255 153.537C244.255 153.537 264.52 147.289 263.807 168.018C263.807 168.018 260.789 198.074 259.479 200.845C259.479 200.845 251.521 218.345 238.386 219.12C225.549 219.878 238.386 219.12 238.386 219.12L238.227 224.761C238.227 224.761 261.312 221.816 265.771 195.346L269.29 171.3C269.29 171.3 272.023 139.477 245.517 147.568C219.695 155.451 245.517 147.568 245.517 147.568L244.255 153.537Z" fill="#3B434F"/>
<path d="M250.944 195.296C250.944 195.296 252.078 196.149 253.052 196.149C254.026 196.149 255.146 195.296 255.146 195.296L257.238 174.327C257.238 174.327 254.352 164.001 242.108 169.458L241.819 175.454C241.819 175.454 252.561 171.663 252.339 176.383C252.125 180.927 250.944 195.296 250.944 195.296Z" fill="#3B434F"/>
<path d="M244.115 152.63C244.127 152.631 245.164 151.8 247.122 151.181C248.101 150.873 249.317 150.619 250.703 150.556C251.05 150.54 251.406 150.537 251.771 150.547C252.135 150.558 252.508 150.582 252.887 150.623C253.645 150.704 254.428 150.85 255.216 151.077C258.371 151.987 261.589 154.199 263.479 158.765C264.428 161.047 265.054 163.919 265.219 167.512C265.26 168.41 265.273 169.353 265.255 170.344C265.237 171.334 265.188 172.372 265.106 173.458C264.942 175.632 264.647 178.003 264.207 180.586C264.216 180.583 264.617 188.392 261.835 197.364C259.22 206.137 252.94 216.913 241.346 219.992C242.679 197.71 242.721 175.01 244.115 152.63Z" fill="white"/>
<path d="M244.695 153.537C244.695 153.537 264.96 147.289 264.247 168.018C264.247 168.018 261.23 198.074 259.919 200.845C259.919 200.845 251.961 218.345 238.826 219.12C225.989 219.878 238.826 219.12 238.826 219.12L238.667 224.761C238.667 224.761 261.752 221.816 266.211 195.346L269.73 171.3C269.73 171.3 272.463 139.477 245.957 147.568C220.135 155.451 245.957 147.568 245.957 147.568L244.695 153.537Z" fill="#3B434F"/>
<path d="M251.384 195.296H255.587L257.678 174.327C257.678 174.327 254.792 164.001 242.548 169.458L242.259 175.454C242.259 175.454 253.001 171.663 252.779 176.383C252.565 180.927 251.384 195.296 251.384 195.296Z" fill="#3B434F"/>
<path fill-rule="evenodd" clip-rule="evenodd" d="M155.666 193.614C156.163 193.614 156.661 193.614 157.159 193.614C160.246 197.807 161.503 204.251 163.132 209.828C163.637 211.556 163.147 214.579 162.706 215.801C161.088 220.276 156.008 220.196 151.826 222.201C150.702 222.739 149.867 223.669 148.412 223.908C147.464 223.072 146.319 222.908 145.852 221.561C144.7 219.974 146.185 218.983 147.346 218.361C149.452 217.231 155.954 216.118 156.732 214.094C157.696 212.999 157.055 209.704 156.732 208.548C155.906 205.585 155.509 203.112 154.386 200.441C153.639 198.666 152.329 196.795 153.106 194.681C153.749 194.405 155.139 194.091 155.666 193.614Z" fill="#3B434F"/>
<path d="M100.839 157.348C105.552 157.348 109.372 161.168 109.372 165.881C109.372 170.594 105.552 174.414 100.839 174.414C96.1262 174.414 92.3057 170.594 92.3057 165.881C92.3057 161.168 96.1262 157.348 100.839 157.348Z" fill="#3B434F"/>
<path d="M195.559 157.348C200.272 157.348 204.092 161.168 204.092 165.881C204.092 170.594 200.272 174.414 195.559 174.414C190.846 174.414 187.026 170.594 187.026 165.881C187.026 161.168 190.846 157.348 195.559 157.348Z" fill="#3B434F"/>
<path d="M199.399 188.921C205.29 188.921 210.066 193.697 210.066 199.588C210.066 205.479 205.29 210.254 199.399 210.254C193.508 210.254 188.732 205.479 188.732 199.588C188.732 193.697 193.508 188.921 199.399 188.921Z" fill="#EDF1F1"/>
<path d="M96.1457 188.921C102.037 188.921 106.812 193.697 106.812 199.588C106.812 205.479 102.037 210.254 96.1457 210.254C90.2546 210.254 85.479 205.479 85.479 199.588C85.479 193.697 90.2546 188.921 96.1457 188.921Z" fill="#EDF1F1"/>
<path d="M57.4096 137.698C57.4096 137.698 85.5028 123.455 82.3977 74.4762C82.3977 74.4762 127.338 123.718 235.666 108.708L240.786 154.788C240.786 154.788 304.468 36.7877 190.439 9.72095C78.8477 -16.7673 77.5613 53.1174 77.5613 53.1174C77.5613 53.1174 43.3397 48.0036 40.4822 81.3111C37.6247 114.619 47.9324 149.668 47.9324 149.668L56.4657 156.494L57.4096 137.698Z" fill="#C1BFBD"/>
<path fill-rule="evenodd" clip-rule="evenodd" d="M239.932 159.908L233.532 111.694C125.205 124.839 85.3843 80.8762 85.3843 80.8762C83.7717 129.855 59.9696 138.978 59.9696 138.978L58.1723 158.628L46.2257 151.801C46.2257 151.801 34.8459 114.636 37.4955 81.3111C40.353 45.3719 75.0013 50.5574 75.0013 50.5574C75.0013 50.5574 79.1141 -21.279 190.439 6.30761C311.934 36.4144 239.932 159.908 239.932 159.908ZM189.586 12.2809C77.6801 -12.8467 79.9324 57.0809 79.9324 57.0809C79.9324 57.0809 46.3263 48.0036 43.4688 81.3111C40.6113 114.619 50.0657 147.534 50.0657 147.534L53.9057 150.521L54.4229 135.992C54.4229 135.992 82.5639 126.32 79.411 68.0762C79.411 68.0762 119.574 120.695 238.226 105.721L242.492 144.121C242.492 144.121 294.369 35.8094 189.586 12.2809Z" fill="#3B434F"/>
<path d="M175.099 145.722C175.099 145.722 200.644 131.117 218.892 147.208L223.719 147.956C223.719 147.956 217.537 125.459 172.519 140.087L173.772 144.281M174.772 144.281C174.772 144.281 200.76 129.355 217.892 148.208L226.719 147.956C226.719 147.956 215.71 123.924 170.519 139.087L174.772 145.281" fill="#3B434F"/>
<path d="M120.211 145.806C120.211 145.806 94.7513 131.331 76.5639 147.279L71.7532 148.021C71.7532 148.021 77.915 125.723 122.782 140.222L121.533 144.378M120.536 144.378C120.536 144.378 94.636 129.584 77.5606 148.27L68.7632 148.021C68.7632 148.021 79.7351 124.202 124.776 139.231L120.536 145.369" fill="#3B434F"/>
</svg>
