<svg width="296" height="428" viewBox="0 0 296 428" fill="none" xmlns="http://www.w3.org/2000/svg">
<path d="M2.77232 425.933C2.77232 425.933 -7.52956 335.622 81.2123 325.547H119.186V308.053C119.186 308.053 145.897 319.527 172.946 309.333L173.799 325.547H218.172C218.172 325.547 295.446 333.261 290.772 425.933H2.77232Z" fill="white"/>
<path d="M290.034 427.52H5.51788H0L1.37735 403.99C4.06665 358.048 40.2642 322.987 81.6873 322.987H119.186V327.68H84.2021C44.2787 327.68 9.39166 361.428 6.79971 405.65L5.84299 421.973H289.283L288.752 405.65C286.16 361.428 251.273 327.68 211.35 327.68H175.932V322.987H213.612C255.035 322.987 291.232 358.048 293.922 403.99L295.299 427.52H290.034Z" fill="#3B434F"/>
<path d="M122.172 306.079V332.395C122.172 346.05 133.252 357.12 146.919 357.12C160.586 357.12 171.666 346.05 171.666 332.395V306.622C173.102 306.185 174.524 305.71 175.932 305.197V332.574C175.932 348.722 162.847 361.813 146.706 361.813C130.564 361.813 117.479 348.722 117.479 332.574V304.387C119.025 304.998 120.591 305.56 122.172 306.079Z" fill="#3B434F"/>
<path d="M223.492 379.423L211.407 404.63C210.796 405.905 209.267 406.443 207.992 405.831C206.717 405.22 206.179 403.691 206.79 402.416L218.462 378.071L209.342 362.275C208.635 361.05 209.055 359.485 210.279 358.778C211.503 358.071 213.069 358.49 213.776 359.715L223.589 376.712C224.095 377.588 224.022 378.637 223.492 379.423Z" fill="#3B434F"/>
<path d="M70.1347 379.447L82.2849 404.732C82.8994 406.011 84.4367 406.55 85.7184 405.937C87.0001 405.324 87.541 403.79 86.9265 402.511L75.1919 378.092L84.361 362.247C85.0717 361.018 84.6499 359.448 83.4189 358.739C82.1879 358.03 80.6139 358.45 79.9031 359.679L70.0372 376.728C69.5287 377.607 69.6024 378.659 70.1347 379.447Z" fill="#3B434F"/>
<path d="M117.479 322.133H122.172V425.813H117.479V322.133Z" fill="#3B434F"/>
<path d="M171.666 322.987H176.359V426.667H171.666V322.987Z" fill="#3B434F"/>
<path d="M134.772 372.933L146.772 359.933L159.772 372.933L152.772 379.933L163.772 424.933H129.772L141.772 379.933L134.772 372.933Z" fill="#3B434F"/>
<path fill-rule="evenodd" clip-rule="evenodd" d="M161.472 425.623L149.378 380.488L151.892 379.733L153.56 377.962L166.351 425.699L161.472 425.623ZM127.357 425.09L139.983 378.181L140.799 378.88L143.359 380.587L144.203 380.671L132.227 425.166L127.357 425.09Z" fill="#3B434F"/>
<path fill-rule="evenodd" clip-rule="evenodd" d="M175.918 385.721L172.599 389.04L159.686 376.127C157.194 380.084 152.795 382.72 147.772 382.72C142.547 382.72 137.997 379.867 135.567 375.64L122.088 389.12L118.76 385.792L145.299 359.253L147.375 357.329L149.45 359.253L175.918 385.721ZM138.178 373.03C139.879 376.494 143.439 378.88 147.559 378.88C151.587 378.88 155.073 376.597 156.818 373.258L147.383 363.824L138.178 373.03Z" fill="#3B434F"/>
<path d="M147.987 38.4C201.065 38.4 242.959 88.0013 241.597 147.598L240.149 210.939C238.866 267.086 197.618 311.467 147.987 311.467C98.3562 311.467 57.108 267.086 55.8247 210.939L54.3769 147.598C53.0147 88.0013 94.9091 38.4 147.987 38.4Z" fill="white"/>
<path fill-rule="evenodd" clip-rule="evenodd" d="M245.862 145.634L244.345 211.549C243 269.976 199.779 316.16 147.774 316.16C95.7688 316.16 52.5475 269.976 51.2028 211.549L49.6857 145.634C48.2584 83.6163 92.1568 32 147.774 32C203.391 32 247.289 83.6163 245.862 145.634ZM147.561 38.8267C95.2084 38.8267 53.8867 88.0404 55.2303 147.172L56.6583 210.018C57.9241 265.726 98.6084 309.76 147.561 309.76C196.513 309.76 237.197 265.726 238.463 210.018L239.891 147.172C241.235 88.0404 199.913 38.8267 147.561 38.8267Z" fill="#3B434F"/>
<path d="M193.852 249.259C186.097 255.993 168.58 262.4 148.199 262.4C127.818 262.4 110.301 255.993 102.546 249.259C102.546 249.259 101.752 247.076 102.916 245.912C104.102 244.726 105.959 244.984 105.959 244.984C113.706 251.723 127.81 257.28 148.199 257.28C168.588 257.28 182.692 251.723 190.439 244.984C190.439 244.984 192.334 244.28 193.255 245.201C195.028 246.974 193.852 249.259 193.852 249.259Z" fill="#3B434F"/>
<path d="M134.119 272.64H161.426V276.907H134.119V272.64Z" fill="#3B434F"/>
<path d="M49.5795 155.246C49.5678 155.247 48.5319 154.42 46.5759 153.804C45.5983 153.497 44.3833 153.244 42.9985 153.182C42.6526 153.166 42.2967 153.162 41.9324 153.173C41.5682 153.183 41.1957 153.208 40.817 153.248C40.0598 153.329 39.2777 153.474 38.4907 153.701C35.3396 154.606 32.125 156.808 30.2371 161.352C29.2894 163.625 28.6642 166.483 28.4989 170.059C28.4576 170.953 28.445 171.892 28.4631 172.878C28.4812 173.864 28.5302 174.897 28.6119 175.979C28.7754 178.142 29.0705 180.502 29.5102 183.073C29.5006 183.07 29.1001 190.843 31.8788 199.774C34.491 208.506 40.7638 219.233 52.3456 222.298C51.0136 200.118 50.9722 177.523 49.5795 155.246Z" fill="white"/>
<path d="M50.9002 156.141C50.9002 156.141 30.7238 149.889 31.4338 170.631C31.4338 170.631 34.4377 200.709 35.7422 203.481C35.7422 203.481 43.666 220.993 56.7432 221.769C69.5242 222.527 56.7432 221.769 56.7432 221.769L56.9019 227.413C56.9019 227.413 33.9172 224.466 29.4779 197.979L25.974 173.916C25.974 173.916 23.2534 142.071 49.6435 150.168C75.3528 158.056 49.6435 150.168 49.6435 150.168L50.9002 156.141Z" fill="#3B434F"/>
<path d="M44.2406 197.928C44.2406 197.928 43.1115 198.782 42.1415 198.782C41.1715 198.782 40.0561 197.928 40.0561 197.928L37.9739 176.945C37.9739 176.945 40.8468 166.612 53.0377 172.073L53.3259 178.073C53.3259 178.073 42.6302 174.279 42.8514 179.003C43.0643 183.549 44.2406 197.928 44.2406 197.928Z" fill="#3B434F"/>
<path d="M245.586 155.296C245.598 155.296 246.638 154.47 248.602 153.854C249.584 153.547 250.805 153.295 252.196 153.232C252.543 153.217 252.9 153.213 253.266 153.223C253.632 153.234 254.006 153.258 254.387 153.298C255.147 153.379 255.933 153.525 256.723 153.751C259.888 154.656 263.117 156.856 265.013 161.397C265.965 163.668 266.593 166.524 266.759 170.098C266.8 170.992 266.813 171.93 266.795 172.915C266.776 173.9 266.727 174.933 266.645 176.014C266.481 178.176 266.185 180.534 265.743 183.103C265.753 183.101 266.155 190.868 263.364 199.793C260.74 208.519 254.44 219.238 242.807 222.301C244.145 200.137 244.187 177.557 245.586 155.296Z" fill="white"/>
<path d="M244.255 156.189C244.255 156.189 264.52 149.942 263.807 170.67C263.807 170.67 260.789 200.727 259.479 203.497C259.479 203.497 251.521 220.997 238.386 221.773C225.549 222.531 238.386 221.773 238.386 221.773L238.227 227.413C238.227 227.413 261.312 224.468 265.771 197.999L269.29 173.952C269.29 173.952 272.023 142.129 245.517 150.221C219.695 158.103 245.517 150.221 245.517 150.221L244.255 156.189Z" fill="#3B434F"/>
<path d="M250.944 197.948C250.944 197.948 252.078 198.801 253.052 198.801C254.026 198.801 255.146 197.948 255.146 197.948L257.238 176.98C257.238 176.98 254.352 166.653 242.108 172.11L241.819 178.106C241.819 178.106 252.561 174.315 252.339 179.036C252.125 183.579 250.944 197.948 250.944 197.948Z" fill="#3B434F"/>
<path d="M175.099 148.374C175.099 148.374 200.644 133.769 218.892 149.86L223.719 150.609C223.719 150.609 217.537 128.111 172.519 142.74L173.772 146.933M174.772 146.933C174.772 146.933 200.76 132.007 217.892 150.86L226.719 150.609C226.719 150.609 215.71 126.577 170.519 141.74L174.772 147.933" fill="#3B434F"/>
<path d="M120.211 148.459C120.211 148.459 94.7513 133.983 76.5639 149.932L71.7532 150.673C71.7532 150.673 77.915 128.375 122.782 142.874L121.533 147.031M120.536 147.031C120.536 147.031 94.636 132.236 77.5606 150.923L68.7632 150.673C68.7632 150.673 79.7351 126.854 124.776 141.883L120.536 148.022" fill="#3B434F"/>
<path d="M242.361 155.733C242.361 155.733 281.748 52.3897 160.462 28.8469C160.462 28.8469 135.076 27.4721 115.248 3.84009C115.248 3.84009 101.083 23.2585 109.276 38.1087C109.276 38.1087 98.8498 47.2041 70.8861 39.9611C70.8861 39.9611 66.6538 49.0009 70.033 59.4108C70.033 59.4108 34.8595 74.6195 51.6217 142.65C51.7823 143.301 51.9475 143.958 52.1177 144.619C52.1177 144.619 67.1671 84.4586 77.7109 83.4915C77.7109 83.4915 134.525 116.108 182.643 80.7129C182.643 80.7129 206.401 112.41 235.536 114.055C235.536 114.055 240.806 134.496 242.361 155.733Z" fill="#C1BFBD"/>
<path fill-rule="evenodd" clip-rule="evenodd" d="M245.052 156.587C243.868 159.799 239.932 158.72 239.932 158.72C238.377 137.483 233.532 116.907 233.532 116.907C204.015 113.187 181.906 84.9067 181.906 84.9067C134.072 117.782 77.799 86.1867 77.799 86.1867C66.5007 95.5539 55.1857 145.067 55.1857 145.067C55.0155 144.405 49.3729 145.718 49.2123 145.067C32.4501 77.0363 66.7057 58.0267 66.7057 58.0267C63.3265 47.6168 68.839 36.6934 68.839 36.6934C96.8027 43.9364 105.532 37.5467 105.532 37.5467C98.1397 19.0291 114.492 0 114.492 0C134.32 23.632 161.426 26.0267 161.426 26.0267C272.974 48.3807 252.961 135.128 245.052 156.587ZM158.866 31.5733C158.866 31.5733 136.035 30.3312 115.772 8.96002C115.772 8.96002 104.166 24.4032 112.359 39.2534C112.359 39.2534 100.643 50.763 72.679 43.52C72.679 43.52 70.4674 49.3143 72.679 60.16C72.679 60.16 41.3184 76.3504 52.199 131.413C52.3291 132.072 52.0288 131.179 52.199 131.84C52.199 131.84 65.3168 81.0322 77.3723 80.64C77.3723 80.64 136.235 113.964 183.612 76.8C183.612 76.8 208.665 110.142 237.799 111.787C237.799 111.787 240.326 118.932 243.346 139.947C243.346 139.947 268.897 52.5411 158.866 31.5733Z" fill="#3B434F"/>
<path opacity="0.2" fill-rule="evenodd" clip-rule="evenodd" d="M122.864 26.88C123.646 26.895 123.644 27.4273 123.873 27.9817C124.214 28.8088 124.519 29.6506 124.914 30.4369C125.512 31.6285 126.126 32.8107 126.837 33.8994C127.436 34.8149 128.085 35.6897 128.729 36.5592C129.102 37.0614 129.551 37.5068 129.928 38.0072C130.078 38.2068 130.279 38.371 130.432 38.5738C130.485 38.621 130.537 38.6682 130.59 38.7154C130.783 38.9701 131.028 39.1694 131.221 39.4236C131.431 39.6282 131.641 39.8329 131.851 40.0374C132.18 40.3651 132.488 40.732 132.86 41.0132C132.939 41.0972 133.018 41.1811 133.097 41.265C133.393 41.4886 133.635 41.765 133.933 41.989C133.98 42.0415 134.027 42.094 134.075 42.1464C134.504 42.4689 134.877 42.865 135.304 43.1852C135.999 43.7051 136.655 44.2563 137.37 44.759C137.844 45.0924 138.312 45.4624 138.789 45.7978C139.638 46.3947 140.536 46.929 141.406 47.4975C141.936 47.8436 142.504 48.1074 143.046 48.4418C144.58 49.3883 146.258 50.196 147.903 51.0229C148.434 51.2901 148.962 51.5072 149.511 51.7469C149.861 51.8999 150.24 52.0807 150.583 52.2506C150.773 52.3445 150.957 52.3864 151.151 52.4709C151.571 52.6541 152.025 52.8498 152.444 53.0375C152.831 53.2111 153.21 53.3251 153.61 53.4782C154.042 53.6432 154.5 53.8489 154.935 54.0133C155.691 54.2989 156.457 54.5503 157.205 54.8317C157.983 55.124 158.761 55.3186 159.555 55.5871C161.093 56.1075 162.731 56.491 164.332 56.9721C164.812 57.1161 165.311 57.1847 165.783 57.3184C166.018 57.3851 166.323 57.3725 166.524 57.4758C166.606 57.5178 166.699 57.6064 166.776 57.6646C166.901 57.7584 166.998 57.9152 167.092 58.0424C167.241 58.246 167.4 58.4469 167.517 58.6877C167.639 58.937 167.673 59.2833 167.738 59.569C167.79 59.7983 167.718 60.0854 167.675 60.2458C167.639 60.3807 167.651 60.4738 167.612 60.6077C167.51 60.9562 167.355 61.294 167.155 61.5521C166.948 61.8195 166.438 61.8262 166.051 61.7252C165.375 61.5485 164.632 61.4728 163.97 61.2845C163.828 61.2442 163.715 61.262 163.576 61.2216C162.807 60.9993 161.968 60.8725 161.21 60.655C161.037 60.6053 160.892 60.6122 160.722 60.5605C160.124 60.3788 159.501 60.2749 158.893 60.0884C157.368 59.6208 155.806 59.2322 154.352 58.7034C154.011 58.5797 153.696 58.5159 153.358 58.3886C150.971 57.4884 148.601 56.621 146.421 55.5242C145.847 55.2356 145.277 55.0072 144.718 54.7058C143.129 53.8501 141.585 52.9641 140.082 52.0302C139.884 51.9075 139.692 51.75 139.499 51.621C138.625 51.0396 137.788 50.4478 136.944 49.8426C136.093 49.232 135.335 48.5007 134.5 47.8752C134.324 47.7433 134.176 47.5701 133.996 47.4346C133.943 47.3769 133.891 47.3192 133.838 47.2614C133.643 47.1143 133.492 46.9173 133.302 46.7736C132.845 46.4288 132.459 45.9794 132.056 45.5774C131.676 45.1981 131.263 44.8278 130.937 44.397C130.863 44.3288 130.79 44.2606 130.716 44.1924C130.504 43.9126 130.231 43.682 130.022 43.4055C129.659 42.9229 129.231 42.4886 128.871 42.0048C128.424 41.4031 127.964 40.8078 127.531 40.1948C127.098 39.5812 126.722 38.9477 126.317 38.3062C125.22 36.5685 124.327 34.6729 123.495 32.6561C123.193 31.9245 122.989 31.1433 122.738 30.374C122.565 29.844 122.481 29.2741 122.328 28.7372C122.288 28.597 122.302 28.4865 122.265 28.3437C122.184 28.037 122.092 27.6544 122.202 27.3364C122.251 27.1942 122.453 26.9922 122.596 26.943C122.695 26.9087 122.792 26.9347 122.864 26.88ZM115.122 50.4879C115.683 50.4911 115.934 50.9036 116.179 51.2276C116.432 51.5633 116.774 51.8337 117.03 52.1719C117.24 52.3817 117.45 52.5916 117.661 52.8014C117.804 52.9907 117.983 53.1392 118.149 53.3051C118.321 53.476 118.474 53.6613 118.67 53.8087C118.859 53.9975 119.048 54.1864 119.237 54.3753C119.432 54.5219 119.583 54.7191 119.773 54.8632C120.364 55.3087 120.868 55.8687 121.461 56.3111C122.089 56.7802 122.68 57.3073 123.321 57.7591C124.161 58.3509 124.999 58.952 125.86 59.5218C126.3 59.8131 126.751 60.0575 127.2 60.3402C127.544 60.5563 127.9 60.8043 128.256 61.0012C129.735 61.8189 131.231 62.6218 132.766 63.3935C133.981 64.0045 135.264 64.4997 136.519 65.0618C136.905 65.235 137.285 65.3504 137.685 65.5024C138.589 65.8456 139.539 66.1949 140.46 66.5412C141.332 66.8686 142.257 67.0924 143.141 67.3911C143.285 67.4398 143.408 67.4342 143.551 67.4855C144.008 67.6495 144.526 67.752 145.001 67.8947C145.241 67.9665 145.478 67.9654 145.711 68.0521C146.221 68.242 146.865 68.8159 147.051 69.3269C147.375 70.2122 147.017 71.2196 146.61 71.7979C146.487 71.9724 146.305 72.259 146.089 72.333C145.749 72.4495 145.391 72.3276 145.08 72.2385C144.678 72.1234 144.293 72.1062 143.898 71.9867C143.168 71.7659 142.408 71.6452 141.674 71.4201C140.139 70.9488 138.609 70.5251 137.149 69.9722C133.77 68.692 130.652 67.1903 127.783 65.408C126.593 64.6681 125.464 63.8343 124.346 63.0157C123.948 62.7243 123.588 62.3655 123.195 62.0714C122.657 61.6683 122.199 61.183 121.666 60.7809C121.608 60.7179 121.55 60.6549 121.492 60.592C121.383 60.4951 121.264 60.4114 121.161 60.3087C121.077 60.2195 120.993 60.1303 120.909 60.0412C120.708 59.8895 120.549 59.6979 120.373 59.5218C120.201 59.3508 120.016 59.1974 119.868 59.0024C119.752 58.8922 119.637 58.782 119.521 58.6719C119.135 58.1617 118.645 57.7407 118.26 57.2239C118.169 57.1021 118.036 56.9991 117.944 56.8777C117.574 56.3849 117.165 55.9173 116.809 55.414C116.404 54.8409 115.983 54.2639 115.611 53.667C115.464 53.4319 115.352 53.1916 115.201 52.9588C115.035 52.7035 114.91 52.4352 114.759 52.1561C114.67 51.9907 114.539 51.8069 114.476 51.621C114.411 51.4323 114.39 51.0668 114.491 50.8971C114.56 50.7812 114.723 50.5991 114.854 50.5508C114.953 50.5145 115.05 50.5427 115.122 50.4879ZM104.526 61.977C105.16 61.9848 105.319 62.4517 105.583 62.8269C106.007 63.4306 106.497 63.9867 106.939 64.5739C107.291 65.0419 107.752 65.4282 108.106 65.8959C108.242 66.027 108.379 66.1582 108.516 66.2894C108.712 66.5485 109.013 66.849 109.272 67.0448C109.325 67.1025 109.377 67.1602 109.43 67.2179C109.559 67.3468 109.693 67.4689 109.84 67.5799C109.908 67.6534 109.977 67.7268 110.045 67.8003C110.395 68.0647 110.689 68.4058 111.038 68.6659C111.874 69.2879 112.67 69.9663 113.53 70.5703C115.392 71.8792 117.443 72.972 119.553 74.0327C120.242 74.3794 120.976 74.6364 121.666 74.9771C121.96 75.1223 122.262 75.1952 122.564 75.3233C123.391 75.6734 124.278 75.9784 125.134 76.2991C126.32 76.7429 127.576 77.0215 128.792 77.4323C129.219 77.5762 129.673 77.6408 130.085 77.7785C130.452 77.9009 130.828 77.9209 131.205 78.0303C131.952 78.247 132.784 78.3671 133.554 78.5654C133.999 78.6799 134.449 78.7069 134.879 78.8173C135.359 78.9405 135.861 78.9542 136.329 79.0691C136.434 79.0796 136.54 79.0901 136.645 79.1006C137.126 79.2228 137.685 79.2361 138.174 79.3524C138.383 79.402 138.563 79.3663 138.773 79.4153C139.457 79.5747 140.237 79.5423 140.933 79.6986C141.132 79.7432 141.339 79.7218 141.517 79.7616C141.58 79.7616 141.643 79.7616 141.706 79.7616C141.946 79.815 142.252 79.8027 142.494 79.856C142.563 79.856 142.631 79.856 142.699 79.856C143.096 79.9435 143.576 79.8943 143.977 79.9819C144.066 79.9819 144.155 79.9819 144.245 79.9819C144.754 80.0933 145.367 79.9958 145.884 80.1078C146.084 80.1131 146.284 80.1183 146.484 80.1236C146.597 80.148 146.776 80.1106 146.909 80.1393C147.261 80.2153 147.715 80.1482 148.076 80.2022C148.29 80.2342 148.548 80.1768 148.738 80.218C148.906 80.2542 149.126 80.2017 149.274 80.2337C149.684 80.2337 150.094 80.2337 150.504 80.2337C151.475 80.2337 152.422 80.2066 153.358 80.2022C153.801 80.2002 154.284 80.1031 154.651 80.2337C154.859 80.3075 155.05 80.4894 155.219 80.6115C155.598 80.886 155.954 81.2788 156.133 81.7446C156.188 81.8865 156.183 82.012 156.228 82.1696C156.299 82.422 156.402 82.8194 156.322 83.1611C156.271 83.3834 156.243 83.6525 156.165 83.8693C156.044 84.2036 155.722 84.3016 155.345 84.3887C155.208 84.394 155.072 84.3992 154.935 84.4044C154.353 84.5315 153.644 84.4195 153.059 84.5461C152.946 84.5705 152.789 84.5417 152.696 84.5618C152.475 84.5671 152.254 84.5723 152.034 84.5776C151.82 84.6237 151.55 84.5571 151.308 84.609C151.106 84.6525 150.859 84.6405 150.63 84.6405C150.546 84.6405 150.462 84.6405 150.378 84.6405C150.183 84.6824 149.91 84.6719 149.7 84.672C149.395 84.672 149.09 84.672 148.786 84.672C148.502 84.7327 148.106 84.6877 147.792 84.6877C147.532 84.6877 147.204 84.7218 146.972 84.672C146.794 84.672 146.615 84.672 146.436 84.672C146.063 84.672 145.695 84.6719 145.348 84.6405C145.17 84.6405 144.991 84.6405 144.812 84.6405C144.506 84.5739 144.107 84.6431 143.803 84.5776C143.682 84.5776 143.561 84.5776 143.44 84.5776C143.218 84.5291 142.919 84.5621 142.699 84.5146C142.594 84.5146 142.489 84.5146 142.384 84.5146C142.215 84.4775 141.969 84.4884 141.801 84.4517C141.717 84.4517 141.632 84.4517 141.548 84.4517C140.964 84.3228 140.291 84.3907 139.719 84.2628C139.562 84.2523 139.404 84.2418 139.246 84.2313C138.504 84.0626 137.683 84.0883 136.96 83.9165C136.764 83.8698 136.602 83.9009 136.408 83.8536C135.736 83.6895 134.997 83.6442 134.343 83.4759C134.235 83.4481 134.167 83.4725 134.059 83.4444C133.749 83.3636 133.387 83.3109 133.081 83.2241C132.939 83.1836 132.829 83.202 132.687 83.1611C131.624 82.8551 130.517 82.695 129.47 82.3742C127.616 81.806 125.742 81.2977 124.062 80.5485C123.682 80.3788 123.302 80.2804 122.927 80.1078C122.263 79.8024 121.578 79.524 120.925 79.195C119.902 78.6801 118.901 78.1384 117.913 77.5896C117.218 77.2036 116.549 76.7321 115.895 76.2991C115.358 75.9436 114.84 75.5956 114.318 75.2289C113.805 74.868 113.326 74.4536 112.82 74.08C112.306 73.7 111.865 73.222 111.354 72.8366C111.159 72.6902 110.995 72.4475 110.802 72.3015C110.325 71.9415 109.929 71.4623 109.509 71.0424C107.714 69.2502 106.189 67.1911 104.826 64.9673C104.511 64.4541 104.282 63.9186 104.006 63.362C103.88 63.1084 103.748 62.7661 103.88 62.4177C103.922 62.3066 104.147 62.0818 104.258 62.0399C104.35 62.0056 104.457 62.0291 104.526 61.977ZM208.875 77.4952C209.449 77.5016 209.627 77.8826 209.869 78.2192C210.108 78.5517 210.38 78.8636 210.626 79.195C211.147 79.8982 211.802 80.498 212.328 81.1938C212.512 81.4366 212.773 81.6246 212.959 81.8705C213.033 81.9387 213.106 82.0069 213.18 82.0751C213.436 82.4132 213.78 82.69 214.079 82.988C214.336 83.245 214.594 83.5021 214.851 83.7592C215.257 84.065 215.585 84.4946 215.987 84.7979C216.216 84.9712 216.407 85.1947 216.633 85.3645C217.379 85.9239 218.056 86.5748 218.809 87.1272C219.943 87.9593 221.079 88.7991 222.262 89.5824C224.04 90.7602 225.928 91.8236 227.844 92.856C228.932 93.4425 230.072 93.9407 231.186 94.4929C231.583 94.6892 231.998 94.8367 232.385 95.028C232.528 95.0988 232.667 95.1145 232.81 95.1854C233.427 95.4901 234.114 95.7209 234.75 96.0038C234.913 96.0765 235.055 96.0976 235.223 96.1611C235.841 96.3958 236.496 96.6348 237.131 96.8694C237.487 97.0012 237.911 97.0524 238.234 97.2314C239.052 97.6834 239.807 98.6524 239.385 99.9384C239.236 100.396 238.981 100.752 238.723 101.103C238.545 101.345 238.322 101.441 237.998 101.544C237.919 101.569 237.565 101.444 237.493 101.418C237.059 101.26 236.622 101.185 236.185 101.04C233.926 100.289 231.756 99.4944 229.673 98.5849C226.3 97.1126 223.278 95.234 220.433 93.2338C219.605 92.6519 218.858 91.9638 218.052 91.3609C217.816 91.1841 217.613 90.9587 217.374 90.7786C217.327 90.7261 217.279 90.6736 217.232 90.6212C216.911 90.3791 216.653 90.0754 216.333 89.8342C216.192 89.6874 216.05 89.5404 215.908 89.3936C215.747 89.2722 215.623 89.1249 215.482 88.9844C215.341 88.8438 215.194 88.7201 215.072 88.5594C214.972 88.465 214.872 88.3705 214.772 88.2761C214.592 88.0958 214.407 87.8979 214.252 87.6938C214.158 87.5994 214.063 87.5049 213.968 87.4105C213.765 87.1425 213.506 86.9201 213.306 86.6551C212.785 85.9638 212.218 85.3232 211.714 84.609C211.261 83.9676 210.763 83.3311 210.342 82.6575C209.803 81.7945 209.309 80.9043 208.828 79.9819C208.617 79.5769 208.377 79.0693 208.229 78.6284C208.163 78.4324 208.144 78.0813 208.245 77.9044C208.314 77.7839 208.473 77.6088 208.607 77.5582C208.699 77.5238 208.806 77.5473 208.875 77.4952Z" fill="#3B434F"/>
<path fill-rule="evenodd" clip-rule="evenodd" d="M155.666 196.267C156.163 196.267 156.661 196.267 157.159 196.267C160.246 200.46 161.503 206.903 163.132 212.48C163.637 214.208 163.147 217.231 162.706 218.453C161.088 222.929 156.008 222.849 151.826 224.853C150.702 225.392 149.867 226.321 148.412 226.56C147.464 225.725 146.319 225.561 145.852 224.213C144.7 222.627 146.185 221.636 147.346 221.013C149.452 219.884 155.954 218.77 156.732 216.747C157.696 215.651 157.055 212.357 156.732 211.2C155.906 208.238 155.509 205.765 154.386 203.093C153.639 201.319 152.329 199.448 153.106 197.333C153.749 197.057 155.139 196.743 155.666 196.267Z" fill="#3B434F"/>
<path d="M100.839 160C105.552 160 109.372 163.82 109.372 168.533C109.372 173.246 105.552 177.067 100.839 177.067C96.1262 177.067 92.3057 173.246 92.3057 168.533C92.3057 163.82 96.1262 160 100.839 160Z" fill="#3B434F"/>
<path d="M195.559 160C200.272 160 204.092 163.82 204.092 168.533C204.092 173.246 200.272 177.067 195.559 177.067C190.846 177.067 187.026 173.246 187.026 168.533C187.026 163.82 190.846 160 195.559 160Z" fill="#3B434F"/>
<path d="M199.399 191.573C205.29 191.573 210.066 196.349 210.066 202.24C210.066 208.131 205.29 212.907 199.399 212.907C193.508 212.907 188.732 208.131 188.732 202.24C188.732 196.349 193.508 191.573 199.399 191.573Z" fill="#F5F3EF"/>
<path d="M96.1457 191.573C102.037 191.573 106.812 196.349 106.812 202.24C106.812 208.131 102.037 212.907 96.1457 212.907C90.2546 212.907 85.479 208.131 85.479 202.24C85.479 196.349 90.2546 191.573 96.1457 191.573Z" fill="#F4F3EF"/>
</svg>
