<svg width="321" height="436" viewBox="0 0 321 436" fill="none" xmlns="http://www.w3.org/2000/svg">
<path d="M320.853 323.901C300.458 413.109 196.064 378.172 160.427 363.35V363.255C124.789 378.088 20.3951 413.052 0 323.776C0 323.776 36.58 324.169 25.6 209.429C25.6 209.429 -14.0301 -17.8707 160.427 1.12791V1.50038C334.883 -17.4836 295.253 209.642 295.253 209.642C284.273 324.294 320.853 323.901 320.853 323.901Z" fill="#3B434F"/>
<path d="M15.7866 432.402C15.7866 432.402 9.17165 342.414 93.8667 334.016H131.84V316.522C131.84 316.522 158.552 327.996 185.6 317.802L186.453 334.016H230.827C230.827 334.016 306.812 337 303.36 433.256L15.7866 432.402Z" fill="white"/>
<path fill-rule="evenodd" clip-rule="evenodd" d="M302.689 435.989H18.1722H12.6543L14.0316 412.459C16.7209 366.517 52.9185 331.456 94.3416 331.456H122.825C120.977 332.984 119.623 334.569 118.649 336.149H96.8564C56.933 336.149 22.046 369.898 19.454 414.119L18.4973 430.442H301.937L301.407 414.119C298.815 369.898 263.928 336.149 224.004 336.149H202.193C201.359 334.581 200.173 332.996 198.517 331.456H226.266C267.689 331.456 303.887 366.517 306.576 412.459L307.953 435.989H302.689ZM190.077 336.149H188.587V331.456H190.243C190.144 332.676 190.08 334.213 190.077 336.149ZM130.066 331.456H131.84V336.149H130.307C130.284 334.156 130.192 332.627 130.066 331.456Z" fill="#3B434F"/>
<path d="M173.653 396.736C175.303 396.736 176.64 398.073 176.64 399.723C176.64 401.372 175.303 402.709 173.653 402.709C172.004 402.709 170.667 401.372 170.667 399.723C170.667 398.073 172.004 396.736 173.653 396.736Z" fill="#3B434F"/>
<path d="M173.653 416.363C175.303 416.363 176.64 417.7 176.64 419.349C176.64 420.999 175.303 422.336 173.653 422.336C172.004 422.336 170.667 420.999 170.667 419.349C170.667 417.7 172.004 416.363 173.653 416.363Z" fill="#3B434F"/>
<path fill-rule="evenodd" clip-rule="evenodd" d="M208.213 356.629L186.453 389.056C180.534 370.709 163.413 377.536 163.413 377.536V431.724C163.413 433.137 162.076 434.283 160.427 434.283C158.777 434.283 157.44 433.137 157.44 431.724V377.535C157.301 377.48 140.317 370.783 134.428 389.056L112.692 356.629C112.692 356.629 104.284 335.252 129.74 325.909C129.74 316.587 129.74 316.096 129.74 316.096H134.554C134.554 316.096 134.554 333.92 134.554 346.98C135.172 352.296 138.832 367.444 160.427 372.416C182.045 367.444 185.709 352.296 186.328 346.98C186.328 333.92 186.328 316.096 186.328 316.096H191.147C191.147 316.096 191.147 316.587 191.147 325.909C216.631 335.252 208.213 356.629 208.213 356.629ZM134.176 359.5C133.016 358.186 131.345 354.922 131.345 354.922C131.345 354.922 129.74 349.583 129.74 347.242C129.74 344.336 129.74 340.521 129.74 336.42C129.377 331.539 128.461 331.456 128.461 331.456C109.468 340.811 117.806 355.349 117.806 355.349L133.576 380.096C139.734 369.661 146.362 371.562 146.362 371.562C140.51 368.58 136.672 363.951 134.176 359.5ZM192.427 331.456C192.427 331.456 191.51 331.539 191.147 336.42C191.147 340.521 191.147 344.336 191.147 347.242C191.147 349.583 189.54 354.922 189.54 354.922C189.54 354.922 187.867 358.186 186.706 359.5C184.207 363.951 180.365 368.58 174.507 371.562C174.507 371.562 181.142 369.661 187.307 380.096L203.093 355.349C203.093 355.349 211.441 340.811 192.427 331.456Z" fill="#3B434F"/>
<path d="M160.641 46.8691C213.719 46.8691 255.614 96.4704 254.251 156.067L252.804 219.409C251.52 275.555 210.272 319.936 160.641 319.936C111.011 319.936 69.7623 275.555 68.479 219.409L67.0312 156.067C65.669 96.4704 107.563 46.8691 160.641 46.8691Z" fill="white"/>
<path fill-rule="evenodd" clip-rule="evenodd" d="M258.516 154.104L256.999 220.018C255.654 278.445 212.433 324.629 160.428 324.629C108.423 324.629 65.2018 278.445 63.8571 220.018L62.34 154.104C60.9127 92.0855 104.811 40.4692 160.428 40.4692C216.045 40.4692 259.943 92.0855 258.516 154.104ZM160.215 47.2959C107.863 47.2959 66.541 96.5096 67.8846 155.641L69.3126 218.487C70.5784 274.195 111.263 318.229 160.215 318.229C209.167 318.229 249.851 274.195 251.117 218.487L252.545 155.641C253.889 96.5096 212.567 47.2959 160.215 47.2959Z" fill="#3B434F"/>
<path d="M206.507 257.728C198.751 264.462 181.235 270.869 160.853 270.869C140.472 270.869 122.955 264.462 115.2 257.728C115.2 257.728 114.406 255.545 115.571 254.381C116.756 253.195 118.613 253.453 118.613 253.453C126.36 260.192 140.464 265.749 160.853 265.749C181.242 265.749 195.346 260.192 203.093 253.453C203.093 253.453 204.988 252.749 205.909 253.67C207.682 255.443 206.507 257.728 206.507 257.728Z" fill="#3B434F"/>
<path d="M146.773 281.109H174.08V285.376H146.773V281.109Z" fill="#3B434F"/>
<path d="M113.493 168.469C118.206 168.469 122.027 172.29 122.027 177.003C122.027 181.715 118.206 185.536 113.493 185.536C108.78 185.536 104.96 181.715 104.96 177.003C104.96 172.29 108.78 168.469 113.493 168.469Z" fill="#3B434F"/>
<path d="M208.213 168.469C212.926 168.469 216.747 172.29 216.747 177.003C216.747 181.715 212.926 185.536 208.213 185.536C203.5 185.536 199.68 181.715 199.68 177.003C199.68 172.29 203.5 168.469 208.213 168.469Z" fill="#3B434F"/>
<path d="M113.067 200.042C121.314 200.042 128 200.516 128 209.856C128 219.49 121.314 219.669 113.067 219.669C104.819 219.669 98.1333 217.915 98.1333 209.856C98.1333 200.442 104.819 200.042 113.067 200.042Z" fill="#F5F3EF"/>
<path d="M212.053 200.042C220.301 200.042 226.987 200.516 226.987 209.856C226.987 219.49 220.301 219.669 212.053 219.669C203.806 219.669 197.12 217.915 197.12 209.856C197.12 200.442 203.806 200.042 212.053 200.042Z" fill="#F5F3EF"/>
<path d="M183.427 153.013L185.898 156.152L187.431 158.097C187.431 158.097 214.582 143.105 233.427 160.403L235.436 161.387C235.436 161.387 230.793 136.311 190.154 150.979C188.01 151.561 185.773 152.232 183.427 153.013Z" fill="#3B434F"/>
<path d="M136.427 153.03L133.955 156.163L132.422 158.104C132.422 158.104 105.271 143.143 86.4266 160.405L84.4175 161.388C84.4175 161.388 89.0599 136.363 129.699 151.001C131.843 151.581 134.08 152.251 136.427 153.03Z" fill="#3B434F"/>
<path d="M251.733 116.416H269.653V159.083H251.733V116.416Z" fill="#3B434F"/>
<path d="M55.205 155.146C55.205 155.146 74.0526 118.856 110.12 124.628C110.12 124.628 111.547 132.895 119.302 141.78C119.302 141.78 127.793 121.228 153.976 115.439C174.776 110.839 194.522 94.2579 194.522 94.2579C194.522 94.2579 197.594 127.209 238.123 136.385C238.123 136.385 273.634 140.776 271.057 121.153C268.479 101.531 248.773 16.1261 154.407 29.055C60.0404 41.9838 37.8776 76.2527 54.3668 154.286" fill="#3B444F"/>
<path d="M61.2339 163.716C61.2221 163.716 60.1863 162.889 58.2303 162.273C57.2527 161.966 56.0377 161.713 54.6528 161.651C54.307 161.635 53.951 161.632 53.5868 161.642C53.2226 161.652 52.85 161.677 52.4714 161.717C51.7142 161.798 50.9321 161.943 50.1451 162.17C46.9939 163.075 43.7794 165.277 41.8915 169.822C40.9438 172.094 40.3186 174.952 40.1533 178.528C40.1119 179.423 40.0993 180.361 40.1174 181.347C40.1356 182.333 40.1845 183.366 40.2663 184.448C40.4297 186.611 40.7248 188.971 41.1645 191.542C41.1549 191.54 40.7544 199.312 43.5331 208.243C46.1454 216.975 52.4182 227.702 64 230.767C62.668 208.588 62.6266 185.992 61.2339 163.716Z" fill="#F7FBFB"/>
<path d="M63.5545 164.61C63.5545 164.61 43.3781 158.358 44.0881 179.101C44.0881 179.101 47.092 209.178 48.3965 211.95C48.3965 211.95 56.3203 229.462 69.3975 230.238C82.1785 230.997 69.3975 230.238 69.3975 230.238L69.5562 235.883C69.5562 235.883 46.5715 232.936 42.1322 206.448L38.6283 182.385C38.6283 182.385 35.9077 150.541 62.2978 158.637C88.0071 166.525 62.2978 158.637 62.2978 158.637L63.5545 164.61Z" fill="#3B434F"/>
<path d="M56.8949 206.397C56.8949 206.397 55.7658 207.251 54.7958 207.251C53.8258 207.251 52.7104 206.397 52.7104 206.397L50.6282 185.415C50.6282 185.415 53.5011 175.081 65.692 180.542L65.9802 186.542C65.9802 186.542 55.2845 182.749 55.5057 187.472C55.7186 192.018 56.8949 206.397 56.8949 206.397Z" fill="#3B434F"/>
<path d="M259.24 163.765C259.252 163.765 260.292 162.939 262.257 162.323C263.239 162.016 264.459 161.764 265.85 161.701C266.197 161.686 266.555 161.682 266.921 161.692C267.286 161.703 267.661 161.727 268.041 161.768C268.801 161.848 269.587 161.994 270.377 162.22C273.542 163.125 276.771 165.325 278.667 169.866C279.619 172.137 280.247 174.994 280.413 178.567C280.454 179.461 280.467 180.399 280.449 181.384C280.431 182.37 280.382 183.402 280.299 184.483C280.135 186.645 279.839 189.003 279.397 191.572C279.407 191.57 279.809 199.337 277.018 208.262C274.395 216.988 268.094 227.707 256.462 230.77C257.8 208.606 257.841 186.026 259.24 163.765Z" fill="#F7FBFB"/>
<path d="M256.909 164.658C256.909 164.658 277.174 158.411 276.461 179.139C276.461 179.139 273.444 209.196 272.134 211.966C272.134 211.966 264.175 229.466 251.041 230.242C238.204 231 251.041 230.242 251.041 230.242L250.881 235.883C250.881 235.883 273.967 232.938 278.425 206.468L281.945 182.422C281.945 182.422 284.677 150.599 258.171 158.69C232.35 166.572 258.171 158.69 258.171 158.69L256.909 164.658Z" fill="#3B434F"/>
<path d="M263.598 206.417C263.598 206.417 264.732 207.27 265.706 207.27C266.681 207.27 267.801 206.417 267.801 206.417L269.892 185.449C269.892 185.449 267.007 175.122 254.762 180.58L254.473 186.575C254.473 186.575 265.215 182.785 264.993 187.505C264.779 192.048 263.598 206.417 263.598 206.417Z" fill="#3B434F"/>
<path fill-rule="evenodd" clip-rule="evenodd" d="M168.32 204.736C168.818 204.736 169.316 204.736 169.813 204.736C172.901 208.929 174.157 215.372 175.787 220.949C176.292 222.677 175.802 225.7 175.36 226.922C173.742 231.398 168.662 231.318 164.48 233.322C163.357 233.861 162.521 234.79 161.067 235.029C160.118 234.194 158.973 234.03 158.507 232.682C157.354 231.096 158.839 230.105 160 229.482C162.106 228.353 168.608 227.24 169.387 225.216C170.35 224.12 169.709 220.826 169.387 219.669C168.56 216.707 168.163 214.234 167.04 211.562C166.294 209.788 164.984 207.917 165.76 205.802C166.403 205.526 167.793 205.212 168.32 204.736Z" fill="#3B434F"/>
</svg>
