<svg width="296" height="411" viewBox="0 0 296 411" fill="none" xmlns="http://www.w3.org/2000/svg">
<path d="M2.77251 408.44C2.77251 408.44 -7.52937 318.129 81.2125 308.053H119.186V290.56C119.186 290.56 145.898 302.033 172.946 291.84L173.799 308.053H218.173C218.173 308.053 295.446 315.768 290.773 408.44H2.77251Z" fill="white"/>
<path d="M290.034 410.027H5.51788H0L1.37735 386.497C4.06665 340.555 40.2642 305.493 81.6873 305.493H113.212V310.187H84.2021C44.2787 310.187 9.39166 343.935 6.79971 388.157L5.84299 404.48H289.283L288.752 388.157C286.16 343.935 251.273 310.187 211.35 310.187H172.519V305.493H213.612C255.035 305.493 291.232 340.555 293.922 386.497L295.299 410.027H290.034Z" fill="#3B434F"/>
<path d="M123.452 288.586V314.901C123.452 328.557 134.532 339.627 148.199 339.627C161.866 339.627 172.946 328.557 172.946 314.901V289.129C174.382 288.692 175.805 288.217 177.212 287.704V315.08C177.212 331.229 164.127 344.32 147.986 344.32C131.844 344.32 118.759 331.229 118.759 315.08V286.894C120.305 287.505 121.871 288.067 123.452 288.586Z" fill="#3B434F"/>
<path d="M118.546 339.2C120.077 339.2 121.319 340.442 121.319 341.973V383.787C121.319 385.318 120.077 386.56 118.546 386.56C117.014 386.56 115.772 385.318 115.772 383.787V341.973C115.772 340.442 117.014 339.2 118.546 339.2Z" fill="#3B434F"/>
<path d="M176.786 338.773C178.435 338.773 179.772 340.11 179.772 341.76V367.787C179.772 369.436 178.435 370.773 176.786 370.773C175.136 370.773 173.799 369.436 173.799 367.787V341.76C173.799 340.11 175.136 338.773 176.786 338.773Z" fill="#3B434F"/>
<path d="M118.546 383.573C119.371 383.573 120.039 384.242 120.039 385.067V395.733C120.039 396.558 119.371 397.227 118.546 397.227C117.721 397.227 117.052 396.558 117.052 395.733V385.067C117.052 384.242 117.721 383.573 118.546 383.573Z" fill="#3B434F"/>
<path d="M176.999 367.787C177.824 367.787 178.493 368.455 178.493 369.28V379.947C178.493 380.771 177.824 381.44 176.999 381.44C176.174 381.44 175.506 380.771 175.506 379.947V369.28C175.506 368.455 176.174 367.787 176.999 367.787Z" fill="#3B434F"/>
<path d="M102.538 278.086L75.5143 284.291C75.5143 284.291 42.4213 291.787 64.4381 314.091C86.4549 336.395 143.079 340.333 143.079 340.333C143.079 340.333 128.108 333.242 121.746 323.267L119.612 287.427L102.538 278.086Z" fill="#F5F3EF"/>
<path fill-rule="evenodd" clip-rule="evenodd" d="M143.933 342.467C142.256 344.589 95.1059 343.13 62.4392 314.733C38.7866 294.173 74.3859 282.307 74.3859 282.307L100.413 276.333L123.026 287.853L124.733 322.413C134.252 337.34 146.632 339.05 143.933 342.467ZM120.466 324.12L117.906 287.853L104.253 280.173L78.2259 286.573C78.2259 286.573 46.701 293.038 66.7059 311.747C88.2952 331.937 128.234 337.356 132.413 336.92C136.743 336.469 129.985 339.046 120.466 324.12Z" fill="#3B434F"/>
<path d="M193.832 279.091L220.871 285.315C220.871 285.315 253.984 292.834 231.954 315.204C209.924 337.574 153.267 341.525 153.267 341.525C153.267 341.525 168.247 334.413 174.613 324.407L176.747 288.46L193.832 279.091Z" fill="#F5F3EF"/>
<path fill-rule="evenodd" clip-rule="evenodd" d="M152.413 343.238C154.091 345.367 201.268 343.903 233.954 315.422C257.621 294.799 222.001 282.898 222.001 282.898L195.959 276.907L173.332 288.461L171.624 323.125C162.099 338.096 149.712 339.811 152.413 343.238ZM175.893 324.836L178.455 288.461L192.116 280.758L218.158 287.177C218.158 287.177 249.702 293.661 229.685 312.426C208.083 332.677 168.12 338.112 163.94 337.675C159.606 337.222 166.368 339.808 175.893 324.836Z" fill="#3B434F"/>
<path d="M147.987 20.9067C201.065 20.9067 242.959 70.508 241.597 130.105L240.149 193.446C238.866 249.593 197.618 293.973 147.987 293.973C98.3563 293.973 57.1082 249.593 55.8248 193.446L54.377 130.105C53.0148 70.508 94.9092 20.9067 147.987 20.9067Z" fill="white"/>
<path fill-rule="evenodd" clip-rule="evenodd" d="M245.862 128.141L244.345 194.055C243 252.483 199.779 298.667 147.774 298.667C95.7688 298.667 52.5475 252.483 51.2028 194.055L49.6857 128.141C48.2584 66.1229 92.1568 14.5066 147.774 14.5066C203.391 14.5066 247.289 66.1229 245.862 128.141ZM147.561 21.3333C95.2084 21.3333 53.8867 70.547 55.2303 129.678L56.6583 192.525C57.9241 248.232 98.6084 292.267 147.561 292.267C196.513 292.267 237.197 248.232 238.463 192.525L239.891 129.678C241.235 70.547 199.913 21.3333 147.561 21.3333Z" fill="#3B434F"/>
<path opacity="0.058824" fill-rule="evenodd" clip-rule="evenodd" d="M243.199 139.093L238.932 209.067C238.932 209.067 219.982 289.838 146.772 299.401V299.52C146.629 299.502 146.489 299.479 146.346 299.461C146.202 299.479 146.063 299.502 145.919 299.52V299.401C72.7094 289.838 53.7591 209.067 53.7591 209.067L49.4924 139.093C68.4902 223.42 84.4791 228.693 84.4791 228.693C81.2435 203.122 107.519 205.653 107.519 205.653C123.533 208.358 136.282 209.666 146.346 210.154C156.41 209.666 169.158 208.358 185.172 205.653C185.172 205.653 211.448 203.122 208.212 228.693C208.212 228.693 224.201 223.42 243.199 139.093ZM195.756 237.366C194.513 222.325 185.443 223.6 185.443 223.6C169.319 228.345 156.661 230.981 146.772 232.32V232.222C136.953 230.893 124.384 228.279 108.372 223.573C108.372 223.573 99.3658 222.308 98.1324 237.227C98.1324 237.227 94.5157 252.173 106.666 258.56L122.026 274.773C122.026 274.773 132.522 278.1 132.266 265.387C132.266 265.387 131.197 255.905 137.386 254.293H146.772V254.574H156.225C162.457 256.199 161.381 265.759 161.381 265.759C161.123 278.577 171.694 275.223 171.694 275.223L187.162 258.876C199.398 252.437 195.756 237.366 195.756 237.366Z" fill="#3B434F"/>
<path d="M193.852 231.766C186.097 238.5 168.58 244.907 148.199 244.907C127.818 244.907 110.301 238.5 102.546 231.766C102.546 231.766 101.752 229.583 102.916 228.419C104.102 227.233 105.959 227.491 105.959 227.491C113.706 234.229 127.81 239.787 148.199 239.787C168.588 239.787 182.692 234.229 190.439 227.491C190.439 227.491 192.334 226.787 193.255 227.707C195.028 229.481 193.852 231.766 193.852 231.766Z" fill="#3B434F"/>
<path d="M134.119 255.147H161.426V259.413H134.119V255.147Z" fill="#3B434F"/>
<path d="M49.5796 137.753C49.5678 137.754 48.532 136.927 46.576 136.311C45.5984 136.004 44.3834 135.751 42.9985 135.688C42.6527 135.673 42.2967 135.669 41.9325 135.68C41.5683 135.69 41.1957 135.714 40.8171 135.755C40.0599 135.836 39.2778 135.981 38.4908 136.207C35.3396 137.113 32.1251 139.315 30.2372 143.859C29.2895 146.131 28.6643 148.99 28.499 152.566C28.4576 153.46 28.445 154.399 28.4631 155.385C28.4813 156.371 28.5303 157.403 28.612 158.485C28.7754 160.649 29.0705 163.008 29.5102 165.58C29.5006 165.577 29.1001 173.35 31.8788 182.281C34.4911 191.013 40.7639 201.739 52.3457 204.804C51.0137 182.625 50.9723 160.03 49.5796 137.753Z" fill="white"/>
<path d="M50.9004 138.647C50.9004 138.647 30.724 132.396 31.4341 153.138C31.4341 153.138 34.438 183.215 35.7424 185.987C35.7424 185.987 43.6663 203.499 56.7434 204.275C69.5244 205.034 56.7434 204.275 56.7434 204.275L56.9021 209.92C56.9021 209.92 33.9175 206.973 29.4781 180.485L25.9743 156.423C25.9743 156.423 23.2537 124.578 49.6437 132.675C75.353 140.563 49.6437 132.675 49.6437 132.675L50.9004 138.647Z" fill="#3B434F"/>
<path d="M44.2409 180.435C44.2409 180.435 43.1117 181.288 42.1417 181.288C41.1717 181.288 40.0563 180.435 40.0563 180.435L37.9741 159.452C37.9741 159.452 40.847 149.119 53.0379 154.579L53.3261 160.579C53.3261 160.579 42.6305 156.786 42.8516 161.509C43.0645 166.056 44.2409 180.435 44.2409 180.435Z" fill="#3B434F"/>
<path d="M245.586 137.802C245.598 137.803 246.638 136.976 248.603 136.361C249.585 136.054 250.805 135.801 252.196 135.739C252.543 135.723 252.901 135.72 253.266 135.73C253.632 135.74 254.006 135.765 254.387 135.805C255.147 135.886 255.933 136.031 256.723 136.257C259.888 137.162 263.117 139.363 265.013 143.904C265.965 146.175 266.593 149.031 266.759 152.605C266.8 153.498 266.813 154.437 266.795 155.422C266.777 156.407 266.727 157.439 266.645 158.52C266.481 160.682 266.185 163.04 265.743 165.61C265.753 165.607 266.155 173.375 263.364 182.3C260.74 191.026 254.44 201.745 242.808 204.808C244.145 182.644 244.187 160.064 245.586 137.802Z" fill="white"/>
<path d="M244.255 138.696C244.255 138.696 264.52 132.448 263.807 153.177C263.807 153.177 260.79 183.233 259.479 186.004C259.479 186.004 251.521 203.504 238.386 204.279C225.549 205.037 238.386 204.279 238.386 204.279L238.227 209.92C238.227 209.92 261.312 206.975 265.771 180.505L269.29 156.459C269.29 156.459 272.023 124.636 245.517 132.727C219.695 140.61 245.517 132.727 245.517 132.727L244.255 138.696Z" fill="#3B434F"/>
<path d="M250.944 180.455C250.944 180.455 252.078 181.308 253.052 181.308C254.026 181.308 255.147 180.455 255.147 180.455L257.238 159.486C257.238 159.486 254.353 149.16 242.108 154.617L241.819 160.613C241.819 160.613 252.561 156.822 252.339 161.542C252.125 166.086 250.944 180.455 250.944 180.455Z" fill="#3B434F"/>
<path fill-rule="evenodd" clip-rule="evenodd" d="M155.666 178.773C156.163 178.773 156.661 178.773 157.159 178.773C160.247 182.966 161.503 189.41 163.132 194.987C163.637 196.715 163.147 199.738 162.706 200.96C161.088 205.435 156.008 205.355 151.826 207.36C150.703 207.898 149.867 208.828 148.412 209.067C147.464 208.231 146.319 208.067 145.852 206.72C144.7 205.133 146.185 204.142 147.346 203.52C149.452 202.39 155.954 201.277 156.732 199.253C157.696 198.158 157.055 194.863 156.732 193.707C155.906 190.744 155.509 188.272 154.386 185.6C153.64 183.825 152.33 181.954 153.106 179.84C153.749 179.564 155.139 179.25 155.666 178.773Z" fill="#3B434F"/>
<path d="M93.5858 148.651H108.946C111.067 148.651 112.786 150.714 112.786 153.259C112.786 155.804 111.067 157.867 108.946 157.867H93.5858C91.4651 157.867 89.7458 155.804 89.7458 153.259C89.7458 150.714 91.4651 148.651 93.5858 148.651Z" fill="#3B434F"/>
<path d="M187.453 147.627H202.813C204.933 147.627 206.653 149.69 206.653 152.235C206.653 154.78 204.933 156.843 202.813 156.843H187.453C185.332 156.843 183.613 154.78 183.613 152.235C183.613 149.69 185.332 147.627 187.453 147.627Z" fill="#3B434F"/>
<path d="M199.399 174.08C205.29 174.08 210.066 178.856 210.066 184.747C210.066 190.638 205.29 195.413 199.399 195.413C193.508 195.413 188.732 190.638 188.732 184.747C188.732 178.856 193.508 174.08 199.399 174.08Z" fill="#EDF1F1"/>
<path d="M96.1459 174.08C102.037 174.08 106.813 178.856 106.813 184.747C106.813 190.638 102.037 195.413 96.1459 195.413C90.2549 195.413 85.4792 190.638 85.4792 184.747C85.4792 178.856 90.2549 174.08 96.1459 174.08Z" fill="#EDF1F1"/>
<path fill-rule="evenodd" clip-rule="evenodd" d="M240.712 133.32C240.135 138.25 239.628 144.282 238.562 149.676C235.375 165.804 221.516 180.747 197.852 182.45C174.188 184.153 154.048 172.24 152.868 155.842C152.668 153.061 152.133 149.941 151.722 146.908C148.373 145.051 144.921 145.047 141.367 146.895C140.952 149.997 140.397 153.199 140.192 156.046C139.008 172.499 118.804 184.451 95.0658 182.743C71.3274 181.034 57.425 166.042 54.2274 149.86C53.158 144.449 52.6494 138.396 52.0703 133.45L48.582 133.199L49.072 126.389L49.9232 126.451L71.5117 128.004L89.7348 129.316L107.992 130.629L136.428 132.676C138.39 132.924 139.694 133.765 140.533 135.021C144.617 136.808 148.584 136.815 152.432 135.042C153.264 133.705 154.586 132.806 156.62 132.548L184.967 130.509L203.166 129.199L221.332 127.892L242.853 126.344L243.701 126.283L244.19 133.069L240.712 133.32ZM128.792 140.677L73.0609 136.667C65.7716 136.038 63.1879 144.23 62.7387 150.473C61.7915 163.634 76.4568 175.415 95.4946 176.785C114.532 178.155 130.733 168.596 131.68 155.434C132.13 149.191 134.169 145.335 128.792 140.677ZM230.078 150.286C229.63 144.064 227.054 135.9 219.788 136.526L164.232 140.523C158.872 145.166 160.905 149.009 161.353 155.231C162.297 168.35 178.447 177.877 197.425 176.512C216.403 175.146 231.022 163.405 230.078 150.286Z" fill="#3B444F"/>
<path d="M54.7895 165.547C54.7895 165.547 66.6592 113.551 76.988 99.328C87.3168 85.1053 96.2548 81.7034 100.894 81.2684C105.533 80.8333 142.066 91.6327 192.249 79.2617C192.249 79.2617 212.036 78.472 220.424 98.3247C220.424 98.3247 238.108 129.962 240.915 161.533H244.33C244.33 161.533 251.567 106.191 248.599 73.2419C245.631 40.2932 202.494 24.0795 202.494 24.0795L211.886 17.0563C211.886 17.0563 189.959 10.2781 181.15 14.0464L187.98 0C187.98 0 143.73 0.0881958 118.823 20.0663L119.677 10.0331C119.677 10.0331 31.8874 23.4956 50.5206 163.54L54.7895 165.547Z" fill="#3B434F"/>
</svg>
