<svg width="296" height="419" viewBox="0 0 296 419" fill="none" xmlns="http://www.w3.org/2000/svg">
<path d="M1.35893 415.576C1.35893 415.576 -8.94295 325.265 79.7989 315.19H117.772V297.696C117.772 297.696 144.484 309.17 171.532 298.976L172.386 315.19H216.759C216.759 315.19 294.032 322.904 289.359 415.576H1.35893Z" fill="white"/>
<path d="M290.034 418.163H5.51788H0L1.37735 394.633C4.06665 348.691 40.2642 313.63 81.6873 313.63H113.212V318.323H84.2021C44.2787 318.323 9.39166 352.072 6.79971 396.293L5.84299 412.616H289.283L288.752 396.293C286.16 352.072 251.273 318.323 211.35 318.323H172.519V313.63H213.612C255.035 313.63 291.232 348.691 293.922 394.633L295.299 418.163H290.034Z" fill="#3B434F"/>
<path d="M143.079 366.536C120.222 366.536 101.692 348.007 101.692 325.15C101.692 321.15 102.271 317.288 103.329 313.63H103.399H107.791H115.345V318.323H106.597C106.183 320.536 105.959 322.816 105.959 325.15C105.959 345.651 122.578 362.27 143.079 362.27C163.58 362.27 180.199 345.651 180.199 325.15C180.199 322.816 179.974 320.536 179.56 318.323H170.812V313.63H178.367H182.759H182.828C183.887 317.288 184.465 321.15 184.465 325.15C184.465 348.007 165.936 366.536 143.079 366.536Z" fill="#3B434F"/>
<path d="M118.759 296.722V323.038C118.759 336.693 129.838 347.763 143.505 347.763C157.173 347.763 168.252 336.693 168.252 323.038V297.265C169.688 296.828 171.111 296.353 172.519 295.84V323.217C172.519 339.365 159.434 352.456 143.292 352.456C127.151 352.456 114.065 339.365 114.065 323.217V295.03C115.611 295.641 117.177 296.203 118.759 296.722Z" fill="#3B434F"/>
<path d="M144.574 29.0431C197.651 29.0431 239.546 78.6443 238.184 138.241L236.736 201.583C235.452 257.729 194.204 302.11 144.574 302.11C94.9428 302.11 53.6946 257.729 52.4113 201.583L50.9635 138.241C49.6013 78.6443 91.4956 29.0431 144.574 29.0431Z" fill="white"/>
<path fill-rule="evenodd" clip-rule="evenodd" d="M242.448 136.278L240.931 202.192C239.586 260.619 196.365 306.803 144.36 306.803C92.3553 306.803 49.1339 260.619 47.7892 202.192L46.2721 136.278C44.8448 74.2593 88.7433 22.6431 144.36 22.6431C199.977 22.6431 243.876 74.2593 242.448 136.278ZM144.147 29.4697C91.7948 29.4697 50.4731 78.6834 51.8167 137.815L53.2447 200.661C54.5105 256.369 95.1948 300.403 144.147 300.403C193.099 300.403 233.784 256.369 235.049 200.661L236.477 137.815C237.821 78.6834 196.499 29.4697 144.147 29.4697Z" fill="#3B434F"/>
<path d="M134.119 268.403H154.599C155.541 268.403 156.305 269.167 156.305 270.11C156.305 271.052 155.541 271.816 154.599 271.816H134.119C133.176 271.816 132.412 271.052 132.412 270.11C132.412 269.167 133.176 268.403 134.119 268.403Z" fill="#3B434F"/>
<path d="M116.197 247.983L118.574 244.656C126.214 249.026 135.291 251.56 145.029 251.56C154.875 251.56 164.045 248.969 171.738 244.509L174.226 247.945C165.858 252.789 155.886 255.603 145.179 255.603C134.501 255.603 124.552 252.804 116.197 247.983Z" fill="#3B434F"/>
<path d="M46.166 145.889C46.1542 145.89 45.1184 145.063 43.1624 144.447C42.1848 144.14 40.9698 143.887 39.585 143.825C39.2391 143.809 38.8832 143.806 38.5189 143.816C38.1547 143.826 37.7822 143.851 37.4035 143.891C36.6463 143.972 35.8642 144.117 35.0772 144.344C31.9261 145.249 28.7115 147.451 26.8236 151.995C25.8759 154.268 25.2507 157.126 25.0854 160.702C25.0441 161.596 25.0314 162.535 25.0496 163.521C25.0677 164.507 25.1167 165.54 25.1984 166.622C25.3619 168.785 25.657 171.145 26.0967 173.716C26.087 173.714 25.6866 181.486 28.4652 190.417C31.0775 199.149 37.3503 209.876 48.9321 212.941C47.6001 190.761 47.5587 168.166 46.166 145.889Z" fill="white"/>
<path d="M47.4868 146.784C47.4868 146.784 27.3105 140.532 28.0205 161.275C28.0205 161.275 31.0244 191.352 32.3289 194.124C32.3289 194.124 40.2527 211.636 53.3298 212.412C66.1108 213.17 53.3298 212.412 53.3298 212.412L53.4886 218.056C53.4886 218.056 30.5039 215.109 26.0646 188.622L22.5607 164.559C22.5607 164.559 19.8401 132.715 46.2302 140.811C71.9395 148.699 46.2302 140.811 46.2302 140.811L47.4868 146.784Z" fill="#3B434F"/>
<path d="M40.8273 188.571C40.8273 188.571 39.6982 189.425 38.7281 189.425C37.7581 189.425 36.6428 188.571 36.6428 188.571L34.5605 167.588C34.5605 167.588 37.4335 157.255 49.6244 162.716L49.9125 168.716C49.9125 168.716 39.2169 164.922 39.438 169.646C39.6509 174.192 40.8273 188.571 40.8273 188.571Z" fill="#3B434F"/>
<path d="M242.172 145.939C242.184 145.939 243.224 145.113 245.189 144.497C246.171 144.19 247.391 143.938 248.782 143.875C249.13 143.86 249.487 143.856 249.853 143.866C250.219 143.877 250.593 143.901 250.973 143.942C251.734 144.022 252.519 144.168 253.31 144.394C256.475 145.299 259.703 147.499 261.599 152.04C262.551 154.311 263.179 157.168 263.345 160.741C263.387 161.635 263.399 162.573 263.381 163.558C263.363 164.543 263.314 165.576 263.232 166.657C263.068 168.819 262.771 171.177 262.33 173.746C262.339 173.744 262.741 181.511 259.951 190.436C257.327 199.162 251.027 209.881 239.394 212.944C240.732 190.78 240.773 168.2 242.172 145.939Z" fill="white"/>
<path d="M240.841 146.832C240.841 146.832 261.106 140.585 260.393 161.313C260.393 161.313 257.376 191.37 256.066 194.14C256.066 194.14 248.107 211.64 234.973 212.416C222.136 213.174 234.973 212.416 234.973 212.416L234.813 218.056C234.813 218.056 257.899 215.111 262.358 188.642L265.877 164.595C265.877 164.595 268.609 132.772 242.104 140.864C216.282 148.746 242.104 140.864 242.104 140.864L240.841 146.832Z" fill="#3B434F"/>
<path d="M247.53 188.591C247.53 188.591 248.664 189.444 249.639 189.444C250.613 189.444 251.733 188.591 251.733 188.591L253.824 167.623C253.824 167.623 250.939 157.296 238.695 162.753L238.405 168.749C238.405 168.749 249.148 164.958 248.926 169.679C248.712 174.222 247.53 188.591 247.53 188.591Z" fill="#3B434F"/>
<path fill-rule="evenodd" clip-rule="evenodd" d="M152.252 186.91C152.75 186.91 153.248 186.91 153.746 186.91C156.833 191.103 158.089 197.546 159.719 203.123C160.224 204.851 159.734 207.874 159.292 209.096C157.674 213.572 152.595 213.492 148.412 215.496C147.289 216.035 146.453 216.964 144.999 217.203C144.051 216.368 142.906 216.204 142.439 214.856C141.287 213.27 142.772 212.279 143.932 211.656C146.038 210.527 152.54 209.414 153.319 207.39C154.282 206.294 153.642 203 153.319 201.843C152.492 198.881 152.095 196.408 150.972 193.736C150.226 191.962 148.916 190.091 149.692 187.976C150.335 187.7 151.725 187.386 152.252 186.91Z" fill="#3B434F"/>
<path d="M90.1723 156.787H105.532C107.653 156.787 109.372 158.85 109.372 161.395C109.372 163.94 107.653 166.003 105.532 166.003H90.1723C88.0515 166.003 86.3323 163.94 86.3323 161.395C86.3323 158.85 88.0515 156.787 90.1723 156.787Z" fill="#3B434F"/>
<path d="M184.039 155.763H199.399C201.52 155.763 203.239 157.826 203.239 160.371C203.239 162.916 201.52 164.979 199.399 164.979H184.039C181.918 164.979 180.199 162.916 180.199 160.371C180.199 157.826 181.918 155.763 184.039 155.763Z" fill="#3B434F"/>
<path d="M195.986 182.216C201.877 182.216 206.652 186.992 206.652 192.883C206.652 198.774 201.877 203.55 195.986 203.55C190.094 203.55 185.319 198.774 185.319 192.883C185.319 186.992 190.094 182.216 195.986 182.216Z" fill="#EDF1F1"/>
<path d="M92.7323 182.216C98.6234 182.216 103.399 186.992 103.399 192.883C103.399 198.774 98.6234 203.55 92.7323 203.55C86.8413 203.55 82.0657 198.774 82.0657 192.883C82.0657 186.992 86.8413 182.216 92.7323 182.216Z" fill="#EDF1F1"/>
<path fill-rule="evenodd" clip-rule="evenodd" d="M229.692 142.963V174.536C229.692 182.252 222.166 194.292 209.902 194.981C208.1 194.895 171.666 195.016 171.666 195.016C155.287 195.016 152.039 175.39 152.039 175.39V154.056H136.679V175.39C136.679 175.39 133.431 195.016 117.052 195.016C117.052 195.016 80.6177 194.895 78.8161 194.981C66.5521 194.292 59.0256 182.252 59.0256 174.536V142.963H45.3723V134.43H124.732C124.732 134.43 136.679 136.36 136.679 144.67H152.039C152.039 136.36 163.986 134.43 163.986 134.43H243.346V142.963H229.692ZM128.146 147.23C128.146 144.188 124.732 143.816 124.732 143.816H67.559V173.683C67.559 182.989 80.359 186.483 80.359 186.483H115.346C127.383 186.483 128.146 173.683 128.146 173.683C128.146 173.683 128.146 150.271 128.146 147.23ZM221.159 143.816H163.986C163.986 143.816 160.572 144.188 160.572 147.23C160.572 150.271 160.572 173.683 160.572 173.683C160.572 173.683 161.335 186.483 173.372 186.483H208.359C208.359 186.483 221.159 182.989 221.159 173.683V143.816ZM209.212 195.016C209.445 195.012 209.672 194.994 209.902 194.981C210.095 194.991 209.901 195.002 209.212 195.016ZM78.8161 194.981C79.0455 194.994 79.273 195.012 79.5056 195.016C78.817 195.002 78.6233 194.991 78.8161 194.981Z" fill="#3B434F"/>
<path d="M51.5361 141.947C51.5361 141.947 47.712 101.31 72.6788 79.8164C72.6788 79.8164 132.024 138.145 212.625 79.8164C212.625 79.8164 241.587 108.785 239.079 140.403C239.079 140.403 287.917 84.384 250.172 73.8431C250.172 73.8431 240.866 76.5528 237.372 62.7497C233.878 48.9466 227.369 4.36757 139.239 3.0164C51.1083 1.66524 57.3188 55.923 57.3188 55.923C57.5988 56.0929 8.36845 80.0327 51.5361 141.947Z" fill="#C1BFBD"/>
<path fill-rule="evenodd" clip-rule="evenodd" d="M239.506 145.096C238.476 110.014 212.626 83.6564 212.626 83.6564C132.024 139.493 73.1057 83.6564 73.1057 83.6564C54.2338 98.1024 51.7723 144.67 51.7723 144.67C3.093 82.5362 54.6123 55.2396 54.3323 55.0697C54.3323 55.0697 49.4044 -1.48039 137.532 0.0297145C229.322 1.60253 236.017 45.7999 239.932 61.4697C243.054 73.9658 254.012 71.7097 254.012 71.7097C293.221 86.9373 239.506 145.096 239.506 145.096ZM248.892 76.403C248.892 76.403 238.454 79.1278 234.386 62.7497C230.953 48.9313 227.369 7.35421 139.239 6.00304C51.1085 4.65188 59.879 58.0564 59.879 58.0564C60.159 58.2262 15.5863 79.4071 48.359 131.87C48.359 131.87 47.2855 97.4699 72.2523 75.9764C72.2523 75.9764 129.671 136.622 213.479 76.403C213.479 76.403 240.034 101.689 242.066 132.723C242.066 132.723 281.227 83.4957 248.892 76.403Z" fill="#3B434F"/>
</svg>
