<svg width="305" height="472" viewBox="0 0 305 472" fill="none" xmlns="http://www.w3.org/2000/svg">
<path d="M211.346 272.604C211.346 272.604 164.986 216.717 214.759 275.164C264.532 333.61 304.359 298.204 304.359 298.204C304.359 298.204 304.359 183.57 304.359 99.3771C304.359 15.1838 252.306 12.3371 252.306 12.3371L268.519 8.07046C204.044 -18.5648 181.919 28.0461 176.78 42.4392C175.886 44.9419 175.506 46.4705 175.506 46.4705C175.506 46.4705 170.888 67.4388 179.346 75.4838" fill="#3B444F"/>
<path d="M145.639 60.9772C204.785 60.9772 252.732 108.924 252.732 168.07V190.257C252.732 249.403 204.785 297.35 145.639 297.35C86.493 297.35 38.5457 249.403 38.5457 190.257V168.07C38.5457 108.924 86.493 60.9772 145.639 60.9772Z" fill="#3B444F"/>
<path d="M3.13234 468.271C3.13234 468.271 -3.48265 378.282 81.2124 369.884H119.186V352.391C119.186 352.391 145.897 363.864 172.946 353.671L173.799 369.884H218.172C218.172 369.884 294.158 372.868 290.706 469.124L3.13234 468.271Z" fill="white"/>
<path fill-rule="evenodd" clip-rule="evenodd" d="M290.034 471.857H5.51788H0L1.37735 448.327C4.06665 402.385 40.2642 367.324 81.6873 367.324H110.171C108.323 368.852 106.969 370.437 105.995 372.017H84.2021C44.2787 372.017 9.39166 405.766 6.79971 449.988L5.84299 466.311H289.283L288.752 449.988C286.16 405.766 251.273 372.017 211.35 372.017H189.538C188.704 370.449 187.518 368.864 185.862 367.324H213.612C255.035 367.324 291.232 402.385 293.922 448.327L295.299 471.857H290.034ZM177.423 372.017H175.932V367.324H177.588C177.489 368.544 177.426 370.081 177.423 372.017ZM117.412 367.324H119.186V372.017H117.652C117.629 370.024 117.538 368.495 117.412 367.324Z" fill="#3B434F"/>
<path d="M160.999 432.604C162.648 432.604 163.986 433.941 163.986 435.59C163.986 437.24 162.648 438.577 160.999 438.577C159.35 438.577 158.012 437.24 158.012 435.59C158.012 433.941 159.35 432.604 160.999 432.604Z" fill="#3B434F"/>
<path d="M160.999 452.23C162.648 452.23 163.986 453.568 163.986 455.217C163.986 456.867 162.648 458.204 160.999 458.204C159.35 458.204 158.012 456.867 158.012 455.217C158.012 453.568 159.35 452.23 160.999 452.23Z" fill="#3B434F"/>
<path fill-rule="evenodd" clip-rule="evenodd" d="M195.559 392.497L173.799 424.924C167.88 406.577 150.759 413.404 150.759 413.404V467.592C150.759 469.005 149.422 470.151 147.772 470.151C146.123 470.151 144.786 469.005 144.786 467.592V413.403C144.647 413.348 127.663 406.651 121.774 424.924L100.038 392.497C100.038 392.497 91.6295 371.121 117.086 361.777C117.086 352.455 117.086 351.964 117.086 351.964H121.899C121.899 351.964 121.899 369.788 121.899 382.848C122.517 388.164 126.178 403.312 147.772 408.284C169.391 403.312 173.055 388.164 173.674 382.848C173.674 369.788 173.674 351.964 173.674 351.964H178.492C178.492 351.964 178.492 352.455 178.492 361.777C203.976 371.121 195.559 392.497 195.559 392.497ZM121.522 395.368C120.361 394.054 118.69 390.791 118.69 390.791C118.69 390.791 117.086 385.451 117.086 383.111C117.086 380.204 117.086 376.389 117.086 372.288C116.723 367.407 115.807 367.324 115.807 367.324C96.8134 376.679 105.152 391.217 105.152 391.217L120.922 415.964C127.08 405.529 133.708 407.431 133.708 407.431C127.856 404.448 124.018 399.819 121.522 395.368ZM179.772 367.324C179.772 367.324 178.856 367.407 178.492 372.288C178.492 376.389 178.492 380.204 178.492 383.111C178.492 385.451 176.886 390.791 176.886 390.791C176.886 390.791 175.213 394.054 174.052 395.368C171.553 399.819 167.711 404.448 161.852 407.431C161.852 407.431 168.488 405.529 174.652 415.964L190.439 391.217C190.439 391.217 198.787 376.679 179.772 367.324Z" fill="#3B434F"/>
<path d="M147.987 82.7371C201.065 82.7371 242.959 132.338 241.597 191.935L240.149 255.277C238.866 311.423 197.618 355.804 147.987 355.804C98.3562 355.804 57.108 311.423 55.8247 255.277L54.3769 191.935C53.0147 132.338 94.9091 82.7371 147.987 82.7371Z" fill="white"/>
<path fill-rule="evenodd" clip-rule="evenodd" d="M245.862 189.972L244.345 255.886C243 314.313 199.779 360.497 147.774 360.497C95.7688 360.497 52.5475 314.313 51.2028 255.886L49.6857 189.972C48.2584 127.953 92.1568 76.3372 147.774 76.3372C203.391 76.3372 247.289 127.953 245.862 189.972ZM147.561 83.1638C95.2084 83.1638 53.8867 132.378 55.2303 191.509L56.6583 254.355C57.9241 310.063 98.6084 354.097 147.561 354.097C196.513 354.097 237.197 310.063 238.463 254.355L239.891 191.509C241.235 132.378 199.913 83.1638 147.561 83.1638Z" fill="#3B434F"/>
<path d="M193.852 293.596C186.097 300.33 168.58 306.737 148.199 306.737C127.818 306.737 110.301 300.33 102.546 293.596C102.546 293.596 101.752 291.413 102.916 290.249C104.102 289.063 105.959 289.321 105.959 289.321C113.706 296.06 127.81 301.617 148.199 301.617C168.588 301.617 182.692 296.06 190.439 289.321C190.439 289.321 192.334 288.617 193.255 289.538C195.028 291.311 193.852 293.596 193.852 293.596Z" fill="#3B434F"/>
<path d="M134.119 316.977H161.426V321.244H134.119V316.977Z" fill="#3B434F"/>
<path d="M49.5795 199.584C49.5678 199.584 48.5319 198.757 46.5759 198.141C45.5983 197.834 44.3833 197.581 42.9985 197.519C42.6526 197.503 42.2967 197.5 41.9324 197.51C41.5682 197.52 41.1957 197.545 40.817 197.585C40.0598 197.666 39.2777 197.811 38.4907 198.038C35.3396 198.943 32.125 201.145 30.2371 205.69C29.2894 207.962 28.6642 210.82 28.4989 214.396C28.4576 215.29 28.445 216.229 28.4631 217.215C28.4812 218.201 28.5302 219.234 28.6119 220.316C28.7754 222.479 29.0705 224.839 29.5102 227.41C29.5006 227.408 29.1001 235.18 31.8788 244.111C34.491 252.843 40.7638 263.57 52.3456 266.635C51.0136 244.455 50.9722 221.86 49.5795 199.584Z" fill="white"/>
<path d="M50.9002 200.478C50.9002 200.478 30.7238 194.226 31.4338 214.969C31.4338 214.969 34.4377 245.046 35.7422 247.818C35.7422 247.818 43.666 265.33 56.7432 266.106C69.5242 266.864 56.7432 266.106 56.7432 266.106L56.9019 271.75C56.9019 271.75 33.9172 268.803 29.4779 242.316L25.974 218.253C25.974 218.253 23.2534 186.408 49.6435 194.505C75.3528 202.393 49.6435 194.505 49.6435 194.505L50.9002 200.478Z" fill="#3B434F"/>
<path d="M44.2406 242.265C44.2406 242.265 43.1115 243.119 42.1415 243.119C41.1715 243.119 40.0561 242.265 40.0561 242.265L37.9739 221.282C37.9739 221.282 40.8468 210.949 53.0377 216.41L53.3259 222.41C53.3259 222.41 42.6302 218.616 42.8514 223.34C43.0643 227.886 44.2406 242.265 44.2406 242.265Z" fill="#3B434F"/>
<path d="M246.586 199.633C246.598 199.633 247.638 198.807 249.603 198.191C250.584 197.884 251.805 197.632 253.196 197.569C253.543 197.554 253.901 197.55 254.266 197.56C254.632 197.571 255.006 197.595 255.387 197.635C256.147 197.716 256.933 197.862 257.723 198.088C260.888 198.993 264.117 201.193 266.013 205.734C266.965 208.005 267.593 210.862 267.759 214.435C267.8 215.329 267.813 216.267 267.795 217.252C267.776 218.237 267.727 219.27 267.645 220.351C267.481 222.513 267.185 224.871 266.743 227.44C266.753 227.438 267.155 235.205 264.364 244.13C261.74 252.856 255.44 263.575 243.808 266.638C245.145 244.474 245.187 221.894 246.586 199.633Z" fill="white"/>
<path d="M244.255 200.526C244.255 200.526 264.52 194.279 263.807 215.007C263.807 215.007 260.79 245.064 259.479 247.834C259.479 247.834 251.521 265.334 238.386 266.11C225.549 266.868 238.386 266.11 238.386 266.11L238.227 271.75C238.227 271.75 261.312 268.805 265.771 242.336L269.29 218.289C269.29 218.289 272.023 186.466 245.517 194.558C219.695 202.44 245.517 194.558 245.517 194.558L244.255 200.526Z" fill="#3B434F"/>
<path d="M250.944 242.285C250.944 242.285 252.078 243.138 253.052 243.138C254.026 243.138 255.147 242.285 255.147 242.285L257.238 221.317C257.238 221.317 254.352 210.99 242.108 216.448L241.819 222.443C241.819 222.443 252.561 218.653 252.339 223.373C252.125 227.916 250.944 242.285 250.944 242.285Z" fill="#3B434F"/>
<path fill-rule="evenodd" clip-rule="evenodd" d="M155.666 240.604C156.163 240.604 156.661 240.604 157.159 240.604C160.246 244.797 161.503 251.24 163.132 256.817C163.637 258.545 163.147 261.568 162.706 262.79C161.088 267.266 156.008 267.186 151.826 269.19C150.702 269.729 149.867 270.658 148.412 270.897C147.464 270.062 146.319 269.898 145.852 268.55C144.7 266.964 146.185 265.973 147.346 265.35C149.452 264.221 155.954 263.108 156.732 261.084C157.696 259.988 157.055 256.694 156.732 255.537C155.906 252.575 155.509 250.102 154.386 247.43C153.64 245.656 152.329 243.785 153.106 241.67C153.749 241.394 155.139 241.08 155.666 240.604Z" fill="#3B434F"/>
<path d="M96.5723 207.75H102.546C105.845 207.75 108.519 210.425 108.519 213.724C108.519 217.023 105.845 219.697 102.546 219.697H96.5723C93.2733 219.697 90.599 217.023 90.599 213.724C90.599 210.425 93.2733 207.75 96.5723 207.75Z" fill="#3B434F"/>
<path d="M193.852 207.75H199.826C203.125 207.75 205.799 210.425 205.799 213.724C205.799 217.023 203.125 219.697 199.826 219.697H193.852C190.553 219.697 187.879 217.023 187.879 213.724C187.879 210.425 190.553 207.75 193.852 207.75Z" fill="#3B434F"/>
<path d="M199.399 235.911C205.29 235.911 210.066 240.686 210.066 246.577C210.066 252.468 205.29 257.244 199.399 257.244C193.508 257.244 188.732 252.468 188.732 246.577C188.732 240.686 193.508 235.911 199.399 235.911Z" fill="#EDF1F1"/>
<path d="M96.1457 235.911C102.037 235.911 106.812 240.686 106.812 246.577C106.812 252.468 102.037 257.244 96.1457 257.244C90.2546 257.244 85.479 252.468 85.479 246.577C85.479 240.686 90.2546 235.911 96.1457 235.911Z" fill="#EDF1F1"/>
<path d="M170.772 188.881L173.244 192.02L174.777 193.965C174.777 193.965 201.927 178.973 220.772 196.27L222.781 197.255C222.781 197.255 218.139 172.179 177.5 186.847C175.356 187.428 173.119 188.1 170.772 188.881Z" fill="#3B434F"/>
<path d="M123.772 188.898L121.301 192.031L119.768 193.972C119.768 193.972 92.6172 179.011 73.7723 196.273L71.7632 197.255C71.7632 197.255 76.4056 172.231 117.045 186.869C119.189 187.449 121.426 188.119 123.772 188.898Z" fill="#3B434F"/>
<path fill-rule="evenodd" clip-rule="evenodd" d="M147.772 133.28V38.8013C148.057 38.7991 148.34 38.7905 148.626 38.7905C208.479 38.7905 256.999 87.3109 256.999 147.164V181.994C256.977 183.208 256.976 184.399 256.999 185.564C256.999 185.564 156.35 158.344 147.772 133.28ZM38.5457 185.564C38.5685 184.399 38.5674 183.208 38.5457 181.994V147.164C38.5457 87.3109 87.066 38.7905 146.919 38.7905C147.204 38.7905 147.488 38.7991 147.772 38.8013V133.28C139.194 158.344 38.5457 185.564 38.5457 185.564Z" fill="#3B434F"/>
</svg>
