<svg width="296" height="425" viewBox="0 0 296 425" fill="none" xmlns="http://www.w3.org/2000/svg">
<path d="M2.77238 422.947C2.77238 422.947 -7.5295 332.636 81.2124 322.56H119.186V305.067C119.186 305.067 145.897 316.54 172.946 306.347L173.799 322.56H218.172C218.172 322.56 295.446 330.274 290.772 422.947H2.77238Z" fill="white"/>
<path d="M290.034 424.533H5.51788H0L1.37735 401.004C4.06665 355.061 40.2642 320 81.6873 320H113.212V324.693H84.2021C44.2787 324.693 9.39166 358.442 6.79971 402.664L5.84299 418.987H289.283L288.752 402.664C286.16 358.442 251.273 324.693 211.35 324.693H172.519V320H213.612C255.035 320 291.232 355.061 293.922 401.004L295.299 424.533H290.034Z" fill="#3B434F"/>
<path d="M123.452 303.093V329.408C123.452 343.063 134.532 354.133 148.199 354.133C161.866 354.133 172.946 343.063 172.946 329.408V303.636C174.382 303.199 175.805 302.724 177.212 302.211V329.587C177.212 345.736 164.127 358.827 147.986 358.827C131.844 358.827 118.759 345.736 118.759 329.587V301.4C120.305 302.012 121.871 302.574 123.452 303.093Z" fill="#3B434F"/>
<path d="M118.546 353.707C120.077 353.707 121.319 354.948 121.319 356.48V398.293C121.319 399.825 120.077 401.067 118.546 401.067C117.014 401.067 115.772 399.825 115.772 398.293V356.48C115.772 354.948 117.014 353.707 118.546 353.707Z" fill="#3B434F"/>
<path d="M176.786 353.28C178.435 353.28 179.772 354.617 179.772 356.267V382.293C179.772 383.943 178.435 385.28 176.786 385.28C175.136 385.28 173.799 383.943 173.799 382.293V356.267C173.799 354.617 175.136 353.28 176.786 353.28Z" fill="#3B434F"/>
<path d="M118.546 398.08C119.37 398.08 120.039 398.749 120.039 399.573V410.24C120.039 411.065 119.37 411.733 118.546 411.733C117.721 411.733 117.052 411.065 117.052 410.24V399.573C117.052 398.749 117.721 398.08 118.546 398.08Z" fill="#3B434F"/>
<path d="M176.999 382.293C177.824 382.293 178.492 382.962 178.492 383.787V394.453C178.492 395.278 177.824 395.947 176.999 395.947C176.174 395.947 175.506 395.278 175.506 394.453V383.787C175.506 382.962 176.174 382.293 176.999 382.293Z" fill="#3B434F"/>
<path d="M102.538 292.593L75.5142 298.798C75.5142 298.798 42.4211 306.294 64.438 328.598C86.4548 350.901 143.079 354.84 143.079 354.84C143.079 354.84 128.108 347.749 121.746 337.773L119.612 301.933L102.538 292.593Z" fill="#F5F3EF"/>
<path fill-rule="evenodd" clip-rule="evenodd" d="M143.932 356.973C142.256 359.096 95.1057 357.636 62.439 329.24C38.7864 308.679 74.3857 296.813 74.3857 296.813L100.412 290.84L123.026 302.36L124.732 336.92C134.252 351.846 146.632 353.557 143.932 356.973ZM120.466 338.627L117.906 302.36L104.252 294.68L78.2257 301.08C78.2257 301.08 46.7007 307.544 66.7056 326.253C88.295 346.444 128.234 351.862 132.412 351.427C136.743 350.975 129.985 353.553 120.466 338.627Z" fill="#3B434F"/>
<path d="M193.832 293.598L220.871 299.822C220.871 299.822 253.984 307.34 231.954 329.711C209.924 352.081 153.266 356.032 153.266 356.032C153.266 356.032 168.247 348.919 174.612 338.914L176.747 302.967L193.832 293.598Z" fill="#F5F3EF"/>
<path fill-rule="evenodd" clip-rule="evenodd" d="M152.413 357.745C154.09 359.873 201.268 358.41 233.954 329.928C257.621 309.306 222 297.405 222 297.405L195.958 291.413L173.332 302.968L171.624 337.631C162.099 352.602 149.712 354.318 152.413 357.745ZM175.893 339.343L178.455 302.968L192.116 295.265L218.158 301.684C218.158 301.684 249.702 308.168 229.685 326.933C208.083 347.184 168.12 352.618 163.939 352.181C159.606 351.729 166.368 354.314 175.893 339.343Z" fill="#3B434F"/>
<path d="M149.987 35.4133C203.065 35.4133 244.959 85.0146 243.597 144.612L242.149 207.953C240.866 264.099 199.618 308.48 149.987 308.48C100.356 308.48 59.108 264.099 57.8247 207.953L56.3769 144.612C55.0147 85.0146 96.9091 35.4133 149.987 35.4133Z" fill="white"/>
<path fill-rule="evenodd" clip-rule="evenodd" d="M247.862 142.648L246.345 208.562C245 266.989 201.779 313.173 149.774 313.173C97.7688 313.173 54.5475 266.989 53.2028 208.562L51.6857 142.648C50.2584 80.6296 94.1568 29.0133 149.774 29.0133C205.391 29.0133 249.289 80.6296 247.862 142.648ZM149.561 35.84C97.2084 35.84 55.8867 85.0537 57.2303 144.185L58.6583 207.031C59.9241 262.739 100.608 306.773 149.561 306.773C198.513 306.773 239.197 262.739 240.463 207.031L241.891 144.185C243.235 85.0537 201.913 35.84 149.561 35.84Z" fill="#3B434F"/>
<path opacity="0.058824" fill-rule="evenodd" clip-rule="evenodd" d="M245.199 153.6L240.932 223.573C240.932 223.573 221.982 304.344 148.772 313.908V314.027C148.628 314.009 148.489 313.985 148.346 313.967C148.202 313.985 148.063 314.009 147.919 314.027V313.908C74.7092 304.344 55.759 223.573 55.759 223.573L51.4923 153.6C70.4901 237.927 86.479 243.2 86.479 243.2C83.2434 217.629 109.519 220.16 109.519 220.16C125.533 222.865 138.281 224.172 148.346 224.661C158.41 224.172 171.158 222.865 187.172 220.16C187.172 220.16 213.448 217.629 210.212 243.2C210.212 243.2 226.201 237.927 245.199 153.6ZM197.755 251.873C196.513 236.831 187.443 238.107 187.443 238.107C171.319 242.852 158.661 245.487 148.772 246.827V246.729C138.953 245.4 126.384 242.786 110.372 238.08C110.372 238.08 101.366 236.815 100.132 251.733C100.132 251.733 96.5156 266.68 108.666 273.067L124.026 289.28C124.026 289.28 134.522 292.607 134.266 279.893C134.266 279.893 133.197 270.412 139.386 268.8H148.772V269.081H158.225C164.457 270.706 163.381 280.266 163.381 280.266C163.123 293.084 173.694 289.73 173.694 289.73L189.162 273.383C201.398 266.943 197.755 251.873 197.755 251.873Z" fill="#3B434F"/>
<path d="M195.852 246.273C188.097 253.006 170.58 259.413 150.199 259.413C129.818 259.413 112.301 253.006 104.546 246.273C104.546 246.273 103.752 244.089 104.916 242.925C106.102 241.739 107.959 241.997 107.959 241.997C115.706 248.736 129.81 254.293 150.199 254.293C170.588 254.293 184.692 248.736 192.439 241.997C192.439 241.997 194.334 241.294 195.255 242.214C197.028 243.987 195.852 246.273 195.852 246.273Z" fill="#3B434F"/>
<path d="M136.119 269.653H163.426V273.92H136.119V269.653Z" fill="#3B434F"/>
<path d="M51.5796 152.26C51.5678 152.261 50.532 151.433 48.576 150.817C47.5984 150.51 46.3834 150.257 44.9985 150.195C44.6527 150.18 44.2967 150.176 43.9325 150.186C43.5683 150.197 43.1957 150.221 42.8171 150.261C42.0599 150.342 41.2778 150.488 40.4908 150.714C37.3396 151.62 34.1251 153.821 32.2372 158.366C31.2895 160.638 30.6643 163.496 30.499 167.073C30.4576 167.967 30.445 168.906 30.4631 169.892C30.4813 170.877 30.5303 171.91 30.612 172.992C30.7754 175.156 31.0705 177.515 31.5102 180.086C31.5006 180.084 31.1001 187.856 33.8788 196.788C36.4911 205.52 42.7639 216.246 54.3457 219.311C53.0137 197.132 52.9723 174.537 51.5796 152.26Z" fill="white"/>
<path d="M52.9002 153.154C52.9002 153.154 32.7238 146.902 33.4338 167.645C33.4338 167.645 36.4377 197.722 37.7422 200.494C37.7422 200.494 45.666 218.006 58.7432 218.782C71.5242 219.541 58.7432 218.782 58.7432 218.782L58.9019 224.427C58.9019 224.427 35.9172 221.48 31.4779 194.992L27.974 170.929C27.974 170.929 25.2534 139.085 51.6435 147.181C77.3528 155.069 51.6435 147.181 51.6435 147.181L52.9002 153.154Z" fill="#3B434F"/>
<path d="M46.2406 194.942C46.2406 194.942 45.1115 195.795 44.1415 195.795C43.1715 195.795 42.0561 194.942 42.0561 194.942L39.9739 173.959C39.9739 173.959 42.8468 163.625 55.0377 169.086L55.3259 175.086C55.3259 175.086 44.6302 171.293 44.8514 176.016C45.0643 180.563 46.2406 194.942 46.2406 194.942Z" fill="#3B434F"/>
<path d="M247.586 152.309C247.598 152.309 248.638 151.483 250.602 150.867C251.584 150.56 252.805 150.308 254.196 150.245C254.543 150.23 254.9 150.226 255.266 150.237C255.632 150.247 256.006 150.271 256.387 150.312C257.147 150.392 257.933 150.538 258.723 150.764C261.888 151.669 265.117 153.869 267.013 158.411C267.965 160.681 268.593 163.538 268.759 167.111C268.8 168.005 268.813 168.943 268.795 169.928C268.776 170.914 268.727 171.946 268.645 173.027C268.481 175.189 268.185 177.547 267.743 180.116C267.753 180.114 268.155 187.881 265.364 196.806C262.74 205.532 256.44 216.251 244.807 219.314C246.145 197.15 246.187 174.57 247.586 152.309Z" fill="white"/>
<path d="M246.255 153.202C246.255 153.202 266.52 146.955 265.807 167.683C265.807 167.683 262.789 197.74 261.479 200.51C261.479 200.51 253.521 218.01 240.386 218.786C227.549 219.544 240.386 218.786 240.386 218.786L240.227 224.427C240.227 224.427 263.312 221.482 267.771 195.012L271.29 170.966C271.29 170.966 274.023 139.143 247.517 147.234C221.695 155.116 247.517 147.234 247.517 147.234L246.255 153.202Z" fill="#3B434F"/>
<path d="M252.944 194.961C252.944 194.961 254.078 195.814 255.052 195.814C256.026 195.814 257.146 194.961 257.146 194.961L259.238 173.993C259.238 173.993 256.352 163.666 244.108 169.124L243.819 175.119C243.819 175.119 254.561 171.329 254.339 176.049C254.125 180.592 252.944 194.961 252.944 194.961Z" fill="#3B434F"/>
<path fill-rule="evenodd" clip-rule="evenodd" d="M157.666 193.28C158.163 193.28 158.661 193.28 159.159 193.28C162.246 197.473 163.503 203.916 165.132 209.493C165.637 211.222 165.147 214.245 164.706 215.467C163.088 219.942 158.008 219.862 153.826 221.867C152.702 222.405 151.867 223.335 150.412 223.573C149.464 222.738 148.319 222.574 147.852 221.227C146.7 219.64 148.185 218.649 149.346 218.027C151.452 216.897 157.954 215.784 158.732 213.76C159.696 212.664 159.055 209.37 158.732 208.213C157.906 205.251 157.509 202.778 156.386 200.107C155.639 198.332 154.329 196.461 155.106 194.347C155.749 194.07 157.139 193.756 157.666 193.28Z" fill="#3B434F"/>
<path d="M95.5857 163.157H110.946C113.066 163.157 114.786 165.22 114.786 167.765C114.786 170.31 113.066 172.373 110.946 172.373H95.5857C93.465 172.373 91.7457 170.31 91.7457 167.765C91.7457 165.22 93.465 163.157 95.5857 163.157Z" fill="#3B434F"/>
<path d="M189.452 162.133H204.812C206.933 162.133 208.652 164.196 208.652 166.741C208.652 169.286 206.933 171.349 204.812 171.349H189.452C187.332 171.349 185.612 169.286 185.612 166.741C185.612 164.196 187.332 162.133 189.452 162.133Z" fill="#3B434F"/>
<path opacity="0.121569" d="M102.412 188.587C110.66 188.587 117.346 189.06 117.346 198.4C117.346 208.034 110.66 208.213 102.412 208.213C94.1649 208.213 87.479 206.459 87.479 198.4C87.479 188.986 94.1649 188.587 102.412 188.587Z" fill="black"/>
<path opacity="0.121569" d="M201.399 188.587C209.646 188.587 216.332 189.06 216.332 198.4C216.332 208.034 209.646 208.213 201.399 208.213C193.152 208.213 186.466 206.459 186.466 198.4C186.466 188.986 193.152 188.587 201.399 188.587Z" fill="black"/>
<path fill-rule="evenodd" clip-rule="evenodd" d="M242.712 147.826C242.135 152.756 241.628 158.789 240.562 164.183C237.374 180.311 223.516 195.254 199.852 196.957C176.188 198.659 156.048 186.746 154.868 170.348C154.668 167.568 154.132 164.448 153.722 161.415C150.373 159.558 146.921 159.554 143.367 161.402C142.952 164.504 142.396 167.706 142.191 170.553C141.008 187.005 120.804 198.958 97.0656 197.249C73.3272 195.541 59.4248 180.549 56.2271 164.367C55.1578 158.955 54.6491 152.903 54.0701 147.956L50.5818 147.705L51.0718 140.896L51.9229 140.957L73.5114 142.511L91.7345 143.822L109.991 145.136L138.428 147.182C140.389 147.431 141.693 148.272 142.533 149.527C146.617 151.315 150.583 151.322 154.432 149.548C155.264 148.212 156.586 147.312 158.619 147.055L186.967 145.016L205.166 143.706L223.332 142.399L244.853 140.851L245.701 140.79L246.19 147.576L242.712 147.826ZM130.792 155.184L75.0606 151.173C67.7714 150.545 65.1877 158.736 64.7384 164.979C63.7913 178.141 78.4566 189.922 97.4943 191.292C116.532 192.661 132.733 183.102 133.68 169.94C134.129 163.697 136.169 159.842 130.792 155.184ZM232.077 164.793C231.63 158.571 229.054 150.407 221.788 151.033L166.231 155.03C160.872 159.673 162.905 163.515 163.352 169.738C164.297 182.856 180.447 192.384 199.425 191.018C218.402 189.653 233.022 177.911 232.077 164.793Z" fill="#3B444F"/>
<path d="M54.5233 148.48C54.5233 148.48 57.8155 97.0833 89.533 74.24C89.533 74.24 135.33 105.393 207.371 74.24C207.371 74.24 239.235 88.7533 244.088 148.48H245.799C245.799 148.48 254.922 80.0667 231.28 52.9066C231.28 52.9066 225.456 32.1067 194.562 17.0667L183.462 23.8933C183.462 23.8933 176.003 14.7666 156.137 3.41333C156.137 3.41333 141.444 9.95999 133.936 21.3333L121.981 13.6533C121.981 13.6533 105.277 21.3 95.5103 34.9867L77.5785 37.5466L68.1856 54.6133C68.1856 54.6133 45.7647 72.6766 52.8127 146.773L54.5233 148.48Z" fill="#9EA0A4"/>
<path fill-rule="evenodd" clip-rule="evenodd" d="M249.212 148.48L241.101 148.053C236.248 88.3267 207.371 77.6533 207.371 77.6533C135.33 108.807 89.533 77.2267 89.533 77.2267C61.8298 100.86 57.5099 148.907 57.5099 148.907L50.2527 146.773C43.2047 72.6766 65.6256 53.3333 65.6256 53.3333L75.8718 34.56L94.6569 32C104.423 18.3133 122.408 9.81332 122.408 9.81332L133.559 17.0667C141.067 5.69333 156.599 0 156.599 0C176.465 11.3533 183.906 20.0533 183.906 20.0533L195.415 13.6533C226.309 28.6933 234.693 52.48 234.693 52.48C258.335 79.64 249.212 148.48 249.212 148.48ZM229.132 54.1866C229.132 54.1866 225.466 35.52 194.572 20.48L183.052 27.3066C183.052 27.3066 175.612 18.18 155.746 6.82666C155.746 6.82666 142.347 13.8 134.839 25.1733L122.039 17.0667C122.039 17.0667 106.632 24.2867 96.8656 37.9733L79.799 40.5333L70.839 56.7466C70.839 56.7466 52.2288 70.9611 54.199 128.427L54.6256 128C54.6256 128 60.5465 92.2789 89.533 70.4C89.533 70.4 136.61 102.407 208.651 71.2533C208.651 71.2533 235.266 83.77 244.492 128.427C244.492 128.427 249.969 82.4955 229.132 54.1866Z" fill="#3B434F"/>
<path opacity="0.2" fill-rule="evenodd" clip-rule="evenodd" d="M150.911 22.6197C151.539 23.0867 151.228 23.5188 151.092 24.1027C150.889 24.9739 150.647 25.8362 150.512 26.7054C150.306 28.0227 150.118 29.3415 150.064 30.641C150.019 31.7338 150.038 32.823 150.057 33.9052C150.068 34.5301 150.175 35.154 150.191 35.7799C150.197 36.0296 150.265 36.2801 150.272 36.5342C150.287 36.6032 150.302 36.6722 150.318 36.7411C150.327 37.0606 150.41 37.3653 150.419 37.6841C150.471 37.9727 150.523 38.2615 150.575 38.5501C150.652 39.0076 150.689 39.4851 150.829 39.9308C150.845 40.0449 150.86 40.159 150.875 40.2731C150.986 40.6273 151.023 40.9928 151.134 41.348C151.142 41.4182 151.15 41.4884 151.158 41.5586C151.321 42.0708 151.394 42.6097 151.555 43.1187C151.818 43.9453 152.031 44.7754 152.321 45.6001C152.513 46.147 152.679 46.72 152.872 47.2702C153.216 48.2496 153.635 49.2061 154.013 50.1748C154.244 50.7645 154.552 51.3093 154.799 51.8965C155.496 53.558 156.393 55.1911 157.25 56.8198C157.527 57.3459 157.831 57.8299 158.138 58.3438C158.333 58.6717 158.537 59.0391 158.717 59.3769C158.817 59.5638 158.942 59.7047 159.051 59.8861C159.287 60.2795 159.542 60.7024 159.774 61.0988C159.988 61.4653 160.23 61.7783 160.467 62.1356C160.722 62.5207 160.975 62.9542 161.233 63.341C161.683 64.0132 162.16 64.6628 162.605 65.3268C163.068 66.0166 163.588 66.6273 164.078 67.3072C165.027 68.6249 166.136 69.8889 167.16 71.2115C167.466 71.6073 167.833 71.9534 168.139 72.3365C168.292 72.5276 168.547 72.6945 168.65 72.8953C168.692 72.9771 168.716 73.1031 168.746 73.1956C168.793 73.3446 168.781 73.5286 168.783 73.6863C168.786 73.9388 168.798 74.1946 168.754 74.4589C168.708 74.7326 168.534 75.034 168.421 75.3043C168.331 75.5213 168.104 75.7126 167.977 75.8183C167.869 75.9073 167.824 75.99 167.715 76.0762C167.429 76.3005 167.106 76.485 166.794 76.5787C166.47 76.6759 166.051 76.3849 165.795 76.078C165.347 75.541 164.787 75.0479 164.358 74.5095C164.266 74.3943 164.164 74.3433 164.074 74.2291C163.578 73.6015 162.969 73.0106 162.479 72.3932C162.367 72.2523 162.244 72.1732 162.136 72.0322C161.755 71.5367 161.308 71.0901 160.922 70.5847C159.953 69.3179 158.908 68.0938 158.032 66.818C157.827 66.5197 157.608 66.2841 157.407 65.9844C155.988 63.8643 154.564 61.781 153.427 59.6207C153.128 59.0522 152.797 58.5353 152.517 57.9648C151.722 56.3452 150.981 54.7266 150.301 53.093C150.211 52.8784 150.147 52.6384 150.064 52.4209C149.692 51.4402 149.354 50.4718 149.019 49.4889C148.682 48.4974 148.49 47.4615 148.175 46.4674C148.108 46.2578 148.088 46.0304 148.02 45.8156C148.011 45.738 148.002 45.6605 147.993 45.583C147.919 45.3499 147.911 45.1021 147.84 44.8744C147.669 44.3283 147.616 43.7382 147.522 43.177C147.433 42.6474 147.312 42.1058 147.297 41.5658C147.277 41.4675 147.257 41.3692 147.236 41.271C147.227 40.9202 147.138 40.5735 147.129 40.2274C147.114 39.6233 147.018 39.0212 147.007 38.4185C146.993 37.669 146.964 36.9168 146.969 36.1667C146.973 35.4157 147.035 34.6816 147.079 33.9242C147.196 31.8725 147.571 29.8109 148.067 27.6861C148.247 26.9154 148.535 26.1613 148.778 25.3893C148.945 24.8575 149.208 24.345 149.396 23.8192C149.445 23.6819 149.521 23.6004 149.573 23.4623C149.685 23.1657 149.833 22.8008 150.107 22.6061C150.23 22.519 150.512 22.4724 150.657 22.5151C150.757 22.5449 150.821 22.6222 150.911 22.6197ZM130.888 37.3282C131.343 37.6569 131.307 38.1383 131.318 38.5442C131.329 38.9648 131.45 39.3835 131.462 39.8075C131.511 40.1004 131.56 40.3934 131.609 40.6864C131.615 40.9236 131.675 41.1487 131.714 41.3803C131.754 41.619 131.771 41.8591 131.844 42.0926C131.889 42.3562 131.933 42.6199 131.977 42.8836C132.05 43.1158 132.058 43.3641 132.13 43.5922C132.351 44.2978 132.435 45.0465 132.661 45.7511C132.899 46.4982 133.074 47.2705 133.333 48.0109C133.672 48.9807 134.004 49.9568 134.374 50.9209C134.562 51.4138 134.787 51.8746 134.988 52.3659C135.142 52.7415 135.288 53.1508 135.464 53.5179C136.191 55.0425 136.942 56.5659 137.742 58.0859C138.376 59.2895 139.131 60.4381 139.826 61.6248C140.04 61.9908 140.282 62.3053 140.519 62.6617C141.055 63.4661 141.625 64.3026 142.173 65.1201C142.692 65.8929 143.315 66.6133 143.86 67.3699C143.949 67.4935 144.052 67.5603 144.139 67.685C144.415 68.0841 144.777 68.4685 145.081 68.8612C145.234 69.0587 145.428 69.1958 145.567 69.4018C145.872 69.8528 146.062 70.6938 145.916 71.2182C145.665 72.1266 144.788 72.7382 144.121 72.9721C143.919 73.0427 143.605 73.1704 143.386 73.105C143.042 73.0019 142.822 72.6949 142.62 72.4415C142.36 72.114 142.056 71.8761 141.804 71.5492C141.339 70.9451 140.79 70.4051 140.325 69.7957C139.349 68.5197 138.351 67.2853 137.484 65.9869C135.479 62.9808 133.815 59.9463 132.517 56.8286C131.978 55.5344 131.544 54.1998 131.111 52.8839C130.956 52.4153 130.872 51.9141 130.723 51.4464C130.519 50.8054 130.429 50.1443 130.229 49.5072C130.219 49.4224 130.208 49.3375 130.198 49.2527C130.165 49.1104 130.117 48.9732 130.093 48.8297C130.076 48.7083 130.06 48.5868 130.043 48.4653C129.968 48.225 129.95 47.9769 129.909 47.7311C129.869 47.4924 129.807 47.2596 129.8 47.0152C129.77 46.8583 129.74 46.7014 129.71 46.5446C129.692 45.9047 129.539 45.2776 129.525 44.6332C129.522 44.4811 129.474 44.32 129.47 44.1681C129.455 43.5518 129.394 42.9336 129.397 42.3172C129.401 41.6153 129.394 40.9013 129.438 40.1991C129.455 39.9225 129.504 39.6618 129.516 39.3845C129.53 39.0804 129.583 38.7891 129.623 38.4748C129.647 38.2884 129.647 38.0627 129.704 37.8744C129.76 37.683 129.956 37.3737 130.137 37.2945C130.261 37.2404 130.499 37.1866 130.634 37.2236C130.735 37.2513 130.797 37.3306 130.888 37.3282ZM115.588 40.517C116.099 40.8914 115.957 41.3639 115.953 41.8226C115.948 42.5607 116.023 43.2975 116.041 44.0323C116.056 44.6182 116.206 45.2 116.222 45.7863C116.257 45.9725 116.292 46.1587 116.327 46.3448C116.336 46.6697 116.406 47.0892 116.504 47.3995C116.513 47.477 116.522 47.5545 116.531 47.632C116.561 47.8119 116.599 47.9889 116.654 48.1649C116.667 48.2643 116.68 48.3638 116.693 48.4633C116.824 48.8821 116.865 49.3303 116.998 49.7451C117.317 50.7372 117.57 51.752 117.918 52.7428C118.672 54.8904 119.706 56.9721 120.806 59.0616C121.166 59.7444 121.613 60.3799 121.976 61.0582C122.131 61.3474 122.335 61.5823 122.506 61.8624C122.976 62.628 123.52 63.3917 124.03 64.1504C124.737 65.2005 125.597 66.1578 126.348 67.199C126.611 67.5638 126.943 67.8806 127.199 68.2323C127.426 68.5451 127.72 68.7798 127.963 69.088C128.445 69.6986 129.053 70.2802 129.564 70.8892C129.859 71.2407 130.21 71.5245 130.495 71.864C130.814 72.2433 131.215 72.5465 131.529 72.9122C131.608 72.9818 131.688 73.0515 131.767 73.1211C132.088 73.5002 132.535 73.8361 132.865 74.2151C133.006 74.3769 133.174 74.4525 133.316 74.6147C133.78 75.1417 134.433 75.5688 134.909 76.1009C135.045 76.2528 135.226 76.3556 135.347 76.4913C135.399 76.5279 135.45 76.5646 135.501 76.6013C135.665 76.7843 135.921 76.9519 136.088 77.1364C136.143 77.1761 136.199 77.2159 136.255 77.2556C136.527 77.5576 136.946 77.7966 137.221 78.1005C137.293 78.1524 137.366 78.2043 137.439 78.2563C137.789 78.6433 138.344 78.9203 138.7 79.312C138.859 79.4324 139.019 79.5528 139.178 79.6731C139.256 79.7588 139.424 79.8329 139.515 79.9334C139.757 80.1997 140.166 80.4088 140.428 80.6629C140.583 80.8131 140.827 80.9166 140.958 81.0607C141.073 81.1878 141.283 81.2729 141.385 81.3851C141.719 81.6234 142.052 81.8618 142.386 82.1001C143.175 82.6642 143.962 83.1929 144.726 83.7336C145.088 83.9894 145.537 84.1911 145.76 84.5108C145.886 84.6914 145.936 84.9509 146.002 85.1481C146.151 85.5918 146.212 86.1185 146.087 86.6017C146.049 86.749 145.973 86.8484 145.917 87.0025C145.829 87.2494 145.682 87.6326 145.418 87.8643C145.247 88.015 145.068 88.218 144.878 88.3489C144.585 88.5506 144.266 88.443 143.909 88.2949C143.795 88.2197 143.68 88.1445 143.566 88.0693C143.019 87.8342 142.507 87.3311 141.957 87.0938C141.851 87.0482 141.74 86.9336 141.653 86.8958C141.47 86.7718 141.288 86.6477 141.105 86.5237C140.904 86.4367 140.723 86.2258 140.496 86.1276C140.307 86.0455 140.113 85.8922 139.927 85.7591C139.858 85.7102 139.79 85.6613 139.721 85.6125C139.538 85.5331 139.322 85.3657 139.151 85.2439C138.903 85.0667 138.655 84.8895 138.407 84.7123C138.141 84.5966 137.845 84.3303 137.59 84.1476C137.378 83.9963 137.091 83.8333 136.932 83.6582C136.786 83.5543 136.641 83.4504 136.496 83.3466C136.192 83.1296 135.893 82.9156 135.629 82.6885C135.483 82.5846 135.338 82.4807 135.192 82.3768C134.982 82.1446 134.617 81.9688 134.408 81.739C134.31 81.6687 134.211 81.5984 134.113 81.5282C133.96 81.3596 133.697 81.2122 133.546 81.0461C133.461 80.985 133.375 80.9239 133.29 80.8628C133.174 80.7346 132.968 80.6004 132.852 80.4724C132.783 80.4236 132.715 80.3747 132.647 80.3258C132.246 79.8812 131.659 79.5454 131.268 79.1089C131.146 79.0087 131.024 78.9084 130.901 78.8083C130.396 78.2396 129.712 77.7828 129.224 77.2231C129.091 77.0708 128.942 77.0022 128.812 76.851C128.361 76.327 127.785 75.8601 127.351 75.3429C127.279 75.2577 127.209 75.2379 127.138 75.1523C126.933 74.9068 126.669 74.6531 126.471 74.4048C126.378 74.2892 126.278 74.2403 126.187 74.1244C125.5 73.2575 124.692 72.4839 124.027 71.6142C122.848 70.0741 121.619 68.5711 120.688 66.9848C120.477 66.6255 120.225 66.3248 120.02 65.9662C119.657 65.3318 119.262 64.7072 118.921 64.0594C118.388 63.0457 117.889 62.0236 117.404 61.0025C117.063 60.2842 116.793 59.5116 116.512 58.7791C116.282 58.1779 116.063 57.5934 115.851 56.9917C115.644 56.3997 115.495 55.784 115.3 55.1861C115.103 54.578 115.022 53.9329 114.83 53.322C114.757 53.0899 114.765 52.797 114.692 52.5658C114.513 51.9955 114.47 51.3758 114.372 50.7897C113.953 48.2879 113.91 45.726 114.093 43.1242C114.136 42.5237 114.261 41.955 114.359 41.3414C114.404 41.0619 114.496 40.7067 114.806 40.4997C114.904 40.4337 115.218 40.3818 115.333 40.4124C115.427 40.4374 115.501 40.5191 115.588 40.517Z" fill="#3B434F"/>
</svg>
