<svg width="296" height="425" viewBox="0 0 296 425" fill="none" xmlns="http://www.w3.org/2000/svg">
<path d="M2.77238 422.947C2.77238 422.947 -7.5295 332.636 81.2124 322.56H119.186V305.067C119.186 305.067 145.897 316.54 172.946 306.347L173.799 322.56H218.172C218.172 322.56 295.446 330.274 290.772 422.947H2.77238Z" fill="white"/>
<path d="M290.034 424.533H5.51788H0L1.37735 401.004C4.06665 355.061 40.2642 320 81.6873 320H119.186V324.693H84.2021C44.2787 324.693 9.39166 358.442 6.79971 402.664L5.84299 418.987H289.283L288.752 402.664C286.16 358.442 251.273 324.693 211.35 324.693H175.932V320H213.612C255.035 320 291.232 355.061 293.922 401.004L295.299 424.533H290.034Z" fill="#3B434F"/>
<path d="M122.172 303.093V329.408C122.172 343.063 133.252 354.133 146.919 354.133C160.586 354.133 171.666 343.063 171.666 329.408V303.636C173.102 303.199 174.524 302.724 175.932 302.211V329.587C175.932 345.736 162.847 358.827 146.706 358.827C130.564 358.827 117.479 345.736 117.479 329.587V301.4C119.025 302.012 120.591 302.574 122.172 303.093Z" fill="#3B434F"/>
<path d="M223.492 376.436L211.407 401.643C210.796 402.918 209.267 403.456 207.992 402.845C206.717 402.233 206.179 400.704 206.79 399.429L218.462 375.085L209.342 359.288C208.635 358.064 209.055 356.498 210.279 355.791C211.503 355.084 213.069 355.504 213.776 356.728L223.589 373.725C224.095 374.601 224.022 375.65 223.492 376.436Z" fill="#3B434F"/>
<path d="M70.1347 376.461L82.2849 401.745C82.8994 403.024 84.4366 403.564 85.7183 402.95C87.0001 402.337 87.541 400.804 86.9264 399.525L75.1918 375.105L84.3609 359.26C85.0716 358.032 84.6498 356.461 83.4189 355.752C82.1878 355.043 80.6138 355.464 79.9031 356.692L70.0371 373.741C69.5287 374.62 69.6024 375.672 70.1347 376.461Z" fill="#3B434F"/>
<path d="M117.479 319.147H122.172V422.827H117.479V319.147Z" fill="#3B434F"/>
<path d="M171.666 320H176.359V423.68H171.666V320Z" fill="#3B434F"/>
<path d="M147.987 35.4133C201.065 35.4133 242.959 85.0146 241.597 144.612L240.149 207.953C238.866 264.099 197.618 308.48 147.987 308.48C98.3562 308.48 57.108 264.099 55.8247 207.953L54.3769 144.612C53.0147 85.0146 94.9091 35.4133 147.987 35.4133Z" fill="white"/>
<path fill-rule="evenodd" clip-rule="evenodd" d="M245.862 142.648L244.345 208.562C243 266.989 199.779 313.173 147.774 313.173C95.7688 313.173 52.5475 266.989 51.2028 208.562L49.6857 142.648C48.2584 80.6296 92.1568 29.0133 147.774 29.0133C203.391 29.0133 247.289 80.6296 245.862 142.648ZM147.561 35.84C95.2084 35.84 53.8867 85.0537 55.2303 144.185L56.6583 207.031C57.9241 262.739 98.6084 306.773 147.561 306.773C196.513 306.773 237.197 262.739 238.463 207.031L239.891 144.185C241.235 85.0537 199.913 35.84 147.561 35.84Z" fill="#3B434F"/>
<path opacity="0.058824" fill-rule="evenodd" clip-rule="evenodd" d="M243.199 153.6L238.932 223.573C238.932 223.573 219.982 304.344 146.772 313.908V314.027C146.628 314.009 146.489 313.985 146.346 313.967C146.202 313.985 146.063 314.009 145.919 314.027V313.908C72.7092 304.344 53.759 223.573 53.759 223.573L49.4923 153.6C68.4901 237.927 84.479 243.2 84.479 243.2C81.2434 217.629 107.519 220.16 107.519 220.16C123.533 222.865 136.281 224.172 146.346 224.661C156.41 224.172 169.158 222.865 185.172 220.16C185.172 220.16 211.448 217.629 208.212 243.2C208.212 243.2 224.201 237.927 243.199 153.6ZM195.755 251.873C194.513 236.831 185.443 238.107 185.443 238.107C169.319 242.852 156.661 245.487 146.772 246.827V246.729C136.953 245.4 124.384 242.786 108.372 238.08C108.372 238.08 99.3656 236.815 98.1323 251.733C98.1323 251.733 94.5156 266.68 106.666 273.067L122.026 289.28C122.026 289.28 132.522 292.607 132.266 279.893C132.266 279.893 131.197 270.412 137.386 268.8H146.772V269.081H156.225C162.457 270.706 161.381 280.266 161.381 280.266C161.123 293.084 171.694 289.73 171.694 289.73L187.162 273.383C199.398 266.943 195.755 251.873 195.755 251.873Z" fill="#3B434F"/>
<path d="M137.532 274.773H158.012C158.955 274.773 159.719 275.537 159.719 276.48C159.719 277.423 158.955 278.187 158.012 278.187H137.532C136.59 278.187 135.826 277.423 135.826 276.48C135.826 275.537 136.59 274.773 137.532 274.773Z" fill="#3B434F"/>
<path d="M119.61 254.353L121.987 251.026C129.627 255.397 138.704 257.93 148.442 257.93C158.289 257.93 167.459 255.339 175.152 250.879L177.64 254.315C169.271 259.159 159.299 261.973 148.593 261.973C137.914 261.973 127.966 259.175 119.61 254.353Z" fill="#3B434F"/>
<path d="M49.5796 152.26C49.5678 152.261 48.532 151.433 46.576 150.817C45.5984 150.51 44.3834 150.257 42.9985 150.195C42.6527 150.18 42.2967 150.176 41.9325 150.186C41.5683 150.197 41.1957 150.221 40.8171 150.261C40.0599 150.342 39.2778 150.488 38.4908 150.714C35.3396 151.62 32.1251 153.821 30.2372 158.366C29.2895 160.638 28.6643 163.496 28.499 167.073C28.4576 167.967 28.445 168.906 28.4631 169.892C28.4813 170.877 28.5303 171.91 28.612 172.992C28.7754 175.156 29.0705 177.515 29.5102 180.086C29.5006 180.084 29.1001 187.856 31.8788 196.788C34.4911 205.52 40.7639 216.246 52.3457 219.311C51.0137 197.132 50.9723 174.537 49.5796 152.26Z" fill="#F7FBFB"/>
<path d="M50.9002 153.154C50.9002 153.154 30.7238 146.902 31.4338 167.645C31.4338 167.645 34.4377 197.722 35.7422 200.494C35.7422 200.494 43.666 218.006 56.7432 218.782C69.5242 219.541 56.7432 218.782 56.7432 218.782L56.9019 224.427C56.9019 224.427 33.9172 221.48 29.4779 194.992L25.974 170.929C25.974 170.929 23.2534 139.085 49.6435 147.181C75.3528 155.069 49.6435 147.181 49.6435 147.181L50.9002 153.154Z" fill="#3B434F"/>
<path d="M44.2406 194.942C44.2406 194.942 43.1115 195.795 42.1415 195.795C41.1715 195.795 40.0561 194.942 40.0561 194.942L37.9739 173.959C37.9739 173.959 40.8468 163.625 53.0377 169.086L53.3259 175.086C53.3259 175.086 42.6302 171.293 42.8514 176.016C43.0643 180.563 44.2406 194.942 44.2406 194.942Z" fill="#3B434F"/>
<path d="M245.586 152.309C245.598 152.309 246.638 151.483 248.602 150.867C249.584 150.56 250.805 150.308 252.196 150.245C252.543 150.23 252.9 150.226 253.266 150.237C253.632 150.247 254.006 150.271 254.387 150.312C255.147 150.392 255.933 150.538 256.723 150.764C259.888 151.669 263.117 153.869 265.013 158.411C265.965 160.681 266.593 163.538 266.759 167.111C266.8 168.005 266.813 168.943 266.795 169.928C266.776 170.914 266.727 171.946 266.645 173.027C266.481 175.189 266.185 177.547 265.743 180.116C265.753 180.114 266.155 187.881 263.364 196.806C260.74 205.532 254.44 216.251 242.807 219.314C244.145 197.15 244.187 174.57 245.586 152.309Z" fill="#F7FBFB"/>
<path d="M244.255 153.202C244.255 153.202 264.52 146.955 263.807 167.683C263.807 167.683 260.789 197.74 259.479 200.51C259.479 200.51 251.521 218.01 238.386 218.786C225.549 219.544 238.386 218.786 238.386 218.786L238.227 224.427C238.227 224.427 261.312 221.482 265.771 195.012L269.29 170.966C269.29 170.966 272.023 139.143 245.517 147.234C219.695 155.116 245.517 147.234 245.517 147.234L244.255 153.202Z" fill="#3B434F"/>
<path d="M250.944 194.961C250.944 194.961 252.078 195.814 253.052 195.814C254.026 195.814 255.146 194.961 255.146 194.961L257.238 173.993C257.238 173.993 254.352 163.666 242.108 169.124L241.819 175.119C241.819 175.119 252.561 171.329 252.339 176.049C252.125 180.592 250.944 194.961 250.944 194.961Z" fill="#3B434F"/>
<path fill-rule="evenodd" clip-rule="evenodd" d="M155.666 193.28C156.163 193.28 156.661 193.28 157.159 193.28C160.246 197.473 161.503 203.916 163.132 209.493C163.637 211.222 163.147 214.245 162.706 215.467C161.088 219.942 156.008 219.862 151.826 221.867C150.702 222.405 149.867 223.335 148.412 223.573C147.464 222.738 146.319 222.574 145.852 221.227C144.7 219.64 146.185 218.649 147.346 218.027C149.452 216.897 155.954 215.784 156.732 213.76C157.696 212.664 157.055 209.37 156.732 208.213C155.906 205.251 155.509 202.778 154.386 200.107C153.639 198.332 152.329 196.461 153.106 194.347C153.749 194.07 155.139 193.756 155.666 193.28Z" fill="#3B434F"/>
<path d="M100.839 157.013C105.552 157.013 109.372 160.834 109.372 165.547C109.372 170.259 105.552 174.08 100.839 174.08C96.1262 174.08 92.3057 170.259 92.3057 165.547C92.3057 160.834 96.1262 157.013 100.839 157.013Z" fill="#3B434F"/>
<path d="M195.559 157.013C200.272 157.013 204.092 160.834 204.092 165.547C204.092 170.259 200.272 174.08 195.559 174.08C190.846 174.08 187.026 170.259 187.026 165.547C187.026 160.834 190.846 157.013 195.559 157.013Z" fill="#3B434F"/>
<path d="M199.399 188.587C205.29 188.587 210.066 193.362 210.066 199.253C210.066 205.144 205.29 209.92 199.399 209.92C193.508 209.92 188.732 205.144 188.732 199.253C188.732 193.362 193.508 188.587 199.399 188.587Z" fill="#EDF1F1"/>
<path d="M96.1457 188.587C102.037 188.587 106.812 193.362 106.812 199.253C106.812 205.144 102.037 209.92 96.1457 209.92C90.2546 209.92 85.479 205.144 85.479 199.253C85.479 193.362 90.2546 188.587 96.1457 188.587Z" fill="#EDF1F1"/>
<path fill-rule="evenodd" clip-rule="evenodd" d="M233.106 149.333V180.907C233.106 188.622 225.579 200.662 213.315 201.352C211.514 201.266 175.079 201.387 175.079 201.387C158.701 201.387 155.452 181.76 155.452 181.76V160.427H140.092V181.76C140.092 181.76 136.844 201.387 120.466 201.387C120.466 201.387 84.0311 201.266 82.2295 201.352C69.9654 200.662 62.439 188.622 62.439 180.907V149.333H48.7856V140.8H128.146C128.146 140.8 140.092 142.73 140.092 151.04H155.452C155.452 142.73 167.399 140.8 167.399 140.8H246.759V149.333H233.106ZM131.559 153.6C131.559 150.558 128.146 150.187 128.146 150.187H70.9723V180.053C70.9723 189.359 83.7723 192.853 83.7723 192.853H118.759C130.796 192.853 131.559 180.053 131.559 180.053C131.559 180.053 131.559 156.642 131.559 153.6ZM224.572 150.187H167.399C167.399 150.187 163.986 150.558 163.986 153.6C163.986 156.642 163.986 180.053 163.986 180.053C163.986 180.053 164.748 192.853 176.786 192.853H211.772C211.772 192.853 224.572 189.359 224.572 180.053V150.187ZM212.626 201.387C212.858 201.382 213.086 201.365 213.315 201.352C213.508 201.361 213.314 201.372 212.626 201.387ZM82.2295 201.352C82.4588 201.365 82.6863 201.382 82.919 201.387C82.2303 201.372 82.0366 201.361 82.2295 201.352Z" fill="#3B434F"/>
<path d="M52.5233 148.48C52.5233 148.48 55.8155 97.0833 87.533 74.24C87.533 74.24 133.33 105.393 205.371 74.24C205.371 74.24 237.235 88.7533 242.088 148.48H243.799C243.799 148.48 252.922 80.0667 229.28 52.9066C229.28 52.9066 223.456 32.1067 192.562 17.0667L181.462 23.8933C181.462 23.8933 174.003 14.7666 154.137 3.41333C154.137 3.41333 139.444 9.95999 131.936 21.3333L119.981 13.6533C119.981 13.6533 103.277 21.3 93.5103 34.9867L75.5785 37.5466L66.1856 54.6133C66.1856 54.6133 43.7647 72.6766 50.8127 146.773L52.5233 148.48Z" fill="#9EA0A4"/>
<path fill-rule="evenodd" clip-rule="evenodd" d="M247.212 148.48L239.101 148.053C234.248 88.3267 205.371 77.6533 205.371 77.6533C133.33 108.807 87.533 77.2267 87.533 77.2267C59.8298 100.86 55.5099 148.907 55.5099 148.907L48.2527 146.773C41.2047 72.6766 63.6256 53.3333 63.6256 53.3333L73.8718 34.56L92.6569 32C102.423 18.3133 120.408 9.81332 120.408 9.81332L131.559 17.0667C139.067 5.69333 154.599 0 154.599 0C174.465 11.3533 181.906 20.0533 181.906 20.0533L193.415 13.6533C224.309 28.6933 232.693 52.48 232.693 52.48C256.335 79.64 247.212 148.48 247.212 148.48ZM227.132 54.1866C227.132 54.1866 223.466 35.52 192.572 20.48L181.052 27.3066C181.052 27.3066 173.612 18.18 153.746 6.82666C153.746 6.82666 140.347 13.8 132.839 25.1733L120.039 17.0667C120.039 17.0667 104.632 24.2867 94.8656 37.9733L77.799 40.5333L68.839 56.7466C68.839 56.7466 50.2288 70.9611 52.199 128.427L52.6256 128C52.6256 128 58.5465 92.2789 87.533 70.4C87.533 70.4 134.61 102.407 206.651 71.2533C206.651 71.2533 233.266 83.77 242.492 128.427C242.492 128.427 247.969 82.4955 227.132 54.1866Z" fill="#3B434F"/>
<path d="M134.772 369.947L146.772 356.947L159.772 369.947L152.772 376.947L163.772 421.947H129.772L141.772 376.947L134.772 369.947Z" fill="#3B434F"/>
<path fill-rule="evenodd" clip-rule="evenodd" d="M161.472 422.636L149.378 377.501L151.892 376.747L153.56 374.975L166.351 422.713L161.472 422.636ZM127.357 422.103L139.983 375.194L140.799 375.893L143.359 377.6L144.203 377.684L132.227 422.179L127.357 422.103Z" fill="#3B434F"/>
<path fill-rule="evenodd" clip-rule="evenodd" d="M175.918 382.734L172.599 386.053L159.686 373.14C157.194 377.098 152.795 379.733 147.772 379.733C142.547 379.733 137.997 376.881 135.567 372.653L122.088 386.133L118.76 382.806L145.299 356.267L147.375 354.342L149.45 356.267L175.918 382.734ZM138.178 370.043C139.879 373.507 143.439 375.893 147.559 375.893C151.587 375.893 155.073 373.61 156.818 370.272L147.383 360.837L138.178 370.043Z" fill="#3B434F"/>
<path opacity="0.2" fill-rule="evenodd" clip-rule="evenodd" d="M148.911 22.6197C149.539 23.0867 149.228 23.5188 149.092 24.1027C148.889 24.9739 148.647 25.8362 148.512 26.7054C148.306 28.0227 148.118 29.3415 148.064 30.641C148.019 31.7338 148.038 32.823 148.057 33.9052C148.068 34.5301 148.175 35.154 148.191 35.7799C148.197 36.0296 148.265 36.2801 148.272 36.5342C148.287 36.6032 148.302 36.6722 148.318 36.7411C148.327 37.0606 148.41 37.3653 148.419 37.6841C148.471 37.9727 148.523 38.2615 148.575 38.5501C148.652 39.0076 148.689 39.4851 148.829 39.9308C148.845 40.0449 148.86 40.159 148.875 40.2731C148.986 40.6273 149.023 40.9928 149.134 41.348C149.142 41.4182 149.15 41.4884 149.158 41.5586C149.321 42.0708 149.394 42.6097 149.555 43.1187C149.818 43.9453 150.031 44.7754 150.321 45.6001C150.513 46.147 150.679 46.72 150.872 47.2702C151.216 48.2496 151.635 49.2061 152.013 50.1748C152.244 50.7645 152.552 51.3093 152.799 51.8965C153.496 53.558 154.393 55.1911 155.25 56.8198C155.527 57.3459 155.831 57.8299 156.138 58.3438C156.333 58.6717 156.537 59.0391 156.717 59.3769C156.817 59.5638 156.942 59.7047 157.051 59.8861C157.287 60.2795 157.542 60.7024 157.774 61.0988C157.988 61.4653 158.23 61.7783 158.467 62.1356C158.722 62.5207 158.975 62.9542 159.233 63.341C159.683 64.0132 160.16 64.6628 160.605 65.3268C161.068 66.0166 161.588 66.6273 162.078 67.3072C163.027 68.6249 164.136 69.8889 165.16 71.2115C165.466 71.6073 165.833 71.9534 166.139 72.3365C166.292 72.5276 166.547 72.6945 166.65 72.8953C166.692 72.9771 166.716 73.1031 166.746 73.1956C166.793 73.3446 166.781 73.5286 166.783 73.6863C166.786 73.9388 166.798 74.1946 166.754 74.4589C166.708 74.7326 166.534 75.034 166.421 75.3043C166.331 75.5213 166.104 75.7126 165.977 75.8183C165.869 75.9073 165.824 75.99 165.715 76.0762C165.429 76.3005 165.106 76.485 164.794 76.5787C164.47 76.6759 164.051 76.3849 163.795 76.078C163.347 75.541 162.787 75.0479 162.358 74.5095C162.266 74.3943 162.164 74.3433 162.074 74.2291C161.578 73.6015 160.969 73.0106 160.479 72.3932C160.367 72.2523 160.244 72.1732 160.136 72.0322C159.755 71.5367 159.308 71.0901 158.922 70.5847C157.953 69.3179 156.908 68.0938 156.032 66.818C155.827 66.5197 155.608 66.2841 155.407 65.9844C153.988 63.8643 152.564 61.781 151.427 59.6207C151.128 59.0522 150.797 58.5353 150.517 57.9648C149.722 56.3452 148.981 54.7266 148.301 53.093C148.211 52.8784 148.147 52.6384 148.064 52.4209C147.692 51.4402 147.354 50.4718 147.019 49.4889C146.682 48.4974 146.49 47.4615 146.175 46.4674C146.108 46.2578 146.088 46.0304 146.02 45.8156C146.011 45.738 146.002 45.6605 145.993 45.583C145.919 45.3499 145.911 45.1021 145.84 44.8744C145.669 44.3283 145.616 43.7382 145.522 43.177C145.433 42.6474 145.312 42.1058 145.297 41.5658C145.277 41.4675 145.257 41.3692 145.236 41.271C145.227 40.9202 145.138 40.5735 145.129 40.2274C145.114 39.6233 145.018 39.0212 145.007 38.4185C144.993 37.669 144.964 36.9168 144.969 36.1667C144.973 35.4157 145.035 34.6816 145.079 33.9242C145.196 31.8725 145.571 29.8109 146.067 27.6861C146.247 26.9154 146.535 26.1613 146.778 25.3893C146.945 24.8575 147.208 24.345 147.396 23.8192C147.445 23.6819 147.521 23.6004 147.573 23.4623C147.685 23.1657 147.833 22.8008 148.107 22.6061C148.23 22.519 148.512 22.4724 148.657 22.5151C148.757 22.5449 148.821 22.6222 148.911 22.6197ZM128.888 37.3282C129.343 37.6569 129.307 38.1383 129.318 38.5442C129.329 38.9648 129.45 39.3835 129.462 39.8075C129.511 40.1004 129.56 40.3934 129.609 40.6864C129.615 40.9236 129.675 41.1487 129.714 41.3803C129.754 41.619 129.771 41.8591 129.844 42.0926C129.889 42.3562 129.933 42.6199 129.977 42.8836C130.05 43.1158 130.058 43.3641 130.13 43.5922C130.351 44.2978 130.435 45.0465 130.661 45.7511C130.899 46.4982 131.074 47.2705 131.333 48.0109C131.672 48.9807 132.004 49.9568 132.374 50.9209C132.562 51.4138 132.787 51.8746 132.988 52.3659C133.142 52.7415 133.288 53.1508 133.464 53.5179C134.191 55.0425 134.942 56.5659 135.742 58.0859C136.376 59.2895 137.131 60.4381 137.826 61.6248C138.04 61.9908 138.282 62.3053 138.519 62.6617C139.055 63.4661 139.625 64.3026 140.173 65.1201C140.692 65.8929 141.315 66.6133 141.86 67.3699C141.949 67.4935 142.052 67.5603 142.139 67.685C142.415 68.0841 142.777 68.4685 143.081 68.8612C143.234 69.0587 143.428 69.1958 143.567 69.4018C143.872 69.8528 144.062 70.6938 143.916 71.2182C143.665 72.1266 142.788 72.7382 142.121 72.9721C141.919 73.0427 141.605 73.1704 141.386 73.105C141.042 73.0019 140.822 72.6949 140.62 72.4415C140.36 72.114 140.056 71.8761 139.804 71.5492C139.339 70.9451 138.79 70.4051 138.325 69.7957C137.349 68.5197 136.351 67.2853 135.484 65.9869C133.479 62.9808 131.815 59.9463 130.517 56.8286C129.978 55.5344 129.544 54.1998 129.111 52.8839C128.956 52.4153 128.872 51.9141 128.723 51.4464C128.519 50.8054 128.429 50.1443 128.229 49.5072C128.219 49.4224 128.208 49.3375 128.198 49.2527C128.165 49.1104 128.117 48.9732 128.093 48.8297C128.076 48.7083 128.06 48.5868 128.043 48.4653C127.968 48.225 127.95 47.9769 127.909 47.7311C127.869 47.4924 127.807 47.2596 127.8 47.0152C127.77 46.8583 127.74 46.7014 127.71 46.5446C127.692 45.9047 127.539 45.2776 127.525 44.6332C127.522 44.4811 127.474 44.32 127.47 44.1681C127.455 43.5518 127.394 42.9336 127.397 42.3172C127.401 41.6153 127.394 40.9013 127.438 40.1991C127.455 39.9225 127.504 39.6618 127.516 39.3845C127.53 39.0804 127.583 38.7891 127.623 38.4748C127.647 38.2884 127.647 38.0627 127.704 37.8744C127.76 37.683 127.956 37.3737 128.137 37.2945C128.261 37.2404 128.499 37.1866 128.634 37.2236C128.735 37.2513 128.797 37.3306 128.888 37.3282ZM113.588 40.517C114.099 40.8914 113.957 41.3639 113.953 41.8226C113.948 42.5607 114.023 43.2975 114.041 44.0323C114.056 44.6182 114.206 45.2 114.222 45.7863C114.257 45.9725 114.292 46.1587 114.327 46.3448C114.336 46.6697 114.406 47.0892 114.504 47.3995C114.513 47.477 114.522 47.5545 114.531 47.632C114.561 47.8119 114.599 47.9889 114.654 48.1649C114.667 48.2643 114.68 48.3638 114.693 48.4633C114.824 48.8821 114.865 49.3303 114.998 49.7451C115.317 50.7372 115.57 51.752 115.918 52.7428C116.672 54.8904 117.706 56.9721 118.806 59.0616C119.166 59.7444 119.613 60.3799 119.976 61.0582C120.131 61.3474 120.335 61.5823 120.506 61.8624C120.976 62.628 121.52 63.3917 122.03 64.1504C122.737 65.2005 123.597 66.1578 124.348 67.199C124.611 67.5638 124.943 67.8806 125.199 68.2323C125.426 68.5451 125.72 68.7798 125.963 69.088C126.445 69.6986 127.053 70.2802 127.564 70.8892C127.859 71.2407 128.21 71.5245 128.495 71.864C128.814 72.2433 129.215 72.5465 129.529 72.9122C129.608 72.9818 129.688 73.0515 129.767 73.1211C130.088 73.5002 130.535 73.8361 130.865 74.2151C131.006 74.3769 131.174 74.4525 131.316 74.6147C131.78 75.1417 132.433 75.5688 132.909 76.1009C133.045 76.2528 133.226 76.3556 133.347 76.4913C133.399 76.5279 133.45 76.5646 133.501 76.6013C133.665 76.7843 133.921 76.9519 134.088 77.1364C134.143 77.1761 134.199 77.2159 134.255 77.2556C134.527 77.5576 134.946 77.7966 135.221 78.1005C135.293 78.1524 135.366 78.2043 135.439 78.2563C135.789 78.6433 136.344 78.9203 136.7 79.312C136.859 79.4324 137.019 79.5528 137.178 79.6731C137.256 79.7588 137.424 79.8329 137.515 79.9334C137.757 80.1997 138.166 80.4088 138.428 80.6629C138.583 80.8131 138.827 80.9166 138.958 81.0607C139.073 81.1878 139.283 81.2729 139.385 81.3851C139.719 81.6234 140.052 81.8618 140.386 82.1001C141.175 82.6642 141.962 83.1929 142.726 83.7336C143.088 83.9894 143.537 84.1911 143.76 84.5108C143.886 84.6914 143.936 84.9509 144.002 85.1481C144.151 85.5918 144.212 86.1185 144.087 86.6017C144.049 86.749 143.973 86.8484 143.917 87.0025C143.829 87.2494 143.682 87.6326 143.418 87.8643C143.247 88.015 143.068 88.218 142.878 88.3489C142.585 88.5506 142.266 88.443 141.909 88.2949C141.795 88.2197 141.68 88.1445 141.566 88.0693C141.019 87.8342 140.507 87.3311 139.957 87.0938C139.851 87.0482 139.74 86.9336 139.653 86.8958C139.47 86.7718 139.288 86.6477 139.105 86.5237C138.904 86.4367 138.723 86.2258 138.496 86.1276C138.307 86.0455 138.113 85.8922 137.927 85.7591C137.858 85.7102 137.79 85.6613 137.721 85.6125C137.538 85.5331 137.322 85.3657 137.151 85.2439C136.903 85.0667 136.655 84.8895 136.407 84.7123C136.141 84.5966 135.845 84.3303 135.59 84.1476C135.378 83.9963 135.091 83.8333 134.932 83.6582C134.786 83.5543 134.641 83.4504 134.496 83.3466C134.192 83.1296 133.893 82.9156 133.629 82.6885C133.483 82.5846 133.338 82.4807 133.192 82.3768C132.982 82.1446 132.617 81.9688 132.408 81.739C132.31 81.6687 132.211 81.5984 132.113 81.5282C131.96 81.3596 131.697 81.2122 131.546 81.0461C131.461 80.985 131.375 80.9239 131.29 80.8628C131.174 80.7346 130.968 80.6004 130.852 80.4724C130.783 80.4236 130.715 80.3747 130.647 80.3258C130.246 79.8812 129.659 79.5454 129.268 79.1089C129.146 79.0087 129.024 78.9084 128.901 78.8083C128.396 78.2396 127.712 77.7828 127.224 77.2231C127.091 77.0708 126.942 77.0022 126.812 76.851C126.361 76.327 125.785 75.8601 125.351 75.3429C125.279 75.2577 125.209 75.2379 125.138 75.1523C124.933 74.9068 124.669 74.6531 124.471 74.4048C124.378 74.2892 124.278 74.2403 124.187 74.1244C123.5 73.2575 122.692 72.4839 122.027 71.6142C120.848 70.0741 119.619 68.5711 118.688 66.9848C118.477 66.6255 118.225 66.3248 118.02 65.9662C117.657 65.3318 117.262 64.7072 116.921 64.0594C116.388 63.0457 115.889 62.0236 115.404 61.0025C115.063 60.2842 114.793 59.5116 114.512 58.7791C114.282 58.1779 114.063 57.5934 113.851 56.9917C113.644 56.3997 113.495 55.784 113.3 55.1861C113.103 54.578 113.022 53.9329 112.83 53.322C112.757 53.0899 112.765 52.797 112.692 52.5658C112.513 51.9955 112.47 51.3758 112.372 50.7897C111.953 48.2879 111.91 45.726 112.093 43.1242C112.136 42.5237 112.261 41.955 112.359 41.3414C112.404 41.0619 112.496 40.7067 112.806 40.4997C112.904 40.4337 113.218 40.3818 113.333 40.4124C113.427 40.4374 113.501 40.5191 113.588 40.517Z" fill="#3B434F"/>
</svg>
