<svg width="301" height="472" viewBox="0 0 301 472" fill="none" xmlns="http://www.w3.org/2000/svg">
<path d="M175.932 75.4838C167.475 67.4388 172.092 46.4705 172.092 46.4705C172.092 46.4705 172.473 44.9419 173.366 42.4392C178.506 28.0461 200.63 -18.5648 265.106 8.07046L248.892 12.3371C248.892 12.3371 300.946 15.1838 300.946 99.3771C300.946 183.57 300.946 298.204 300.946 298.204C300.946 298.204 261.119 333.61 211.346 275.164C161.572 216.717 175.359 129.27 175.359 129.27C175.359 129.27 184.39 83.5288 175.932 75.4838Z" fill="#3B444F"/>
<path d="M142.226 60.9771C201.372 60.9771 249.319 108.924 249.319 168.07V190.257C249.319 249.403 201.372 297.35 142.226 297.35C83.0797 297.35 35.1323 249.403 35.1323 190.257V168.07C35.1323 108.924 83.0797 60.9771 142.226 60.9771Z" fill="#3B444F"/>
<path d="M2.71901 468.27C2.71901 468.27 -3.89598 378.282 80.799 369.884H118.772V352.39C118.772 352.39 145.484 363.864 172.532 353.67L173.386 369.884H217.759C217.759 369.884 293.744 372.868 290.292 469.124L2.71901 468.27Z" fill="white"/>
<path d="M290.034 471.857H5.51788H0L1.37735 448.327C4.06665 402.385 40.2642 367.324 81.6873 367.324H113.212V372.017H84.2021C44.2787 372.017 9.39166 405.766 6.79971 449.987L5.84299 466.31H289.283L288.752 449.987C286.16 405.766 251.273 372.017 211.35 372.017H172.519V367.324H213.612C255.035 367.324 291.232 402.385 293.922 448.327L295.299 471.857H290.034Z" fill="#3B434F"/>
<path d="M144.079 420.23C121.222 420.23 102.692 401.701 102.692 378.844C102.692 374.844 103.271 370.982 104.329 367.324H104.399H108.791H116.346V372.017H107.598C107.183 374.23 106.959 376.51 106.959 378.844C106.959 399.345 123.578 415.964 144.079 415.964C164.58 415.964 181.199 399.345 181.199 378.844C181.199 376.51 180.975 374.23 180.56 372.017H171.812V367.324H179.367H183.759H183.829C184.887 370.982 185.466 374.844 185.466 378.844C185.466 401.701 166.936 420.23 144.079 420.23Z" fill="#3B434F"/>
<path d="M118.759 350.417V376.732C118.759 390.387 129.838 401.457 143.506 401.457C157.173 401.457 168.252 390.387 168.252 376.732V350.959C169.689 350.522 171.111 350.048 172.519 349.535V376.911C172.519 393.059 159.434 406.15 143.292 406.15C127.151 406.15 114.066 393.059 114.066 376.911V348.724C115.612 349.335 117.177 349.898 118.759 350.417Z" fill="#3B434F"/>
<path d="M144.366 91.6971C198.395 91.6971 239.496 139.081 237.297 193.3L234.313 266.88C225.858 316.835 191.418 352.901 144.743 357.937C99.2137 353.152 64.0981 316.822 54.4192 266.88L51.4347 193.3C49.2355 139.081 90.3366 91.6971 144.366 91.6971Z" fill="white"/>
<path fill-rule="evenodd" clip-rule="evenodd" d="M243.266 190.18L240.089 267.061C231.091 319.257 194.436 356.941 144.761 362.204C96.3039 357.204 58.9305 319.244 48.6293 267.061L45.4529 190.18C43.1123 133.527 86.8561 84.0171 144.359 84.0171C201.863 84.0171 245.606 133.527 243.266 190.18ZM144.366 89.9904C90.3366 89.9904 49.2355 137.374 51.4347 191.594L54.4192 265.173C64.0981 315.116 99.2137 351.446 144.743 356.23C191.418 351.194 225.858 315.128 234.313 265.173L237.297 191.594C239.496 137.374 198.395 89.9904 144.366 89.9904Z" fill="#3B434F"/>
<path d="M190.439 293.596C182.684 300.33 165.167 306.737 144.786 306.737C124.404 306.737 106.888 300.33 99.1324 293.596C99.1324 293.596 98.3389 291.413 99.5031 290.249C100.689 289.063 102.546 289.321 102.546 289.321C110.293 296.06 124.397 301.617 144.786 301.617C165.175 301.617 179.279 296.06 187.026 289.321C187.026 289.321 188.921 288.617 189.841 289.538C191.614 291.311 190.439 293.596 190.439 293.596Z" fill="#3B434F"/>
<path d="M130.706 316.977H158.012V321.244H130.706V316.977Z" fill="#3B434F"/>
<path d="M46.1662 199.584C46.1544 199.584 45.1186 198.757 43.1626 198.141C42.185 197.834 40.97 197.581 39.5852 197.519C39.2393 197.503 38.8833 197.5 38.5191 197.51C38.1549 197.52 37.7824 197.545 37.4037 197.585C36.6465 197.666 35.8644 197.811 35.0774 198.038C31.9262 198.943 28.7117 201.145 26.8238 205.69C25.8761 207.962 25.2509 210.82 25.0856 214.396C25.0443 215.29 25.0316 216.229 25.0498 217.215C25.0679 218.201 25.1169 219.234 25.1986 220.316C25.362 222.479 25.6571 224.839 26.0968 227.41C26.0872 227.408 25.6867 235.18 28.4654 244.111C31.0777 252.843 37.3505 263.57 48.9323 266.635C47.6003 244.455 47.5589 221.86 46.1662 199.584Z" fill="white"/>
<path d="M47.4868 200.478C47.4868 200.478 27.3105 194.226 28.0205 214.969C28.0205 214.969 31.0244 245.046 32.3289 247.818C32.3289 247.818 40.2527 265.33 53.3298 266.106C66.1108 266.864 53.3298 266.106 53.3298 266.106L53.4886 271.75C53.4886 271.75 30.5039 268.803 26.0646 242.316L22.5607 218.253C22.5607 218.253 19.8401 186.408 46.2302 194.505C71.9395 202.393 46.2302 194.505 46.2302 194.505L47.4868 200.478Z" fill="#3B434F"/>
<path d="M40.8273 242.265C40.8273 242.265 39.6982 243.119 38.7281 243.119C37.7581 243.119 36.6428 242.265 36.6428 242.265L34.5605 221.282C34.5605 221.282 37.4335 210.949 49.6244 216.41L49.9125 222.41C49.9125 222.41 39.2169 218.616 39.438 223.34C39.6509 227.886 40.8273 242.265 40.8273 242.265Z" fill="#3B434F"/>
<path d="M243.172 199.633C243.184 199.633 244.225 198.807 246.189 198.191C247.171 197.884 248.391 197.632 249.782 197.569C250.13 197.554 250.487 197.55 250.853 197.56C251.219 197.571 251.593 197.595 251.973 197.635C252.734 197.716 253.519 197.862 254.31 198.088C257.475 198.993 260.703 201.193 262.6 205.734C263.551 208.005 264.179 210.862 264.345 214.435C264.387 215.329 264.4 216.267 264.381 217.252C264.363 218.237 264.314 219.27 264.232 220.351C264.068 222.513 263.771 224.871 263.33 227.44C263.339 227.438 263.742 235.205 260.951 244.13C258.327 252.856 252.027 263.575 240.394 266.638C241.732 244.474 241.774 221.894 243.172 199.633Z" fill="white"/>
<path d="M240.842 200.526C240.842 200.526 261.106 194.279 260.393 215.007C260.393 215.007 257.376 245.064 256.066 247.834C256.066 247.834 248.107 265.334 234.973 266.11C222.136 266.868 234.973 266.11 234.973 266.11L234.814 271.75C234.814 271.75 257.899 268.805 262.358 242.336L265.877 218.289C265.877 218.289 268.609 186.466 242.104 194.558C216.282 202.44 242.104 194.558 242.104 194.558L240.842 200.526Z" fill="#3B434F"/>
<path d="M247.53 242.285C247.53 242.285 248.664 243.138 249.639 243.138C250.613 243.138 251.733 242.285 251.733 242.285L253.824 221.317C253.824 221.317 250.939 210.99 238.695 216.447L238.405 222.443C238.405 222.443 249.148 218.652 248.926 223.373C248.712 227.916 247.53 242.285 247.53 242.285Z" fill="#3B434F"/>
<path fill-rule="evenodd" clip-rule="evenodd" d="M152.252 240.604C152.75 240.604 153.248 240.604 153.746 240.604C156.833 244.797 158.089 251.24 159.719 256.817C160.224 258.545 159.734 261.568 159.292 262.79C157.675 267.266 152.595 267.186 148.412 269.19C147.289 269.729 146.454 270.658 144.999 270.897C144.051 270.062 142.906 269.898 142.439 268.55C141.287 266.964 142.772 265.973 143.932 265.35C146.039 264.221 152.54 263.108 153.319 261.084C154.282 259.988 153.642 256.694 153.319 255.537C152.492 252.575 152.096 250.102 150.972 247.43C150.226 245.656 148.916 243.785 149.692 241.67C150.336 241.394 151.726 241.08 152.252 240.604Z" fill="#3B434F"/>
<path d="M93.159 207.75H99.1324C102.431 207.75 105.106 210.425 105.106 213.724C105.106 217.023 102.431 219.697 99.1324 219.697H93.159C89.86 219.697 87.1857 217.023 87.1857 213.724C87.1857 210.425 89.86 207.75 93.159 207.75Z" fill="#3B434F"/>
<path d="M190.439 207.75H196.412C199.711 207.75 202.386 210.425 202.386 213.724C202.386 217.023 199.711 219.697 196.412 219.697H190.439C187.14 219.697 184.466 217.023 184.466 213.724C184.466 210.425 187.14 207.75 190.439 207.75Z" fill="#3B434F"/>
<path d="M195.986 235.91C201.877 235.91 206.652 240.686 206.652 246.577C206.652 252.468 201.877 257.244 195.986 257.244C190.095 257.244 185.319 252.468 185.319 246.577C185.319 240.686 190.095 235.91 195.986 235.91Z" fill="#EDF1F1"/>
<path d="M92.7323 235.91C98.6234 235.91 103.399 240.686 103.399 246.577C103.399 252.468 98.6234 257.244 92.7323 257.244C86.8413 257.244 82.0657 252.468 82.0657 246.577C82.0657 240.686 86.8413 235.91 92.7323 235.91Z" fill="#EDF1F1"/>
<path fill-rule="evenodd" clip-rule="evenodd" d="M237.299 195.15C236.722 200.08 236.215 206.113 235.149 211.506C231.961 227.635 218.102 242.578 194.439 244.28C170.775 245.983 150.635 234.07 149.455 217.672C149.254 214.892 148.719 211.772 148.308 208.738C144.96 206.882 141.508 206.878 137.954 208.726C137.538 211.828 136.983 215.03 136.778 217.877C135.594 234.329 115.391 246.281 91.6523 244.573C67.9138 242.865 54.0114 227.872 50.8138 211.69C49.7444 206.279 49.2358 200.226 48.6568 195.28L45.1685 195.029L45.6584 188.22L46.5096 188.281L68.0981 189.835L86.3212 191.146L104.578 192.46L133.015 194.506C134.976 194.754 136.28 195.595 137.12 196.851C141.204 198.639 145.17 198.646 149.019 196.872C149.851 195.536 151.172 194.636 153.206 194.379L181.553 192.339L199.753 191.03L217.919 189.723L239.439 188.174L240.288 188.113L240.776 194.9L237.299 195.15ZM125.379 202.508L69.6473 198.497C62.3581 197.869 59.7744 206.06 59.3251 212.303C58.378 225.465 73.0433 237.245 92.081 238.615C111.119 239.985 127.32 230.426 128.267 217.264C128.716 211.021 130.755 207.166 125.379 202.508ZM226.664 212.117C226.216 205.894 223.641 197.73 216.374 198.357L160.818 202.354C155.459 206.996 157.491 210.839 157.939 217.062C158.883 230.18 175.033 239.708 194.011 238.342C212.989 236.977 227.608 225.235 226.664 212.117Z" fill="#3B444F"/>
<path d="M53.0524 133.51L84.199 93.8304L112.359 80.6038L150.332 74.6304L193.852 77.1904L252.306 137.777L236.519 194.95C236.519 194.95 232.901 169.735 213.479 149.724C195.363 131.057 183.612 126.47 183.612 126.47C183.612 126.47 176.761 154.117 131.132 153.137C49.2891 151.379 52.9242 209.501 50.0657 214.577C49.7516 215.135 49.639 190.257 49.639 190.257L53.0524 133.51Z" fill="#3B434F"/>
</svg>
