<svg width="296" height="438" viewBox="0 0 296 438" fill="none" xmlns="http://www.w3.org/2000/svg">
<path d="M2.71901 433.753C2.71901 433.753 -3.89598 343.765 80.799 335.366H118.772V317.873C118.772 317.873 145.484 329.346 172.532 319.153L173.386 335.366H217.759C217.759 335.366 293.744 338.351 290.292 434.606L2.71901 433.753Z" fill="white"/>
<path d="M290.034 437.34H5.51788H0L1.37735 413.81C4.06665 367.868 40.2642 332.806 81.6873 332.806H113.212V337.5H84.2021C44.2787 337.5 9.39166 371.248 6.79971 415.47L5.84299 431.793H289.283L288.752 415.47C286.16 371.248 251.273 337.5 211.35 337.5H172.519V332.806H213.612C255.035 332.806 291.232 367.868 293.922 413.81L295.299 437.34H290.034Z" fill="#3B434F"/>
<path d="M143.079 385.713C120.222 385.713 101.692 367.184 101.692 344.326C101.692 340.327 102.271 336.465 103.329 332.806H103.399H107.791H115.346V337.5H106.598C106.183 339.713 105.959 341.993 105.959 344.326C105.959 364.827 122.578 381.446 143.079 381.446C163.58 381.446 180.199 364.827 180.199 344.326C180.199 341.993 179.975 339.713 179.56 337.5H170.812V332.806H178.367H182.759H182.828C183.887 336.465 184.466 340.327 184.466 344.326C184.466 367.184 165.936 385.713 143.079 385.713Z" fill="#3B434F"/>
<path d="M118.759 315.899V342.214C118.759 355.87 129.838 366.94 143.506 366.94C157.173 366.94 168.252 355.87 168.252 342.214V316.442C169.689 316.005 171.111 315.53 172.519 315.017V342.393C172.519 358.542 159.434 371.633 143.292 371.633C127.151 371.633 114.066 358.542 114.066 342.393V314.207C115.612 314.818 117.177 315.38 118.759 315.899Z" fill="#3B434F"/>
<path d="M144.574 48.2197C197.652 48.2197 239.546 97.821 238.184 157.418L236.736 220.759C235.453 276.906 194.204 321.286 144.574 321.286C94.9429 321.286 53.6947 276.906 52.4114 220.759L50.9636 157.418C49.6014 97.821 91.4958 48.2197 144.574 48.2197Z" fill="white"/>
<path fill-rule="evenodd" clip-rule="evenodd" d="M242.448 155.454L240.931 221.369C239.587 279.796 196.365 325.98 144.36 325.98C92.3555 325.98 49.1342 279.796 47.7895 221.369L46.2724 155.454C44.845 93.436 88.7435 41.8197 144.36 41.8197C199.977 41.8197 243.876 93.436 242.448 155.454ZM144.147 48.6464C91.795 48.6464 50.4734 97.8601 51.8169 156.992L53.245 219.838C54.5107 275.546 95.195 319.58 144.147 319.58C193.1 319.58 233.784 275.546 235.05 219.838L236.478 156.992C237.821 97.8601 196.5 48.6464 144.147 48.6464Z" fill="#3B434F"/>
<path opacity="0.058824" fill-rule="evenodd" clip-rule="evenodd" d="M239.786 166.406L235.519 236.38C235.519 236.38 216.569 317.151 143.359 326.714V326.833C143.215 326.815 143.076 326.792 142.932 326.774C142.789 326.792 142.65 326.815 142.506 326.833V326.714C69.2959 317.151 50.3456 236.38 50.3456 236.38L46.079 166.406C65.0768 250.733 81.0656 256.006 81.0656 256.006C77.8301 230.435 104.106 232.966 104.106 232.966C120.12 235.671 132.868 236.979 142.932 237.467C152.997 236.979 165.745 235.671 181.759 232.966C181.759 232.966 208.035 230.435 204.799 256.006C204.799 256.006 220.788 250.733 239.786 166.406ZM192.342 264.679C191.1 249.638 182.03 250.913 182.03 250.913C165.905 255.658 153.248 258.294 143.359 259.633V259.535C133.539 258.206 120.971 255.592 104.959 250.886C104.959 250.886 95.9523 249.621 94.719 264.54C94.719 264.54 91.1023 279.486 103.252 285.873L118.612 302.086C118.612 302.086 129.109 305.413 128.852 292.7C128.852 292.7 127.784 283.218 133.972 281.606H143.359V281.887H152.812C159.044 283.512 157.968 293.072 157.968 293.072C157.71 305.891 168.28 302.536 168.28 302.536L183.749 286.189C195.984 279.75 192.342 264.679 192.342 264.679Z" fill="#3B434F"/>
<path d="M190.439 259.079C182.684 265.813 165.167 272.22 144.786 272.22C124.404 272.22 106.888 265.813 99.1323 259.079C99.1323 259.079 98.3388 256.896 99.503 255.732C100.689 254.546 102.546 254.804 102.546 254.804C110.293 261.542 124.397 267.1 144.786 267.1C165.175 267.1 179.279 261.542 187.026 254.804C187.026 254.804 188.921 254.1 189.841 255.02C191.614 256.794 190.439 259.079 190.439 259.079Z" fill="#3B434F"/>
<path d="M130.706 282.46H158.012V286.726H130.706V282.46Z" fill="#3B434F"/>
<path d="M46.1663 165.066C46.1545 165.067 45.1187 164.24 43.1627 163.624C42.1851 163.317 40.9701 163.064 39.5852 163.001C39.2394 162.986 38.8834 162.982 38.5192 162.993C38.1549 163.003 37.7824 163.027 37.4038 163.068C36.6465 163.149 35.8644 163.294 35.0775 163.52C31.9263 164.426 28.7117 166.628 26.8238 171.172C25.8761 173.444 25.251 176.303 25.0857 179.879C25.0443 180.773 25.0317 181.712 25.0498 182.698C25.068 183.684 25.1169 184.717 25.1987 185.798C25.3621 187.962 25.6572 190.322 26.0969 192.893C26.0873 192.89 25.6868 200.663 28.4655 209.594C31.0777 218.326 37.3506 229.052 48.9324 232.117C47.6003 209.938 47.559 187.343 46.1663 165.066Z" fill="white"/>
<path d="M47.4868 165.96C47.4868 165.96 27.3105 159.709 28.0205 180.451C28.0205 180.451 31.0244 210.528 32.3289 213.3C32.3289 213.3 40.2527 230.812 53.3298 231.589C66.1108 232.347 53.3298 231.589 53.3298 231.589L53.4886 237.233C53.4886 237.233 30.5039 234.286 26.0646 207.799L22.5607 183.736C22.5607 183.736 19.8401 151.891 46.2302 159.988C71.9395 167.876 46.2302 159.988 46.2302 159.988L47.4868 165.96Z" fill="#3B434F"/>
<path d="M40.8273 207.748C40.8273 207.748 39.6982 208.601 38.7281 208.601C37.7581 208.601 36.6428 207.748 36.6428 207.748L34.5605 186.765C34.5605 186.765 37.4335 176.432 49.6244 181.893L49.9125 187.892C49.9125 187.892 39.2169 184.099 39.438 188.823C39.6509 193.369 40.8273 207.748 40.8273 207.748Z" fill="#3B434F"/>
<path d="M242.172 165.115C242.184 165.116 243.225 164.289 245.189 163.674C246.171 163.367 247.391 163.114 248.782 163.052C249.13 163.036 249.487 163.033 249.853 163.043C250.219 163.053 250.593 163.078 250.973 163.118C251.734 163.199 252.519 163.344 253.31 163.57C256.475 164.475 259.703 166.676 261.6 171.217C262.551 173.488 263.179 176.344 263.345 179.918C263.387 180.811 263.4 181.75 263.381 182.735C263.363 183.72 263.314 184.752 263.232 185.833C263.068 187.995 262.771 190.353 262.33 192.923C262.339 192.92 262.742 200.688 259.951 209.613C257.327 218.339 251.027 229.058 239.394 232.121C240.732 209.957 240.774 187.377 242.172 165.115Z" fill="white"/>
<path d="M240.842 166.009C240.842 166.009 261.106 159.761 260.393 180.49C260.393 180.49 257.376 210.547 256.066 213.317C256.066 213.317 248.107 230.817 234.973 231.592C222.136 232.35 234.973 231.592 234.973 231.592L234.814 237.233C234.814 237.233 257.899 234.288 262.358 207.818L265.877 183.772C265.877 183.772 268.609 151.949 242.104 160.04C216.282 167.923 242.104 160.04 242.104 160.04L240.842 166.009Z" fill="#3B434F"/>
<path d="M247.53 207.768C247.53 207.768 248.664 208.621 249.639 208.621C250.613 208.621 251.733 207.768 251.733 207.768L253.824 186.799C253.824 186.799 250.939 176.473 238.695 181.93L238.405 187.926C238.405 187.926 249.148 184.135 248.926 188.855C248.712 193.399 247.53 207.768 247.53 207.768Z" fill="#3B434F"/>
<path fill-rule="evenodd" clip-rule="evenodd" d="M152.252 206.086C152.75 206.086 153.248 206.086 153.746 206.086C156.833 210.279 158.089 216.723 159.719 222.3C160.224 224.028 159.734 227.051 159.292 228.273C157.675 232.749 152.595 232.668 148.412 234.673C147.289 235.212 146.454 236.141 144.999 236.38C144.051 235.544 142.906 235.38 142.439 234.033C141.287 232.446 142.772 231.455 143.932 230.833C146.039 229.703 152.54 228.59 153.319 226.566C154.282 225.471 153.642 222.176 153.319 221.02C152.492 218.058 152.096 215.585 150.972 212.913C150.226 211.139 148.916 209.268 149.692 207.153C150.336 206.877 151.726 206.563 152.252 206.086Z" fill="#3B434F"/>
<path d="M93.159 173.233H99.1324C102.431 173.233 105.106 175.907 105.106 179.206C105.106 182.505 102.431 185.18 99.1324 185.18H93.159C89.86 185.18 87.1857 182.505 87.1857 179.206C87.1857 175.907 89.86 173.233 93.159 173.233Z" fill="#3B434F"/>
<path d="M190.439 173.233H196.412C199.711 173.233 202.386 175.907 202.386 179.206C202.386 182.505 199.711 185.18 196.412 185.18H190.439C187.14 185.18 184.466 182.505 184.466 179.206C184.466 175.907 187.14 173.233 190.439 173.233Z" fill="#3B434F"/>
<path d="M195.986 201.393C201.877 201.393 206.652 206.169 206.652 212.06C206.652 217.951 201.877 222.726 195.986 222.726C190.095 222.726 185.319 217.951 185.319 212.06C185.319 206.169 190.095 201.393 195.986 201.393Z" fill="#EDF1F1"/>
<path d="M92.7323 201.393C98.6234 201.393 103.399 206.169 103.399 212.06C103.399 217.951 98.6234 222.726 92.7323 222.726C86.8413 222.726 82.0657 217.951 82.0657 212.06C82.0657 206.169 86.8413 201.393 92.7323 201.393Z" fill="#EDF1F1"/>
<path d="M171.686 158.194C171.686 158.194 197.231 143.589 215.479 159.68L220.306 160.428C220.306 160.428 214.123 137.931 169.106 152.559L170.359 156.753M171.359 156.753C171.359 156.753 197.346 141.827 214.479 160.68L223.306 160.428C223.306 160.428 212.297 136.396 167.106 151.559L171.359 157.753" fill="#3B434F"/>
<path d="M116.797 158.279C116.797 158.279 91.338 143.803 73.1506 159.752L68.3398 160.493C68.3398 160.493 74.5017 138.195 119.369 152.694L118.12 156.85M117.123 156.85C117.123 156.85 91.2226 142.056 74.1473 160.743L65.3499 160.493C65.3499 160.493 76.3217 136.674 121.362 151.703L117.123 157.842" fill="#3B434F"/>
<path d="M52.359 209.753C52.359 209.753 9.30254 192.824 3.53731 167.243C-2.22788 141.663 2.70531 125.561 9.85485 120.292C9.85485 120.292 6.78069 80.9106 21.5874 68.2191C21.5874 68.2191 28.2669 39.6237 62.2001 30.6581C62.2001 30.6581 114.891 -24.9187 210.211 13.5849C210.211 13.5849 233.687 36.287 247.835 44.5053C248.237 44.7389 248.632 44.9609 249.018 45.1703C262.995 52.7443 276.176 68.5147 278.801 98.9508C278.801 98.9508 278.538 126.188 292.339 144.195C292.339 144.195 307.615 191.617 235.481 208.219L232.773 142.487C232.773 142.487 199.402 131.021 195.771 100.658C195.771 100.658 147.017 116.024 116.35 99.8044C116.35 99.8044 97.3084 94.0622 96.4952 102.365C96.4952 102.365 90.1166 136.716 55.8826 145.902L52.359 209.753Z" fill="#3B434F"/>
</svg>
