<svg width="296" height="425" viewBox="0 0 296 425" fill="none" xmlns="http://www.w3.org/2000/svg">
<path d="M1.71901 420.947C1.71901 420.947 -4.89598 330.958 79.799 322.56H117.772V305.067C117.772 305.067 144.484 316.54 171.532 306.347L172.386 322.56H216.759C216.759 322.56 292.744 325.544 289.292 421.8L1.71901 420.947Z" fill="white"/>
<path d="M290.034 424.533H5.51788H0L1.37735 401.004C4.06665 355.061 40.2642 320 81.6873 320H113.212V324.693H84.2021C44.2787 324.693 9.39166 358.442 6.79971 402.664L5.84299 418.987H289.283L288.752 402.664C286.16 358.442 251.273 324.693 211.35 324.693H172.519V320H213.612C255.035 320 291.232 355.061 293.922 401.004L295.299 424.533H290.034Z" fill="#3B434F"/>
<path d="M143.079 372.907C120.222 372.907 101.692 354.377 101.692 331.52C101.692 327.521 102.271 323.658 103.329 320H103.399H107.791H115.346V324.693H106.598C106.183 326.906 105.959 329.186 105.959 331.52C105.959 352.021 122.578 368.64 143.079 368.64C163.58 368.64 180.199 352.021 180.199 331.52C180.199 329.186 179.975 326.906 179.56 324.693H170.812V320H178.367H182.759H182.828C183.887 323.658 184.466 327.521 184.466 331.52C184.466 354.377 165.936 372.907 143.079 372.907Z" fill="#3B434F"/>
<path d="M118.759 303.093V329.408C118.759 343.063 129.838 354.133 143.506 354.133C157.173 354.133 168.252 343.063 168.252 329.408V303.636C169.689 303.198 171.111 302.724 172.519 302.211V329.587C172.519 345.736 159.434 358.827 143.292 358.827C127.151 358.827 114.066 345.736 114.066 329.587V301.4C115.612 302.012 117.177 302.574 118.759 303.093Z" fill="#3B434F"/>
<path d="M144.574 35.4133C197.652 35.4133 239.546 85.0146 238.184 144.612L236.736 207.953C235.453 264.099 194.204 308.48 144.574 308.48C94.9429 308.48 53.6947 264.099 52.4114 207.953L50.9636 144.612C49.6014 85.0146 91.4958 35.4133 144.574 35.4133Z" fill="white"/>
<path fill-rule="evenodd" clip-rule="evenodd" d="M242.448 142.648L240.931 208.562C239.587 266.989 196.365 313.173 144.36 313.173C92.3555 313.173 49.1342 266.989 47.7895 208.562L46.2724 142.648C44.845 80.6296 88.7435 29.0133 144.36 29.0133C199.977 29.0133 243.876 80.6296 242.448 142.648ZM144.147 35.84C91.795 35.84 50.4734 85.0537 51.8169 144.185L53.245 207.031C54.5107 262.739 95.195 306.773 144.147 306.773C193.1 306.773 233.784 262.739 235.05 207.031L236.478 144.185C237.821 85.0537 196.5 35.84 144.147 35.84Z" fill="#3B434F"/>
<path opacity="0.058824" fill-rule="evenodd" clip-rule="evenodd" d="M239.786 153.6L235.519 223.573C235.519 223.573 216.569 304.344 143.359 313.908V314.027C143.215 314.009 143.076 313.985 142.932 313.967C142.789 313.985 142.65 314.009 142.506 314.027V313.908C69.2959 304.344 50.3456 223.573 50.3456 223.573L46.079 153.6C65.0768 237.927 81.0656 243.2 81.0656 243.2C77.8301 217.629 104.106 220.16 104.106 220.16C120.12 222.865 132.868 224.172 142.932 224.661C152.997 224.172 165.745 222.865 181.759 220.16C181.759 220.16 208.035 217.629 204.799 243.2C204.799 243.2 220.788 237.927 239.786 153.6ZM192.342 251.873C191.1 236.831 182.03 238.107 182.03 238.107C165.905 242.852 153.248 245.487 143.359 246.827V246.729C133.539 245.4 120.971 242.786 104.959 238.08C104.959 238.08 95.9523 236.815 94.719 251.733C94.719 251.733 91.1023 266.68 103.252 273.067L118.612 289.28C118.612 289.28 129.109 292.607 128.852 279.893C128.852 279.893 127.784 270.412 133.972 268.8H143.359V269.081H152.812C159.044 270.706 157.968 280.266 157.968 280.266C157.71 293.084 168.28 289.73 168.28 289.73L183.749 273.383C195.984 266.943 192.342 251.873 192.342 251.873Z" fill="#3B434F"/>
<path d="M134.119 274.773H154.599C155.542 274.773 156.306 275.537 156.306 276.48C156.306 277.423 155.542 278.187 154.599 278.187H134.119C133.176 278.187 132.412 277.423 132.412 276.48C132.412 275.537 133.176 274.773 134.119 274.773Z" fill="#3B434F"/>
<path d="M116.197 254.353L118.574 251.026C126.214 255.397 135.291 257.93 145.029 257.93C154.876 257.93 164.046 255.339 171.738 250.879L174.227 254.315C165.858 259.159 155.886 261.973 145.179 261.973C134.501 261.973 124.552 259.175 116.197 254.353Z" fill="#3B434F"/>
<path d="M46.1663 152.26C46.1545 152.26 45.1187 151.433 43.1627 150.817C42.1851 150.51 40.9701 150.257 39.5852 150.195C39.2394 150.18 38.8834 150.176 38.5192 150.186C38.1549 150.197 37.7824 150.221 37.4038 150.261C36.6465 150.342 35.8644 150.488 35.0775 150.714C31.9263 151.62 28.7117 153.821 26.8238 158.366C25.8761 160.638 25.251 163.496 25.0857 167.073C25.0443 167.967 25.0317 168.906 25.0498 169.891C25.068 170.877 25.1169 171.91 25.1987 172.992C25.3621 175.155 25.6572 177.515 26.0969 180.086C26.0873 180.084 25.6868 187.856 28.4655 196.787C31.0777 205.519 37.3506 216.246 48.9324 219.311C47.6003 197.132 47.559 174.537 46.1663 152.26Z" fill="white"/>
<path d="M47.4868 153.154C47.4868 153.154 27.3105 146.902 28.0205 167.645C28.0205 167.645 31.0244 197.722 32.3289 200.494C32.3289 200.494 40.2527 218.006 53.3298 218.782C66.1108 219.541 53.3298 218.782 53.3298 218.782L53.4886 224.427C53.4886 224.427 30.5039 221.48 26.0646 194.992L22.5607 170.929C22.5607 170.929 19.8401 139.085 46.2302 147.181C71.9395 155.069 46.2302 147.181 46.2302 147.181L47.4868 153.154Z" fill="#3B434F"/>
<path d="M40.8273 194.941C40.8273 194.941 39.6982 195.795 38.7281 195.795C37.7581 195.795 36.6428 194.941 36.6428 194.941L34.5605 173.959C34.5605 173.959 37.4335 163.625 49.6244 169.086L49.9125 175.086C49.9125 175.086 39.2169 171.293 39.438 176.016C39.6509 180.563 40.8273 194.941 40.8273 194.941Z" fill="#3B434F"/>
<path d="M242.172 152.309C242.184 152.309 243.225 151.483 245.189 150.867C246.171 150.56 247.391 150.308 248.782 150.245C249.13 150.23 249.487 150.226 249.853 150.237C250.219 150.247 250.593 150.271 250.973 150.312C251.734 150.393 252.519 150.538 253.31 150.764C256.475 151.669 259.703 153.869 261.6 158.411C262.551 160.681 263.179 163.538 263.345 167.112C263.387 168.005 263.4 168.943 263.381 169.928C263.363 170.914 263.314 171.946 263.232 173.027C263.068 175.189 262.771 177.547 262.33 180.116C262.339 180.114 262.742 187.881 259.951 196.806C257.327 205.532 251.027 216.251 239.394 219.315C240.732 197.15 240.774 174.57 242.172 152.309Z" fill="white"/>
<path d="M240.842 153.202C240.842 153.202 261.106 146.955 260.393 167.683C260.393 167.683 257.376 197.74 256.066 200.51C256.066 200.51 248.107 218.01 234.973 218.786C222.136 219.544 234.973 218.786 234.973 218.786L234.814 224.427C234.814 224.427 257.899 221.482 262.358 195.012L265.877 170.966C265.877 170.966 268.609 139.143 242.104 147.234C216.282 155.116 242.104 147.234 242.104 147.234L240.842 153.202Z" fill="#3B434F"/>
<path d="M247.53 194.961C247.53 194.961 248.664 195.814 249.639 195.814C250.613 195.814 251.733 194.961 251.733 194.961L253.824 173.993C253.824 173.993 250.939 163.666 238.695 169.124L238.405 175.119C238.405 175.119 249.148 171.329 248.926 176.049C248.712 180.592 247.53 194.961 247.53 194.961Z" fill="#3B434F"/>
<path fill-rule="evenodd" clip-rule="evenodd" d="M152.252 193.28C152.75 193.28 153.248 193.28 153.746 193.28C156.833 197.473 158.089 203.916 159.719 209.493C160.224 211.222 159.734 214.245 159.292 215.467C157.675 219.942 152.595 219.862 148.412 221.867C147.289 222.405 146.454 223.335 144.999 223.573C144.051 222.738 142.906 222.574 142.439 221.227C141.287 219.64 142.772 218.649 143.932 218.027C146.039 216.897 152.54 215.784 153.319 213.76C154.282 212.664 153.642 209.37 153.319 208.213C152.492 205.251 152.096 202.778 150.972 200.107C150.226 198.332 148.916 196.461 149.692 194.347C150.336 194.07 151.726 193.756 152.252 193.28Z" fill="#3B434F"/>
<path d="M94.8658 157.013C99.5786 157.013 103.399 160.834 103.399 165.547C103.399 170.259 99.5786 174.08 94.8658 174.08C90.1529 174.08 86.3324 170.259 86.3324 165.547C86.3324 160.834 90.1529 157.013 94.8658 157.013Z" fill="#3B434F"/>
<path d="M194.706 157.013C199.419 157.013 203.239 160.834 203.239 165.547C203.239 170.259 199.419 174.08 194.706 174.08C189.993 174.08 186.172 170.259 186.172 165.547C186.172 160.834 189.993 157.013 194.706 157.013Z" fill="#3B434F"/>
<path d="M195.986 188.587C201.877 188.587 206.652 193.362 206.652 199.253C206.652 205.144 201.877 209.92 195.986 209.92C190.095 209.92 185.319 205.144 185.319 199.253C185.319 193.362 190.095 188.587 195.986 188.587Z" fill="#EDF1F1"/>
<path d="M92.7323 188.587C98.6234 188.587 103.399 193.362 103.399 199.253C103.399 205.144 98.6234 209.92 92.7323 209.92C86.8413 209.92 82.0657 205.144 82.0657 199.253C82.0657 193.362 86.8413 188.587 92.7323 188.587Z" fill="#EDF1F1"/>
<path d="M171.686 145.388C171.686 145.388 197.231 130.783 215.479 146.874L220.306 147.622C220.306 147.622 214.123 125.124 169.106 139.753L170.359 143.947M171.359 143.947C171.359 143.947 197.346 129.02 214.479 147.874L223.306 147.622C223.306 147.622 212.297 123.59 167.106 138.753L171.359 144.947" fill="#3B434F"/>
<path d="M116.797 145.472C116.797 145.472 91.338 130.997 73.1506 146.945L68.3398 147.687C68.3398 147.687 74.5017 125.388 119.369 139.887L118.12 144.044M117.123 144.044C117.123 144.044 91.2226 129.25 74.1473 147.936L65.3499 147.687C65.3499 147.687 76.3217 123.867 121.362 138.896L117.123 145.035" fill="#3B434F"/>
<path d="M49.11 148.48C49.11 148.48 52.4021 97.0833 84.1197 74.24C84.1197 74.24 129.917 105.393 201.957 74.24C201.957 74.24 233.822 88.7533 238.675 148.48H240.385C240.385 148.48 249.509 80.0667 225.866 52.9066C225.866 52.9066 220.043 32.1067 189.149 17.0667L178.048 23.8933C178.048 23.8933 170.59 14.7666 150.724 3.41333C150.724 3.41333 136.031 9.95999 128.522 21.3333L116.568 13.6533C116.568 13.6533 99.8634 21.3 90.097 34.9867L72.1652 37.5466L62.7723 54.6133C62.7723 54.6133 40.3514 72.6766 47.3994 146.773L49.11 148.48Z" fill="#3B434F"/>
<path d="M52.0966 148.907C52.0966 148.907 56.4165 100.86 84.1196 77.2267C84.1196 77.2267 129.916 108.807 201.957 77.6533C201.957 77.6533 230.835 88.3267 235.688 148.053L243.799 148.48C243.799 148.48 252.922 79.64 229.28 52.48C229.28 52.48 220.896 28.6933 190.002 13.6533L178.492 20.0533C178.492 20.0533 171.052 11.3533 151.186 0C151.186 0 135.654 5.69333 128.146 17.0667L116.994 9.81332C116.994 9.81332 99.01 18.3133 89.2436 32L70.4584 34.56L60.2123 53.3333C60.2123 53.3333 37.7913 72.6766 44.8393 146.773L52.0966 148.907Z" fill="#3B434F"/>
<path opacity="0.2" fill-rule="evenodd" clip-rule="evenodd" d="M145.498 22.6197C146.126 23.0867 145.815 23.5188 145.679 24.1027C145.475 24.9739 145.234 25.8362 145.098 26.7054C144.892 28.0227 144.704 29.3415 144.651 30.641C144.605 31.7338 144.625 32.823 144.644 33.9052C144.655 34.5301 144.762 35.154 144.777 35.7799C144.783 36.0296 144.851 36.2801 144.858 36.5342C144.874 36.6032 144.889 36.6722 144.904 36.7411C144.913 37.0606 144.997 37.3653 145.006 37.6841C145.058 37.9727 145.11 38.2615 145.162 38.5501C145.239 39.0076 145.276 39.4851 145.416 39.9308C145.431 40.0449 145.447 40.159 145.462 40.2731C145.573 40.6273 145.609 40.9928 145.721 41.348C145.729 41.4182 145.737 41.4884 145.745 41.5586C145.907 42.0708 145.98 42.6097 146.142 43.1187C146.405 43.9453 146.618 44.7754 146.908 45.6001C147.1 46.147 147.265 46.72 147.459 47.2702C147.802 48.2496 148.222 49.2061 148.6 50.1748C148.83 50.7645 149.139 51.3093 149.385 51.8965C150.083 53.558 150.979 55.1911 151.836 56.8198C152.113 57.3459 152.417 57.8299 152.724 58.3438C152.92 58.6717 153.123 59.0391 153.304 59.3769C153.404 59.5638 153.529 59.7047 153.638 59.8861C153.873 60.2795 154.128 60.7024 154.36 61.0988C154.575 61.4653 154.817 61.7783 155.053 62.1356C155.309 62.5207 155.561 62.9542 155.82 63.341C156.27 64.0132 156.746 64.6628 157.192 65.3268C157.654 66.0166 158.174 66.6273 158.664 67.3072C159.613 68.6249 160.723 69.8889 161.746 71.2115C162.053 71.6073 162.419 71.9534 162.725 72.3365C162.878 72.5276 163.134 72.6945 163.237 72.8953C163.279 72.9771 163.303 73.1031 163.332 73.1956C163.38 73.3446 163.367 73.5286 163.369 73.6863C163.373 73.9388 163.385 74.1946 163.341 74.4589C163.295 74.7326 163.121 75.034 163.008 75.3043C162.917 75.5213 162.691 75.7126 162.563 75.8183C162.456 75.9073 162.411 75.99 162.301 76.0762C162.016 76.3005 161.693 76.485 161.38 76.5787C161.056 76.6759 160.638 76.3849 160.382 76.078C159.934 75.541 159.374 75.0479 158.944 74.5095C158.853 74.3943 158.751 74.3433 158.66 74.2291C158.164 73.6015 157.555 73.0106 157.065 72.3932C156.953 72.2523 156.831 72.1732 156.722 72.0322C156.341 71.5367 155.895 71.0901 155.509 70.5847C154.54 69.3179 153.495 68.0938 152.619 66.818C152.414 66.5197 152.194 66.2841 151.994 65.9844C150.575 63.8643 149.151 61.781 148.014 59.6207C147.715 59.0522 147.384 58.5353 147.104 57.9648C146.309 56.3452 145.568 54.7266 144.887 53.093C144.798 52.8784 144.733 52.6384 144.651 52.4209C144.278 51.4402 143.941 50.4718 143.606 49.4889C143.269 48.4974 143.077 47.4615 142.761 46.4674C142.695 46.2578 142.674 46.0304 142.607 45.8156C142.598 45.738 142.588 45.6605 142.579 45.583C142.506 45.3499 142.498 45.1021 142.427 44.8744C142.255 44.3283 142.202 43.7382 142.108 43.177C142.02 42.6474 141.899 42.1058 141.884 41.5658C141.863 41.4675 141.843 41.3692 141.823 41.271C141.813 40.9202 141.725 40.5735 141.716 40.2274C141.701 39.6233 141.605 39.0212 141.594 38.4185C141.58 37.669 141.551 36.9168 141.555 36.1667C141.56 35.4157 141.622 34.6816 141.665 33.9242C141.783 31.8725 142.158 29.8109 142.654 27.6861C142.833 26.9154 143.122 26.1613 143.364 25.3893C143.532 24.8575 143.795 24.345 143.982 23.8192C144.031 23.6819 144.107 23.6004 144.16 23.4623C144.272 23.1657 144.42 22.8008 144.694 22.6061C144.817 22.519 145.099 22.4724 145.243 22.5151C145.344 22.5449 145.408 22.6222 145.498 22.6197ZM125.475 37.3282C125.929 37.6569 125.894 38.1383 125.905 38.5442C125.916 38.9648 126.037 39.3835 126.048 39.8075C126.097 40.1004 126.147 40.3934 126.196 40.6864C126.202 40.9236 126.262 41.1487 126.301 41.3803C126.341 41.619 126.358 41.8591 126.431 42.0926C126.475 42.3562 126.519 42.6199 126.564 42.8836C126.636 43.1158 126.645 43.3641 126.716 43.5922C126.937 44.2978 127.022 45.0465 127.247 45.7511C127.486 46.4982 127.66 47.2705 127.919 48.0109C128.259 48.9807 128.591 49.9568 128.96 50.9209C129.149 51.4138 129.374 51.8746 129.575 52.3659C129.729 52.7415 129.875 53.1508 130.05 53.5179C130.778 55.0425 131.529 56.5659 132.329 58.0859C132.962 59.2895 133.718 60.4381 134.412 61.6248C134.626 61.9908 134.868 62.3053 135.106 62.6617C135.641 63.4661 136.211 64.3026 136.76 65.1201C137.278 65.8929 137.901 66.6133 138.447 67.3699C138.536 67.4935 138.639 67.5603 138.725 67.685C139.002 68.0841 139.364 68.4685 139.668 68.8612C139.821 69.0587 140.015 69.1958 140.154 69.4018C140.458 69.8528 140.648 70.6938 140.503 71.2182C140.252 72.1266 139.375 72.7382 138.707 72.9721C138.506 73.0427 138.192 73.1704 137.973 73.105C137.628 73.0019 137.408 72.6949 137.207 72.4415C136.946 72.114 136.643 71.8761 136.391 71.5492C135.925 70.9451 135.377 70.4051 134.911 69.7957C133.936 68.5197 132.937 67.2853 132.071 65.9869C130.066 62.9808 128.401 59.9463 127.104 56.8286C126.565 55.5344 126.131 54.1998 125.697 52.8839C125.543 52.4153 125.458 51.9141 125.31 51.4464C125.106 50.8054 125.016 50.1443 124.816 49.5072C124.805 49.4224 124.795 49.3375 124.784 49.2527C124.752 49.1104 124.704 48.9732 124.68 48.8297C124.663 48.7083 124.646 48.5868 124.63 48.4653C124.554 48.225 124.537 47.9769 124.496 47.7311C124.456 47.4924 124.394 47.2596 124.387 47.0152C124.357 46.8583 124.327 46.7014 124.297 46.5446C124.279 45.9047 124.125 45.2776 124.112 44.6332C124.109 44.4811 124.061 44.32 124.057 44.1681C124.042 43.5518 123.981 42.9336 123.984 42.3172C123.987 41.6153 123.981 40.9013 124.025 40.1991C124.042 39.9225 124.09 39.6618 124.103 39.3845C124.116 39.0804 124.17 38.7891 124.21 38.4748C124.234 38.2884 124.234 38.0627 124.29 37.8744C124.347 37.683 124.543 37.3737 124.724 37.2945C124.847 37.2404 125.085 37.1866 125.22 37.2236C125.321 37.2513 125.384 37.3306 125.475 37.3282ZM110.175 40.517C110.685 40.8914 110.543 41.3639 110.54 41.8226C110.535 42.5607 110.609 43.2975 110.628 44.0323C110.643 44.6182 110.793 45.2 110.809 45.7863C110.844 45.9725 110.879 46.1587 110.914 46.3448C110.923 46.6697 110.993 47.0892 111.09 47.3995C111.099 47.477 111.109 47.5545 111.118 47.632C111.148 47.8119 111.186 47.9889 111.241 48.1649C111.254 48.2643 111.267 48.3638 111.28 48.4633C111.411 48.8821 111.452 49.3303 111.585 49.7451C111.903 50.7372 112.157 51.752 112.505 52.7428C113.259 54.8904 114.293 56.9721 115.393 59.0616C115.752 59.7444 116.2 60.3799 116.563 61.0582C116.718 61.3474 116.921 61.5823 117.093 61.8624C117.562 62.628 118.107 63.3917 118.617 64.1504C119.323 65.2005 120.184 66.1578 120.935 67.199C121.198 67.5638 121.53 67.8806 121.785 68.2323C122.013 68.5451 122.307 68.7798 122.55 69.088C123.032 69.6986 123.639 70.2802 124.15 70.8892C124.445 71.2407 124.796 71.5245 125.082 71.864C125.401 72.2433 125.802 72.5465 126.116 72.9122C126.195 72.9818 126.274 73.0515 126.354 73.1211C126.674 73.5002 127.122 73.8361 127.452 74.2151C127.593 74.3769 127.76 74.4525 127.903 74.6147C128.366 75.1417 129.02 75.5688 129.496 76.1009C129.632 76.2528 129.812 76.3556 129.934 76.4913C129.985 76.5279 130.037 76.5646 130.088 76.6013C130.252 76.7843 130.508 76.9519 130.675 77.1364C130.73 77.1761 130.786 77.2159 130.841 77.2556C131.113 77.5576 131.533 77.7966 131.807 78.1005C131.88 78.1524 131.953 78.2043 132.025 78.2563C132.376 78.6433 132.931 78.9203 133.286 79.312C133.446 79.4324 133.605 79.5528 133.765 79.6731C133.843 79.7588 134.011 79.8329 134.102 79.9334C134.344 80.1997 134.752 80.4088 135.015 80.6629C135.17 80.8131 135.414 80.9166 135.545 81.0607C135.66 81.1878 135.87 81.2729 135.972 81.3851C136.305 81.6234 136.639 81.8618 136.972 82.1001C137.762 82.6642 138.549 83.1929 139.313 83.7336C139.674 83.9894 140.124 84.1911 140.346 84.5108C140.472 84.6914 140.523 84.9509 140.589 85.1481C140.738 85.5918 140.799 86.1185 140.674 86.6017C140.636 86.749 140.559 86.8484 140.504 87.0025C140.416 87.2494 140.268 87.6326 140.005 87.8643C139.833 88.015 139.655 88.218 139.465 88.3489C139.172 88.5506 138.853 88.443 138.496 88.2949C138.381 88.2197 138.267 88.1445 138.153 88.0693C137.605 87.8342 137.094 87.3311 136.544 87.0938C136.438 87.0482 136.327 86.9336 136.24 86.8958C136.057 86.7718 135.874 86.6477 135.692 86.5237C135.491 86.4367 135.31 86.2258 135.083 86.1276C134.893 86.0455 134.699 85.8922 134.513 85.7591C134.445 85.7102 134.376 85.6613 134.308 85.6125C134.125 85.5331 133.909 85.3657 133.738 85.2439C133.49 85.0667 133.242 84.8895 132.994 84.7123C132.727 84.5966 132.432 84.3303 132.176 84.1476C131.965 83.9963 131.678 83.8333 131.518 83.6582C131.373 83.5543 131.228 83.4504 131.082 83.3466C130.779 83.1296 130.479 82.9156 130.215 82.6885C130.07 82.5846 129.924 82.4807 129.779 82.3768C129.569 82.1446 129.203 81.9688 128.995 81.739C128.896 81.6687 128.798 81.5984 128.7 81.5282C128.547 81.3596 128.284 81.2122 128.133 81.0461C128.048 80.985 127.962 80.9239 127.877 80.8628C127.761 80.7346 127.554 80.6004 127.438 80.4724C127.37 80.4236 127.302 80.3747 127.233 80.3258C126.833 79.8812 126.246 79.5454 125.855 79.1089C125.733 79.0087 125.61 78.9084 125.488 78.8083C124.982 78.2396 124.299 77.7828 123.811 77.2231C123.678 77.0708 123.529 77.0022 123.398 76.851C122.947 76.327 122.372 75.8601 121.937 75.3429C121.866 75.2577 121.796 75.2379 121.725 75.1523C121.52 74.9068 121.256 74.6531 121.057 74.4048C120.965 74.2892 120.865 74.2403 120.773 74.1244C120.086 73.2575 119.279 72.4839 118.613 71.6142C117.435 70.0741 116.206 68.5711 115.274 66.9848C115.063 66.6255 114.812 66.3248 114.607 65.9662C114.244 65.3318 113.849 64.7072 113.508 64.0594C112.975 63.0457 112.476 62.0236 111.991 61.0025C111.649 60.2842 111.379 59.5116 111.099 58.7791C110.869 58.1779 110.649 57.5934 110.438 56.9917C110.23 56.3997 110.081 55.784 109.887 55.1861C109.69 54.578 109.609 53.9329 109.417 53.322C109.344 53.0899 109.351 52.797 109.279 52.5658C109.1 51.9955 109.057 51.3758 108.959 50.7897C108.54 48.2879 108.496 45.726 108.68 43.1242C108.722 42.5237 108.847 41.955 108.946 41.3414C108.991 41.0619 109.083 40.7067 109.392 40.4997C109.491 40.4337 109.805 40.3818 109.92 40.4124C110.014 40.4374 110.088 40.5191 110.175 40.517Z" fill="#3B434F"/>
</svg>
