<svg width="296" height="411" viewBox="0 0 296 411" fill="none" xmlns="http://www.w3.org/2000/svg">
<path d="M2.77251 408.44C2.77251 408.44 -7.52937 318.129 81.2125 308.053H119.186V290.56C119.186 290.56 145.898 302.033 172.946 291.84L173.799 308.053H218.173C218.173 308.053 295.446 315.768 290.773 408.44H2.77251Z" fill="white"/>
<path d="M290.034 410.027H5.51788H0L1.37735 386.497C4.06665 340.555 40.2642 305.493 81.6873 305.493H113.212V310.187H84.2021C44.2787 310.187 9.39166 343.935 6.79971 388.157L5.84299 404.48H289.283L288.752 388.157C286.16 343.935 251.273 310.187 211.35 310.187H172.519V305.493H213.612C255.035 305.493 291.232 340.555 293.922 386.497L295.299 410.027H290.034Z" fill="#3B434F"/>
<path d="M123.452 288.586V314.901C123.452 328.557 134.532 339.627 148.199 339.627C161.866 339.627 172.946 328.557 172.946 314.901V289.129C174.382 288.692 175.805 288.217 177.212 287.704V315.08C177.212 331.229 164.127 344.32 147.986 344.32C131.844 344.32 118.759 331.229 118.759 315.08V286.894C120.305 287.505 121.871 288.067 123.452 288.586Z" fill="#3B434F"/>
<path d="M118.546 339.2C120.077 339.2 121.319 340.442 121.319 341.973V383.787C121.319 385.318 120.077 386.56 118.546 386.56C117.014 386.56 115.772 385.318 115.772 383.787V341.973C115.772 340.442 117.014 339.2 118.546 339.2Z" fill="#3B434F"/>
<path d="M176.786 338.773C178.435 338.773 179.772 340.11 179.772 341.76V367.787C179.772 369.436 178.435 370.773 176.786 370.773C175.136 370.773 173.799 369.436 173.799 367.787V341.76C173.799 340.11 175.136 338.773 176.786 338.773Z" fill="#3B434F"/>
<path d="M118.546 383.573C119.371 383.573 120.039 384.242 120.039 385.067V395.733C120.039 396.558 119.371 397.227 118.546 397.227C117.721 397.227 117.052 396.558 117.052 395.733V385.067C117.052 384.242 117.721 383.573 118.546 383.573Z" fill="#3B434F"/>
<path d="M176.999 367.787C177.824 367.787 178.493 368.455 178.493 369.28V379.947C178.493 380.771 177.824 381.44 176.999 381.44C176.174 381.44 175.506 380.771 175.506 379.947V369.28C175.506 368.455 176.174 367.787 176.999 367.787Z" fill="#3B434F"/>
<path d="M102.538 278.086L75.5143 284.291C75.5143 284.291 42.4213 291.787 64.4381 314.091C86.4549 336.394 143.079 340.333 143.079 340.333C143.079 340.333 128.108 333.242 121.746 323.267L119.612 287.427L102.538 278.086Z" fill="#F5F3EF"/>
<path fill-rule="evenodd" clip-rule="evenodd" d="M143.933 342.467C142.256 344.589 95.1059 343.13 62.4392 314.733C38.7866 294.173 74.3859 282.307 74.3859 282.307L100.413 276.333L123.026 287.853L124.733 322.413C134.252 337.34 146.632 339.05 143.933 342.467ZM120.466 324.12L117.906 287.853L104.253 280.173L78.2259 286.573C78.2259 286.573 46.701 293.038 66.7059 311.747C88.2952 331.937 128.234 337.355 132.413 336.92C136.743 336.468 129.985 339.046 120.466 324.12Z" fill="#3B434F"/>
<path d="M193.832 279.091L220.871 285.315C220.871 285.315 253.984 292.834 231.954 315.204C209.924 337.574 153.267 341.525 153.267 341.525C153.267 341.525 168.247 334.412 174.613 324.407L176.747 288.46L193.832 279.091Z" fill="#F5F3EF"/>
<path fill-rule="evenodd" clip-rule="evenodd" d="M152.413 343.238C154.091 345.367 201.268 343.903 233.954 315.422C257.621 294.799 222.001 282.898 222.001 282.898L195.959 276.907L173.332 288.461L171.624 323.125C162.099 338.096 149.712 339.811 152.413 343.238ZM175.893 324.836L178.455 288.461L192.116 280.758L218.158 287.177C218.158 287.177 249.702 293.661 229.685 312.426C208.083 332.677 168.12 338.112 163.94 337.675C159.606 337.222 166.368 339.807 175.893 324.836Z" fill="#3B434F"/>
<path d="M149.987 20.9066C203.065 20.9066 244.959 70.5078 243.597 130.105L242.149 193.446C240.866 249.592 199.618 293.973 149.987 293.973C100.356 293.973 59.1082 249.592 57.8248 193.446L56.377 130.105C55.0148 70.5078 96.9092 20.9066 149.987 20.9066Z" fill="white"/>
<path fill-rule="evenodd" clip-rule="evenodd" d="M247.862 128.141L246.345 194.055C245 252.483 201.779 298.667 149.774 298.667C97.7688 298.667 54.5475 252.483 53.2028 194.055L51.6857 128.141C50.2584 66.1229 94.1568 14.5066 149.774 14.5066C205.391 14.5066 249.289 66.1229 247.862 128.141ZM149.561 21.3333C97.2084 21.3333 55.8867 70.547 57.2303 129.678L58.6583 192.525C59.9241 248.232 100.608 292.267 149.561 292.267C198.513 292.267 239.197 248.232 240.463 192.525L241.891 129.678C243.235 70.547 201.913 21.3333 149.561 21.3333Z" fill="#3B434F"/>
<path fill-rule="evenodd" clip-rule="evenodd" d="M239.297 231.365C238.035 237.334 221.45 291.463 224.451 268.032C227.451 244.601 195.631 289.323 195.631 289.323C189.752 295.364 165.939 309.43 165.939 309.43V303.516L148.473 310.613L140.613 303.516L139.739 310.613C137.401 307.148 89.9606 275.129 89.9606 275.129C89.9606 275.129 98.1042 289.622 91.7072 282.226C91.4789 281.962 91.2445 281.679 91.0049 281.379C84.5339 273.274 74.241 252.655 74.241 252.655L72.4944 266.849C57.0599 236.846 57.6481 199.429 57.6481 199.429L55.0525 121.288H62.039L64.6346 176.955L75.9876 195.88C83.3289 206.613 103.06 201.795 103.06 201.795C160.082 241.36 196.505 199.429 196.505 199.429C196.505 199.429 221.207 204.911 228.817 201.795C236.427 198.679 237.526 121.178 237.526 121.178H243.639C243.639 121.178 240.559 225.395 239.297 231.365ZM198.346 237.366C197.092 222.325 187.939 223.6 187.939 223.6C171.667 228.345 158.894 230.981 148.915 232.32V232.222C139.006 230.893 126.322 228.279 110.165 223.573C110.165 223.573 101.076 222.308 99.8311 237.227C99.8311 237.227 96.1813 248.76 108.442 255.147L123.943 263.68C123.943 263.68 134.535 267.007 134.276 254.293C134.276 254.293 133.198 252.492 139.443 250.88H148.915V251.161H158.454C164.743 252.786 163.658 254.666 163.658 254.666C163.397 267.484 174.064 264.13 174.064 264.13L189.674 255.463C202.021 249.023 198.346 237.366 198.346 237.366Z" fill="#3B434F"/>
<path d="M195.852 231.766C188.097 238.5 170.58 244.907 150.199 244.907C129.818 244.907 112.301 238.5 104.546 231.766C104.546 231.766 103.752 229.583 104.916 228.418C106.102 227.233 107.959 227.491 107.959 227.491C115.706 234.229 129.81 239.787 150.199 239.787C170.588 239.787 184.692 234.229 192.439 227.491C192.439 227.491 194.334 226.787 195.255 227.707C197.028 229.48 195.852 231.766 195.852 231.766Z" fill="#3B434F"/>
<path d="M136.119 255.147H163.426V259.413H136.119V255.147Z" fill="#3B434F"/>
<path d="M51.5796 137.753C51.5678 137.754 50.532 136.926 48.576 136.311C47.5984 136.003 46.3834 135.751 44.9985 135.688C44.6527 135.673 44.2967 135.669 43.9325 135.679C43.5683 135.69 43.1957 135.714 42.8171 135.755C42.0599 135.835 41.2778 135.981 40.4908 136.207C37.3396 137.113 34.1251 139.315 32.2372 143.859C31.2895 146.131 30.6643 148.99 30.499 152.566C30.4576 153.46 30.445 154.399 30.4631 155.385C30.4813 156.371 30.5303 157.403 30.612 158.485C30.7754 160.649 31.0705 163.008 31.5102 165.58C31.5006 165.577 31.1001 173.35 33.8788 182.281C36.4911 191.013 42.7639 201.739 54.3457 204.804C53.0137 182.625 52.9723 160.03 51.5796 137.753Z" fill="white"/>
<path d="M52.9004 138.647C52.9004 138.647 32.724 132.396 33.4341 153.138C33.4341 153.138 36.438 183.215 37.7424 185.987C37.7424 185.987 45.6663 203.499 58.7434 204.275C71.5244 205.034 58.7434 204.275 58.7434 204.275L58.9021 209.92C58.9021 209.92 35.9175 206.973 31.4781 180.485L27.9743 156.423C27.9743 156.423 25.2537 124.578 51.6437 132.675C77.353 140.563 51.6437 132.675 51.6437 132.675L52.9004 138.647Z" fill="#3B434F"/>
<path d="M46.2409 180.435C46.2409 180.435 45.1117 181.288 44.1417 181.288C43.1717 181.288 42.0563 180.435 42.0563 180.435L39.9741 159.452C39.9741 159.452 42.847 149.119 55.0379 154.579L55.3261 160.579C55.3261 160.579 44.6305 156.786 44.8516 161.509C45.0645 166.056 46.2409 180.435 46.2409 180.435Z" fill="#3B434F"/>
<path d="M247.586 137.802C247.598 137.803 248.638 136.976 250.603 136.361C251.585 136.054 252.805 135.801 254.196 135.739C254.543 135.723 254.901 135.72 255.266 135.73C255.632 135.74 256.006 135.765 256.387 135.805C257.147 135.886 257.933 136.031 258.723 136.257C261.888 137.162 265.117 139.363 267.013 143.904C267.965 146.175 268.593 149.031 268.759 152.605C268.8 153.498 268.813 154.437 268.795 155.422C268.777 156.407 268.727 157.439 268.645 158.52C268.481 160.682 268.185 163.04 267.743 165.61C267.753 165.607 268.155 173.375 265.364 182.3C262.74 191.026 256.44 201.745 244.808 204.808C246.145 182.644 246.187 160.064 247.586 137.802Z" fill="white"/>
<path d="M246.255 138.696C246.255 138.696 266.52 132.448 265.807 153.177C265.807 153.177 262.79 183.233 261.479 186.003C261.479 186.003 253.521 203.504 240.386 204.279C227.549 205.037 240.386 204.279 240.386 204.279L240.227 209.92C240.227 209.92 263.312 206.975 267.771 180.505L271.29 156.459C271.29 156.459 274.023 124.636 247.517 132.727C221.695 140.61 247.517 132.727 247.517 132.727L246.255 138.696Z" fill="#3B434F"/>
<path d="M252.944 180.455C252.944 180.455 254.078 181.307 255.052 181.307C256.026 181.307 257.147 180.455 257.147 180.455L259.238 159.486C259.238 159.486 256.353 149.16 244.108 154.617L243.819 160.613C243.819 160.613 254.561 156.822 254.339 161.542C254.125 166.086 252.944 180.455 252.944 180.455Z" fill="#3B434F"/>
<path fill-rule="evenodd" clip-rule="evenodd" d="M157.666 178.773C158.163 178.773 158.661 178.773 159.159 178.773C162.247 182.966 163.503 189.41 165.132 194.987C165.637 196.715 165.147 199.738 164.706 200.96C163.088 205.435 158.008 205.355 153.826 207.36C152.703 207.898 151.867 208.828 150.412 209.067C149.464 208.231 148.319 208.067 147.852 206.72C146.7 205.133 148.185 204.142 149.346 203.52C151.452 202.39 157.954 201.277 158.732 199.253C159.696 198.158 159.055 194.863 158.732 193.707C157.906 190.744 157.509 188.272 156.386 185.6C155.64 183.825 154.33 181.954 155.106 179.84C155.749 179.564 157.139 179.25 157.666 178.773Z" fill="#3B434F"/>
<path d="M98.5724 145.92H104.546C107.845 145.92 110.519 148.594 110.519 151.893C110.519 155.192 107.845 157.867 104.546 157.867H98.5724C95.2735 157.867 92.5991 155.192 92.5991 151.893C92.5991 148.594 95.2735 145.92 98.5724 145.92Z" fill="#3B434F"/>
<path d="M195.852 145.92H201.826C205.125 145.92 207.799 148.594 207.799 151.893C207.799 155.192 205.125 157.867 201.826 157.867H195.852C192.553 157.867 189.879 155.192 189.879 151.893C189.879 148.594 192.553 145.92 195.852 145.92Z" fill="#3B434F"/>
<path d="M201.399 174.08C207.29 174.08 212.066 178.856 212.066 184.747C212.066 190.638 207.29 195.413 201.399 195.413C195.508 195.413 190.732 190.638 190.732 184.747C190.732 178.856 195.508 174.08 201.399 174.08Z" fill="#EDF1F1"/>
<path d="M98.1459 174.08C104.037 174.08 108.813 178.856 108.813 184.747C108.813 190.638 104.037 195.413 98.1459 195.413C92.2549 195.413 87.4792 190.638 87.4792 184.747C87.4792 178.856 92.2549 174.08 98.1459 174.08Z" fill="#EDF1F1"/>
<path fill-rule="evenodd" clip-rule="evenodd" d="M242.712 133.319C242.135 138.249 241.628 144.282 240.562 149.676C237.375 165.804 223.516 180.747 199.852 182.45C176.188 184.152 156.048 172.239 154.868 155.841C154.668 153.061 154.133 149.941 153.722 146.908C150.373 145.051 146.921 145.047 143.367 146.895C142.952 149.997 142.397 153.199 142.192 156.046C141.008 172.498 120.804 184.451 97.0658 182.743C73.3274 181.034 59.425 166.042 56.2274 149.86C55.158 144.448 54.6494 138.396 54.0703 133.449L50.582 133.198L51.072 126.389L51.9232 126.451L73.5117 128.004L91.7348 129.316L109.992 130.629L138.428 132.676C140.39 132.924 141.694 133.765 142.533 135.02C146.617 136.808 150.584 136.815 154.432 135.042C155.264 133.705 156.586 132.805 158.62 132.548L186.967 130.509L205.166 129.199L223.332 127.892L244.853 126.344L245.701 126.283L246.19 133.069L242.712 133.319ZM130.792 140.677L75.0609 136.667C67.7716 136.038 65.1879 144.229 64.7387 150.472C63.7915 163.634 78.4568 175.415 97.4946 176.785C116.532 178.155 132.733 168.595 133.68 155.434C134.13 149.191 136.169 145.335 130.792 140.677ZM232.078 150.286C231.63 144.064 229.054 135.9 221.788 136.526L166.232 140.523C160.872 145.166 162.905 149.009 163.353 155.231C164.297 168.349 180.447 177.877 199.425 176.512C218.403 175.146 233.022 163.405 232.078 150.286Z" fill="#3B444F"/>
<path d="M56.7895 165.547C56.7895 165.547 68.6592 113.551 78.988 99.328C89.3168 85.1053 98.2548 81.7034 102.894 81.2684C107.533 80.8333 144.066 91.6327 194.249 79.2617C194.249 79.2617 214.036 78.472 222.424 98.3247C222.424 98.3247 240.108 129.962 242.915 161.533H246.33C246.33 161.533 253.567 106.191 250.599 73.2419C247.631 40.2932 204.494 24.0795 204.494 24.0795L213.886 17.0563C213.886 17.0563 191.959 10.2781 183.15 14.0464L189.98 0C189.98 0 145.73 0.0881958 120.823 20.0663L121.677 10.0331C121.677 10.0331 33.8874 23.4956 52.5206 163.54L56.7895 165.547Z" fill="#3B434F"/>
</svg>
