<svg width="274" height="160" viewBox="0 0 274 160" fill="none" xmlns="http://www.w3.org/2000/svg">
<path d="M4.25176 71.5716C4.28037 71.3754 4.16077 71.2147 3.986 71.2147C3.78485 71.2147 3.71542 71.3964 3.79684 71.7096C3.93345 72.2349 4.16523 72.1647 4.25176 71.5716ZM8.32665 82.8572C8.50973 82.5592 7.84611 82.2685 7.48922 82.4904C7.34806 82.5782 7.29498 82.7515 7.37118 82.8757C7.55523 83.1753 8.13808 83.164 8.32658 82.8573L8.32665 82.8572ZM258.952 89.6514C259.237 89.3846 259.583 89.1663 259.721 89.1663C259.859 89.1663 259.973 89.0647 259.973 88.941C259.973 88.8171 260.108 88.5714 260.274 88.3951C261.057 87.5628 261.915 86.2301 261.794 86.0341C261.566 85.6629 260.482 86.3374 260.196 87.0285C260.048 87.3871 259.503 88.1285 258.985 88.6761C258.081 89.6324 257.823 90.1366 258.239 90.1366C258.346 90.1366 258.668 89.9183 258.952 89.6514ZM249.403 91.6758C249.879 91.2425 249.98 90.8644 249.62 90.8644C249.33 90.8644 248.638 91.5603 248.638 91.852C248.638 92.1881 248.909 92.1257 249.403 91.6758ZM15.6652 92.28C15.5025 91.9684 15.2224 91.6261 15.0428 91.5194C14.8632 91.4127 14.7163 91.1671 14.7163 90.9736C14.7163 90.7801 14.556 90.6218 14.3601 90.6218C14.1642 90.6218 13.8274 90.3508 13.6117 90.0196C13.3959 89.6884 12.848 89.1864 12.394 88.9042C11.9399 88.6219 11.4034 88.2249 11.2016 88.0219C10.7159 87.5334 10.5067 87.7785 10.8533 88.4301C11.2913 89.2533 12.5872 90.3959 13.5708 90.826C14.0682 91.0435 14.4751 91.3646 14.4751 91.5397C14.4751 91.8516 15.7243 93.0836 15.8813 92.9265C15.9251 92.8825 15.828 92.5917 15.6652 92.28ZM247.958 93.1452C248.502 92.95 248.728 92.3199 248.253 92.3199C247.653 92.3199 246.95 92.7931 246.95 93.1977C246.95 93.4118 247.08 93.5125 247.251 93.4319C247.417 93.3542 247.735 93.2251 247.958 93.1452ZM246.709 93.7754C246.709 93.642 246.498 93.5328 246.241 93.5328C245.983 93.5328 245.706 93.642 245.624 93.7754C245.538 93.913 245.742 94.018 246.092 94.018C246.431 94.018 246.709 93.9088 246.709 93.7754ZM37.1438 94.7458C37.1438 94.6124 37.0624 94.5017 36.9629 94.4999C36.8635 94.4974 36.5108 94.4298 36.1792 94.3483C35.5911 94.2036 35.5881 94.2094 36.0586 94.5864C36.6076 95.0263 37.1438 95.1051 37.1438 94.7458ZM237.786 94.9883C238.118 94.7274 238.558 94.5115 238.764 94.5085C238.97 94.5061 239.652 94.1757 240.279 93.7754C240.907 93.3752 241.525 93.0476 241.653 93.0476C241.781 93.0476 241.886 92.9624 241.886 92.8582C241.886 92.754 242.184 92.538 242.549 92.3781C243.31 92.0445 244.842 91.1267 245.021 90.8976C245.086 90.8126 245.856 90.3798 246.73 89.9358C247.603 89.4918 248.634 88.8521 249.021 88.5142C249.407 88.1763 250.212 87.503 250.809 87.0179C251.405 86.5328 252.069 85.9444 252.284 85.7104C252.498 85.4763 252.75 85.2848 252.844 85.2848C252.937 85.2848 253.185 85.1121 253.395 84.901C253.674 84.6204 254.01 84.5606 254.644 84.6786C255.121 84.7674 255.547 84.9402 255.591 85.0625C255.694 85.3457 256.596 85.3557 256.596 85.0737C256.596 84.9576 257.042 84.439 257.587 83.9214C258.131 83.4038 258.918 82.6139 259.335 82.1662C259.752 81.7184 260.392 81.0371 260.756 80.6522C261.121 80.2673 261.419 79.8589 261.419 79.7446C261.419 79.6304 261.636 79.2852 261.902 78.9776C262.431 78.3642 262.518 78.0072 262.14 78.0072C261.901 78.0072 260.935 78.4942 260.696 78.7354C260.63 78.8023 260.293 79.0029 259.949 79.1812C259.604 79.3594 259.044 79.7413 258.703 80.0298C257.258 81.2541 257.067 81.4034 256.949 81.4034C256.88 81.4034 256.347 81.8837 255.764 82.4708C255.18 83.0578 254.369 83.7364 253.961 83.9786C253.554 84.2209 253.22 84.5047 253.22 84.6094C253.22 84.714 253.078 84.7997 252.904 84.7997C252.431 84.7997 250.571 85.7481 250.006 86.2769C249.734 86.5316 249.207 86.8759 248.834 87.042C248.461 87.2081 248.156 87.4265 248.156 87.5273C248.156 87.6281 247.993 87.7107 247.794 87.7107C247.595 87.7107 247.432 87.8199 247.432 87.9533C247.432 88.0867 247.27 88.1959 247.071 88.1959C246.872 88.1959 246.709 88.305 246.709 88.4385C246.709 88.5719 246.545 88.681 246.344 88.681C246.143 88.681 245.736 88.8073 245.44 88.9615C244.281 89.5638 244.047 89.6514 243.591 89.6514C243.332 89.6514 243.053 89.7605 242.971 89.894C242.888 90.0274 242.563 90.1366 242.248 90.1366C241.932 90.1366 241.606 90.2458 241.524 90.3792C241.442 90.5126 241.164 90.6218 240.907 90.6218C240.649 90.6218 240.439 90.7043 240.439 90.8051C240.439 90.9059 240.092 91.1431 239.667 91.332C238.918 91.6655 238.911 91.6823 239.426 91.9134C240.334 92.3209 240.061 92.9395 238.671 93.6235C237.963 93.9716 237.041 94.3256 236.621 94.4101C236.201 94.4946 235.857 94.6593 235.857 94.7761C235.857 94.8928 235.64 94.9883 235.375 94.9883C235.109 94.9883 234.892 95.0975 234.892 95.2309C234.892 95.683 237.143 95.4943 237.786 94.9883V94.9883ZM248.879 97.3536C248.879 97.0695 248.528 97.1402 248.427 97.4446C248.378 97.5947 248.458 97.6766 248.608 97.6266C248.757 97.5767 248.879 97.4537 248.879 97.3537V97.3536ZM226.587 98.6826C226.507 98.6013 226.253 98.732 226.024 98.9732C225.626 99.3923 225.632 99.3988 226.171 99.121C226.481 98.9612 226.668 98.7639 226.587 98.6826ZM223.92 100.083C224.108 99.7757 223.789 99.7757 223.317 100.083C223.005 100.285 223.011 100.318 223.363 100.322C223.587 100.324 223.838 100.216 223.92 100.083ZM32.8482 100.16C32.6741 100.089 32.4661 100.098 32.386 100.179C32.3058 100.259 32.4482 100.317 32.7025 100.306C32.9834 100.295 33.0406 100.237 32.8482 100.16V100.16ZM35.094 101.053C35.0119 100.92 34.7279 100.81 34.4626 100.81C34.1974 100.81 34.0474 100.92 34.1294 101.053C34.2114 101.186 34.4954 101.296 34.7607 101.296C35.026 101.296 35.176 101.187 35.094 101.053ZM220.782 101.534C220.699 101.399 220.53 101.35 220.406 101.427C220.072 101.635 220.134 101.781 220.558 101.781C220.764 101.781 220.865 101.67 220.782 101.534V101.534ZM216.203 103.479C216.285 103.345 216.557 103.236 216.808 103.236C217.393 103.236 218.494 102.735 218.494 102.47C218.494 102.358 218.361 102.266 218.199 102.266C217.769 102.266 215.609 103.326 215.604 103.54C215.598 103.805 216.029 103.762 216.203 103.479ZM43.6661 103.787C43.4732 103.71 43.1 103.446 42.8368 103.2C42.5736 102.953 42.0596 102.751 41.6946 102.751C41.3295 102.751 40.9637 102.642 40.8817 102.509C40.7997 102.375 40.399 102.266 39.9912 102.266C39.1073 102.266 37.325 101.771 37.1165 101.468C37.0351 101.35 36.7097 101.293 36.3931 101.342C35.8364 101.428 35.8428 101.444 36.5892 101.848C37.0137 102.078 37.5835 102.266 37.8553 102.266C38.1272 102.266 38.3496 102.363 38.3496 102.482C38.3496 102.601 38.7023 102.754 39.1333 102.823C39.5644 102.892 40.3512 103.075 40.8817 103.229C42.8404 103.8 43.3014 103.915 43.6551 103.92C43.9635 103.925 43.965 103.905 43.6661 103.787ZM61.7418 104.484C61.7418 104.281 57.9466 102.26 57.5718 102.264C57.4669 102.264 57.1478 102.048 56.8631 101.781C56.5783 101.514 56.1598 101.296 55.933 101.296C55.7062 101.296 54.9262 100.981 54.1995 100.596C52.6554 99.7794 51.1572 99.2475 50.9598 99.4461C50.7074 99.7 51.4215 100.325 51.9636 100.325C52.6157 100.325 54.2665 101.161 55.6886 102.21C56.6282 102.904 57.8783 103.568 59.8125 104.4C60.5485 104.716 61.7418 104.769 61.7418 104.484V104.484ZM213.543 104.662C214.015 104.211 214.013 104.207 213.402 104.207C213.063 104.207 212.705 104.289 212.605 104.389C212.506 104.489 211.972 104.754 211.42 104.979L210.415 105.388L211.741 105.253C212.561 105.17 213.249 104.944 213.543 104.662ZM232.782 105.755C233.014 105.673 233.204 105.509 233.204 105.391C233.204 105.018 232.72 105.159 232.169 105.693C231.876 105.976 231.799 106.14 231.998 106.057C232.197 105.973 232.55 105.838 232.782 105.755ZM55.4717 107.36C55.4717 107.227 55.3089 107.118 55.11 107.118C54.911 107.118 54.7482 107.028 54.7482 106.918C54.7482 106.809 54.1785 106.474 53.4822 106.175C52.7858 105.876 52.0276 105.529 51.7973 105.404C51.567 105.279 51.2143 105.177 51.0136 105.177C50.8128 105.177 50.6486 105.068 50.6486 104.934C50.6486 104.801 50.4641 104.692 50.2386 104.692C49.5939 104.692 50.0806 105.051 52.4845 106.347C53.24 106.755 55.0976 107.578 55.2908 107.591C55.3903 107.597 55.4717 107.494 55.4717 107.36ZM204.991 107.906C204.993 107.634 206.211 107.118 206.849 107.118C207.156 107.118 207.595 107.018 207.826 106.896C208.056 106.773 208.647 106.497 209.138 106.283C209.993 105.909 210.66 105.322 210.005 105.52C209.833 105.572 209.149 105.754 208.486 105.925C207.822 106.095 206.924 106.434 206.489 106.676C206.054 106.919 205.565 107.12 205.404 107.123C205.242 107.126 204.838 107.342 204.507 107.603C203.904 108.077 203.904 108.077 204.446 108.083C204.745 108.085 204.99 108.006 204.991 107.906H204.991ZM56.6775 107.845C56.6775 107.712 56.454 107.603 56.1809 107.603C55.9078 107.603 55.7515 107.712 55.8335 107.845C55.9155 107.979 56.1389 108.088 56.33 108.088C56.5211 108.088 56.6775 107.979 56.6775 107.845ZM220.51 108.306C221.399 108.025 222.258 107.664 222.42 107.503C222.582 107.343 223.229 107.067 223.859 106.89C224.489 106.714 225.005 106.498 225.005 106.411C225.005 106.324 225.52 106.109 226.15 105.933C226.78 105.757 227.756 105.406 228.318 105.153C228.88 104.899 229.45 104.692 229.584 104.692C229.718 104.692 229.828 104.583 229.828 104.449C229.828 104.316 230.03 104.207 230.276 104.207C230.826 104.207 233.686 102.748 233.686 102.468C233.686 102.357 233.846 102.266 234.041 102.266C234.417 102.266 235.798 101.539 236.859 100.782C237.211 100.531 237.591 100.323 237.703 100.32C237.816 100.317 238.178 100.101 238.51 99.8401C238.841 99.5792 239.313 99.3632 239.557 99.3603C239.802 99.3578 240.054 99.1555 240.117 98.9118C240.18 98.6681 240.55 98.2799 240.938 98.049C241.327 97.8182 241.645 97.5315 241.645 97.4119C241.645 97.2922 241.997 97.0189 242.428 96.8044C242.859 96.5899 243.465 96.0936 243.773 95.7014C244.293 95.04 244.301 94.9883 243.879 94.9883C243.629 94.9883 243.209 95.1793 242.947 95.4128C242.685 95.6463 241.932 96.1073 241.274 96.4373C240.616 96.7673 239.913 97.204 239.713 97.4077C239.24 97.8885 238.357 98.3841 237.971 98.3861C237.803 98.3861 237.496 98.6871 237.287 99.0532C237.079 99.4192 236.645 99.8414 236.323 99.9913C236 100.141 235.248 100.481 234.651 100.745C234.055 101.01 232.631 101.679 231.489 102.232C230.346 102.784 229.261 103.239 229.077 103.242C228.893 103.244 228.472 103.461 228.14 103.721C227.809 103.982 227.347 104.198 227.115 104.201C226.883 104.204 226.693 104.316 226.693 104.449C226.693 104.583 226.503 104.692 226.271 104.691C225.878 104.691 223.827 105.618 223.558 105.918C223.363 106.136 221.176 107.118 220.885 107.118C220.738 107.118 220.329 107.325 219.975 107.578C219.621 107.832 219.07 108.078 218.751 108.124C218.047 108.227 217.777 108.816 218.433 108.816C218.687 108.816 219.622 108.586 220.511 108.306H220.51ZM57.8833 108.844C57.8833 108.726 57.6219 108.58 57.3024 108.518C56.8863 108.438 56.7568 108.499 56.8459 108.732C56.9826 109.091 57.8833 109.188 57.8833 108.844V108.844ZM62.9476 109.536C62.9476 109.246 62.2674 108.934 62.069 109.134C61.8578 109.346 62.216 109.786 62.6001 109.786C62.7912 109.786 62.9476 109.674 62.9476 109.536ZM201.442 111.666C202.256 111.286 202.278 110.999 201.492 110.999C201.16 110.999 200.889 111.087 200.889 111.195C200.889 111.303 200.591 111.509 200.226 111.654L199.563 111.918L200.178 111.944C200.516 111.957 201.085 111.833 201.442 111.666V111.666ZM62.4653 113.241C62.4653 113.139 62.2482 112.92 61.9829 112.753C61.7177 112.587 61.5007 112.231 61.5007 111.962C61.5007 111.676 61.25 111.359 60.8968 111.197C60.2032 110.879 60.1748 110.897 59.9674 111.768C59.8324 112.334 59.9259 112.474 60.7172 112.888C61.6726 113.389 62.4653 113.548 62.4653 113.241ZM218.779 113.151C219.002 113.035 219.362 112.94 219.578 112.94C220.09 112.94 223.076 111.491 223.076 111.243C223.076 111.138 223.374 110.977 223.739 110.885C224.736 110.635 227.128 109.57 227.57 109.18C228.267 108.564 228.8 108.183 229.409 107.865C229.772 107.676 230.069 107.43 230.069 107.319C230.069 106.948 229.128 107.112 228.207 107.644C226.678 108.526 225.529 109.058 225.151 109.058C224.954 109.058 224.725 109.168 224.643 109.301C224.561 109.434 224.283 109.544 224.026 109.544C223.769 109.544 223.558 109.633 223.558 109.743C223.558 109.929 221.435 110.999 221.067 110.999C220.874 110.999 219.04 111.801 217.687 112.477C217.177 112.731 216.526 112.943 216.24 112.948C215.954 112.951 215.503 113.123 215.238 113.328C214.796 113.67 214.907 113.687 216.564 113.531C217.559 113.438 218.556 113.267 218.779 113.151ZM173.975 113.709C174.088 113.524 176.144 113.103 178.22 112.839C178.685 112.781 179.553 112.609 180.15 112.459C182.677 111.822 184.533 111.499 188.349 111.033C189.211 110.927 190.405 110.66 191.002 110.438C191.599 110.217 192.328 110.034 192.622 110.032C192.917 110.03 193.544 109.81 194.016 109.544C194.489 109.277 195.082 109.058 195.336 109.058C195.589 109.058 195.863 108.949 195.945 108.816C196.027 108.682 196.288 108.573 196.525 108.573C196.762 108.573 197.147 108.361 197.38 108.102C197.614 107.842 197.983 107.582 198.201 107.524C198.42 107.466 198.114 107.461 197.523 107.513C196.931 107.565 196.34 107.716 196.208 107.848C196.077 107.98 195.701 108.088 195.372 108.088C194.755 108.088 193.369 108.471 192.633 108.846C192.402 108.963 192.002 109.058 191.743 109.058C191.483 109.058 191.204 109.168 191.122 109.301C191.04 109.434 190.715 109.544 190.399 109.544C190.083 109.544 189.757 109.653 189.675 109.786C189.593 109.92 189.105 110.029 188.59 110.029C188.075 110.029 187.587 110.138 187.505 110.271C187.423 110.405 186.968 110.514 186.494 110.514C186.02 110.514 185.239 110.616 184.76 110.741C184.28 110.865 183.074 111.09 182.079 111.241C179.015 111.705 177.488 112.03 177.355 112.247C177.285 112.361 176.838 112.455 176.361 112.455C175.631 112.455 172.915 113.529 172.915 113.817C172.915 114.002 173.854 113.905 173.975 113.709V113.709ZM67.9559 114.588C66.4218 112.719 66.0818 112.375 65.9246 112.533C65.7472 112.711 66.9788 114.637 67.9843 115.754C68.2116 116.006 68.3972 116.045 68.5646 115.877C68.732 115.709 68.5373 115.296 67.9559 114.588V114.588ZM158.084 117.064C158.166 116.93 158.07 116.821 157.871 116.821C157.672 116.821 157.442 116.93 157.36 117.064C157.278 117.197 157.374 117.306 157.573 117.306C157.772 117.306 158.002 117.197 158.084 117.064ZM74.5231 117.064C74.5231 116.93 74.4082 116.821 74.2677 116.821C74.1272 116.821 74.0794 116.93 74.1614 117.064C74.2434 117.197 74.3583 117.306 74.4168 117.306C74.4752 117.306 74.523 117.197 74.523 117.064H74.5231ZM65.7209 117.064C65.6388 116.93 65.4633 116.821 65.3307 116.821C65.1981 116.821 65.1566 116.93 65.2386 117.064C65.3206 117.197 65.4961 117.306 65.6288 117.306C65.7614 117.306 65.8029 117.197 65.7209 117.064ZM207.292 118.076C207.418 117.966 208.009 117.734 208.606 117.561C209.203 117.387 210.017 117.101 210.415 116.924C211.087 116.625 211.036 116.612 209.691 116.748C208.896 116.829 208.208 116.987 208.164 117.1C208.12 117.214 207.881 117.306 207.633 117.306C207.053 117.306 205.953 117.808 205.953 118.073C205.953 118.336 206.992 118.338 207.292 118.077V118.076ZM155.311 118.034C155.311 117.901 155.521 117.792 155.779 117.792C156.036 117.792 156.325 117.664 156.421 117.508C156.543 117.309 156.457 117.279 156.134 117.407C155.88 117.508 155.317 117.65 154.883 117.724C153.845 117.899 153.633 118.277 154.573 118.277C154.979 118.277 155.311 118.168 155.311 118.034V118.034ZM75.0054 118.277C75.0054 118.002 74.8446 117.792 74.6352 117.792C74.3397 117.792 74.3171 117.89 74.523 118.277C74.665 118.544 74.8316 118.762 74.8933 118.762C74.9549 118.762 75.0054 118.544 75.0054 118.277ZM149.568 119.567C149.394 119.497 149.186 119.505 149.106 119.586C149.026 119.667 149.168 119.724 149.422 119.713C149.703 119.702 149.76 119.644 149.568 119.567V119.567ZM200.708 120.542C200.542 120.475 200.271 120.475 200.105 120.542C199.94 120.609 200.075 120.664 200.407 120.664C200.738 120.664 200.874 120.609 200.708 120.542ZM153.502 120.945C153.584 120.812 153.909 120.703 154.225 120.703C154.541 120.703 154.867 120.593 154.949 120.46C155.031 120.327 155.581 120.217 156.172 120.217C156.763 120.217 157.435 120.121 157.665 120.003C158.94 119.351 159.644 119.16 161.942 118.845C162.473 118.772 163.01 118.614 163.136 118.495C163.262 118.375 163.671 118.277 164.044 118.277C164.417 118.277 164.911 118.18 165.141 118.062C165.623 117.814 168.528 117.184 171.379 116.71C172.458 116.53 173.563 116.264 173.835 116.117C174.108 115.971 174.533 115.851 174.78 115.851C175.332 115.851 176.528 115.312 176.53 115.062C176.533 114.805 175.383 114.835 175.222 115.096C175.041 115.391 173.66 115.627 171.287 115.768C170.193 115.833 169.298 115.976 169.298 116.085C169.298 116.27 168.765 116.398 166.645 116.722C166.181 116.793 165.584 116.947 165.319 117.064C164.863 117.265 164.538 117.328 162.184 117.678C161.653 117.757 161.002 117.912 160.737 118.022C160.471 118.132 159.82 118.334 159.29 118.472C157.111 119.037 156.142 119.342 155.926 119.532C155.799 119.642 155.449 119.732 155.148 119.732C154.846 119.732 154.243 119.95 153.809 120.217C153.375 120.483 152.782 120.701 152.491 120.702C152.201 120.702 151.896 120.812 151.814 120.945C151.725 121.089 152.007 121.188 152.509 121.188C152.973 121.188 153.42 121.079 153.502 120.945V120.945ZM197.875 121.295L198.839 120.924L197.572 121.045C196.875 121.111 196.115 121.276 195.884 121.412C195.186 121.821 196.745 121.729 197.875 121.295ZM151.331 121.43C151.416 121.293 151.218 121.188 150.878 121.188C150.546 121.188 150.208 121.297 150.126 121.43C150.041 121.567 150.239 121.673 150.58 121.673C150.911 121.673 151.249 121.564 151.331 121.43ZM142.292 121.857C142.82 121.691 143.253 121.472 143.253 121.371C143.253 121.27 143.559 121.188 143.933 121.188C144.307 121.188 145.04 120.966 145.561 120.695L146.508 120.202L145.544 120.318C143.785 120.527 142.901 120.745 141.911 121.211C141.371 121.465 140.693 121.673 140.403 121.673C140.114 121.673 139.877 121.782 139.877 121.916C139.877 122.25 141.135 122.22 142.292 121.856V121.857ZM190.64 123.228C191.569 123.016 192.628 122.785 192.994 122.715C193.361 122.645 193.72 122.491 193.792 122.373C193.865 122.255 194.183 122.158 194.498 122.158C194.814 122.158 195.148 122.036 195.239 121.887C195.428 121.58 194.251 121.693 192.449 122.153C191.852 122.306 191.038 122.486 190.64 122.554C189.946 122.671 189.693 122.757 188.349 123.326L187.746 123.581L188.349 123.597C188.681 123.606 189.712 123.44 190.64 123.228ZM137.139 122.72C136.947 122.527 135.551 123.201 135.687 123.422C135.752 123.526 136.134 123.441 136.536 123.231C136.939 123.022 137.21 122.792 137.139 122.72ZM77.0022 123.137C77.1252 122.665 76.5725 121.957 76.297 122.234C76.0967 122.435 76.4152 123.614 76.67 123.614C76.7847 123.614 76.9341 123.399 77.0022 123.137ZM182.32 125.161C182.917 125.076 183.514 124.926 183.646 124.828C183.779 124.73 184.702 124.446 185.696 124.196C187.114 123.84 187.35 123.723 186.789 123.656C186.07 123.571 184.328 124.009 183.9 124.384C183.774 124.494 183.265 124.584 182.768 124.584C182.272 124.584 181.799 124.693 181.717 124.827C181.635 124.96 181.276 125.077 180.919 125.086C180.562 125.096 180.053 125.205 179.788 125.329C179.294 125.561 179.737 125.531 182.32 125.161ZM178.823 125.797C179.187 125.64 179.028 125.584 178.174 125.571C177.552 125.562 176.976 125.664 176.894 125.797C176.712 126.093 178.138 126.093 178.823 125.797ZM75.0054 125.534C75.0054 124.943 74.4418 125.027 74.3245 125.635C74.2784 125.875 74.4014 126.04 74.626 126.04C74.8497 126.04 75.0054 125.832 75.0054 125.534V125.534ZM154.466 126.282C154.659 125.97 153.38 125.97 152.899 126.282C152.629 126.458 152.764 126.519 153.427 126.521C153.917 126.524 154.385 126.416 154.466 126.282ZM152.296 126.525C152.378 126.392 152.228 126.282 151.963 126.282C151.698 126.282 151.413 126.392 151.331 126.525C151.249 126.658 151.4 126.768 151.665 126.768C151.93 126.768 152.214 126.658 152.296 126.525ZM127.457 127.495C127.987 127.34 128.91 127.125 129.507 127.017C130.104 126.91 131.204 126.651 131.952 126.441C132.7 126.231 134.396 125.838 135.72 125.566C137.043 125.295 138.43 124.915 138.8 124.721C139.171 124.528 139.768 124.429 140.128 124.502C140.488 124.574 140.856 124.513 140.947 124.366C141.037 124.219 141.301 124.099 141.533 124.099C141.766 124.099 142.189 123.881 142.474 123.614C142.758 123.347 143.186 123.126 143.424 123.123C143.661 123.121 144.127 122.894 144.459 122.62L145.061 122.121L144.338 122.272C143.94 122.355 143.18 122.534 142.65 122.669C142.119 122.805 141.36 122.968 140.962 123.032C139.82 123.216 138.43 123.675 138.43 123.868C138.43 124.032 137.983 124.153 136.139 124.493C135.741 124.566 134.955 124.835 134.393 125.09C133.831 125.346 133.05 125.555 132.659 125.555C132.267 125.555 131.88 125.664 131.798 125.797C131.716 125.931 131.437 126.04 131.177 126.04C130.918 126.04 130.518 126.136 130.287 126.253C129.486 126.66 128.141 127.01 127.38 127.01C126.958 127.01 126.613 127.119 126.613 127.253C126.613 127.386 126.348 127.495 126.024 127.495C125.7 127.495 125.36 127.619 125.267 127.771C125.08 128.073 125.787 127.985 127.457 127.495ZM78.003 127.495C78.1783 126.487 77.8756 125.904 77.2938 126.128C76.9484 126.262 76.9087 126.476 77.0518 127.437C77.1458 128.069 77.2815 128.683 77.3533 128.8C77.5341 129.095 77.8269 128.507 78.003 127.495ZM141.203 131.619C141.377 131.336 140.513 131.336 139.635 131.619C139.12 131.785 139.18 131.817 140.043 131.837C140.599 131.851 141.121 131.753 141.203 131.619ZM74.5024 137.031C75.0176 135.38 74.8643 134.406 74.2662 135.53C74.1003 135.842 73.819 136.243 73.6409 136.423C73.3071 136.758 73.1932 138.206 73.4781 138.492C73.8326 138.849 74.0172 138.586 74.5024 137.031ZM75.126 147.63C75.7043 147.23 76.2875 146.902 76.4218 146.902C76.5562 146.902 76.808 146.711 76.9813 146.478C77.1546 146.244 77.612 145.889 77.9978 145.689C78.3835 145.489 79.0191 145.025 79.41 144.658C79.8009 144.291 80.272 143.991 80.4569 143.991C80.6419 143.991 80.7932 143.909 80.7932 143.808C80.7932 143.707 81.1459 143.471 81.5769 143.284C82.008 143.097 82.6487 142.743 83.0008 142.497C83.3529 142.252 83.8103 142.05 84.0173 142.05C84.2242 142.05 84.5097 141.832 84.6517 141.565C84.7936 141.298 85.1046 141.08 85.3427 141.08C85.8302 141.08 87.8351 140.107 88.4613 139.567C88.6871 139.372 89.0618 139.145 89.2939 139.063C89.526 138.98 89.716 138.726 89.716 138.499C89.716 137.939 90.416 137.199 90.9449 137.199C91.1817 137.199 91.4427 137.089 91.5246 136.956C91.6067 136.823 91.9321 136.713 92.2481 136.713C92.564 136.713 92.8783 136.623 92.9463 136.512C93.0145 136.401 93.672 136.175 94.4075 136.009C95.1431 135.844 95.7448 135.607 95.7448 135.483C95.7448 135.359 96.1804 135.258 96.7128 135.258C97.2451 135.258 97.8691 135.162 98.0995 135.044C98.8393 134.665 99.6973 134.35 100.809 134.049C101.406 133.887 102.083 133.657 102.313 133.536C102.543 133.416 102.886 133.317 103.074 133.317C103.262 133.317 103.833 133.111 104.343 132.858C111.062 129.531 114.423 127.98 114.914 127.98C115.115 127.98 115.279 127.871 115.279 127.738C115.279 127.604 115.489 127.495 115.747 127.495C116.004 127.495 116.282 127.386 116.364 127.253C116.446 127.119 116.725 127.01 116.984 127.01C117.243 127.01 117.644 126.914 117.874 126.796C118.105 126.678 118.564 126.473 118.896 126.341C119.228 126.208 119.802 125.977 120.173 125.827C120.544 125.677 121.065 125.554 121.33 125.554C121.596 125.554 122.262 125.336 122.811 125.069C123.36 124.802 124.061 124.584 124.367 124.584C124.674 124.584 124.925 124.502 124.925 124.401C124.925 124.186 125.838 123.768 127.276 123.326C127.84 123.152 128.301 122.928 128.301 122.827C128.301 122.726 128.572 122.643 128.904 122.643C129.236 122.643 129.507 122.561 129.507 122.46C129.507 122.28 130.009 122.039 131.677 121.422C132.141 121.251 132.624 121.018 132.75 120.906C132.876 120.794 133.262 120.703 133.606 120.703C133.951 120.703 134.337 120.611 134.463 120.499C134.589 120.386 135.506 120.051 136.5 119.754C137.495 119.457 138.58 119.125 138.912 119.016C139.244 118.907 140.003 118.686 140.6 118.524C141.197 118.362 141.874 118.131 142.104 118.011C142.334 117.89 142.79 117.792 143.118 117.792C143.445 117.792 143.962 117.695 144.266 117.576C144.571 117.458 145.417 117.235 146.147 117.081C148.026 116.684 149.335 116.324 149.821 116.07C150.051 115.949 150.615 115.851 151.073 115.851C151.531 115.851 151.973 115.742 152.055 115.608C152.137 115.475 152.462 115.366 152.778 115.366C153.094 115.366 153.42 115.257 153.502 115.123C153.584 114.99 153.894 114.881 154.191 114.881C154.489 114.881 154.835 114.79 154.961 114.68C155.167 114.5 155.867 114.277 158.084 113.684C160.086 113.149 160.846 112.96 162.063 112.697C163.322 112.425 165.721 111.687 166.766 111.251C167.031 111.14 167.899 110.919 168.695 110.759C169.491 110.599 170.391 110.369 170.696 110.248C171 110.128 171.564 110.029 171.947 110.029C172.331 110.029 172.712 109.92 172.794 109.786C172.876 109.653 173.473 109.544 174.121 109.544C174.768 109.544 175.365 109.434 175.447 109.301C175.529 109.168 175.888 109.058 176.245 109.058C176.602 109.058 177.654 108.883 178.582 108.669C179.511 108.454 181.03 108.185 181.958 108.07C182.887 107.955 184.189 107.741 184.852 107.593C185.515 107.446 186.546 107.268 187.143 107.198C187.74 107.128 188.331 106.972 188.457 106.852C188.583 106.731 188.883 106.633 189.124 106.633C189.365 106.633 189.75 106.537 189.98 106.42C190.21 106.303 190.833 106.077 191.363 105.919C191.894 105.76 192.545 105.543 192.81 105.437C194.031 104.949 195.084 104.692 195.862 104.692C196.328 104.692 196.783 104.617 196.874 104.526C197.139 104.259 198.791 103.729 199.368 103.725C199.658 103.723 199.952 103.631 200.02 103.52C200.088 103.41 200.772 103.174 201.541 102.996C202.31 102.818 203.042 102.581 203.168 102.47C203.294 102.357 203.598 102.266 203.843 102.266C204.088 102.266 204.738 102.048 205.287 101.781C205.836 101.514 206.407 101.296 206.556 101.296C206.705 101.296 207.277 101.077 207.826 100.81C208.375 100.544 208.939 100.325 209.08 100.325C209.221 100.325 209.525 100.218 209.755 100.088C210.36 99.7452 213.192 98.8697 213.696 98.8697C213.932 98.8697 214.191 98.7607 214.273 98.6272C214.355 98.4938 214.619 98.3846 214.858 98.3846C215.39 98.3846 217.395 97.6083 219.311 96.661C220.092 96.2747 220.933 95.9587 221.18 95.9587C221.427 95.9587 221.629 95.8495 221.629 95.7161C221.629 95.5827 221.825 95.4735 222.066 95.4735C222.306 95.4735 222.952 95.2552 223.501 94.9883C224.05 94.7215 224.632 94.5032 224.795 94.5032C225.278 94.5032 226.724 93.9475 228.104 93.2317C228.814 92.8636 229.543 92.5625 229.725 92.5625C229.906 92.5625 230.441 92.3442 230.913 92.0773C231.386 91.8105 231.928 91.5921 232.119 91.5921C232.31 91.5921 232.834 91.3841 233.284 91.1298C233.734 90.8755 234.362 90.5207 234.678 90.3413C234.995 90.162 235.308 89.9499 235.375 89.87C235.441 89.7901 236.472 89.2627 237.665 88.6982C238.859 88.1336 240.024 87.5713 240.255 87.4487C240.485 87.326 240.838 87.2255 241.038 87.2255C241.239 87.2255 241.403 87.1164 241.403 86.983C241.403 86.8495 241.622 86.7404 241.889 86.7404C242.322 86.7404 243.25 86.3394 243.574 86.0122C243.64 85.9453 244.02 85.7271 244.418 85.5274C244.816 85.3277 245.196 85.1034 245.262 85.0289C245.328 84.9544 245.735 84.7499 246.166 84.5745C246.597 84.3991 246.95 84.1597 246.95 84.0425C246.95 83.9253 247.114 83.8293 247.315 83.8293C247.709 83.8293 248.551 83.3967 249.05 82.938C249.22 82.7812 249.957 82.3591 250.687 81.9998C251.417 81.6405 252.014 81.2501 252.014 81.1324C252.014 81.0147 252.121 80.9183 252.253 80.9183C252.508 80.9183 253.193 80.4055 254.117 79.5234C254.432 79.2232 254.746 78.9776 254.815 78.9776C254.886 78.9776 255.415 78.6501 255.993 78.2498C256.572 77.8495 257.161 77.522 257.303 77.522C257.445 77.522 257.561 77.4128 257.561 77.2794C257.561 77.146 257.7 77.0369 257.869 77.0369C258.039 77.0369 258.334 76.8185 258.526 76.5517C258.717 76.2848 258.995 76.0665 259.143 76.0665C259.291 76.0665 259.921 75.4934 260.542 74.7929C262.471 72.618 263.194 71.8117 264.214 70.6975C265.131 69.6965 268.197 64.1293 268.321 63.2408C268.351 63.0234 268.552 62.0813 268.766 61.1474C269.448 58.1816 269.455 51.0992 268.78 46.2282C268.195 42.0052 267.565 39.1932 267.204 39.1932C267.112 39.1932 266.969 38.3825 266.885 37.3916C266.801 36.4008 266.58 35.2273 266.392 34.7839C266.204 34.3404 265.858 33.5086 265.622 32.9354C265.387 32.3622 265.024 31.6901 264.814 31.4418C264.257 30.7806 263.877 30.2123 263.279 29.1449C262.986 28.6217 262.09 27.6938 261.288 27.0829C259.922 26.0427 258.284 24.2042 258.284 23.7117C258.284 23.5913 258.04 23.3133 257.742 23.0938C257.068 22.5981 254.921 21.2417 254.81 21.2417C254.765 21.2417 254.263 20.8144 253.695 20.2921C253.127 19.7698 252.384 19.1967 252.044 19.0185C251.704 18.8403 251.233 18.5035 250.997 18.27C250.761 18.0365 250.35 17.8455 250.085 17.8455C249.82 17.8455 249.603 17.7538 249.603 17.6417C249.603 17.5296 249.142 17.2966 248.578 17.1238C246.504 16.4878 245.986 16.2889 245.986 16.1281C245.986 16.0378 245.633 15.8204 245.202 15.6452C244.771 15.4701 244.331 15.1839 244.225 15.0093C244.119 14.8347 243.922 14.6919 243.788 14.6919C243.653 14.6919 242.95 14.419 242.225 14.0854C241.5 13.7518 240.802 13.4789 240.673 13.4789C240.544 13.4789 240.439 13.3924 240.439 13.2866C240.439 13.1809 239.95 12.9628 239.352 12.802C238.754 12.6412 237.805 12.3002 237.242 12.0443C236.679 11.7884 235.785 11.4453 235.254 11.2819C234.328 10.9968 232.165 10.2401 231.154 9.84827C229.814 9.32821 227.416 8.62718 226.977 8.62718C226.704 8.62718 226.422 8.53158 226.35 8.415C226.279 8.2984 225.648 8.154 224.949 8.09433C224.25 8.03467 223.299 7.81257 222.834 7.60083C221.62 7.04697 221.411 7.00571 215.72 6.19399C214.792 6.06159 213.273 5.84323 212.344 5.70879C206.619 4.87989 201.212 4.12091 198.478 3.76249C197.483 3.63206 195.258 3.42737 193.534 3.30759C191.81 3.18778 189.097 2.98423 187.505 2.85514C185.913 2.72608 184.014 2.64869 183.285 2.68314C182.555 2.7176 181.841 2.652 181.698 2.53742C181.114 2.07021 141.395 2.62005 136.621 3.16145C133.584 3.50589 127.645 4.05752 124.684 4.27024C122.893 4.39886 120.289 4.60999 118.896 4.73947C117.503 4.86892 115.279 5.03873 113.952 5.11679C112.626 5.19485 111.107 5.35964 110.576 5.48296C110.045 5.60635 108.689 5.76667 107.562 5.83925C102.491 6.16583 96.7596 6.70019 93.3333 7.1658C92.3386 7.30099 90.3852 7.52018 88.9925 7.65285C87.5999 7.78552 85.9178 7.99965 85.2546 8.12875C84.5914 8.25784 83.0721 8.47654 81.8784 8.61475C80.6847 8.75294 79.2197 8.92375 78.6228 8.99437C77.452 9.13287 74.9435 9.55797 74.1614 9.75045C73.8962 9.81579 72.9737 9.97045 72.1115 10.0943C70.5385 10.3202 69.5107 10.5127 67.0473 11.0426C66.3178 11.1995 65.4496 11.3757 65.118 11.434C63.554 11.7092 59.6098 12.7887 58.4862 13.2492C58.221 13.358 57.5698 13.5766 57.0393 13.7353C56.5087 13.8939 55.8862 14.1194 55.6559 14.2365C55.4256 14.3534 55.0251 14.4492 54.7658 14.4492C54.5066 14.4492 54.2274 14.5583 54.1454 14.6919C54.0634 14.8253 53.7379 14.9345 53.4219 14.9345C53.106 14.9345 52.7872 15.0326 52.7135 15.1526C52.6397 15.2727 52.0093 15.4958 51.3126 15.6485C49.4538 16.0558 48.1475 16.4472 47.8874 16.6747C47.7614 16.785 47.4151 16.8751 47.1179 16.8751C46.8206 16.8751 46.5103 16.9843 46.4284 17.1177C46.3464 17.2512 46.1218 17.3603 45.9292 17.3603C45.7367 17.3603 45.0648 17.5895 44.4362 17.8697C43.8076 18.1498 43.0763 18.4643 42.811 18.5687C41.6169 19.0383 39.894 19.9446 39.4589 20.332C39.1967 20.5655 38.8398 20.7566 38.6659 20.7566C38.492 20.7566 38.3496 20.8528 38.3496 20.9707C38.3496 21.0884 37.7799 21.471 37.0836 21.8208C35.6503 22.5407 34.4288 23.2384 34.25 23.439C34.0519 23.6613 30.9252 25.1231 30.6478 25.1231C30.5068 25.1231 30.3906 25.205 30.3896 25.3051C30.3872 25.5229 29.2195 26.0934 28.7758 26.0934C28.6034 26.0934 28.4623 26.1822 28.4623 26.291C28.4623 26.3996 28.0553 26.7104 27.5579 26.9815C25.4896 28.1086 24.7573 28.5721 24.3893 28.9867C23.9424 29.4903 20.9054 32.0448 19.8978 32.7646C19.5243 33.0315 19.0815 33.3862 18.9139 33.553C18.7464 33.7198 18.5345 33.8563 18.4432 33.8563C18.2517 33.8563 17.1763 34.8648 14.3963 37.6513C10.2024 41.855 10.0571 42.0475 8.10279 45.9866C5.73988 50.7493 5.52913 51.3665 5.74578 52.888C5.87923 53.8251 5.79748 54.4477 5.37405 55.7175C4.85985 57.2598 4.84444 57.5096 5.08147 60.4594C5.21912 62.172 5.48987 64.1894 5.6832 64.9425C5.87653 65.6956 6.03571 66.5143 6.03702 66.7619C6.0407 67.3882 7.06719 69.5141 7.71922 70.2444C8.01702 70.578 8.43762 71.1238 8.65386 71.4573C10.2647 73.9421 17.0783 80.4331 18.0757 80.4331C18.2176 80.4331 18.3336 80.5218 18.3336 80.6304C18.3336 80.7388 18.7135 80.9776 19.1777 81.1609C19.6419 81.3441 20.0218 81.5828 20.0218 81.6913C20.0218 81.7998 20.186 81.8886 20.3867 81.8886C20.5875 81.8886 20.9402 81.985 21.1705 82.1029C21.6318 82.339 22.7682 82.8236 23.5185 83.1043C24.537 83.4853 27.3808 84.9275 27.4574 85.1018C27.5016 85.2025 27.6825 85.2849 27.8593 85.2849C28.0362 85.2849 28.217 85.3707 28.2613 85.4755C28.5028 86.0485 34.1649 89.1663 34.9639 89.1663C35.1814 89.1663 35.4624 89.2531 35.5884 89.3593C35.7144 89.4655 36.2516 89.691 36.7821 89.8605C37.3127 90.03 38.0181 90.2852 38.3496 90.4277C38.6812 90.5701 39.2238 90.794 39.5554 90.9251C39.887 91.0562 40.3468 91.26 40.5771 91.3778C40.8074 91.4958 41.1568 91.5921 41.3535 91.5921C41.5502 91.5921 42.0976 91.8105 42.5699 92.0773C43.0422 92.3442 43.5731 92.5625 43.7497 92.5625C43.9263 92.5625 44.9147 92.9991 45.9461 93.5328C46.9775 94.0665 48.017 94.5032 48.2561 94.5032C48.4953 94.5032 48.758 94.6124 48.84 94.7458C48.922 94.8792 49.1522 94.9883 49.3517 94.9883C49.6502 94.9883 51.7162 95.8654 53.3013 96.665C53.5003 96.7653 54.1785 96.9988 54.8085 97.1838C55.4386 97.3688 55.9541 97.6055 55.9541 97.7098C55.9541 97.8141 56.1647 97.8994 56.4222 97.8994C56.6796 97.8994 56.9573 98.0086 57.0393 98.142C57.1213 98.2754 57.399 98.3846 57.6564 98.3846C57.9139 98.3846 58.1245 98.4937 58.1245 98.6272C58.1245 98.7606 58.361 98.8697 58.65 98.8697C59.2591 98.8697 60.4881 99.2471 61.8624 99.856C62.393 100.091 63.3154 100.5 63.9122 100.765C64.5091 101.029 65.3773 101.38 65.8415 101.544C67.4018 102.096 68.0119 102.383 68.0119 102.568C68.0119 102.669 68.1263 102.751 68.2663 102.751C68.4062 102.751 69.181 103.215 69.9881 103.782C70.7951 104.349 71.8366 105.042 72.3025 105.321C73.702 106.161 76.3323 108.909 77.1886 110.426C77.6302 111.208 78.0793 111.885 78.1866 111.929C78.2939 111.974 78.3817 112.117 78.3817 112.248C78.3817 112.379 78.6599 113.098 79 113.846C79.3402 114.594 79.7859 115.869 79.9906 116.681C80.1953 117.492 80.4453 118.265 80.5461 118.398C80.8696 118.826 81.1107 122.418 81.0673 126.161C81.0146 130.699 80.6435 132.737 79.3434 135.622C78.9827 136.422 78.5462 137.459 78.3735 137.926C78.2007 138.393 77.7519 139.245 77.3762 139.819C77.0005 140.393 76.5163 141.206 76.3003 141.627C76.0843 142.047 75.77 142.529 75.6019 142.698C75.4338 142.867 75.1143 143.637 74.8919 144.408C74.6695 145.179 74.3403 146.138 74.1602 146.538C73.2607 148.538 73.471 148.775 75.1261 147.63H75.126ZM80.1226 148.392C80.5577 148.144 81.3478 147.687 81.8783 147.377C82.8044 146.836 84.513 145.98 86.8221 144.9C88.026 144.337 88.4524 144.166 89.7762 143.716C90.2736 143.547 90.6806 143.321 90.6806 143.215C90.6806 143.108 90.9315 143.021 91.2382 143.021C91.5449 143.021 92.245 142.802 92.794 142.536C93.3431 142.269 93.9603 142.05 94.1657 142.05C94.371 142.05 94.5391 141.941 94.5391 141.808C94.5391 141.674 94.804 141.565 95.1277 141.565C95.4515 141.565 95.7835 141.456 95.8654 141.323C95.9474 141.189 96.273 141.08 96.5889 141.08C96.9049 141.08 97.2304 140.971 97.3124 140.837C97.3944 140.704 97.7263 140.595 98.0501 140.595C98.4063 140.595 98.6388 140.454 98.6388 140.24C98.6388 139.662 100.878 138.667 102.196 138.658C102.494 138.655 102.738 138.562 102.738 138.45C102.738 138.338 103.198 138.107 103.759 137.938C104.32 137.769 105.04 137.424 105.359 137.172C105.678 136.92 106.123 136.713 106.348 136.713C106.573 136.713 106.832 136.639 106.923 136.547C107.188 136.281 108.839 135.751 109.416 135.747C109.707 135.744 110.012 135.634 110.094 135.5C110.176 135.367 110.563 135.258 110.955 135.258C111.347 135.258 111.856 135.159 112.087 135.039C112.317 134.919 112.994 134.687 113.59 134.525C114.187 134.363 114.82 134.189 114.997 134.138C115.174 134.086 115.274 133.908 115.22 133.742C115.094 133.356 113.664 133.208 113.006 133.511C111.835 134.051 111.127 134.288 110.682 134.288C110.421 134.288 109.965 134.414 109.668 134.568C108.51 135.17 108.275 135.258 107.82 135.258C107.561 135.258 107.282 135.367 107.2 135.5C107.118 135.634 106.893 135.743 106.701 135.743C106.38 135.743 104.655 136.439 103.646 136.976C103.416 137.098 102.922 137.199 102.549 137.199C102.176 137.199 101.767 137.285 101.641 137.392C101.515 137.498 100.978 137.726 100.447 137.898C99.9169 138.071 98.8114 138.53 97.9908 138.918C97.1702 139.307 96.3291 139.624 96.1218 139.624C95.9145 139.624 95.7448 139.707 95.7448 139.808C95.7448 140.012 94.9081 140.394 93.4539 140.853C92.9233 141.02 92.1332 141.358 91.6981 141.604C91.263 141.849 90.7476 142.05 90.5527 142.05C90.3578 142.05 90.1983 142.148 90.1983 142.266C90.1983 142.385 89.7099 142.627 89.1131 142.804C88.5162 142.982 88.0279 143.212 88.0279 143.316C88.0279 143.421 87.8275 143.506 87.5826 143.506C87.0206 143.506 85.7601 144.131 85.371 144.603C85.2082 144.8 84.9179 144.961 84.7259 144.961C84.3538 144.961 82.1741 146.377 82.0391 146.706C81.9949 146.814 81.8321 146.902 81.6774 146.902C81.5227 146.903 81.0911 147.167 80.7184 147.489C80.3457 147.811 79.8031 148.242 79.5126 148.446C78.7695 148.968 79.1749 148.932 80.1226 148.392V148.392ZM64.2137 159.345C63.7989 158.447 63.8285 157.576 64.2739 157.576C64.4729 157.576 64.6357 157.467 64.6357 157.333C64.6357 157.2 64.7985 157.091 64.9974 157.091C65.1964 157.091 65.3591 156.982 65.3591 156.848C65.3591 156.715 65.5023 156.606 65.6774 156.606C66.045 156.606 66.7713 155.816 67.42 154.711C67.8616 153.959 67.8615 153.936 67.4115 153.605C66.7591 153.125 66.8151 151.401 67.504 150.756C68.1387 150.161 68.1451 149.793 67.5297 149.263C67.0052 148.811 66.9007 148.235 67.2984 147.988C67.4364 147.902 67.4879 147.637 67.4128 147.399C67.1412 146.538 68.0636 144.961 68.8389 144.961C69.1125 144.961 69.2178 144.721 69.2178 144.096C69.2178 143.621 69.319 143.041 69.4427 142.809C69.7803 142.174 69.9635 139.482 69.9753 134.98C69.9852 131.803 69.9094 130.821 69.6259 130.371C69.4278 130.057 69.1497 129.236 69.0077 128.547C68.7774 127.429 68.0918 126.086 67.2395 125.084C67.0761 124.891 66.9129 124.539 66.8767 124.3C66.7403 123.402 63.1089 119.247 62.4597 119.247C62.3302 119.247 62.2243 119.138 62.2243 119.005C62.2243 118.871 62.0747 118.762 61.892 118.762C61.7093 118.762 61.4336 118.609 61.2793 118.422C61.125 118.235 60.721 118.012 60.3815 117.926C59.8474 117.791 58.4868 116.971 58.1246 116.565C58.0584 116.491 57.6242 116.282 57.16 116.102C56.6958 115.921 56.0447 115.533 55.7131 115.24C55.3815 114.946 54.7846 114.547 54.3867 114.353C53.9888 114.158 53.419 113.87 53.1206 113.712C51.8335 113.031 51.5907 112.94 51.062 112.94C50.7551 112.94 50.401 112.848 50.275 112.735C50.149 112.622 49.4218 112.282 48.6592 111.979C47.8965 111.676 47.2726 111.331 47.2726 111.214C47.2726 111.096 46.8928 110.999 46.4285 110.999C45.9643 110.999 45.5844 110.89 45.5844 110.757C45.5844 110.623 45.3878 110.514 45.1474 110.514C44.9071 110.514 44.2612 110.296 43.7122 110.029C43.1631 109.762 42.4526 109.544 42.1332 109.544C41.8139 109.544 40.9133 109.227 40.1321 108.839C37.9924 107.779 36.4591 107.118 36.1388 107.118C35.6445 107.118 34.2501 106.544 34.2501 106.341C34.2501 106.235 34.0535 106.147 33.8132 106.147C33.573 106.147 33.1661 105.954 32.909 105.717C32.6519 105.48 31.9531 105.133 31.3563 104.947C30.7594 104.76 30.168 104.517 30.042 104.407C29.9159 104.297 29.6115 104.207 29.3654 104.207C29.1194 104.207 28.3001 103.892 27.5447 103.507C26.7894 103.122 25.6759 102.57 25.0703 102.279C24.4648 101.988 23.5966 101.43 23.141 101.039C22.6855 100.647 22.1398 100.326 21.9282 100.326C21.7167 100.326 21.3471 100.107 21.107 99.8401C20.867 99.5733 20.4225 99.3549 20.1193 99.3549C19.8161 99.3549 19.501 99.2457 19.419 99.1123C19.337 98.9789 19.005 98.8697 18.6812 98.8697C18.3575 98.8697 18.0926 98.7607 18.0926 98.6272C18.0926 98.4938 17.9792 98.3846 17.8405 98.3846C17.7018 98.3846 17.3357 98.1389 17.0268 97.8388C16.0114 96.8519 15.4481 96.4503 14.355 95.9334C13.7615 95.6527 12.827 94.9978 12.2783 94.478C11.7296 93.9581 11.2448 93.5328 11.2009 93.5328C11.157 93.5328 10.8583 93.2872 10.5371 92.987C10.2161 92.6868 9.64142 92.1494 9.26016 91.7928C8.34094 90.9331 8.06797 90.5825 7.46291 89.484C7.18289 88.9757 6.70423 88.2869 6.39915 87.9533C6.09408 87.6198 5.77012 86.9921 5.6793 86.5584C5.58844 86.1248 5.42312 85.77 5.31185 85.77C4.97262 85.77 4.10554 84.1736 4.10554 83.5489C4.10554 83.2261 3.78438 82.584 3.39184 82.122C2.99933 81.6601 2.67378 81.0976 2.6684 80.8719C2.66349 80.6463 2.54831 80.3931 2.41351 80.3093C2.2787 80.2256 2.22098 80.0714 2.28521 79.9669C2.34931 79.8624 2.24616 79.5697 2.05565 79.3165C1.86518 79.0634 1.70583 78.673 1.70162 78.4491C1.69793 78.2251 1.51313 77.86 1.29212 77.6376C1.0711 77.4153 0.857676 76.9435 0.817867 76.5893C0.777961 76.2351 0.676326 75.6177 0.591834 75.2174C0.403328 74.3244 -0.0155538 67.7091 0.000445701 65.8778C0.0156716 64.1325 0.721671 60.6228 1.3433 59.202C1.51959 58.7991 1.66384 57.7415 1.66384 56.8517C1.66384 54.0255 2.3619 51.1029 3.62147 48.6561C4.57838 46.7972 5.76447 44.1251 5.93359 43.4473C6.01144 43.1352 6.27314 42.6662 6.51509 42.4049C6.75706 42.1437 7.18732 41.4718 7.47123 40.912C7.98318 39.9026 11.7313 35.9732 13.7387 34.3414C14.3132 33.8744 15.1208 33.1622 15.5336 32.7586C15.9462 32.3551 16.5263 31.8548 16.8225 31.647C17.4922 31.1771 20.588 28.4152 21.5776 27.4047C22.4012 26.5638 25.1658 24.6379 25.5494 24.6379C25.6861 24.6379 26.1532 24.42 26.5875 24.1536C27.0218 23.8873 27.5502 23.669 27.7618 23.6685C27.9733 23.6685 28.3428 23.4492 28.5829 23.1824C28.823 22.9156 29.1925 22.6948 29.4041 22.6918C29.6156 22.6894 30.06 22.473 30.3916 22.2121C30.7232 21.9512 31.1361 21.7352 31.3092 21.7322C31.4822 21.7298 32.2631 21.2902 33.0443 20.7566C33.8256 20.2228 34.613 19.7862 34.7943 19.7862C34.9755 19.7862 35.3568 19.5679 35.6415 19.301C35.9262 19.0342 36.3061 18.8158 36.4855 18.8158C36.6651 18.8158 37.0448 18.5975 37.3296 18.3307C37.6143 18.0638 37.9603 17.8455 38.0985 17.8455C38.2367 17.8455 38.3498 17.7363 38.3498 17.6029C38.3498 17.4695 38.4595 17.3603 38.5935 17.3603C38.9602 17.3603 41.1112 16.3201 41.2035 16.0982C41.2477 15.9918 41.5397 15.9048 41.8524 15.9048C42.1651 15.9048 42.488 15.7956 42.57 15.6622C42.652 15.5288 42.9279 15.4196 43.1833 15.4196C43.4386 15.4196 44.3196 15.0921 45.1411 14.6919C45.9625 14.2916 46.826 13.9641 47.0599 13.9641C47.2939 13.9641 47.5523 13.855 47.6343 13.7215C47.7163 13.5881 48.1568 13.4789 48.6132 13.4789C49.0696 13.4789 49.443 13.3697 49.443 13.2363C49.443 13.1029 49.6729 12.9937 49.9539 12.9937C50.235 12.9937 51.1303 12.783 51.9435 12.5255C52.7567 12.268 53.9104 11.9209 54.5073 11.7541C55.1041 11.5873 55.701 11.3764 55.8336 11.2854C55.9663 11.1943 56.4003 11.0419 56.7983 10.9465C57.1962 10.851 57.8473 10.6296 58.2452 10.4542C58.6431 10.2788 59.5113 10.0075 60.1744 9.85113C60.8376 9.69481 61.76 9.4698 62.2243 9.35111C63.6887 8.9768 64.4819 8.83707 65.6431 8.7489C66.2634 8.70172 66.9888 8.54595 67.2551 8.4026C67.5214 8.25926 68.016 8.14198 68.3544 8.14198C68.9144 8.14198 70.7334 7.76876 71.6294 7.47C71.8283 7.40367 72.3709 7.31036 72.8351 7.26267C73.2994 7.215 74.0591 7.07115 74.5233 6.9431C75.3071 6.72686 75.9998 6.6165 78.5023 6.30915C81.8063 5.90333 83.4546 5.70035 84.4107 5.58149C85.0075 5.50738 86.7439 5.34646 88.2692 5.22414C89.7945 5.10186 91.7478 4.88479 92.61 4.74188C93.4721 4.59894 95.3713 4.38292 96.8303 4.2618C98.2893 4.14063 100.46 3.921 101.653 3.77361C102.847 3.62628 105.126 3.40149 106.718 3.27416C110.781 2.94908 114.685 2.61273 116.243 2.45343C119.623 2.10803 120.647 2.01572 123.237 1.82291C124.762 1.7094 127.095 1.50136 128.422 1.36066C138.101 0.333782 144.134 0.115995 165.439 0.024233C180.314 -0.0398728 185.145 0.0155641 187.987 0.282894C189.977 0.469999 193.07 0.738738 194.86 0.880092C198.488 1.16652 201.197 1.45229 203.542 1.79626C208.264 2.48883 210.624 2.8205 212.465 3.05048C213.592 3.19131 214.977 3.41203 215.543 3.54096C216.109 3.6699 216.862 3.77542 217.217 3.77542C217.887 3.77542 220.165 4.15477 221.629 4.51021C224.424 5.18879 224.908 5.32309 225.126 5.48069C225.354 5.64596 225.919 5.78016 227.718 6.09651C228.149 6.17235 228.719 6.3291 228.984 6.44489C229.249 6.56062 230.28 6.88992 231.275 7.17658C232.27 7.46328 233.272 7.79773 233.502 7.91988C233.733 8.04204 234.133 8.14198 234.393 8.14198C234.652 8.14198 234.931 8.25118 235.013 8.38458C235.096 8.51801 235.475 8.62718 235.857 8.62718C236.239 8.62718 236.619 8.73624 236.701 8.86975C236.784 9.00319 237.04 9.11235 237.273 9.11235C237.505 9.11235 238.145 9.33067 238.694 9.59752C239.243 9.86437 239.807 10.0827 239.948 10.0827C240.089 10.0827 240.393 10.179 240.623 10.2969C240.854 10.4148 241.367 10.6459 241.765 10.8105C242.533 11.1278 242.917 11.3078 243.695 11.7148C243.96 11.8536 244.882 12.2957 245.744 12.6971C249.736 14.5558 252.658 16.0465 253.085 16.4422C253.342 16.6803 253.695 16.8751 253.869 16.8751C254.043 16.8751 254.185 16.9659 254.185 17.0767C254.185 17.1876 254.483 17.4331 254.848 17.6222C255.213 17.8113 255.566 18.028 255.632 18.1037C255.699 18.1794 256.295 18.6111 256.958 19.0629C257.621 19.5147 258.283 19.9988 258.428 20.1385C258.573 20.2783 259.17 20.8351 259.754 21.3757C260.339 21.9164 261.088 22.7617 261.42 23.2541C261.751 23.7465 262.112 24.1502 262.221 24.1511C262.329 24.1511 262.579 24.3141 262.775 24.5113C262.971 24.7085 263.266 24.9541 263.43 25.0571C263.594 25.1602 264.12 25.8448 264.6 26.5786C265.079 27.3124 265.697 28.1858 265.973 28.5193C266.249 28.8529 266.577 29.2486 266.702 29.3986C266.827 29.5487 267.279 30.3674 267.707 31.218C268.385 32.5653 268.646 33.3007 269.288 35.6757C269.931 38.0541 270.564 40.9049 270.849 42.7107C271.206 44.9682 271.717 46.4599 272.387 47.1986C272.781 47.6335 273.009 48.3198 273.193 49.6245C273.335 50.6251 273.433 51.6076 273.413 51.8077C273.392 52.0079 273.458 52.9358 273.56 53.8697C273.661 54.8037 273.783 56.0045 273.83 56.5382C273.877 57.0719 273.945 57.6177 273.981 57.7512C274.095 58.1781 273.681 62.8061 273.428 63.9371C273.294 64.5375 273.156 65.4224 273.123 65.9034C273.09 66.3845 272.722 67.5037 272.306 68.3906C271.889 69.2775 271.548 70.1532 271.548 70.3366C271.548 70.5201 271.397 70.7966 271.212 70.9511C271.027 71.1056 270.809 71.5864 270.728 72.0194C270.648 72.4525 270.368 72.9908 270.107 73.2157C269.846 73.4405 269.557 73.9247 269.466 74.2916C269.375 74.6584 269.116 75.1562 268.893 75.3976C268.669 75.639 268.342 76.2976 268.166 76.8612C267.989 77.4248 267.728 78.0497 267.584 78.2498C267.159 78.8435 266.537 80.23 266.124 81.5062C265.912 82.1631 265.552 82.8727 265.324 83.083C265.096 83.2933 264.493 84.3388 263.983 85.4062C263.474 86.4735 262.827 87.8285 262.546 88.4173C262.264 89.0061 261.435 90.1058 260.702 90.8611C259.969 91.6165 258.638 93.0456 257.743 94.0369C256.848 95.0283 255.777 95.9906 255.361 96.1755C254.946 96.3603 253.725 97.3691 252.647 98.4172C251.57 99.4653 250.553 100.323 250.387 100.324C250.221 100.324 250.085 100.411 250.085 100.516C250.085 100.62 249.787 100.89 249.422 101.114C249.057 101.339 248.421 101.826 248.009 102.197C247.597 102.569 246.9 103.145 246.46 103.479C246.021 103.812 245.413 104.331 245.111 104.631C244.808 104.931 244.491 105.177 244.405 105.177C244.319 105.177 243.875 105.553 243.418 106.013C242.961 106.473 242.374 106.917 242.115 107C241.857 107.083 241.645 107.252 241.645 107.377C241.645 107.501 241.499 107.603 241.32 107.603C241.142 107.603 240.8 107.821 240.56 108.088C240.319 108.355 239.977 108.573 239.799 108.573C239.62 108.573 239.474 108.682 239.474 108.816C239.474 108.949 239.359 109.058 239.22 109.058C239.08 109.058 238.326 109.495 237.545 110.029C236.764 110.562 235.956 110.999 235.75 110.999C235.543 110.999 235.375 111.108 235.375 111.242C235.375 111.375 235.103 111.484 234.772 111.484C234.44 111.484 234.169 111.593 234.169 111.727C234.169 111.86 234.006 111.969 233.807 111.969C233.608 111.969 233.445 112.079 233.445 112.212C233.445 112.345 233.286 112.455 233.091 112.455C232.896 112.455 232.326 112.69 231.825 112.977C230.513 113.729 229.507 114.235 227.055 115.375C224.926 116.365 224.285 116.646 223.076 117.125C222.744 117.256 222.284 117.459 222.054 117.577C221.824 117.695 221.423 117.792 221.164 117.792C220.905 117.792 220.625 117.901 220.543 118.034C220.462 118.168 220.139 118.277 219.826 118.277C219.513 118.277 219.221 118.359 219.177 118.459C219.014 118.827 216.98 119.732 216.315 119.732C215.937 119.732 215.561 119.841 215.479 119.975C215.397 120.108 215.072 120.217 214.756 120.217C214.44 120.217 214.127 120.306 214.06 120.414C213.994 120.523 213.146 120.862 212.177 121.167C211.208 121.473 210.227 121.821 209.996 121.94C209.766 122.06 209.377 122.158 209.132 122.158C208.887 122.158 208.609 122.236 208.514 122.332C208.231 122.617 204.526 123.402 202.577 123.591C201.583 123.688 200.28 123.949 199.684 124.172C199.087 124.395 198.28 124.579 197.892 124.581C197.187 124.584 196.532 124.761 194.258 125.562C193.154 125.951 191.538 126.327 189.675 126.629C189.278 126.693 188.409 126.865 187.746 127.01C187.083 127.155 186.215 127.332 185.817 127.403C185.419 127.473 184.931 127.596 184.732 127.675C184.533 127.755 183.339 128.023 182.079 128.272C180.819 128.521 179.3 128.831 178.703 128.961C178.106 129.091 176.37 129.284 174.844 129.391C173.184 129.508 171.732 129.743 171.227 129.978C170.763 130.194 169.949 130.429 169.418 130.5C167.583 130.747 162.662 131.611 161.581 131.877C160.984 132.024 159.844 132.237 159.049 132.35C158.253 132.463 157.059 132.659 156.396 132.787C155.733 132.914 154.063 133.089 152.686 133.177C151.308 133.264 150.006 133.428 149.792 133.54C149.252 133.825 145.637 134.288 143.952 134.288C143.185 134.288 142.491 134.397 142.409 134.53C142.327 134.664 141.734 134.773 141.092 134.773C140.45 134.773 138.655 134.991 137.103 135.258C135.552 135.525 133.92 135.743 133.478 135.743C133.035 135.743 132.404 135.846 132.074 135.972C131.745 136.098 130.679 136.224 129.707 136.251C128.735 136.278 127.722 136.379 127.457 136.476C126.963 136.656 126.113 136.905 124.201 137.432C123.605 137.597 122.928 137.83 122.698 137.95C122.467 138.07 121.389 138.169 120.301 138.169C118.478 138.169 116.693 138.395 114.555 138.897C114.091 139.006 112.952 139.278 112.023 139.501C111.095 139.723 109.955 139.958 109.491 140.023C109.027 140.087 108.43 140.229 108.165 140.337C107.899 140.446 107.379 140.657 107.008 140.807C106.637 140.957 106.073 141.08 105.756 141.08C105.438 141.08 105.112 141.189 105.03 141.323C104.948 141.456 104.622 141.565 104.306 141.565C103.99 141.565 103.665 141.674 103.583 141.808C103.501 141.941 103.243 142.05 103.011 142.05C102.778 142.05 102.139 142.269 101.59 142.536C101.041 142.802 100.502 143.021 100.392 143.021C100.282 143.021 100.036 143.239 99.8447 143.506C99.6535 143.773 99.3571 143.991 99.1859 143.991C99.0148 143.991 98.3605 144.22 97.7319 144.5C97.1033 144.781 96.372 145.094 96.1068 145.198C95.8415 145.301 95.3209 145.509 94.9499 145.659C94.5789 145.809 94.0092 145.932 93.6839 145.932C93.3585 145.932 93.0923 146.041 93.0923 146.174C93.0923 146.308 92.7731 146.417 92.383 146.417C91.993 146.417 91.6068 146.526 91.5248 146.66C91.4428 146.793 91.1636 146.902 90.9044 146.902C90.6451 146.902 90.2446 147 90.0143 147.12C88.1423 148.093 85.4399 149.332 85.1911 149.33C84.892 149.328 83.9244 149.804 83.6872 150.07C83.621 150.144 83.1868 150.354 82.7226 150.536C82.2584 150.719 81.5905 151.067 81.2384 151.311C80.8863 151.555 80.4998 151.754 80.3794 151.754C80.2589 151.754 79.7112 151.972 79.1621 152.239C78.6131 152.506 77.9959 152.724 77.7905 152.724C77.5851 152.724 77.4171 152.807 77.4171 152.908C77.4171 153.008 77.1187 153.225 76.7539 153.39C76.3892 153.554 75.7109 154.022 75.2467 154.429C74.7825 154.837 73.9187 155.302 73.3272 155.463C72.72 155.629 71.9096 156.1 71.4662 156.545C71.0342 156.979 70.6141 157.333 70.5325 157.333C70.4508 157.333 69.7148 157.73 68.8967 158.216C66.1236 159.86 65.8277 160.002 65.1711 160C64.6955 159.998 64.4324 159.819 64.2138 159.345H64.2137Z" fill="#E3DFDD"/>
</svg>
