<svg width="285" height="133" viewBox="0 0 285 133" fill="none" xmlns="http://www.w3.org/2000/svg">
<path d="M104.199 20.8403L102.219 24.6807H103.812L105.361 20.8403H104.199ZM106.935 20.8403L105.062 24.6807H106.656L108.097 20.8403H106.935ZM112.438 30.2285C114.673 30.2285 116.082 29.0796 116.495 27.1499L117.834 20.8403H116.177L114.914 26.7944C114.647 28.0386 113.765 28.7495 112.591 28.7495C111.366 28.7495 110.699 28.1338 110.667 27.1499C110.667 26.9277 110.687 26.6865 110.744 26.4263L111.924 20.8403H110.268L109.081 26.4897C109.023 26.7627 108.992 27.0356 108.998 27.2959C109.011 28.9717 110.255 30.2285 112.438 30.2285ZM118.824 25.0996C118.824 26.0137 119.357 26.585 120.449 26.9595L121.528 27.3213C122.1 27.5054 122.296 27.7529 122.296 28.0894C122.296 28.5972 121.757 28.9463 120.957 28.9463C120.202 28.9463 119.675 28.5718 119.548 28.0513H118.005C118.075 29.2954 119.25 30.1396 120.938 30.1396C122.671 30.1396 123.883 29.2383 123.883 27.9243C123.883 27.0229 123.401 26.4644 122.258 26.0835L121.198 25.7217C120.633 25.5312 120.354 25.2964 120.354 24.9409C120.354 24.4585 120.875 24.1157 121.592 24.1157C122.296 24.1157 122.798 24.4268 122.906 24.9219H124.378C124.251 23.7158 123.21 22.916 121.604 22.916C119.973 22.916 118.824 23.7856 118.824 25.0996ZM127.787 21.9067C128.301 21.9067 128.727 21.4878 128.727 20.9609C128.727 20.4341 128.301 20.0088 127.787 20.0088C127.273 20.0088 126.848 20.4341 126.848 20.9609C126.848 21.4878 127.273 21.9067 127.787 21.9067ZM125.096 30H126.67L128.143 23.0557H126.568L125.096 30ZM128.638 30H130.218L131.107 25.855C131.304 24.9536 131.945 24.2871 132.853 24.2871C133.646 24.2871 134.09 24.7822 134.09 25.4868C134.09 25.6646 134.065 25.855 134.021 26.0708L133.183 30H134.757L135.652 25.8042C135.709 25.5186 135.741 25.2393 135.741 24.9917C135.741 23.8618 134.954 22.9414 133.646 22.9414C132.637 22.9414 131.964 23.4556 131.526 24.1348H131.412L131.646 23.0557H130.117L128.638 30ZM139.397 32.6406C141.301 32.6406 142.571 31.7456 142.875 30.2983L144.431 23.0557H142.901L142.634 24.2935H142.526C142.26 23.4873 141.409 22.9414 140.444 22.9414C138.502 22.9414 136.998 24.7505 136.998 27.2007C136.998 28.8003 138.051 29.873 139.448 29.873C140.324 29.873 141.041 29.5366 141.511 28.8765H141.619L141.333 30.127C141.149 30.9204 140.571 31.4409 139.505 31.4409C138.597 31.4409 138.039 31.0664 137.975 30.5776H136.382C136.407 31.7266 137.62 32.6406 139.397 32.6406ZM140.076 28.6543C139.188 28.6543 138.623 28.0259 138.623 26.9849C138.623 25.3853 139.511 24.2935 140.698 24.2935C141.619 24.2935 142.203 24.9346 142.203 25.9312C142.203 27.5117 141.276 28.6543 140.076 28.6543ZM155.945 23.9443H157.551C157.558 23.8809 157.564 23.8237 157.564 23.7603C157.564 21.9639 156.009 20.6118 153.952 20.6118C151.083 20.6118 148.995 23.0493 148.995 26.4263C148.995 28.7241 150.467 30.2285 152.702 30.2285C154.834 30.2285 156.44 29.0732 156.866 27.2515H155.222C154.911 28.1592 153.965 28.7622 152.854 28.7622C151.515 28.7622 150.677 27.8164 150.677 26.2993C150.677 23.9062 152.054 22.0781 153.844 22.0781C155.057 22.0781 155.882 22.7954 155.945 23.8872C155.945 23.9253 155.945 23.9316 155.945 23.9443ZM162.115 22.916C159.894 22.916 158.275 24.7061 158.275 27.1626C158.275 28.9399 159.487 30.1396 161.284 30.1396C163.48 30.1396 165.105 28.3306 165.105 25.8931C165.105 24.103 163.905 22.916 162.115 22.916ZM161.404 28.8193C160.509 28.8193 159.925 28.1401 159.925 27.0801C159.925 25.4297 160.801 24.2363 162.014 24.2363C162.915 24.2363 163.448 24.9155 163.448 26.0518C163.448 27.5688 162.528 28.8193 161.404 28.8193ZM165.924 30H167.504L168.418 25.7217C168.603 24.8457 169.269 24.2871 169.98 24.2871C170.646 24.2871 171.053 24.7505 171.053 25.3535C171.053 25.5249 171.021 25.7153 170.977 25.9312L170.12 30H171.662L172.557 25.7661C172.754 24.8457 173.414 24.2871 174.131 24.2871C174.798 24.2871 175.198 24.7505 175.198 25.3535C175.198 25.5249 175.172 25.7153 175.128 25.9312L174.265 30H175.845L176.759 25.6836C176.816 25.3916 176.848 25.1187 176.848 24.8647C176.848 23.7603 176.036 22.9414 174.906 22.9414C173.858 22.9414 173.128 23.481 172.671 24.2046H172.563C172.392 23.5508 171.745 22.9414 170.754 22.9414C169.955 22.9414 169.206 23.4492 168.799 24.1729H168.685L168.926 23.0557H167.396L165.924 30ZM177.68 30H179.26L180.174 25.7217C180.358 24.8457 181.025 24.2871 181.736 24.2871C182.402 24.2871 182.809 24.7505 182.809 25.3535C182.809 25.5249 182.777 25.7153 182.732 25.9312L181.875 30H183.418L184.313 25.7661C184.51 24.8457 185.17 24.2871 185.887 24.2871C186.554 24.2871 186.954 24.7505 186.954 25.3535C186.954 25.5249 186.928 25.7153 186.884 25.9312L186.021 30H187.601L188.515 25.6836C188.572 25.3916 188.604 25.1187 188.604 24.8647C188.604 23.7603 187.792 22.9414 186.662 22.9414C185.614 22.9414 184.884 23.481 184.427 24.2046H184.319C184.148 23.5508 183.5 22.9414 182.51 22.9414C181.71 22.9414 180.961 23.4492 180.555 24.1729H180.441L180.682 23.0557H179.152L177.68 30ZM196.977 23.0557H195.396L194.526 27.1499C194.317 28.1084 193.669 28.7622 192.73 28.7622C191.93 28.7622 191.543 28.3813 191.543 27.6006C191.543 27.4609 191.575 27.1753 191.619 26.9722L192.451 23.0557H190.864L189.988 27.2261C189.931 27.5244 189.893 27.9053 189.893 28.1147C189.893 29.3145 190.73 30.1396 192 30.1396C192.997 30.1396 193.688 29.6763 194.095 28.9907H194.203L193.98 30H195.504L196.977 23.0557ZM197.383 30H198.963L199.852 25.855C200.049 24.9536 200.69 24.2871 201.598 24.2871C202.391 24.2871 202.835 24.7822 202.835 25.4868C202.835 25.6646 202.81 25.855 202.766 26.0708L201.928 30H203.502L204.397 25.8042C204.454 25.5186 204.486 25.2393 204.486 24.9917C204.486 23.8618 203.699 22.9414 202.391 22.9414C201.382 22.9414 200.709 23.4556 200.271 24.1348H200.157L200.392 23.0557H198.862L197.383 30ZM207.507 30.1143C208.333 30.1143 209.094 29.7334 209.52 29.124H209.634L209.443 30H210.973L211.932 25.4868C211.963 25.3154 211.989 25.106 211.989 24.9219C211.989 23.7158 210.903 22.916 209.272 22.916C207.749 22.916 206.6 23.6841 206.295 24.9092H207.831C208.021 24.4521 208.491 24.1982 209.151 24.1982C209.945 24.1982 210.427 24.541 210.427 25.0996C210.427 25.1821 210.415 25.252 210.389 25.3789L210.294 25.8232L208.479 25.8931C206.536 25.9629 205.425 26.8135 205.425 28.21C205.425 29.2891 206.32 30.1143 207.507 30.1143ZM208.129 28.8828C207.457 28.8828 206.987 28.5146 206.987 27.9941C206.987 27.3911 207.545 26.9912 208.491 26.9531L210.072 26.8833L209.926 27.5562C209.754 28.3242 209.005 28.8828 208.129 28.8828ZM212.852 30H214.439L216.489 20.3706H214.896L212.852 30ZM219.911 30H221.491L222.38 25.8232C222.577 24.9155 223.224 24.2617 224.145 24.2617C224.944 24.2617 225.414 24.7314 225.414 25.4551C225.414 25.6392 225.382 25.8296 225.344 26.0327L224.5 30H226.081L226.976 25.7725C227.033 25.4805 227.064 25.2075 227.064 24.9536C227.064 23.8428 226.277 22.9287 224.944 22.9287C223.903 22.9287 223.281 23.4429 222.85 24.0967H222.742L223.542 20.4023H221.961L219.911 30ZM230.08 30.1143C230.905 30.1143 231.667 29.7334 232.092 29.124H232.206L232.016 30H233.545L234.504 25.4868C234.536 25.3154 234.561 25.106 234.561 24.9219C234.561 23.7158 233.476 22.916 231.844 22.916C230.321 22.916 229.172 23.6841 228.867 24.9092H230.403C230.594 24.4521 231.063 24.1982 231.724 24.1982C232.517 24.1982 233 24.541 233 25.0996C233 25.1821 232.987 25.252 232.961 25.3789L232.866 25.8232L231.051 25.8931C229.108 25.9629 227.998 26.8135 227.998 28.21C227.998 29.2891 228.893 30.1143 230.08 30.1143ZM230.702 28.8828C230.029 28.8828 229.559 28.5146 229.559 27.9941C229.559 27.3911 230.118 26.9912 231.063 26.9531L232.644 26.8833L232.498 27.5562C232.327 28.3242 231.578 28.8828 230.702 28.8828ZM236.243 25.0996C236.243 26.0137 236.776 26.585 237.868 26.9595L238.947 27.3213C239.519 27.5054 239.715 27.7529 239.715 28.0894C239.715 28.5972 239.176 28.9463 238.376 28.9463C237.621 28.9463 237.094 28.5718 236.967 28.0513H235.424C235.494 29.2954 236.668 30.1396 238.357 30.1396C240.09 30.1396 241.302 29.2383 241.302 27.9243C241.302 27.0229 240.82 26.4644 239.677 26.0835L238.617 25.7217C238.052 25.5312 237.773 25.2964 237.773 24.9409C237.773 24.4585 238.293 24.1157 239.011 24.1157C239.715 24.1157 240.217 24.4268 240.325 24.9219H241.797C241.67 23.7158 240.629 22.916 239.023 22.916C237.392 22.916 236.243 23.7856 236.243 25.0996ZM103.939 46.0317C104.294 46.0317 104.618 46.0127 104.821 45.9619L105.075 44.7432C104.923 44.7622 104.751 44.7749 104.548 44.7749C104.034 44.7749 103.742 44.5718 103.742 44.1084C103.742 43.9814 103.768 43.8164 103.806 43.626L104.51 40.3569H106.008L106.281 39.1001H104.764L105.139 37.3545H103.552L103.19 39.1001H102.054L101.793 40.3569H102.923L102.149 43.9814C102.104 44.1973 102.079 44.4067 102.079 44.5845C102.079 45.5239 102.834 46.0317 103.939 46.0317ZM106.313 46H107.894L108.731 42.0708C108.979 40.9346 109.569 40.3823 110.56 40.3823C110.852 40.3823 111.296 40.4458 111.55 40.5347L111.867 39.0684C111.683 38.9922 111.34 38.9414 111.01 38.9414C110.236 38.9414 109.639 39.2969 109.233 39.9824H109.125L109.315 39.0557H107.786L106.313 46ZM119.383 39.0557H117.802L116.933 43.1499C116.723 44.1084 116.076 44.7622 115.136 44.7622C114.336 44.7622 113.949 44.3813 113.949 43.6006C113.949 43.4609 113.981 43.1753 114.025 42.9722L114.857 39.0557H113.27L112.394 43.2261C112.337 43.5244 112.299 43.9053 112.299 44.1147C112.299 45.3145 113.137 46.1396 114.406 46.1396C115.403 46.1396 116.095 45.6763 116.501 44.9907H116.609L116.387 46H117.91L119.383 39.0557ZM119.846 46H121.433L123.483 36.3706H121.89L119.846 46ZM123.775 48.5327C125.14 48.5327 125.978 48.0312 126.848 46.438L130.974 39.0557H129.279L126.556 44.356H126.441L125.889 39.0557H124.296L125.28 45.9937L125.102 46.3364C124.759 47.0093 124.334 47.2505 123.775 47.2505C123.585 47.2505 123.293 47.2188 123.204 47.1997L122.944 48.4692C123.026 48.4883 123.553 48.5327 123.775 48.5327ZM137.696 46.1396C139.372 46.1396 140.546 45.2891 140.851 44.083H139.295C139.061 44.5591 138.572 44.8574 137.791 44.8574C136.985 44.8574 136.229 44.3369 136.229 43.1372C136.229 43.061 136.236 42.9658 136.242 42.8896H141.143C141.2 42.585 141.244 42.0645 141.244 41.7915C141.238 40.0015 139.994 38.916 138.413 38.916C136.236 38.916 134.712 40.6362 134.712 43.188C134.712 45.0605 135.982 46.1396 137.696 46.1396ZM136.42 41.8232C136.687 40.833 137.404 40.1729 138.331 40.1729C139.226 40.1729 139.721 40.7949 139.721 41.5693C139.721 41.6582 139.714 41.7852 139.708 41.8232H136.42ZM142.069 46H143.65L144.539 41.855C144.735 40.9536 145.376 40.2871 146.284 40.2871C147.078 40.2871 147.522 40.7822 147.522 41.4868C147.522 41.6646 147.497 41.855 147.452 42.0708L146.614 46H148.188L149.083 41.8042C149.141 41.5186 149.172 41.2393 149.172 40.9917C149.172 39.8618 148.385 38.9414 147.078 38.9414C146.068 38.9414 145.396 39.4556 144.958 40.1348H144.843L145.078 39.0557H143.548L142.069 46ZM150.086 46H151.667L152.556 41.8232C152.752 40.9155 153.4 40.2617 154.32 40.2617C155.12 40.2617 155.59 40.7314 155.59 41.4551C155.59 41.6392 155.558 41.8296 155.52 42.0327L154.676 46H156.256L157.151 41.7725C157.208 41.4805 157.24 41.2075 157.24 40.9536C157.24 39.8428 156.453 38.9287 155.12 38.9287C154.079 38.9287 153.457 39.4429 153.025 40.0967H152.917L153.717 36.4023H152.137L150.086 46ZM160.255 46.1143C161.081 46.1143 161.842 45.7334 162.268 45.124H162.382L162.191 46H163.721L164.68 41.4868C164.711 41.3154 164.737 41.106 164.737 40.9219C164.737 39.7158 163.651 38.916 162.02 38.916C160.497 38.916 159.348 39.6841 159.043 40.9092H160.579C160.77 40.4521 161.239 40.1982 161.899 40.1982C162.693 40.1982 163.175 40.541 163.175 41.0996C163.175 41.1821 163.163 41.252 163.137 41.3789L163.042 41.8232L161.227 41.8931C159.284 41.9629 158.173 42.8135 158.173 44.21C158.173 45.2891 159.068 46.1143 160.255 46.1143ZM160.877 44.8828C160.205 44.8828 159.735 44.5146 159.735 43.9941C159.735 43.3911 160.293 42.9912 161.239 42.9531L162.82 42.8833L162.674 43.5562C162.502 44.3242 161.753 44.8828 160.877 44.8828ZM165.543 46H167.124L168.012 41.855C168.209 40.9536 168.85 40.2871 169.758 40.2871C170.551 40.2871 170.996 40.7822 170.996 41.4868C170.996 41.6646 170.97 41.855 170.926 42.0708L170.088 46H171.662L172.557 41.8042C172.614 41.5186 172.646 41.2393 172.646 40.9917C172.646 39.8618 171.859 38.9414 170.551 38.9414C169.542 38.9414 168.869 39.4556 168.431 40.1348H168.317L168.552 39.0557H167.022L165.543 46ZM177.673 38.916C175.445 38.916 173.903 40.7505 173.903 43.207C173.903 44.9844 175.058 46.1396 176.854 46.1396C178.568 46.1396 179.787 45.1304 180.041 43.7783H178.499C178.27 44.4385 177.705 44.8066 176.956 44.8066C176.105 44.8066 175.496 44.2036 175.496 43.0674C175.496 41.4678 176.353 40.2427 177.565 40.2427C178.321 40.2427 178.911 40.6807 178.962 41.3535H180.479C180.479 41.2583 180.473 41.1567 180.46 41.0679C180.32 39.9189 179.248 38.916 177.673 38.916ZM184.402 46.1396C186.078 46.1396 187.252 45.2891 187.557 44.083H186.001C185.767 44.5591 185.278 44.8574 184.497 44.8574C183.691 44.8574 182.936 44.3369 182.936 43.1372C182.936 43.061 182.942 42.9658 182.948 42.8896H187.849C187.906 42.585 187.95 42.0645 187.95 41.7915C187.944 40.0015 186.7 38.916 185.119 38.916C182.942 38.916 181.418 40.6362 181.418 43.188C181.418 45.0605 182.688 46.1396 184.402 46.1396ZM183.126 41.8232C183.393 40.833 184.11 40.1729 185.037 40.1729C185.932 40.1729 186.427 40.7949 186.427 41.5693C186.427 41.6582 186.42 41.7852 186.414 41.8232H183.126ZM191.6 46.1143C192.508 46.1143 193.263 45.6953 193.746 45.0415H193.86L193.657 46H195.18L197.224 36.3706H195.644L194.812 40.2744H194.698C194.469 39.5063 193.708 38.9414 192.692 38.9414C190.705 38.9414 189.15 40.8076 189.15 43.3657C189.15 45.0669 190.216 46.1143 191.6 46.1143ZM192.248 44.7876C191.397 44.7876 190.788 44.1338 190.788 43.1055C190.788 41.4805 191.74 40.2935 192.946 40.2935C193.834 40.2935 194.425 40.9028 194.425 41.9312C194.425 43.5054 193.473 44.7876 192.248 44.7876ZM203.318 46.0317C203.673 46.0317 203.997 46.0127 204.2 45.9619L204.454 44.7432C204.302 44.7622 204.13 44.7749 203.927 44.7749C203.413 44.7749 203.121 44.5718 203.121 44.1084C203.121 43.9814 203.146 43.8164 203.185 43.626L203.889 40.3569H205.387L205.66 39.1001H204.143L204.518 37.3545H202.931L202.569 39.1001H201.433L201.172 40.3569H202.302L201.528 43.9814C201.483 44.1973 201.458 44.4067 201.458 44.5845C201.458 45.5239 202.213 46.0317 203.318 46.0317ZM205.781 46H207.361L208.25 41.8232C208.447 40.9155 209.094 40.2617 210.015 40.2617C210.814 40.2617 211.284 40.7314 211.284 41.4551C211.284 41.6392 211.252 41.8296 211.214 42.0327L210.37 46H211.951L212.846 41.7725C212.903 41.4805 212.935 41.2075 212.935 40.9536C212.935 39.8428 212.147 38.9287 210.814 38.9287C209.773 38.9287 209.151 39.4429 208.72 40.0967H208.612L209.412 36.4023H207.831L205.781 46ZM217.181 46.1396C218.857 46.1396 220.031 45.2891 220.336 44.083H218.781C218.546 44.5591 218.057 44.8574 217.276 44.8574C216.47 44.8574 215.715 44.3369 215.715 43.1372C215.715 43.061 215.721 42.9658 215.728 42.8896H220.628C220.685 42.585 220.729 42.0645 220.729 41.7915C220.723 40.0015 219.479 38.916 217.898 38.916C215.721 38.916 214.198 40.6362 214.198 43.188C214.198 45.0605 215.467 46.1396 217.181 46.1396ZM215.905 41.8232C216.172 40.833 216.889 40.1729 217.816 40.1729C218.711 40.1729 219.206 40.7949 219.206 41.5693C219.206 41.6582 219.2 41.7852 219.193 41.8232H215.905ZM225.896 41.0996C225.896 42.0137 226.43 42.585 227.521 42.9595L228.601 43.3213C229.172 43.5054 229.369 43.7529 229.369 44.0894C229.369 44.5972 228.829 44.9463 228.029 44.9463C227.274 44.9463 226.747 44.5718 226.62 44.0513H225.078C225.147 45.2954 226.322 46.1396 228.01 46.1396C229.743 46.1396 230.956 45.2383 230.956 43.9243C230.956 43.0229 230.473 42.4644 229.331 42.0835L228.271 41.7217C227.706 41.5312 227.426 41.2964 227.426 40.9409C227.426 40.4585 227.947 40.1157 228.664 40.1157C229.369 40.1157 229.87 40.4268 229.978 40.9219H231.451C231.324 39.7158 230.283 38.916 228.677 38.916C227.045 38.916 225.896 39.7856 225.896 41.0996ZM235.488 46.1396C237.164 46.1396 238.338 45.2891 238.643 44.083H237.087C236.853 44.5591 236.364 44.8574 235.583 44.8574C234.777 44.8574 234.021 44.3369 234.021 43.1372C234.021 43.061 234.028 42.9658 234.034 42.8896H238.935C238.992 42.585 239.036 42.0645 239.036 41.7915C239.03 40.0015 237.786 38.916 236.205 38.916C234.028 38.916 232.504 40.6362 232.504 43.188C232.504 45.0605 233.774 46.1396 235.488 46.1396ZM234.212 41.8232C234.479 40.833 235.196 40.1729 236.123 40.1729C237.018 40.1729 237.513 40.7949 237.513 41.5693C237.513 41.6582 237.506 41.7852 237.5 41.8232H234.212ZM239.861 46H241.442L242.331 41.855C242.527 40.9536 243.168 40.2871 244.076 40.2871C244.87 40.2871 245.314 40.7822 245.314 41.4868C245.314 41.6646 245.289 41.855 245.244 42.0708L244.406 46H245.98L246.875 41.8042C246.933 41.5186 246.964 41.2393 246.964 40.9917C246.964 39.8618 246.177 38.9414 244.87 38.9414C243.86 38.9414 243.188 39.4556 242.75 40.1348H242.635L242.87 39.0557H241.34L239.861 46ZM248.697 41.0996C248.697 42.0137 249.23 42.585 250.322 42.9595L251.401 43.3213C251.973 43.5054 252.169 43.7529 252.169 44.0894C252.169 44.5972 251.63 44.9463 250.83 44.9463C250.075 44.9463 249.548 44.5718 249.421 44.0513H247.878C247.948 45.2954 249.123 46.1396 250.811 46.1396C252.544 46.1396 253.756 45.2383 253.756 43.9243C253.756 43.0229 253.274 42.4644 252.131 42.0835L251.071 41.7217C250.506 41.5312 250.227 41.2964 250.227 40.9409C250.227 40.4585 250.748 40.1157 251.465 40.1157C252.169 40.1157 252.671 40.4268 252.779 40.9219H254.251C254.125 39.7158 253.083 38.916 251.478 38.916C249.846 38.916 248.697 39.7856 248.697 41.0996ZM258.289 46.1396C259.964 46.1396 261.139 45.2891 261.443 44.083H259.888C259.653 44.5591 259.165 44.8574 258.384 44.8574C257.578 44.8574 256.822 44.3369 256.822 43.1372C256.822 43.061 256.829 42.9658 256.835 42.8896H261.735C261.792 42.585 261.837 42.0645 261.837 41.7915C261.831 40.0015 260.586 38.916 259.006 38.916C256.829 38.916 255.305 40.6362 255.305 43.188C255.305 45.0605 256.575 46.1396 258.289 46.1396ZM257.013 41.8232C257.279 40.833 257.997 40.1729 258.923 40.1729C259.818 40.1729 260.313 40.7949 260.313 41.5693C260.313 41.6582 260.307 41.7852 260.301 41.8232H257.013ZM105.443 54.916C103.222 54.916 101.603 56.7061 101.603 59.1626C101.603 60.9399 102.815 62.1396 104.612 62.1396C106.808 62.1396 108.433 60.3306 108.433 57.8931C108.433 56.103 107.233 54.916 105.443 54.916ZM104.732 60.8193C103.837 60.8193 103.253 60.1401 103.253 59.0801C103.253 57.4297 104.129 56.2363 105.342 56.2363C106.243 56.2363 106.776 56.9155 106.776 58.0518C106.776 59.5688 105.856 60.8193 104.732 60.8193ZM109.772 62H111.359L112.553 56.3569H114.044L114.305 55.1001H112.788L112.902 54.5098C113.022 53.9067 113.372 53.6338 113.924 53.6338C114.254 53.6338 114.482 53.6655 114.622 53.7036L114.863 52.5483C114.641 52.4912 114.279 52.4277 113.848 52.4277C112.407 52.4277 111.626 52.9927 111.359 54.3511L111.207 55.1001H110.083L109.823 56.3569H110.959L109.772 62ZM121.979 54.916C119.751 54.916 118.208 56.7505 118.208 59.207C118.208 60.9844 119.364 62.1396 121.16 62.1396C122.874 62.1396 124.093 61.1304 124.347 59.7783H122.804C122.576 60.4385 122.011 60.8066 121.262 60.8066C120.411 60.8066 119.802 60.2036 119.802 59.0674C119.802 57.4678 120.659 56.2427 121.871 56.2427C122.626 56.2427 123.217 56.6807 123.268 57.3535H124.785C124.785 57.2583 124.778 57.1567 124.766 57.0679C124.626 55.9189 123.553 54.916 121.979 54.916ZM129.552 54.916C127.33 54.916 125.711 56.7061 125.711 59.1626C125.711 60.9399 126.924 62.1396 128.72 62.1396C130.917 62.1396 132.542 60.3306 132.542 57.8931C132.542 56.103 131.342 54.916 129.552 54.916ZM128.841 60.8193C127.946 60.8193 127.362 60.1401 127.362 59.0801C127.362 57.4297 128.238 56.2363 129.45 56.2363C130.352 56.2363 130.885 56.9155 130.885 58.0518C130.885 59.5688 129.964 60.8193 128.841 60.8193ZM133.36 62H134.941L135.855 57.7217C136.039 56.8457 136.706 56.2871 137.417 56.2871C138.083 56.2871 138.489 56.7505 138.489 57.3535C138.489 57.5249 138.458 57.7153 138.413 57.9312L137.556 62H139.099L139.994 57.7661C140.19 56.8457 140.851 56.2871 141.568 56.2871C142.234 56.2871 142.634 56.7505 142.634 57.3535C142.634 57.5249 142.609 57.7153 142.564 57.9312L141.701 62H143.282L144.196 57.6836C144.253 57.3916 144.285 57.1187 144.285 56.8647C144.285 55.7603 143.472 54.9414 142.342 54.9414C141.295 54.9414 140.565 55.481 140.108 56.2046H140C139.829 55.5508 139.181 54.9414 138.191 54.9414C137.391 54.9414 136.642 55.4492 136.236 56.1729H136.122L136.363 55.0557H134.833L133.36 62ZM145.116 62H146.697L147.611 57.7217C147.795 56.8457 148.461 56.2871 149.172 56.2871C149.839 56.2871 150.245 56.7505 150.245 57.3535C150.245 57.5249 150.213 57.7153 150.169 57.9312L149.312 62H150.854L151.75 57.7661C151.946 56.8457 152.606 56.2871 153.324 56.2871C153.99 56.2871 154.39 56.7505 154.39 57.3535C154.39 57.5249 154.365 57.7153 154.32 57.9312L153.457 62H155.038L155.952 57.6836C156.009 57.3916 156.041 57.1187 156.041 56.8647C156.041 55.7603 155.228 54.9414 154.098 54.9414C153.051 54.9414 152.321 55.481 151.864 56.2046H151.756C151.584 55.5508 150.937 54.9414 149.947 54.9414C149.147 54.9414 148.398 55.4492 147.992 56.1729H147.877L148.119 55.0557H146.589L145.116 62ZM164.413 55.0557H162.833L161.963 59.1499C161.753 60.1084 161.106 60.7622 160.167 60.7622C159.367 60.7622 158.979 60.3813 158.979 59.6006C158.979 59.4609 159.011 59.1753 159.056 58.9722L159.887 55.0557H158.3L157.424 59.2261C157.367 59.5244 157.329 59.9053 157.329 60.1147C157.329 61.3145 158.167 62.1396 159.437 62.1396C160.433 62.1396 161.125 61.6763 161.531 60.9907H161.639L161.417 62H162.94L164.413 55.0557ZM164.819 62H166.4L167.289 57.855C167.485 56.9536 168.126 56.2871 169.034 56.2871C169.828 56.2871 170.272 56.7822 170.272 57.4868C170.272 57.6646 170.247 57.855 170.202 58.0708L169.364 62H170.938L171.833 57.8042C171.891 57.5186 171.922 57.2393 171.922 56.9917C171.922 55.8618 171.135 54.9414 169.828 54.9414C168.818 54.9414 168.146 55.4556 167.708 56.1348H167.593L167.828 55.0557H166.298L164.819 62ZM175.547 53.9067C176.061 53.9067 176.486 53.4878 176.486 52.9609C176.486 52.4341 176.061 52.0088 175.547 52.0088C175.033 52.0088 174.607 52.4341 174.607 52.9609C174.607 53.4878 175.033 53.9067 175.547 53.9067ZM172.855 62H174.43L175.902 55.0557H174.328L172.855 62ZM179.133 62.0317C179.489 62.0317 179.812 62.0127 180.016 61.9619L180.27 60.7432C180.117 60.7622 179.946 60.7749 179.743 60.7749C179.229 60.7749 178.937 60.5718 178.937 60.1084C178.937 59.9814 178.962 59.8164 179 59.626L179.705 56.3569H181.203L181.476 55.1001H179.958L180.333 53.3545H178.746L178.384 55.1001H177.248L176.988 56.3569H178.118L177.343 59.9814C177.299 60.1973 177.273 60.4067 177.273 60.5845C177.273 61.5239 178.029 62.0317 179.133 62.0317ZM181.933 64.5327C183.297 64.5327 184.135 64.0312 185.005 62.438L189.131 55.0557H187.436L184.713 60.356H184.599L184.046 55.0557H182.453L183.437 61.9937L183.259 62.3364C182.917 63.0093 182.491 63.2505 181.933 63.2505C181.742 63.2505 181.45 63.2188 181.361 63.1997L181.101 64.4692C181.184 64.4883 181.71 64.5327 181.933 64.5327ZM194.622 62.1143C195.447 62.1143 196.208 61.7334 196.634 61.124H196.748L196.558 62H198.087L199.046 57.4868C199.078 57.3154 199.103 57.106 199.103 56.9219C199.103 55.7158 198.018 54.916 196.386 54.916C194.863 54.916 193.714 55.6841 193.409 56.9092H194.945C195.136 56.4521 195.605 56.1982 196.266 56.1982C197.059 56.1982 197.542 56.541 197.542 57.0996C197.542 57.1821 197.529 57.252 197.503 57.3789L197.408 57.8232L195.593 57.8931C193.65 57.9629 192.54 58.8135 192.54 60.21C192.54 61.2891 193.435 62.1143 194.622 62.1143ZM195.244 60.8828C194.571 60.8828 194.101 60.5146 194.101 59.9941C194.101 59.3911 194.66 58.9912 195.605 58.9531L197.186 58.8833L197.04 59.5562C196.869 60.3242 196.12 60.8828 195.244 60.8828ZM199.909 62H201.49L202.378 57.855C202.575 56.9536 203.216 56.2871 204.124 56.2871C204.917 56.2871 205.362 56.7822 205.362 57.4868C205.362 57.6646 205.336 57.855 205.292 58.0708L204.454 62H206.028L206.923 57.8042C206.98 57.5186 207.012 57.2393 207.012 56.9917C207.012 55.8618 206.225 54.9414 204.917 54.9414C203.908 54.9414 203.235 55.4556 202.797 56.1348H202.683L202.918 55.0557H201.388L199.909 62ZM210.694 62.1143C211.602 62.1143 212.357 61.6953 212.839 61.0415H212.954L212.75 62H214.274L216.318 52.3706H214.737L213.906 56.2744H213.792C213.563 55.5063 212.801 54.9414 211.786 54.9414C209.799 54.9414 208.244 56.8076 208.244 59.3657C208.244 61.0669 209.31 62.1143 210.694 62.1143ZM211.341 60.7876C210.491 60.7876 209.881 60.1338 209.881 59.1055C209.881 57.4805 210.833 56.2935 212.04 56.2935C212.928 56.2935 213.519 56.9028 213.519 57.9312C213.519 59.5054 212.566 60.7876 211.341 60.7876ZM103.939 78.0317C104.294 78.0317 104.618 78.0127 104.821 77.9619L105.075 76.7432C104.923 76.7622 104.751 76.7749 104.548 76.7749C104.034 76.7749 103.742 76.5718 103.742 76.1084C103.742 75.9814 103.768 75.8164 103.806 75.626L104.51 72.3569H106.008L106.281 71.1001H104.764L105.139 69.3545H103.552L103.19 71.1001H102.054L101.793 72.3569H102.923L102.149 75.9814C102.104 76.1973 102.079 76.4067 102.079 76.5845C102.079 77.5239 102.834 78.0317 103.939 78.0317ZM110.496 70.916C108.274 70.916 106.656 72.7061 106.656 75.1626C106.656 76.9399 107.868 78.1396 109.665 78.1396C111.861 78.1396 113.486 76.3306 113.486 73.8931C113.486 72.103 112.286 70.916 110.496 70.916ZM109.785 76.8193C108.89 76.8193 108.306 76.1401 108.306 75.0801C108.306 73.4297 109.182 72.2363 110.395 72.2363C111.296 72.2363 111.829 72.9155 111.829 74.0518C111.829 75.5688 110.909 76.8193 109.785 76.8193ZM117.104 80.6406C119.008 80.6406 120.278 79.7456 120.583 78.2983L122.138 71.0557H120.608L120.341 72.2935H120.233C119.967 71.4873 119.116 70.9414 118.151 70.9414C116.209 70.9414 114.705 72.7505 114.705 75.2007C114.705 76.8003 115.758 77.873 117.155 77.873C118.031 77.873 118.748 77.5366 119.218 76.8765H119.326L119.04 78.127C118.856 78.9204 118.278 79.4409 117.212 79.4409C116.304 79.4409 115.746 79.0664 115.682 78.5776H114.089C114.114 79.7266 115.327 80.6406 117.104 80.6406ZM117.783 76.6543C116.895 76.6543 116.33 76.0259 116.33 74.9849C116.33 73.3853 117.218 72.2935 118.405 72.2935C119.326 72.2935 119.91 72.9346 119.91 73.9312C119.91 75.5117 118.983 76.6543 117.783 76.6543ZM125.94 78.1396C127.616 78.1396 128.79 77.2891 129.095 76.083H127.54C127.305 76.5591 126.816 76.8574 126.035 76.8574C125.229 76.8574 124.474 76.3369 124.474 75.1372C124.474 75.061 124.48 74.9658 124.486 74.8896H129.387C129.444 74.585 129.488 74.0645 129.488 73.7915C129.482 72.0015 128.238 70.916 126.657 70.916C124.48 70.916 122.957 72.6362 122.957 75.188C122.957 77.0605 124.226 78.1396 125.94 78.1396ZM124.664 73.8232C124.931 72.833 125.648 72.1729 126.575 72.1729C127.47 72.1729 127.965 72.7949 127.965 73.5693C127.965 73.6582 127.958 73.7852 127.952 73.8232H124.664ZM133.049 78.0317C133.405 78.0317 133.729 78.0127 133.932 77.9619L134.186 76.7432C134.033 76.7622 133.862 76.7749 133.659 76.7749C133.145 76.7749 132.853 76.5718 132.853 76.1084C132.853 75.9814 132.878 75.8164 132.916 75.626L133.621 72.3569H135.119L135.392 71.1001H133.875L134.249 69.3545H132.662L132.3 71.1001H131.164L130.904 72.3569H132.034L131.259 75.9814C131.215 76.1973 131.189 76.4067 131.189 76.5845C131.189 77.5239 131.945 78.0317 133.049 78.0317ZM135.512 78H137.093L137.981 73.8232C138.178 72.9155 138.826 72.2617 139.746 72.2617C140.546 72.2617 141.016 72.7314 141.016 73.4551C141.016 73.6392 140.984 73.8296 140.946 74.0327L140.102 78H141.682L142.577 73.7725C142.634 73.4805 142.666 73.2075 142.666 72.9536C142.666 71.8428 141.879 70.9287 140.546 70.9287C139.505 70.9287 138.883 71.4429 138.451 72.0967H138.343L139.143 68.4023H137.562L135.512 78ZM146.913 78.1396C148.588 78.1396 149.763 77.2891 150.067 76.083H148.512C148.277 76.5591 147.789 76.8574 147.008 76.8574C146.202 76.8574 145.446 76.3369 145.446 75.1372C145.446 75.061 145.453 74.9658 145.459 74.8896H150.359C150.417 74.585 150.461 74.0645 150.461 73.7915C150.455 72.0015 149.21 70.916 147.63 70.916C145.453 70.916 143.929 72.6362 143.929 75.188C143.929 77.0605 145.199 78.1396 146.913 78.1396ZM145.637 73.8232C145.903 72.833 146.621 72.1729 147.547 72.1729C148.442 72.1729 148.938 72.7949 148.938 73.5693C148.938 73.6582 148.931 73.7852 148.925 73.8232H145.637ZM151.254 78H152.835L153.673 74.0708C153.92 72.9346 154.511 72.3823 155.501 72.3823C155.793 72.3823 156.237 72.4458 156.491 72.5347L156.809 71.0684C156.625 70.9922 156.282 70.9414 155.952 70.9414C155.177 70.9414 154.581 71.2969 154.174 71.9824H154.066L154.257 71.0557H152.727L151.254 78ZM156.783 78H158.364L159.252 73.855C159.449 72.9536 160.09 72.2871 160.998 72.2871C161.792 72.2871 162.236 72.7822 162.236 73.4868C162.236 73.6646 162.21 73.855 162.166 74.0708L161.328 78H162.902L163.797 73.8042C163.854 73.5186 163.886 73.2393 163.886 72.9917C163.886 71.8618 163.099 70.9414 161.792 70.9414C160.782 70.9414 160.109 71.4556 159.671 72.1348H159.557L159.792 71.0557H158.262L156.783 78ZM168.139 78.1396C169.815 78.1396 170.989 77.2891 171.294 76.083H169.739C169.504 76.5591 169.015 76.8574 168.234 76.8574C167.428 76.8574 166.673 76.3369 166.673 75.1372C166.673 75.061 166.679 74.9658 166.686 74.8896H171.586C171.643 74.585 171.688 74.0645 171.688 73.7915C171.681 72.0015 170.437 70.916 168.856 70.916C166.679 70.916 165.156 72.6362 165.156 75.188C165.156 77.0605 166.425 78.1396 168.139 78.1396ZM166.863 73.8232C167.13 72.833 167.847 72.1729 168.774 72.1729C169.669 72.1729 170.164 72.7949 170.164 73.5693C170.164 73.6582 170.158 73.7852 170.151 73.8232H166.863ZM173.389 73.0996C173.389 74.0137 173.922 74.585 175.014 74.9595L176.093 75.3213C176.664 75.5054 176.861 75.7529 176.861 76.0894C176.861 76.5972 176.321 76.9463 175.521 76.9463C174.766 76.9463 174.239 76.5718 174.112 76.0513H172.57C172.64 77.2954 173.814 78.1396 175.502 78.1396C177.235 78.1396 178.448 77.2383 178.448 75.9243C178.448 75.0229 177.965 74.4644 176.823 74.0835L175.763 73.7217C175.198 73.5312 174.918 73.2964 174.918 72.9409C174.918 72.4585 175.439 72.1157 176.156 72.1157C176.861 72.1157 177.362 72.4268 177.47 72.9219H178.943C178.816 71.7158 177.775 70.916 176.169 70.916C174.538 70.916 173.389 71.7856 173.389 73.0996ZM180.371 73.0996C180.371 74.0137 180.904 74.585 181.996 74.9595L183.075 75.3213C183.646 75.5054 183.843 75.7529 183.843 76.0894C183.843 76.5972 183.304 76.9463 182.504 76.9463C181.749 76.9463 181.222 76.5718 181.095 76.0513H179.552C179.622 77.2954 180.796 78.1396 182.485 78.1396C184.218 78.1396 185.43 77.2383 185.43 75.9243C185.43 75.0229 184.948 74.4644 183.805 74.0835L182.745 73.7217C182.18 73.5312 181.901 73.2964 181.901 72.9409C181.901 72.4585 182.421 72.1157 183.139 72.1157C183.843 72.1157 184.345 72.4268 184.453 72.9219H185.925C185.798 71.7158 184.757 70.916 183.151 70.916C181.52 70.916 180.371 71.7856 180.371 73.0996ZM192.8 69.9067C193.314 69.9067 193.739 69.4878 193.739 68.9609C193.739 68.4341 193.314 68.0088 192.8 68.0088C192.286 68.0088 191.86 68.4341 191.86 68.9609C191.86 69.4878 192.286 69.9067 192.8 69.9067ZM190.108 78H191.683L193.155 71.0557H191.581L190.108 78ZM193.65 78H195.231L196.12 73.855C196.316 72.9536 196.958 72.2871 197.865 72.2871C198.659 72.2871 199.103 72.7822 199.103 73.4868C199.103 73.6646 199.078 73.855 199.033 74.0708L198.195 78H199.77L200.665 73.8042C200.722 73.5186 200.753 73.2393 200.753 72.9917C200.753 71.8618 199.966 70.9414 198.659 70.9414C197.649 70.9414 196.977 71.4556 196.539 72.1348H196.424L196.659 71.0557H195.129L193.65 78ZM205.076 78H206.657L207.571 73.7217C207.755 72.8457 208.421 72.2871 209.132 72.2871C209.799 72.2871 210.205 72.7505 210.205 73.3535C210.205 73.5249 210.173 73.7153 210.129 73.9312L209.272 78H210.814L211.709 73.7661C211.906 72.8457 212.566 72.2871 213.284 72.2871C213.95 72.2871 214.35 72.7505 214.35 73.3535C214.35 73.5249 214.325 73.7153 214.28 73.9312L213.417 78H214.998L215.912 73.6836C215.969 73.3916 216 73.1187 216 72.8647C216 71.7603 215.188 70.9414 214.058 70.9414C213.011 70.9414 212.281 71.481 211.824 72.2046H211.716C211.544 71.5508 210.897 70.9414 209.907 70.9414C209.107 70.9414 208.358 71.4492 207.952 72.1729H207.837L208.079 71.0557H206.549L205.076 78ZM216.972 80.5327C218.336 80.5327 219.174 80.0312 220.044 78.438L224.17 71.0557H222.475L219.752 76.356H219.638L219.085 71.0557H217.492L218.476 77.9937L218.298 78.3364C217.956 79.0093 217.53 79.2505 216.972 79.2505C216.781 79.2505 216.489 79.2188 216.4 79.1997L216.14 80.4692C216.223 80.4883 216.75 80.5327 216.972 80.5327ZM101.203 94H102.784L103.672 89.855C103.869 88.9536 104.51 88.2871 105.418 88.2871C106.211 88.2871 106.656 88.7822 106.656 89.4868C106.656 89.6646 106.63 89.855 106.586 90.0708L105.748 94H107.322L108.217 89.8042C108.274 89.5186 108.306 89.2393 108.306 88.9917C108.306 87.8618 107.519 86.9414 106.211 86.9414C105.202 86.9414 104.529 87.4556 104.091 88.1348H103.977L104.212 87.0557H102.682L101.203 94ZM112.559 94.1396C114.235 94.1396 115.409 93.2891 115.714 92.083H114.159C113.924 92.5591 113.435 92.8574 112.654 92.8574C111.848 92.8574 111.093 92.3369 111.093 91.1372C111.093 91.061 111.099 90.9658 111.105 90.8896H116.006C116.063 90.585 116.107 90.0645 116.107 89.7915C116.101 88.0015 114.857 86.916 113.276 86.916C111.099 86.916 109.576 88.6362 109.576 91.188C109.576 93.0605 110.845 94.1396 112.559 94.1396ZM111.283 89.8232C111.55 88.833 112.267 88.1729 113.194 88.1729C114.089 88.1729 114.584 88.7949 114.584 89.5693C114.584 89.6582 114.578 89.7852 114.571 89.8232H111.283ZM119.7 85.9067C120.214 85.9067 120.64 85.4878 120.64 84.9609C120.64 84.4341 120.214 84.0088 119.7 84.0088C119.186 84.0088 118.761 84.4341 118.761 84.9609C118.761 85.4878 119.186 85.9067 119.7 85.9067ZM117.009 94H118.583L120.056 87.0557H118.481L117.009 94ZM123.35 96.6406C125.254 96.6406 126.524 95.7456 126.829 94.2983L128.384 87.0557H126.854L126.587 88.2935H126.479C126.213 87.4873 125.362 86.9414 124.397 86.9414C122.455 86.9414 120.951 88.7505 120.951 91.2007C120.951 92.8003 122.004 93.873 123.401 93.873C124.277 93.873 124.994 93.5366 125.464 92.8765H125.572L125.286 94.127C125.102 94.9204 124.524 95.4409 123.458 95.4409C122.55 95.4409 121.992 95.0664 121.928 94.5776H120.335C120.36 95.7266 121.573 96.6406 123.35 96.6406ZM124.029 92.6543C123.141 92.6543 122.576 92.0259 122.576 90.9849C122.576 89.3853 123.464 88.2935 124.651 88.2935C125.572 88.2935 126.156 88.9346 126.156 89.9312C126.156 91.5117 125.229 92.6543 124.029 92.6543ZM128.847 94H130.428L131.316 89.8232C131.513 88.9155 132.161 88.2617 133.081 88.2617C133.881 88.2617 134.351 88.7314 134.351 89.4551C134.351 89.6392 134.319 89.8296 134.281 90.0327L133.437 94H135.017L135.912 89.7725C135.969 89.4805 136.001 89.2075 136.001 88.9536C136.001 87.8428 135.214 86.9287 133.881 86.9287C132.84 86.9287 132.218 87.4429 131.786 88.0967H131.678L132.478 84.4023H130.897L128.847 94ZM140.901 94.1143C142.869 94.1143 144.399 92.1782 144.399 89.6074C144.399 88.0142 143.383 86.9414 141.993 86.9414C141.06 86.9414 140.349 87.3286 139.873 88.0142L139.759 88.0205L140.527 84.3706H138.953L136.909 94H138.432L138.705 92.7368H138.813C139.067 93.5493 139.937 94.1143 140.901 94.1143ZM140.616 92.7559C139.733 92.7559 139.137 92.1528 139.137 91.1182C139.137 89.5503 140.108 88.2681 141.333 88.2681C142.203 88.2681 142.761 88.8394 142.761 89.8677C142.761 91.5181 141.828 92.7559 140.616 92.7559ZM149.42 86.916C147.198 86.916 145.58 88.7061 145.58 91.1626C145.58 92.9399 146.792 94.1396 148.588 94.1396C150.785 94.1396 152.41 92.3306 152.41 89.8931C152.41 88.103 151.21 86.916 149.42 86.916ZM148.709 92.8193C147.814 92.8193 147.23 92.1401 147.23 91.0801C147.23 89.4297 148.106 88.2363 149.318 88.2363C150.22 88.2363 150.753 88.9155 150.753 90.0518C150.753 91.5688 149.833 92.8193 148.709 92.8193ZM153.197 94H154.777L155.615 90.0708C155.863 88.9346 156.453 88.3823 157.443 88.3823C157.735 88.3823 158.18 88.4458 158.434 88.5347L158.751 87.0684C158.567 86.9922 158.224 86.9414 157.894 86.9414C157.12 86.9414 156.523 87.2969 156.117 87.9824H156.009L156.199 87.0557H154.669L153.197 94ZM158.783 94H160.363L161.252 89.8232C161.449 88.9155 162.096 88.2617 163.017 88.2617C163.816 88.2617 164.286 88.7314 164.286 89.4551C164.286 89.6392 164.254 89.8296 164.216 90.0327L163.372 94H164.953L165.848 89.7725C165.905 89.4805 165.937 89.2075 165.937 88.9536C165.937 87.8428 165.149 86.9287 163.816 86.9287C162.775 86.9287 162.153 87.4429 161.722 88.0967H161.614L162.414 84.4023H160.833L158.783 94ZM171.027 86.916C168.806 86.916 167.187 88.7061 167.187 91.1626C167.187 92.9399 168.399 94.1396 170.196 94.1396C172.392 94.1396 174.017 92.3306 174.017 89.8931C174.017 88.103 172.817 86.916 171.027 86.916ZM170.316 92.8193C169.421 92.8193 168.837 92.1401 168.837 91.0801C168.837 89.4297 169.713 88.2363 170.926 88.2363C171.827 88.2363 172.36 88.9155 172.36 90.0518C172.36 91.5688 171.44 92.8193 170.316 92.8193ZM179.076 86.916C176.854 86.916 175.236 88.7061 175.236 91.1626C175.236 92.9399 176.448 94.1396 178.245 94.1396C180.441 94.1396 182.066 92.3306 182.066 89.8931C182.066 88.103 180.866 86.916 179.076 86.916ZM178.365 92.8193C177.47 92.8193 176.886 92.1401 176.886 91.0801C176.886 89.4297 177.762 88.2363 178.975 88.2363C179.876 88.2363 180.409 88.9155 180.409 90.0518C180.409 91.5688 179.489 92.8193 178.365 92.8193ZM185.709 94.1143C186.617 94.1143 187.373 93.6953 187.855 93.0415H187.969L187.766 94H189.29L191.333 84.3706H189.753L188.921 88.2744H188.807C188.579 87.5063 187.817 86.9414 186.801 86.9414C184.814 86.9414 183.259 88.8076 183.259 91.3657C183.259 93.0669 184.326 94.1143 185.709 94.1143ZM186.357 92.7876C185.506 92.7876 184.897 92.1338 184.897 91.1055C184.897 89.4805 185.849 88.2935 187.055 88.2935C187.944 88.2935 188.534 88.9028 188.534 89.9312C188.534 91.5054 187.582 92.7876 186.357 92.7876Z" fill="#E3DFDD"/>
<path d="M30.7325 57.4135C30.5773 56.3107 29.5047 52.7971 29.209 52.4234C28.9662 52.1164 28.121 51.9679 28.121 52.2322C28.121 52.3028 28.2907 52.6966 28.4982 53.1075C28.7056 53.5182 28.8971 53.9594 28.9238 54.0877C29.0609 54.747 29.7057 56.3839 30.0048 56.8319C30.1922 57.1127 30.3456 57.529 30.3456 57.7572C30.3456 57.9854 30.4567 58.1721 30.5924 58.1721C30.7444 58.1721 30.7982 57.8808 30.7325 57.4135V57.4135ZM31.7465 60.534C31.5266 59.7487 31.2599 59.1061 31.1538 59.1059C31.0478 59.1058 31.0139 59.3419 31.0785 59.6307C31.1431 59.9195 31.247 60.3803 31.3093 60.6545C31.4365 61.2145 31.9571 62.1605 32.0718 62.0401C32.1129 61.997 31.9666 61.3193 31.7466 60.534H31.7465ZM39.0752 74.4509C39.0053 74.1621 38.8142 73.7074 38.6503 73.4404C38.4865 73.1734 38.4052 72.8996 38.4698 72.8318C38.5344 72.7641 38.4346 72.5758 38.2481 72.4135C38.0616 72.2511 37.9091 71.9785 37.9091 71.8077C37.9091 71.2566 37.4012 70.3083 37.1061 70.3083C36.8738 70.3083 36.8752 70.4519 37.1129 71.0668C37.2746 71.484 37.5346 72.3977 37.6906 73.0974C38.0039 74.5026 38.2797 74.9539 38.8331 74.9672C39.1057 74.9731 39.1685 74.8395 39.0746 74.4509H39.0752ZM36.0246 79.8839C35.9019 78.8663 35.6826 78.2435 35.4471 78.2435C35.1464 78.2435 35.1918 78.7667 35.5763 79.732C35.9851 80.7585 36.1364 80.8097 36.0246 79.8839ZM34.7378 82.0293C34.0869 80.5737 33.015 77.5291 33.015 77.1356C33.015 76.981 32.8152 76.5106 32.571 76.0903C32.3267 75.67 32.1265 75.0984 32.1261 74.8201C32.1238 74.0621 31.8939 73.5757 31.5352 73.5757C31.2896 73.5757 31.2469 73.779 31.3515 74.4509C31.5479 75.7119 31.6709 76.4134 31.8118 77.0766C31.88 77.3975 31.9358 78.1327 31.9359 78.7103C31.936 80.0923 32.5133 81.9293 32.9811 82.0365C33.695 82.2 34.8121 82.1955 34.7378 82.0282V82.0293ZM34.9528 85.4906C34.9207 84.6962 34.8018 84.3038 34.5722 84.2334C34.3887 84.1771 34.0634 84.0555 33.8493 83.963C33.551 83.8342 33.4599 83.9099 33.4599 84.2866C33.4599 84.5571 33.566 84.7784 33.6955 84.7784C33.8251 84.7784 33.8743 84.8749 33.8047 84.993C33.7352 85.111 33.8365 85.3735 34.0299 85.5764C34.2234 85.7793 34.3121 85.9453 34.2272 85.9453C34.1424 85.9453 34.1974 86.1029 34.3498 86.2954C34.8322 86.9052 35.0012 86.6797 34.9529 85.4906H34.9528ZM45.1161 87.8512C45.4218 87.3322 44.291 85.7842 42.9142 84.8367C41.1641 83.6325 40.921 83.599 41.1095 84.588C41.2812 85.4887 41.837 86.1787 42.3908 86.1787C42.6155 86.1787 42.9244 86.3888 43.0772 86.6455C43.23 86.9022 43.4695 87.1123 43.6093 87.1123C43.7491 87.1123 43.9159 87.3223 43.9799 87.5791C44.0961 88.0452 44.8898 88.2353 45.1161 87.8512V87.8512ZM38.6821 87.1788C38.3564 86.3612 38.0111 85.957 37.631 85.9489C37.401 85.9441 37.4066 85.966 37.9143 87.0684C38.1618 87.606 38.5136 88.0458 38.6959 88.0458C38.9871 88.0458 38.9854 87.9404 38.6821 87.1788V87.1788ZM58.3229 90.5657C58.215 90.2257 55.9281 88.9525 55.9281 89.2323C55.9281 89.3408 56.1533 89.5542 56.4286 89.7063C56.7039 89.8584 56.9792 90.0459 57.0403 90.1229C57.2077 90.3338 58.0156 90.8171 58.2268 90.8328C58.3287 90.8399 58.372 90.72 58.3229 90.5657ZM34.1224 90.555C34.1201 90.3945 33.9109 90.0007 33.6585 89.6798L33.1996 89.0963L33.3267 89.6798C33.3966 90.0007 33.4552 90.3945 33.4569 90.555C33.4592 90.7155 33.6101 90.8467 33.7936 90.8467C33.9772 90.8467 34.1251 90.7155 34.1224 90.555V90.555ZM48.587 93.0545C48.587 92.909 47.7118 91.5859 47.3237 91.1448C47.1795 90.9808 46.8947 90.8467 46.6907 90.8467C46.4867 90.8467 46.0541 90.6592 45.7294 90.4299C44.8147 89.7842 43.9284 89.355 43.7962 89.4937C43.5893 89.7108 44.1941 90.8467 44.5166 90.8467C44.6855 90.8467 45.0387 91.0568 45.3014 91.3135C45.564 91.5702 45.9102 91.7803 46.0707 91.7803C46.2311 91.7803 46.3624 91.8853 46.3624 92.0137C46.3624 92.142 46.4876 92.2494 46.6405 92.2522C46.7934 92.2546 47.1688 92.4628 47.4747 92.7138C48.0033 93.1477 48.587 93.3264 48.587 93.0545V93.0545ZM35.3469 92.6555C35.0501 91.9816 34.6543 91.3962 34.4673 91.3548C34.0096 91.2533 34.0347 91.3778 34.6804 92.4117C35.8362 94.2626 36.0966 94.3579 35.3469 92.6555ZM41.0235 94.8144C41.0235 94.686 40.9235 94.581 40.801 94.581C40.6787 94.581 40.5786 94.6859 40.5786 94.8144C40.5786 94.9427 40.6786 95.0477 40.801 95.0477C40.9234 95.0477 41.0235 94.9428 41.0235 94.8144ZM57.2628 98.1873C57.2628 98.0037 56.0736 96.931 55.8602 96.9222C55.7618 96.9186 55.0915 96.4948 54.3709 95.9813C52.8196 94.8761 52.2524 94.7679 53.1473 95.7479C53.499 96.133 53.9599 96.4481 54.1715 96.4481C54.3831 96.4481 54.5896 96.5322 54.6304 96.6351C54.8521 97.1945 57.2628 98.6159 57.2628 98.1873V98.1873ZM61.9025 98.2896C61.4227 97.9706 61.1873 98.0499 61.4874 98.4293C61.6386 98.6204 61.8618 98.7124 61.9834 98.6335C62.1176 98.5464 62.0859 98.4115 61.9025 98.2896H61.9025ZM36.4631 98.5486C36.3875 98.4202 36.2815 98.3152 36.2275 98.3152C36.1736 98.3152 36.1295 98.4203 36.1295 98.5486C36.1295 98.677 36.2355 98.782 36.365 98.782C36.4946 98.782 36.5387 98.677 36.4632 98.5486H36.4631ZM74.6144 99.602C74.6144 99.4181 73.0401 98.782 72.5851 98.782C72.3553 98.782 72.1674 98.677 72.1674 98.5486C72.1674 98.4202 71.9157 98.3152 71.6082 98.3152C71.0937 98.3152 70.209 97.9298 69.9428 97.5896C69.8818 97.5115 69.4312 97.3057 68.9418 97.1325C68.4524 96.9592 67.9518 96.7435 67.8295 96.653C67.7071 96.5625 66.8062 96.0451 65.8273 95.5032C64.1549 94.5774 62.3601 93.2869 62.1939 92.8907C62.1531 92.7935 61.9779 92.7139 61.8046 92.7139C61.6313 92.7139 61.3103 92.5301 61.0913 92.3054C60.5973 91.7986 58.7951 90.7951 58.6508 90.9465C58.5054 91.099 59.1761 91.7803 59.4715 91.7803C59.6026 91.7803 59.7098 91.8907 59.7098 92.0256C59.7098 92.1605 60.063 92.4258 60.4948 92.615C60.9265 92.8043 61.4952 93.219 61.7584 93.5367C62.0217 93.8543 62.3235 94.1142 62.4291 94.1142C62.5347 94.1142 62.8921 94.3779 63.2232 94.7002C63.5543 95.0226 64.0255 95.3519 64.2702 95.432C64.5149 95.5121 64.9549 95.8784 65.2479 96.2462C65.5409 96.614 65.9677 96.9149 66.1963 96.9149C66.6627 96.9149 67.3646 97.2955 68.0286 97.9084C68.5475 98.3874 69.7644 98.7788 70.74 98.7807C71.1172 98.7807 71.4974 98.8571 71.5849 98.9489C72.0271 99.4128 74.6144 99.9705 74.6144 99.602V99.602ZM77.0614 100.416C77.0614 100.287 76.8694 100.182 76.6347 100.182C76.4 100.182 76.0246 100.11 75.8005 100.022C75.4418 99.8807 75.4295 99.9087 75.6982 100.255C76.0266 100.679 77.0613 100.801 77.0613 100.416H77.0614ZM37.8091 100.363C37.4854 99.5504 36.7929 98.9904 36.8008 99.5479C36.8054 99.8503 37.9413 101.393 38.0646 101.264C38.1047 101.222 37.9896 100.817 37.8091 100.363ZM230.334 102.283C230.334 102.154 230.184 102.049 230 102.049C229.817 102.049 229.666 102.154 229.666 102.283C229.666 102.411 229.817 102.516 230 102.516C230.184 102.516 230.334 102.411 230.334 102.283ZM229.263 102.59C229.103 102.523 228.911 102.531 228.837 102.609C228.763 102.686 228.894 102.741 229.129 102.731C229.388 102.721 229.441 102.665 229.263 102.59V102.59ZM38.6877 102.75C38.612 102.621 38.506 102.516 38.4521 102.516C38.3981 102.516 38.354 102.621 38.354 102.75C38.354 102.878 38.46 102.983 38.5896 102.983C38.7192 102.983 38.7633 102.878 38.6878 102.75H38.6877ZM51.8728 103.173C51.8244 103.02 51.6659 102.854 51.5205 102.803C51.3579 102.746 51.3082 102.853 51.3913 103.08C51.5465 103.504 52.0063 103.593 51.8728 103.173V103.173ZM60.0435 107.417C59.9678 107.289 59.8118 107.184 59.6967 107.184C59.5815 107.184 59.4873 107.289 59.4873 107.417C59.4873 107.546 59.6434 107.651 59.8342 107.651C60.0249 107.651 60.1191 107.546 60.0435 107.417ZM107.149 108.196C106.996 108.132 106.745 108.132 106.592 108.196C106.44 108.261 106.565 108.314 106.871 108.314C107.176 108.314 107.302 108.261 107.149 108.196ZM216.542 108.227C216.97 108.149 217.52 108.004 217.765 107.903C218.01 107.803 218.56 107.592 218.989 107.434C222.749 106.05 223.659 105.58 221.992 105.884C220.148 106.219 216.636 107.403 215.318 108.134C214.5 108.587 214.482 108.617 215.096 108.498C215.463 108.426 216.113 108.305 216.542 108.227V108.227ZM54.8158 108.846C54.8158 108.552 54.1628 108.025 54.0043 108.191C53.7765 108.43 54.1164 109.051 54.4751 109.051C54.6625 109.051 54.8158 108.959 54.8158 108.846ZM100.832 108.711C100.544 108.396 100.277 108.232 100.239 108.346C100.201 108.46 99.7503 108.393 99.2378 108.197C98.7253 108.002 97.8555 107.81 97.305 107.771C96.0426 107.684 95.0804 107.424 95.0804 107.172C95.0804 106.836 95.5334 106.668 95.8131 106.9C96.1404 107.172 98.1948 107.426 98.1948 107.194C98.1948 107.103 97.6692 106.915 97.0269 106.776C96.3845 106.637 95.4586 106.402 94.9692 106.254C94.4798 106.106 93.8291 105.931 93.5232 105.867C93.2173 105.802 92.7668 105.655 92.5221 105.541C92.2774 105.426 91.5767 105.236 90.9649 105.116C89.2563 104.783 86.4535 104.182 84.8155 103.797C84.0027 103.606 83.159 103.45 82.9405 103.45C82.722 103.45 82.2357 103.353 81.86 103.234C81.4843 103.116 80.6763 102.911 80.0646 102.78C77.4356 102.216 77.4973 102.22 77.6416 102.614C77.7158 102.817 77.9492 102.983 78.1604 102.983C78.3716 102.983 78.6108 103.053 78.6919 103.138C78.773 103.223 79.1616 103.329 79.5554 103.375C79.9493 103.42 80.3701 103.56 80.4906 103.687C80.6111 103.813 80.9777 103.917 81.3053 103.917C81.6329 103.917 82.0191 104.066 82.1634 104.248C82.3078 104.431 82.8276 104.651 83.3185 104.738C83.8094 104.825 84.258 105.025 84.3155 105.182C84.3729 105.339 84.7413 105.482 85.1342 105.5C87.8712 105.623 92.4125 105.993 92.967 106.137C93.7632 106.345 94.4541 106.925 94.2722 107.234C94.2006 107.356 93.9027 107.392 93.6101 107.315C93.3099 107.236 93.0783 107.279 93.0783 107.413C93.0783 107.544 93.3285 107.651 93.6344 107.651C93.9403 107.651 94.1905 107.756 94.1905 107.884C94.1905 108.02 94.9173 108.118 95.9258 108.118C97.5563 108.118 98.8565 108.461 98.8604 108.892C98.8604 108.997 99.0373 109.025 99.2514 108.954C99.4655 108.883 99.9411 108.919 100.308 109.035C101.341 109.359 101.394 109.326 100.832 108.711V108.711ZM103.979 109.285C103.795 109.16 103.144 109.064 102.533 109.071C101.708 109.081 101.536 109.136 101.865 109.285C102.512 109.576 104.408 109.576 103.979 109.285ZM109.469 109.388C109.706 108.85 109.678 108.773 109.173 108.571C108.844 108.44 108.471 108.433 108.263 108.555C107.959 108.734 107.976 108.798 108.392 109.031C108.656 109.18 108.873 109.455 108.873 109.643C108.873 110.174 109.179 110.043 109.469 109.388V109.388ZM170.009 110.219C170.905 110.09 172.488 109.985 173.527 109.985C174.566 109.985 175.597 109.883 175.819 109.759C176.04 109.635 178.711 109.485 181.755 109.427C186.915 109.328 188.002 109.235 191.515 108.592C192.249 108.458 193.601 108.24 194.518 108.109C195.436 107.978 196.888 107.766 197.744 107.637C198.6 107.508 200.119 107.327 201.119 107.235C202.118 107.143 203.01 106.99 203.1 106.894C203.191 106.799 203.406 106.845 203.58 106.996C203.79 107.179 203.945 107.191 204.045 107.032C204.226 106.744 204.965 106.516 206.309 106.336C206.859 106.262 207.405 106.107 207.521 105.992C207.637 105.878 207.988 105.779 208.3 105.774C208.988 105.761 210.897 105.249 211.118 105.017C211.205 104.925 211.556 104.85 211.897 104.85C212.487 104.85 212.854 104.729 214.467 103.998C214.856 103.822 215.657 103.582 216.247 103.464C216.837 103.347 217.771 103.101 218.321 102.917C218.872 102.734 219.723 102.464 220.212 102.318C220.701 102.172 222.041 101.737 223.189 101.351C224.337 100.965 225.413 100.649 225.58 100.649C225.748 100.649 225.885 100.544 225.885 100.416C225.885 100.288 226.11 100.178 226.385 100.172C227.023 100.159 228.927 99.6356 229.137 99.4159C229.224 99.324 229.523 99.249 229.802 99.249C230.08 99.249 230.369 99.1439 230.445 99.0156C230.521 98.8872 230.778 98.7822 231.017 98.7822C231.257 98.7822 231.626 98.6809 231.838 98.5569C232.495 98.174 236.256 96.9151 236.743 96.9151C236.996 96.9151 237.266 96.81 237.341 96.6817C237.417 96.5533 237.703 96.4483 237.977 96.4483C238.251 96.4483 238.571 96.3588 238.687 96.2493C238.803 96.1399 239.399 95.9232 240.011 95.7678C242.175 95.2182 242.907 95.0001 243.289 94.7918C243.501 94.676 243.828 94.5812 244.015 94.5812C244.329 94.5812 245.202 94.1564 245.461 93.8779C245.522 93.8119 246.073 93.5016 246.684 93.1881C247.296 92.8746 248.062 92.4297 248.387 92.1993C248.712 91.969 249.137 91.7805 249.333 91.7805C249.528 91.7805 249.688 91.6755 249.688 91.5471C249.688 91.4188 249.819 91.3138 249.979 91.3138C250.14 91.3138 250.686 91.1037 251.192 90.847C251.699 90.5902 252.26 90.3802 252.439 90.3802C252.618 90.3802 252.798 90.3014 252.839 90.2052C252.88 90.1089 253.348 89.794 253.879 89.5054L254.845 88.9807L255.231 89.4816L255.618 89.9825L256.991 89.424C257.746 89.1169 258.363 88.7863 258.363 88.6893C258.363 88.5925 258.513 88.5131 258.695 88.5131C258.878 88.5131 259.152 88.303 259.305 88.0463C259.458 87.7896 259.753 87.5795 259.961 87.5795C260.169 87.5795 260.401 87.4746 260.477 87.3462C260.552 87.2178 260.79 87.1128 261.004 87.1128C261.218 87.1128 261.609 86.9027 261.871 86.646C262.134 86.3893 262.448 86.1792 262.568 86.1792C262.689 86.1792 262.918 85.9954 263.078 85.7708C263.238 85.5461 263.644 85.2133 263.98 85.0312C264.317 84.849 264.592 84.6127 264.592 84.506C264.592 84.3994 264.687 84.3121 264.803 84.3121C265.198 84.3121 266.924 82.9337 268.006 81.7536C268.6 81.1069 269.225 80.5778 269.397 80.5778C269.568 80.5778 269.709 80.489 269.709 80.3802C269.709 80.2716 269.906 79.9301 270.147 79.6217C271.056 78.4598 272.068 77.2318 272.767 76.4444C273.165 75.9965 273.49 75.583 273.49 75.5255C273.49 75.3275 275.112 72.7611 275.385 72.527C275.687 72.268 277.717 69.0169 277.717 68.792C277.717 68.7143 278.127 67.7898 278.628 66.7374C279.912 64.039 280.437 62.2422 280.721 59.5729C280.769 59.1236 280.926 58.2309 281.07 57.5891C281.214 56.9472 281.367 55.897 281.409 55.2552C281.451 54.6134 281.549 53.4056 281.627 52.5712C281.813 50.5782 281.818 48.8027 281.645 45.7405C281.513 43.4132 281.471 41.7582 281.523 40.9017C281.535 40.7092 281.471 39.9215 281.381 39.1513C281.187 37.4883 280.509 35.8699 279.286 34.1499C278.795 33.4587 278.334 32.6996 278.262 32.4631C278.191 32.2265 278.062 32.033 277.975 32.033C277.889 32.033 277.62 31.6391 277.379 31.1578C276.978 30.3599 274.755 27.7419 273.193 26.2267C272.507 25.5607 271.872 24.8687 270.225 22.9928C269.635 22.3209 269.04 21.7695 268.902 21.7675C268.764 21.7651 268.525 21.6044 268.371 21.4095C268.216 21.2146 267.767 20.8942 267.372 20.6977C266.978 20.5011 266.445 20.1354 266.189 19.8851C265.933 19.6348 265.619 19.43 265.491 19.43C265.364 19.43 265.26 19.3249 265.26 19.1966C265.26 19.0682 265.06 18.9632 264.815 18.9632C264.57 18.9632 264.37 18.8582 264.37 18.7298C264.37 18.6015 264.18 18.4964 263.949 18.4964C263.717 18.4964 263.476 18.3548 263.413 18.1817C263.349 18.0086 262.77 17.5778 262.126 17.2242C260.55 16.36 260.053 16.0679 259.921 15.9292C259.569 15.56 257.873 14.6364 256.417 14.0205C256.019 13.8523 255.694 13.6353 255.694 13.5383C255.694 13.4413 255.575 13.3619 255.43 13.3619C255.285 13.3619 254.96 13.1689 254.707 12.933C254.455 12.6972 253.672 12.3653 252.969 12.1956C252.265 12.0258 251.69 11.7988 251.69 11.6909C251.69 11.583 251.549 11.4948 251.377 11.4948C251.108 11.4948 250.399 11.1728 248.745 10.2986C248.533 10.1864 248.063 10.0944 247.702 10.0944C247.34 10.0944 246.983 9.98952 246.907 9.86106C246.831 9.73269 246.381 9.62769 245.906 9.62769C245.431 9.62769 244.981 9.52264 244.905 9.39428C244.829 9.26593 244.429 9.16088 244.015 9.16088C243.601 9.16088 243.211 9.07376 243.149 8.96737C243.086 8.86089 242.454 8.63398 241.745 8.46303C241.036 8.29206 240.361 8.06407 240.244 7.95636C240.128 7.8487 239.773 7.76057 239.455 7.76057C239.137 7.76057 238.781 7.67321 238.665 7.56651C238.302 7.23339 236.729 6.89103 235.394 6.85462C234.69 6.83549 233.589 6.6225 232.947 6.38143C232.169 6.08917 231.076 5.92793 229.667 5.89762C227.113 5.84271 226.212 5.7758 223.327 5.427C222.103 5.27911 220.051 5.07163 218.766 4.96592C217.482 4.86028 216.08 4.6545 215.652 4.50876C215.224 4.36301 214.022 4.19294 212.982 4.13077C211.942 4.06862 210.241 3.89935 209.201 3.75466C208.161 3.61001 206.409 3.45695 205.308 3.41453C202.106 3.29114 199.379 3.11716 198.3 2.96734C196.451 2.71069 190.068 2.63822 189.493 2.86739C189.121 3.01604 188.782 3.0108 188.499 2.85209C188.22 2.69565 185.046 2.62952 179.448 2.66354C174.707 2.69242 170.176 2.69479 169.381 2.66829C168.586 2.64239 167.685 2.72487 167.379 2.85176C167.073 2.97858 165.822 3.13921 164.598 3.20872C161.76 3.37005 160.426 3.55259 160.16 3.81638C160.044 3.93165 159.274 4.02589 158.449 4.02589C157.624 4.02589 156.894 4.1199 156.827 4.23463C156.759 4.34943 156.328 4.50165 155.868 4.57284C155.409 4.64402 154.482 4.81809 153.809 4.95958C153.136 5.10108 151.985 5.30405 151.251 5.41064C150.517 5.51724 149.425 5.7744 148.824 5.98211C148.223 6.18984 147.303 6.35978 146.779 6.35978C146.255 6.35978 145.772 6.45379 145.704 6.56852C145.636 6.68332 145.205 6.8335 144.745 6.90224C144.286 6.97104 143.409 7.13252 142.797 7.2613C142.186 7.39007 141.285 7.56497 140.795 7.64999C140.306 7.73508 139.805 7.88715 139.683 7.98806C139.465 8.16826 138.669 8.32665 136.68 8.58608C136.129 8.65785 135.028 8.91614 134.233 9.16001C133.438 9.40388 132.336 9.72474 131.786 9.87302C131.235 10.0213 130.555 10.2367 130.274 10.3517C129.993 10.4667 129.336 10.5608 128.814 10.5608C128.292 10.5608 127.451 10.7708 126.944 11.0276C126.438 11.2843 125.762 11.4943 125.442 11.4943C125.122 11.4943 124.667 11.6028 124.431 11.7355C124.195 11.868 123.526 12.0222 122.944 12.078C122.362 12.1338 121.436 12.2829 120.886 12.4094C119.219 12.7923 116.44 13.295 114.323 13.5962C113.222 13.7529 111.971 13.9736 111.542 14.0868C111.114 14.1998 110.144 14.293 109.387 14.2937C108.629 14.2937 107.956 14.3859 107.89 14.4969C107.739 14.7544 106.415 14.9555 103.805 15.1176C102.669 15.1882 101.518 15.3322 101.246 15.4378C100.975 15.5432 99.9273 15.7683 98.9179 15.9379C97.9085 16.1074 97.0826 16.3114 97.0826 16.3911C97.0826 16.4708 96.3068 16.6769 95.3586 16.8491C94.4104 17.0214 93.5345 17.2366 93.4121 17.3274C93.2898 17.4182 92.539 17.6282 91.7437 17.794C90.9484 17.9598 90.2026 18.1855 90.0864 18.2957C89.9702 18.4058 89.7227 18.496 89.5365 18.496C89.3503 18.496 88.4944 18.7135 87.6345 18.9793C86.7746 19.2451 85.6707 19.5673 85.1812 19.6953C83.5392 20.1246 82.7397 20.3924 81.8444 20.8131C80.4397 21.4731 79.4315 21.7634 78.5443 21.7634C78.0925 21.7634 77.5491 21.8597 77.3366 21.9774C76.964 22.1839 75.157 22.7539 73.8895 23.0649C73.5519 23.1477 73.2206 23.3088 73.1534 23.423C73.0861 23.5372 72.68 23.6305 72.251 23.6305C71.8219 23.6305 71.3023 23.7238 71.0963 23.8376C70.7403 24.0343 69.8533 24.1356 65.4938 24.4768C64.4539 24.5583 63.5029 24.7024 63.3805 24.7974C63.2582 24.8923 62.5302 25.0417 61.7628 25.1294C60.9954 25.2169 59.9754 25.4337 59.4963 25.6111C58.8882 25.8362 57.4283 25.9388 54.6628 25.9507C52.4835 25.9602 49.885 26.0864 48.8883 26.2315C47.5572 26.4252 46.6386 26.4269 45.4276 26.2374C44.5121 26.0946 43.488 26.0627 43.1243 26.1657C42.7642 26.2678 42.0729 26.2585 41.5879 26.1452C40.6038 25.9152 39.4821 25.9595 39.1105 26.243C38.976 26.3457 38.3756 26.3337 37.7764 26.2162C37.0572 26.0752 36.5927 26.0846 36.4099 26.2438C36.1615 26.4601 35.5168 26.4235 33.1264 26.0574C32.8817 26.02 31.2913 26.1036 29.592 26.2435C27.2953 26.4325 25.9254 26.4279 24.2531 26.2254C23.0159 26.0757 21.3264 25.8732 20.4987 25.7753C19.671 25.6775 18.9202 25.6742 18.8303 25.7682C18.7405 25.8622 18.0253 25.9709 17.2413 26.0098L15.8157 26.0805L16.4415 26.664C16.7856 26.9849 17.6024 27.8251 18.2565 28.5311C18.9107 29.2371 19.8352 30.2348 20.3113 30.7483C20.7873 31.2617 21.4148 31.8919 21.7058 32.1486C21.9969 32.4053 22.5333 33.088 22.8979 33.6656C23.2625 34.2433 23.6359 34.7509 23.7276 34.7937C23.8194 34.8364 23.8945 34.9826 23.8945 35.1184C23.8945 35.2542 24.1992 35.6918 24.5716 36.0909C25.2368 36.8036 26.4691 38.3272 27.7875 40.0672C28.1545 40.5516 28.5552 41.0686 28.6777 41.216C28.971 41.569 30.0016 43.2559 30.196 43.7013C30.28 43.8939 30.5989 44.4715 30.9046 44.985C31.2104 45.4985 31.6694 46.3272 31.9247 46.8266C32.1799 47.326 32.5885 47.9562 32.8326 48.2269C33.0767 48.4977 33.4814 49.1393 33.7318 49.6528C33.9823 50.1662 34.2489 50.6388 34.3242 50.703C34.5016 50.8542 34.9543 51.6966 35.6412 53.1536C35.9437 53.7954 36.2981 54.4624 36.4287 54.6359C36.5594 54.8093 36.6853 55.0875 36.7086 55.2541C36.7319 55.4208 37.0116 56.1015 37.3301 56.7668C37.6486 57.4321 37.9093 58.1812 37.9093 58.4314C37.9093 58.6816 38.0594 58.9467 38.2429 59.0206C38.4265 59.0945 38.5766 59.2816 38.5766 59.4364C38.5766 59.7955 39.6441 62.1442 40.0172 62.6059C40.1727 62.7984 40.4205 63.3498 40.5678 63.8312C40.7151 64.3125 40.924 64.7064 41.032 64.7064C41.1399 64.7064 41.3482 65.1265 41.4948 65.6399C41.6415 66.1534 41.8376 66.5735 41.9306 66.5735C42.0237 66.5735 42.3229 67.2824 42.5957 68.1488C42.8686 69.0153 43.1631 69.7767 43.2502 69.8409C43.3373 69.905 43.5829 70.3144 43.7959 70.7505C44.009 71.1866 44.4234 71.7953 44.7168 72.1031C45.0102 72.4109 45.2503 72.7369 45.2503 72.8273C45.2503 72.9179 45.6507 73.4515 46.1401 74.0132C46.6296 74.5749 47.03 75.101 47.03 75.1824C47.03 75.2637 47.2843 75.6181 47.5951 75.9698C47.9059 76.3214 48.1043 76.6092 48.036 76.6092C47.9676 76.6092 48.2389 76.9578 48.6387 77.3838C49.0386 77.8099 50.2147 79.1227 51.2522 80.3012C52.2897 81.4797 53.2136 82.4439 53.3052 82.4439C53.3968 82.4439 54.1541 83.1528 54.9879 84.0193C55.8217 84.8857 56.7998 85.7515 57.1615 85.9432C57.5232 86.1348 57.9692 86.4503 58.1528 86.6442C58.3363 86.8382 58.8368 87.1778 59.265 87.399C60.7169 88.149 61.9249 88.9651 62.6313 89.6733C63.0185 90.0615 63.4275 90.3791 63.5402 90.3791C63.6529 90.3791 64.1818 90.6942 64.7152 91.0793C65.2487 91.4644 65.7768 91.7795 65.8887 91.7795C66.0006 91.7795 66.2734 91.9895 66.4949 92.2463C66.7163 92.503 67.0322 92.713 67.1967 92.713C67.3613 92.713 67.4959 92.7924 67.4959 92.8895C67.4959 92.9864 67.8213 93.2071 68.2189 93.3797C68.6166 93.5524 69.2923 93.853 69.7205 94.0479C70.1487 94.2427 70.7994 94.5385 71.1665 94.7052C71.5335 94.8719 72.2343 95.1379 72.7237 95.2964C73.2131 95.4549 74.064 95.7969 74.6146 96.0563C75.791 96.6108 76.1666 96.7556 77.5065 97.1716C78.0571 97.3425 78.7578 97.618 79.0637 97.7838C79.3696 97.9497 79.9974 98.1507 80.459 98.2305C80.9205 98.3103 81.3519 98.4669 81.4175 98.5784C81.4832 98.6899 81.7997 98.7811 82.1208 98.7811C82.4419 98.7811 83.2618 98.9771 83.9429 99.2167C84.624 99.4562 85.6317 99.7815 86.1823 99.9396C86.7329 100.098 87.3572 100.322 87.5696 100.438C87.7821 100.553 88.1515 100.648 88.3907 100.648C88.6298 100.648 88.8792 100.739 88.9448 100.851C89.0105 100.962 89.4917 101.116 90.0145 101.193C90.5374 101.27 91.4156 101.449 91.9662 101.591C92.5167 101.733 93.3133 101.908 93.7363 101.98C94.1594 102.052 94.8381 102.307 95.2447 102.547C95.6512 102.786 96.4164 102.982 96.945 102.982C97.4736 102.982 98.1963 103.086 98.5511 103.212C98.9058 103.338 99.7466 103.494 100.419 103.558C102.082 103.716 104.677 104.071 106.426 104.38C109.993 105.01 111.957 105.337 114.768 105.769C115.624 105.9 116.926 106.12 117.66 106.258C120.363 106.764 123.18 107.232 126.002 107.643C130.295 108.269 131.212 108.385 133.454 108.589C140.828 109.258 144.477 109.647 145.244 109.844C145.489 109.907 147.692 110.028 150.139 110.115C152.586 110.201 156.039 110.338 157.813 110.419C162.005 110.612 167.947 110.513 170.009 110.218L170.009 110.219ZM112.654 110.685C112.654 110.557 112.805 110.452 112.988 110.452C113.172 110.452 113.322 110.559 113.322 110.691C113.322 110.961 116.841 110.942 117.001 110.67C117.146 110.424 115.93 110.231 113.309 110.081C111.022 109.951 110.009 109.751 111.635 109.751C112.891 109.751 112.519 109.201 111.245 109.176C110.519 109.162 110.229 109.241 110.3 109.434C110.356 109.587 110.252 109.773 110.068 109.847C109.517 110.069 109.958 110.452 110.764 110.452C111.177 110.452 111.578 110.557 111.653 110.685C111.729 110.813 111.985 110.918 112.223 110.918C112.46 110.918 112.654 110.813 112.654 110.685V110.685ZM134.455 111.619C133.652 111.349 133.073 111.349 133.232 111.619C133.307 111.747 133.739 111.841 134.19 111.829C134.928 111.808 134.955 111.786 134.455 111.619V111.619ZM193.951 111.829C195.059 111.56 196.165 111.252 196.409 111.145C196.854 110.95 196.854 110.95 196.409 110.936C195.666 110.913 191.157 111.598 189.736 111.95L188.401 112.28L190.17 112.299C191.242 112.311 192.731 112.126 193.951 111.829V111.829ZM136.457 111.944C136.457 111.893 136.251 111.852 135.999 111.852C135.747 111.852 135.6 111.952 135.673 112.075C135.791 112.277 136.457 112.165 136.457 111.944V111.944ZM86.627 112.085C86.627 111.957 86.1515 111.862 85.5704 111.875C84.7091 111.894 84.6166 111.933 85.0698 112.085C85.8737 112.356 86.627 112.356 86.627 112.085ZM78.4518 112.034C78.1765 111.895 77.9512 111.692 77.9512 111.583C77.9512 111.474 77.8511 111.385 77.7288 111.385C77.6064 111.385 77.5063 111.595 77.5063 111.852C77.5063 112.226 77.6496 112.316 78.2293 112.303C78.9112 112.288 78.9239 112.273 78.4518 112.034V112.034ZM140.906 112.552C140.906 112.424 140.806 112.319 140.684 112.319C140.562 112.319 140.461 112.424 140.461 112.552C140.461 112.681 140.562 112.786 140.684 112.786C140.806 112.786 140.906 112.681 140.906 112.552ZM130.062 112.864C129.909 112.8 129.658 112.8 129.506 112.864C129.353 112.929 129.478 112.982 129.784 112.982C130.089 112.982 130.215 112.929 130.062 112.864ZM173.548 113.091C173.331 113.031 173.031 113.035 172.88 113.099C172.73 113.163 172.907 113.211 173.274 113.207C173.641 113.202 173.764 113.149 173.548 113.09V113.091ZM132.212 113.169C132.161 113.123 131.719 113.021 131.23 112.942C130.624 112.844 130.446 112.87 130.673 113.022C130.977 113.225 132.428 113.364 132.212 113.169V113.169ZM61.7119 112.786C61.406 112.535 61.0237 112.327 60.8622 112.324C60.7007 112.322 60.1321 112.004 59.5986 111.619C58.997 111.184 58.3481 110.919 57.8901 110.92H57.1516L57.8625 111.619C58.2535 112.003 58.6578 112.318 58.7609 112.318C58.864 112.318 59.3411 112.528 59.8211 112.784C60.301 113.041 61.0479 113.249 61.4809 113.246L62.2681 113.241L61.7119 112.786ZM152.293 113.326C152.133 113.259 151.941 113.267 151.867 113.345C151.793 113.422 151.924 113.478 152.159 113.467C152.418 113.457 152.471 113.401 152.293 113.326V113.326ZM170.647 113.402C170.944 113.091 170.498 112.99 169.515 113.144C168.954 113.232 168.542 113.384 168.6 113.481C168.721 113.688 170.438 113.621 170.647 113.402V113.402ZM147.575 112.92C147.275 112.606 147.053 112.923 147.231 113.411C147.359 113.76 147.412 113.771 147.583 113.481C147.704 113.275 147.701 113.052 147.575 112.92L147.575 112.92ZM92.4109 113.486C92.4109 113.357 92.2607 113.252 92.0772 113.252C91.8937 113.252 91.7435 113.357 91.7435 113.486C91.7435 113.614 91.8937 113.719 92.0772 113.719C92.2607 113.719 92.4109 113.614 92.4109 113.486ZM91.3943 113.512C91.5291 113.283 90.909 112.65 90.7318 112.836C90.5747 113 90.8635 113.719 91.0868 113.719C91.1888 113.719 91.3272 113.626 91.3943 113.512ZM158.88 114.031C159.824 113.898 159.828 113.893 159.275 113.591C158.902 113.388 157.766 113.284 155.873 113.28L153.03 113.274L153.809 113.68C154.63 114.109 157.118 114.281 158.88 114.032V114.031ZM117.437 113.952C117.362 113.824 117.15 113.719 116.966 113.719C116.783 113.719 116.694 113.824 116.77 113.952C116.846 114.081 117.057 114.186 117.241 114.186C117.425 114.186 117.513 114.081 117.437 113.952ZM53.2586 113.952C53.2586 113.824 53.1025 113.719 52.9118 113.719C52.721 113.719 52.6268 113.824 52.7024 113.952C52.7781 114.081 52.9341 114.186 53.0492 114.186C53.1644 114.186 53.2586 114.081 53.2586 113.952ZM118.883 114.186C118.883 114.057 118.708 113.954 118.494 113.956C118.161 113.96 118.153 113.992 118.438 114.186C118.858 114.47 118.883 114.47 118.883 114.186H118.883ZM53.9259 114.419C53.9259 114.291 53.8199 114.186 53.6904 114.186C53.5608 114.186 53.5166 114.291 53.5923 114.419C53.6679 114.548 53.7739 114.653 53.8278 114.653C53.8817 114.653 53.926 114.548 53.926 114.419H53.9259ZM121.33 114.933C121.33 114.527 120.762 114.187 120.118 114.207L119.439 114.228L120.162 114.447C120.56 114.567 120.885 114.768 120.885 114.893C120.885 115.017 120.985 115.119 121.108 115.119C121.23 115.119 121.33 115.035 121.33 114.933V114.933ZM149.012 114.862C148.944 114.747 148.487 114.653 147.997 114.653C147.507 114.653 146.905 114.54 146.659 114.401C146.413 114.263 145.393 114.109 144.393 114.059C141.59 113.919 139.483 113.684 139.238 113.485C139.116 113.385 138.19 113.29 137.18 113.272C136.171 113.255 135.078 113.134 134.75 113.004C134.071 112.733 132.742 112.949 133.057 113.279C133.333 113.569 136.492 114.186 137.7 114.186C138.24 114.186 138.682 114.275 138.682 114.383C138.682 114.492 139.749 114.601 141.054 114.627C142.359 114.652 143.535 114.747 143.668 114.838C143.93 115.017 148.405 115.289 148.858 115.153C149.01 115.108 149.079 114.977 149.012 114.862V114.862ZM197.41 115.114C199.842 114.761 200.524 114.61 200.651 114.394C200.718 114.279 201.043 114.184 201.372 114.182C201.993 114.179 203.517 113.692 203.783 113.412C203.867 113.324 204.171 113.252 204.458 113.252C204.745 113.252 205.154 113.16 205.366 113.047C206.08 112.669 207.528 111.984 207.977 111.812C208.511 111.608 206.722 111.776 204.863 112.104C202.259 112.563 201.075 112.813 200.636 112.998C199.893 113.31 196.22 114.199 195.699 114.192C195.431 114.188 195.158 114.277 195.093 114.389C195.027 114.5 194.596 114.661 194.134 114.746C193.672 114.831 192.995 115.055 192.628 115.245C192.003 115.567 192.089 115.581 193.962 115.457C195.063 115.384 196.615 115.229 197.41 115.114V115.114ZM166.378 115.353C166.548 115.064 163.682 115.064 163.041 115.353C162.742 115.488 163.193 115.559 164.418 115.57C165.42 115.579 166.302 115.481 166.378 115.353ZM191.668 115.66C191.508 115.593 191.316 115.601 191.242 115.679C191.168 115.756 191.299 115.811 191.534 115.801C191.793 115.791 191.846 115.735 191.668 115.66V115.66ZM80.1758 116.305C80.1758 116.187 79.8839 116.023 79.527 115.941C79.1702 115.858 78.823 115.64 78.7554 115.455C78.6128 115.065 76.394 114.969 76.394 115.353C76.394 115.481 76.5942 115.586 76.8389 115.586C77.0836 115.586 77.2839 115.672 77.2839 115.777C77.2839 115.882 77.8094 116.076 78.4518 116.208C80.0791 116.542 80.1758 116.547 80.1758 116.305V116.305ZM75.9491 116.428C75.9491 116.261 73.7404 115.119 73.4188 115.119C73.1569 115.119 72.8348 115.581 72.8348 115.955C72.8348 116.009 73.2101 116.06 73.6689 116.069C74.1278 116.079 74.7034 116.176 74.948 116.286C75.4285 116.503 75.9491 116.576 75.9491 116.428V116.428ZM51.6033 116.396C51.3657 116.207 50.9703 116.053 50.7245 116.053C50.132 116.053 50.5266 116.448 51.2565 116.585C51.5623 116.643 51.8627 116.701 51.9238 116.714C51.9849 116.727 51.8407 116.584 51.6033 116.396V116.396ZM77.0614 116.753C76.8779 116.629 76.6276 116.527 76.5053 116.527C76.3829 116.527 76.4329 116.629 76.6165 116.753C76.8 116.878 77.0503 116.979 77.1727 116.979C77.295 116.979 77.245 116.878 77.0614 116.753V116.753ZM102.308 117.216C102.231 117.086 102.075 117.039 101.961 117.113C101.653 117.313 101.71 117.453 102.101 117.453C102.292 117.453 102.385 117.347 102.308 117.216V117.216ZM121.108 117.687C120.924 117.562 120.299 117.459 119.717 117.457C119.136 117.455 118.661 117.348 118.661 117.22C118.661 117.083 117.894 116.987 116.807 116.987C115.787 116.987 114.883 116.913 114.798 116.824C114.712 116.734 113.82 116.644 112.814 116.625C110.808 116.586 111.138 116.756 113.989 117.232C114.907 117.386 115.958 117.594 116.325 117.694C117.33 117.971 121.517 117.964 121.108 117.686V117.687ZM53.6428 117.453C53.3317 117.197 52.9428 116.989 52.7786 116.992C52.3899 117 53.4952 117.908 53.9003 117.915C54.0738 117.919 53.9612 117.716 53.6428 117.453ZM109.268 118.113C109.468 117.902 109.375 117.74 108.87 117.417C108.336 117.077 108.093 117.045 107.596 117.25C107.258 117.389 106.481 117.584 105.869 117.683C104.858 117.846 104.832 117.865 105.578 117.891C106.03 117.907 106.461 118.025 106.537 118.154C106.729 118.48 108.95 118.446 109.268 118.112V118.113ZM55.4832 118.62C55.2996 118.496 55.0494 118.394 54.927 118.394C54.8046 118.394 54.8546 118.496 55.0382 118.62C55.2218 118.745 55.472 118.847 55.5944 118.847C55.7167 118.847 55.6668 118.745 55.4832 118.62V118.62ZM165.688 118.991C166.936 118.882 168.031 118.387 167.023 118.387C166.778 118.387 166.479 118.283 166.357 118.156C166.059 117.843 162.108 117.817 161.021 118.122C160.541 118.256 159.855 118.43 159.496 118.508L158.843 118.651L159.385 118.978C159.919 119.301 162.071 119.305 165.688 118.991V118.991ZM114.434 119.087C114.434 118.959 114.008 118.854 113.487 118.854C112.966 118.854 112.217 118.756 111.822 118.638C111.381 118.505 111.054 118.505 110.976 118.638C110.906 118.756 111.011 118.854 111.208 118.854C111.406 118.854 111.507 118.959 111.431 119.087C111.344 119.234 111.874 119.321 112.864 119.321C113.762 119.321 114.434 119.221 114.434 119.087ZM101.309 119.087C101.126 118.963 100.803 118.859 100.593 118.857C100.383 118.855 99.882 118.66 99.4807 118.424C99.0793 118.187 98.3788 117.921 97.9238 117.831C97.469 117.742 96.9639 117.529 96.8015 117.359C96.6391 117.188 96.1603 116.988 95.7376 116.914C95.315 116.84 94.4686 116.663 93.8568 116.52C93.2451 116.378 92.2441 116.183 91.6323 116.087C91.0205 115.992 90.3198 115.798 90.0751 115.656C89.8304 115.515 89.1297 115.328 88.5179 115.24C87.1236 115.042 85.9597 114.674 85.9597 114.432C85.9597 114.33 85.5302 114.196 85.0053 114.134C84.4804 114.072 83.676 113.834 83.2177 113.606C82.7594 113.378 82.3203 113.259 82.2418 113.341C82.0242 113.569 82.8921 114.17 83.4516 114.179C83.724 114.182 84.2746 114.396 84.6752 114.652C85.0758 114.908 85.6037 115.12 85.8485 115.122C86.4218 115.128 87.6075 115.569 88.7689 116.21C89.274 116.488 90.1511 116.789 90.7181 116.878C91.2851 116.968 91.8037 117.133 91.8706 117.247C91.9376 117.361 92.2807 117.453 92.6334 117.453C92.986 117.453 93.3364 117.559 93.412 117.687C93.4876 117.815 93.8939 117.92 94.3149 117.92C94.7359 117.92 95.0804 118.025 95.0804 118.154C95.0804 118.282 95.3056 118.387 95.5809 118.388C95.8562 118.388 96.5819 118.588 97.1937 118.832C98.3809 119.306 101.958 119.527 101.309 119.087V119.087ZM89.4231 119.061C89.6077 118.748 89.1308 118.396 88.5152 118.391C88.269 118.388 87.282 118.125 86.3217 117.806C85.3615 117.486 84.4773 117.288 84.3567 117.366C84.2362 117.445 83.9219 117.405 83.6582 117.279C83.3946 117.152 82.7535 116.944 82.2335 116.817C81.29 116.585 81.2881 116.586 81.2881 117.252C81.2881 117.913 81.5779 118.139 81.8442 117.687C82.058 117.324 82.4942 117.41 83.0131 117.917C83.2828 118.181 83.9002 118.421 84.4454 118.474C84.9723 118.525 85.5686 118.639 85.7703 118.727C85.972 118.814 86.2032 118.773 86.284 118.636C86.4697 118.321 87.2944 118.308 87.2944 118.62C87.2944 118.749 87.5888 118.854 87.9486 118.854C88.3085 118.854 88.6648 118.959 88.7404 119.087C88.922 119.395 89.2332 119.384 89.4231 119.061ZM121.167 119.321C121.518 119.321 122.006 119.434 122.253 119.573C122.937 119.957 124.811 119.428 124.966 118.807C125.083 118.338 125.03 118.331 122.151 118.468C120.537 118.545 119.192 118.611 119.161 118.614C119.131 118.618 119.106 118.753 119.106 118.915C119.106 119.297 120.043 119.757 120.318 119.51C120.434 119.406 120.816 119.321 121.167 119.321ZM109.985 119.437C109.985 119.245 109.791 119.087 109.553 119.087C109.036 119.087 108.755 119.466 109.149 119.632C109.681 119.857 109.985 119.786 109.985 119.437ZM73.3814 120.005C73.311 119.885 73.1175 119.787 72.9514 119.787C72.7853 119.787 72.6148 119.679 72.5726 119.546C72.4656 119.209 70.7117 118.602 69.4143 118.453C68.5828 118.357 68.3523 118.399 68.4265 118.633C68.4797 118.8 68.6675 119.007 68.8438 119.093C69.02 119.178 69.3881 119.369 69.6617 119.518C69.9354 119.666 70.4609 119.787 70.8296 119.787C71.1983 119.787 71.5 119.906 71.5 120.05C71.5 120.216 71.741 120.262 72.1587 120.174C72.5211 120.098 72.8783 120.139 72.9527 120.266C73.0271 120.392 73.1827 120.434 73.2986 120.358C73.4145 120.283 73.4518 120.124 73.3815 120.004L73.3814 120.005ZM146.35 120.324C146.744 120.088 146.7 120.043 145.905 119.882C144.753 119.649 138.328 119.619 138.109 119.846C138.016 119.942 138.015 120.099 138.106 120.195C138.553 120.664 145.599 120.775 146.35 120.324L146.35 120.324ZM137.57 120.254C137.57 119.893 137.421 119.787 136.915 119.787C136.555 119.787 136.199 119.892 136.124 120.021C136.048 120.149 136.192 120.254 136.444 120.254C136.696 120.254 136.902 120.359 136.902 120.487C136.902 120.616 137.052 120.721 137.236 120.721C137.421 120.721 137.57 120.513 137.57 120.254V120.254ZM131.827 121.028C131.667 120.961 131.475 120.969 131.401 121.047C131.327 121.124 131.458 121.179 131.693 121.169C131.952 121.159 132.005 121.103 131.827 121.028V121.028ZM129.784 120.824C129.784 120.767 129.628 120.721 129.437 120.721C129.246 120.721 129.153 120.828 129.23 120.958C129.357 121.174 129.784 121.07 129.784 120.824V120.824ZM127.337 120.954C127.337 120.826 127.192 120.721 127.016 120.721C126.84 120.721 126.634 120.826 126.558 120.954C126.482 121.083 126.627 121.188 126.879 121.188C127.13 121.188 127.337 121.083 127.337 120.954ZM77.6176 120.954C77.6932 120.826 77.5989 120.721 77.4082 120.721C77.2175 120.721 77.0614 120.826 77.0614 120.954C77.0614 121.083 77.1556 121.188 77.2707 121.188C77.3859 121.188 77.5419 121.083 77.6176 120.954ZM134.09 121.071C134.09 120.768 133.423 120.636 132.941 120.843C132.604 120.988 132.611 121.025 133.009 121.199C133.564 121.442 134.09 121.379 134.09 121.071H134.09ZM152.585 121.421C152.669 121.279 152.332 121.188 151.722 121.188C151.171 121.188 150.659 121.293 150.583 121.421C150.499 121.563 150.836 121.654 151.447 121.654C151.997 121.654 152.51 121.549 152.585 121.421ZM61.7091 121.946C61.7046 121.641 60.2953 120.805 59.5122 120.642L58.7585 120.486L59.3227 120.952C59.633 121.208 60.2725 121.564 60.7438 121.742C61.2151 121.921 61.6257 122.079 61.6563 122.094C61.6869 122.109 61.7107 122.042 61.7092 121.946H61.7091ZM81.9555 122.355C81.9555 122.059 81.5008 122.059 81.0656 122.355C80.8056 122.531 80.867 122.582 81.3437 122.584C81.6802 122.587 81.9555 122.483 81.9555 122.355V122.355ZM109.582 122.662C109.421 122.595 109.229 122.603 109.155 122.68C109.081 122.758 109.213 122.813 109.447 122.803C109.707 122.792 109.759 122.737 109.582 122.662V122.662ZM159.878 122.783C160.953 122.637 161.894 122.414 161.969 122.286C162.055 122.14 161.865 122.108 161.461 122.2C161.106 122.281 159.815 122.41 158.592 122.487C156.096 122.644 155.567 122.752 155.981 123.021C156.281 123.215 157.02 123.17 159.878 122.783V122.783ZM121.979 123.312C122.842 123.285 122.764 123.047 121.838 122.881C120.476 122.636 109.962 122.593 110.103 122.833C110.181 122.966 110.762 123.068 111.394 123.061C113.537 123.038 118.946 123.276 119.063 123.399C119.128 123.467 119.639 123.48 120.2 123.428C120.76 123.377 121.561 123.324 121.979 123.312V123.312ZM64.4926 123.288C64.417 123.16 64.1859 123.056 63.979 123.058C63.6548 123.062 63.6489 123.093 63.9365 123.288C64.3721 123.583 64.6666 123.583 64.4926 123.288V123.288ZM65.9386 123.755C65.5029 123.459 65.2084 123.459 65.3824 123.755C65.4581 123.883 65.6892 123.987 65.8961 123.985C66.2203 123.981 66.2261 123.95 65.9386 123.755V123.755ZM105.758 125.622C105.758 125.494 105.458 125.389 105.091 125.389C104.724 125.389 104.424 125.494 104.424 125.622C104.424 125.75 104.724 125.855 105.091 125.855C105.458 125.855 105.758 125.75 105.758 125.622ZM97.7498 125.981C98.2662 125.778 98.416 125.633 98.1948 125.551C96.8715 125.061 93.2706 124.677 91.6439 124.853C89.5812 125.077 90.1023 125.486 93.0783 125.98C95.3095 126.351 96.8078 126.351 97.7498 125.98V125.981ZM76.1716 126.586C76.1716 126.474 75.6961 126.258 75.1149 126.104C74.5337 125.951 73.6853 125.712 73.2296 125.572C72.6449 125.393 72.1864 125.39 71.6724 125.562L70.9439 125.807L71.6112 125.866C72.9817 125.985 73.0094 125.993 74.2807 126.559C74.8734 126.823 76.1716 126.841 76.1716 126.585V126.586ZM119.936 127.094C119.719 127.035 119.419 127.039 119.268 127.103C119.118 127.167 119.295 127.216 119.662 127.211C120.029 127.206 120.152 127.154 119.936 127.095V127.094ZM117.993 127.022C117.993 126.894 117.699 126.789 117.339 126.789C116.979 126.789 116.623 126.894 116.547 127.022C116.466 127.161 116.73 127.256 117.202 127.256C117.637 127.256 117.993 127.151 117.993 127.022V127.022ZM79.0635 126.906C78.6353 126.733 77.9846 126.586 77.6176 126.581C76.9835 126.571 76.9717 126.588 77.382 126.913C77.6256 127.106 78.2558 127.248 78.828 127.238L79.8421 127.22L79.0635 126.906V126.906ZM115.991 127.489C115.991 127.361 115.785 127.256 115.533 127.256C115.281 127.256 115.137 127.361 115.213 127.489C115.288 127.617 115.494 127.723 115.671 127.723C115.847 127.723 115.991 127.617 115.991 127.489ZM113.433 127.489C113.516 127.348 113.217 127.256 112.681 127.256C112.191 127.256 111.729 127.361 111.653 127.489C111.57 127.63 111.869 127.723 112.406 127.723C112.895 127.723 113.357 127.617 113.433 127.489ZM110.43 127.723C110.68 127.553 110.569 127.496 109.985 127.496C109.401 127.496 109.29 127.553 109.54 127.723C109.724 127.847 109.924 127.949 109.985 127.949C110.046 127.949 110.246 127.847 110.43 127.723ZM108.469 127.796C108.309 127.729 108.117 127.737 108.043 127.815C107.969 127.893 108.101 127.948 108.335 127.938C108.594 127.927 108.647 127.871 108.469 127.797V127.796ZM106.926 127.801C106.773 127.736 106.523 127.736 106.37 127.801C106.217 127.866 106.342 127.919 106.648 127.919C106.954 127.919 107.079 127.866 106.926 127.801V127.801ZM96.729 129.39C96.8331 129.213 94.4593 128.854 91.1874 128.553C90.5756 128.496 89.2024 128.305 88.1359 128.126C86.003 127.77 84.9421 127.991 86.8728 128.39C89.6494 128.963 90.7886 129.123 92.1049 129.123C92.8705 129.123 93.5588 129.228 93.6344 129.356C93.8017 129.64 96.5638 129.67 96.729 129.39V129.39ZM134.455 129.823C134.455 129.694 134.355 129.589 134.233 129.589C134.11 129.589 134.01 129.695 134.01 129.823C134.01 129.951 134.11 130.056 134.233 130.056C134.355 130.056 134.455 129.951 134.455 129.823ZM103.867 132.955C103.745 132.91 101.288 132.844 98.4071 132.807C94.0542 132.752 93.0771 132.677 92.6233 132.366C92.2818 132.132 91.3271 131.938 90.0751 131.846C86.5246 131.588 85.0698 131.397 85.0698 131.191C85.0698 131.081 84.5443 130.989 83.9019 130.988C82.1371 130.986 78.7949 130.54 78.4802 130.266C78.3273 130.133 77.52 129.987 76.6863 129.942C75.8526 129.897 74.7701 129.753 74.2807 129.622C73.7913 129.491 73.2407 129.402 73.0572 129.423C72.4116 129.497 70.7443 129.063 70.0072 128.628C69.5973 128.387 69.0847 128.189 68.8681 128.189C68.3764 128.189 67.2774 127.666 67.2751 127.431C67.2751 127.334 66.8288 127.256 66.2854 127.256C65.7421 127.256 65.2356 127.151 65.16 127.022C65.0843 126.894 64.8416 126.789 64.6204 126.789C64.2695 126.789 63.3853 126.467 61.267 125.569C60.9611 125.44 60.4606 125.182 60.1547 124.997C59.8488 124.811 59.4234 124.601 59.2093 124.53C58.9952 124.459 58.82 124.308 58.82 124.194C58.82 124.081 58.6281 123.988 58.3936 123.988C58.1591 123.988 57.9339 123.909 57.8931 123.813C57.7916 123.574 54.2073 121.805 53.2586 121.526C52.9527 121.436 52.5213 121.164 52.2999 120.92C52.0785 120.676 51.8222 120.526 51.7303 120.585C51.6384 120.645 51.2189 120.385 50.7981 120.008C50.3773 119.63 49.8637 119.321 49.6568 119.321C49.4499 119.321 49.2187 119.215 49.1431 119.087C49.0675 118.959 48.8481 118.854 48.6556 118.854C48.4631 118.854 48.1436 118.669 47.9457 118.444C47.7479 118.218 47.3107 117.885 46.9742 117.704C46.6377 117.523 46.3624 117.287 46.3624 117.18C46.3624 117.074 46.2123 116.986 46.0287 116.986C45.8452 116.986 45.6951 116.881 45.6951 116.753C45.6951 116.625 45.5904 116.52 45.4625 116.52C45.3346 116.52 44.9852 116.263 44.686 115.949C44.3869 115.635 44.0134 115.294 43.856 115.191C43.6985 115.087 43.223 114.53 42.7992 113.952C42.3754 113.375 41.5401 112.377 40.943 111.735C40.3458 111.093 39.4102 109.912 38.8636 109.11C38.3172 108.307 37.7904 107.651 37.6931 107.651C37.5958 107.651 37.4584 107.467 37.388 107.242C37.1913 106.616 36.313 105.057 35.4258 103.762C34.9856 103.119 34.5568 102.366 34.473 102.089C34.3892 101.812 34.1981 101.454 34.0484 101.292C33.6767 100.892 32.9196 99.3196 32.5871 98.257C32.4364 97.7757 32.2208 97.3818 32.1079 97.3818C31.9951 97.3818 31.9028 97.2442 31.9028 97.0761C31.9028 96.9079 31.5536 96.0267 31.1268 95.1179C30.656 94.1153 30.2641 92.8358 30.1301 91.8644C30.0087 90.9839 29.7535 89.4232 29.563 88.3963C29.3725 87.3694 29.165 85.7941 29.102 84.8955C29.039 83.997 28.9505 82.9467 28.9055 82.5616C28.8604 82.1765 28.7144 80.4004 28.5809 78.6146C28.4474 76.8288 28.2445 75.2493 28.13 75.1045C27.9142 74.8317 27.6488 72.8586 27.6496 71.534C27.6496 71.1168 27.556 70.7755 27.4407 70.7755C27.3255 70.7755 27.2312 70.4208 27.2312 69.9872C27.2312 69.5537 27.0886 69.0747 26.9143 68.923C26.7013 68.7375 26.6201 68.2896 26.6668 67.557C26.7051 66.9574 26.6499 66.2283 26.5441 65.9368C26.4385 65.6452 26.2996 64.5614 26.2354 63.5283C26.1713 62.4952 25.981 61.3664 25.8125 61.0198C25.5413 60.462 25.2843 59.4485 24.0111 53.9154C23.6302 52.26 22.9087 50.876 22.2666 50.569C21.9995 50.4413 21.8122 50.1898 21.8505 50.0099C22.1573 48.5671 22.1333 48.461 21.1524 46.9264C20.6045 46.0693 20.1932 45.3294 20.2382 45.2821C20.2833 45.2348 19.7728 44.4331 19.104 43.5003C18.4352 42.5676 17.8864 41.7326 17.8844 41.6448C17.8822 41.557 17.5832 41.1176 17.2194 40.6683C16.8557 40.219 16.4569 39.7246 16.3332 39.5696C16.2095 39.4145 16.1083 39.1818 16.1083 39.0524C16.1083 38.923 15.3919 38.0264 14.5161 37.06C12.8236 35.1922 12.3243 34.4853 11.4368 32.7C10.6147 31.0464 6.60313 26.4942 5.37482 25.8212C5.03836 25.6369 4.7631 25.3339 4.7631 25.148C4.7631 24.7579 3.65956 24.0977 3.0076 24.0977C2.76404 24.0977 2.50291 23.9928 2.4273 23.8643C2.35163 23.7359 2.12052 23.6276 1.91364 23.6235C0.852204 23.6029 -0.414516 21.3003 0.131141 20.3836C0.544591 19.6891 1.55566 19.3049 2.16041 19.6126C2.71619 19.8953 3.40968 20.064 5.31924 20.3808C6.5032 20.5773 7.71316 20.7068 13.1608 21.2203C14.1164 21.3105 14.5512 21.2693 14.5512 21.0888C14.5512 20.9151 14.6829 20.8967 14.9405 21.0344C15.1546 21.149 15.6016 21.3757 15.9339 21.5384C16.2662 21.7011 16.4908 21.9145 16.4329 22.0127C16.197 22.4131 18.8149 22.6974 22.7388 22.6974C25.0277 22.6974 27.215 22.792 27.5994 22.9077C28.0288 23.0368 28.3799 23.0326 28.5096 22.897C28.6427 22.7573 28.94 22.7803 29.315 22.9595C29.7695 23.1768 30.2351 23.1824 31.2953 22.9836C32.1694 22.8196 33.0511 22.7983 33.6824 22.9259C35.1576 23.224 50.5809 23.2211 55.3019 22.9223C59.0422 22.6852 61.0835 22.4163 64.3814 21.7262C65.6458 21.4617 66.5024 21.3686 69.1642 21.2063C70.0207 21.1541 70.8716 21.0586 71.0551 20.9941C71.2386 20.9297 71.8893 20.7453 72.501 20.5845C73.1128 20.4237 73.7134 20.221 73.8358 20.1341C73.9582 20.0473 74.6589 19.8365 75.393 19.6659C76.1271 19.4954 76.8228 19.2677 76.9391 19.16C77.0553 19.0523 77.4248 18.9642 77.7601 18.9642C78.0955 18.9642 78.4318 18.8592 78.5074 18.7308C78.583 18.6025 79.0335 18.4974 79.5084 18.4974C79.9834 18.4974 80.425 18.4074 80.4898 18.2974C80.5546 18.1874 81.2142 17.9623 81.9555 17.7973C82.6967 17.6322 83.3562 17.4072 83.421 17.2972C83.4858 17.1871 83.8286 17.0971 84.1827 17.0971C84.5367 17.0971 85.0564 17.003 85.3374 16.888C85.9661 16.6308 87.5232 16.1745 91.0762 15.2066C92.1161 14.9232 93.0621 14.6025 93.1784 14.4939C93.2946 14.3854 93.6213 14.2965 93.9044 14.2965C94.1874 14.2965 94.5928 14.2039 94.8053 14.0906C95.3023 13.8258 97.1794 13.3629 97.7561 13.3629C98.0007 13.3629 98.3746 13.2658 98.5871 13.147C98.7995 13.0283 100.175 12.8067 101.643 12.6548C103.111 12.5028 104.663 12.2855 105.091 12.1718C105.519 12.0581 106.489 11.9646 107.247 11.9639C108.004 11.9639 108.686 11.8575 108.761 11.7292C108.837 11.6008 109.318 11.4958 109.831 11.4958C110.344 11.4958 111.464 11.3271 112.321 11.1208C113.177 10.9146 114.579 10.659 115.435 10.5528C116.292 10.4466 117.543 10.2513 118.216 10.1186C118.889 9.98589 119.79 9.8142 120.218 9.73706C120.646 9.65994 121.197 9.50552 121.441 9.39385C121.882 9.19291 123.251 8.93783 124.111 8.89662C124.356 8.88461 125.006 8.74263 125.557 8.58045C127.407 8.03555 128.33 7.79787 129.672 7.52114C130.406 7.36976 131.207 7.15992 131.452 7.05484C131.697 6.94979 132.297 6.80542 132.787 6.73408C133.276 6.66278 134.127 6.49144 134.678 6.35336C137.188 5.72398 139.36 5.23395 140.795 4.97332C141.909 4.77111 142.41 4.62376 143.242 4.25407C143.487 4.14545 144.288 3.99759 145.022 3.92576C147.24 3.70871 148.244 3.52212 148.373 3.30254C148.441 3.18775 148.866 3.08549 149.317 3.07534C150.412 3.05074 153.062 2.55451 153.272 2.33498C153.363 2.23884 153.697 2.16022 154.013 2.16022C154.329 2.16022 155.288 1.9947 156.145 1.79238C157.001 1.59009 158.403 1.33643 159.259 1.2287C160.116 1.12092 161.217 0.970474 161.706 0.894266C164.779 0.415946 166.085 0.287563 169.27 0.151188C171.227 0.0674103 173.179 0.00571881 173.607 0.0142868C174.036 0.0226052 175.037 0.0202311 175.832 0.00953601C176.627 -0.00115908 177.829 -0.00356101 178.502 0.00594574C182.562 0.0606095 185.267 0.06573 186.732 0.021286C189.264 -0.0552433 200.357 0.241072 200.979 0.401891C201.664 0.578942 204.808 0.955496 207.866 1.22682C213.923 1.76422 216.9 2.07588 221.992 2.70608C223.582 2.90294 225.935 3.09204 227.219 3.12633C228.504 3.16067 229.655 3.26143 229.778 3.35037C229.9 3.43926 230.801 3.56755 231.78 3.63538C233.957 3.78628 235.316 3.97174 236.34 4.25802C237.071 4.4621 237.52 4.55241 239.455 4.88353C239.883 4.95685 240.333 5.09586 240.456 5.19247C240.578 5.28908 241.229 5.50644 241.902 5.67549C242.575 5.84456 243.225 6.0524 243.348 6.1374C243.47 6.22249 244.221 6.41792 245.016 6.57186C246.946 6.9454 249.589 7.73176 250.703 8.26386C251.201 8.5014 251.773 8.69571 251.976 8.69571C252.178 8.69571 252.683 8.8959 253.098 9.14057C254.202 9.79083 254.616 10.0084 255.36 10.3295C255.727 10.4878 256.201 10.7101 256.414 10.8235C256.626 10.9368 256.952 11.0296 257.137 11.0296C257.322 11.0296 257.474 11.1346 257.474 11.263C257.474 11.3914 257.674 11.4964 257.918 11.4964C258.163 11.4964 258.363 11.6013 258.363 11.7298C258.363 11.8581 258.539 11.9655 258.753 11.9683C258.967 11.9707 259.392 12.1789 259.698 12.4299C260.004 12.681 260.336 12.8887 260.437 12.8915C260.537 12.8939 261.055 13.2118 261.589 13.5969C262.122 13.982 262.716 14.297 262.908 14.297C263.1 14.297 263.257 14.3764 263.257 14.4735C263.257 14.5704 263.583 14.8005 263.98 14.9846C264.378 15.1687 265.004 15.6139 265.371 15.974C265.738 16.3341 266.148 16.6292 266.282 16.6298C266.416 16.6298 267.145 17.051 267.902 17.5645C268.659 18.0779 269.375 18.498 269.494 18.498C269.612 18.498 269.709 18.603 269.709 18.7314C269.709 18.8598 269.837 18.9648 269.993 18.9648C270.15 18.9648 270.422 19.1749 270.598 19.4316C270.775 19.6883 271.002 19.8984 271.103 19.8984C271.204 19.8984 272.158 20.8483 273.223 22.0094C274.288 23.1705 276.135 25.1757 277.328 26.4653C278.521 27.755 279.497 28.9013 279.497 29.0126C279.497 29.1239 279.733 29.4556 280.022 29.7496C280.311 30.0436 280.787 30.7568 281.079 31.3344C281.371 31.9121 281.668 32.4372 281.739 32.5014C281.81 32.5654 282.103 33.1169 282.39 33.7267C282.678 34.3364 282.98 34.8353 283.062 34.8353C283.253 34.8353 283.925 36.4082 284.058 37.1691C284.115 37.49 284.208 38.0152 284.265 38.3361C284.323 38.657 284.433 41.4402 284.511 44.5209C284.594 47.8056 284.748 50.2429 284.883 50.414C285.042 50.616 285.039 50.7057 284.873 50.7057C284.724 50.7057 284.638 51.381 284.642 52.5144C284.649 54.3433 284.32 57.0184 283.969 57.9932C283.864 58.2852 283.765 58.9968 283.749 59.5745C283.681 62.0476 283.085 64.5802 282.023 66.9116C281.734 67.5453 281.498 68.155 281.498 68.2663C281.498 68.7895 280.118 71.7248 279.562 72.3847C279.218 72.7927 278.251 74.1488 277.716 74.9724C277.532 75.255 277.158 75.7439 276.884 76.0589C276.609 76.3739 276.325 76.8822 276.252 77.1884C276.179 77.4946 275.983 77.7997 275.817 77.8666C275.651 77.9334 275.346 78.3298 275.141 78.7473C274.782 79.4753 274.293 80.1127 274.094 80.1127C274.042 80.1127 273.091 81.0579 271.98 82.2132C270.87 83.3685 269.908 84.3137 269.843 84.3137C269.779 84.3137 269.317 84.7338 268.818 85.2473C268.318 85.7607 267.721 86.1808 267.489 86.1808C267.258 86.1808 267.004 86.3908 266.927 86.6476C266.849 86.9043 266.661 87.1144 266.509 87.1144C266.357 87.1144 266.033 87.2982 265.79 87.5228C265.328 87.9488 264.823 88.278 263.423 89.0655C262.964 89.3236 262.589 89.6204 262.589 89.725C262.589 89.8294 262.408 89.915 262.186 89.915C261.964 89.915 261.568 90.1251 261.305 90.3818C261.043 90.6385 260.648 90.8509 260.429 90.8538C260.21 90.8562 259.78 91.0644 259.475 91.3154C259.169 91.5664 258.768 91.7764 258.585 91.7822C258.401 91.7881 257.65 92.103 256.916 92.4823C256.182 92.8617 255.465 93.1744 255.322 93.1773C255.179 93.1796 255.029 93.2612 254.988 93.3575C254.848 93.6892 250.87 95.5163 250.288 95.5163C250.114 95.5163 249.382 95.8197 248.661 96.1905C247.94 96.5612 246.9 97.0028 246.35 97.1716C245.799 97.3404 245.02 97.6672 244.619 97.8978C244.218 98.1283 243.742 98.317 243.562 98.317C243.382 98.317 243.235 98.4632 243.235 98.6418C243.235 98.8204 242.985 99.0325 242.679 99.113C242.373 99.1936 242.123 99.3625 242.123 99.4885C242.123 99.6144 241.988 99.7174 241.823 99.7174C241.399 99.7174 240.218 100.363 239.895 100.772C239.744 100.962 239.509 101.12 239.371 101.123C239.233 101.125 238.87 101.333 238.564 101.584C238.258 101.835 237.832 102.043 237.618 102.046C237.404 102.048 237.229 102.139 237.229 102.247C237.229 102.355 236.831 102.581 236.345 102.749C235.859 102.918 235.262 103.25 235.019 103.487C234.777 103.724 234.474 103.918 234.346 103.918C234.219 103.918 234.115 104.023 234.115 104.152C234.115 104.28 233.963 104.385 233.778 104.385C233.445 104.385 232.551 104.835 232.335 105.111C232.274 105.189 231.823 105.395 231.334 105.569C230.844 105.743 230.178 106.073 229.854 106.302C229.529 106.531 229.078 106.721 228.852 106.724C228.627 106.727 228.192 106.935 227.886 107.186C227.58 107.437 227.154 107.645 226.94 107.647C226.726 107.65 226.551 107.758 226.551 107.886C226.551 108.014 226.383 108.119 226.177 108.119C225.702 108.119 223.173 109.039 222.892 109.314C222.775 109.427 222.417 109.52 222.095 109.52C221.772 109.52 221.44 109.592 221.356 109.68C221.109 109.939 219.586 110.446 219.043 110.45C218.768 110.452 218.543 110.537 218.543 110.64C218.543 110.742 218.167 110.959 217.708 111.122C216.802 111.443 215.828 111.9 215.651 112.087C215.435 112.314 214.412 112.762 212.981 113.254C212.186 113.527 211.335 113.845 211.09 113.96C210.846 114.075 210.045 114.342 209.311 114.553C208.577 114.763 207.776 115.063 207.531 115.22C207.286 115.376 206.285 115.688 205.306 115.913C203.084 116.423 201.598 116.969 201.746 117.22C201.808 117.325 201.333 117.47 200.691 117.542C197.996 117.844 197.275 117.956 196.853 118.142C195.353 118.802 192.999 119.412 190.847 119.697C190.357 119.762 189.757 119.906 189.512 120.018C188.936 120.28 188.052 120.48 186.398 120.722C184.747 120.964 183.861 121.164 183.283 121.426C182.768 121.659 181.574 121.869 179.835 122.032C179.162 122.095 178.461 122.211 178.278 122.289C178.094 122.366 177.855 122.409 177.745 122.382C177.636 122.356 177.236 122.456 176.856 122.605C175.889 122.984 173.071 123.533 168.49 124.235C167.572 124.375 166.471 124.58 166.043 124.689C165.615 124.798 164.313 125.012 163.151 125.164C161.989 125.316 160.937 125.508 160.815 125.59C160.693 125.673 160.242 125.75 159.814 125.761C159.386 125.772 158.496 125.904 157.837 126.053C157.178 126.202 155.75 126.324 154.664 126.324C153.578 126.324 152.516 126.422 152.303 126.542C152.091 126.661 151.141 126.892 150.193 127.055C149.245 127.217 148.469 127.434 148.469 127.537C148.469 127.64 147.374 127.724 146.035 127.724C144.696 127.724 143.546 127.818 143.478 127.932C143.411 128.047 142.529 128.153 141.519 128.168C140.508 128.183 139.648 128.3 139.608 128.427C139.567 128.554 139.093 128.658 138.554 128.658C137.487 128.658 135.566 129.124 135.566 129.383C135.566 129.63 137.436 129.506 137.612 129.248C137.826 128.934 138.051 129.218 137.903 129.616C137.729 130.088 136.713 130.525 135.789 130.525C135.348 130.525 134.874 130.644 134.735 130.79C134.562 130.971 133.044 131.053 129.931 131.047L125.38 131.039L125.25 131.72L125.12 132.402L122.947 132.222C119.343 131.923 111.621 132.151 109.07 132.632C107.77 132.877 104.252 133.096 103.866 132.956L103.867 132.955Z" fill="#E3DFDD"/>
</svg>
