<svg width="274" height="160" viewBox="0 0 274 160" fill="none" xmlns="http://www.w3.org/2000/svg">
<path d="M70.1992 19.8403L68.2188 23.6807H69.812L71.3608 19.8403H70.1992ZM72.9351 19.8403L71.0625 23.6807H72.6558L74.0967 19.8403H72.9351ZM81.752 22.9443H83.3579C83.3643 22.8809 83.3706 22.8237 83.3706 22.7603C83.3706 20.9639 81.8154 19.6118 79.7588 19.6118C76.8896 19.6118 74.8013 22.0493 74.8013 25.4263C74.8013 27.7241 76.2739 29.2285 78.5083 29.2285C80.6411 29.2285 82.2471 28.0732 82.6724 26.2515H81.0283C80.7173 27.1592 79.7715 27.7622 78.6606 27.7622C77.3213 27.7622 76.4834 26.8164 76.4834 25.2993C76.4834 22.9062 77.8608 21.0781 79.6509 21.0781C80.8633 21.0781 81.6885 21.7954 81.752 22.8872C81.752 22.9253 81.752 22.9316 81.752 22.9443ZM87.9219 21.916C85.7002 21.916 84.0815 23.7061 84.0815 26.1626C84.0815 27.9399 85.2939 29.1396 87.0903 29.1396C89.2866 29.1396 90.9116 27.3306 90.9116 24.8931C90.9116 23.103 89.7119 21.916 87.9219 21.916ZM87.2109 27.8193C86.3159 27.8193 85.7319 27.1401 85.7319 26.0801C85.7319 24.4297 86.6079 23.2363 87.8203 23.2363C88.7217 23.2363 89.2549 23.9155 89.2549 25.0518C89.2549 26.5688 88.3345 27.8193 87.2109 27.8193ZM91.7305 29H93.311L94.2251 24.7217C94.4092 23.8457 95.0757 23.2871 95.7866 23.2871C96.4531 23.2871 96.8594 23.7505 96.8594 24.3535C96.8594 24.5249 96.8276 24.7153 96.7832 24.9312L95.9263 29H97.4688L98.3638 24.7661C98.5605 23.8457 99.2207 23.2871 99.938 23.2871C100.604 23.2871 101.004 23.7505 101.004 24.3535C101.004 24.5249 100.979 24.7153 100.935 24.9312L100.071 29H101.652L102.566 24.6836C102.623 24.3916 102.655 24.1187 102.655 23.8647C102.655 22.7603 101.842 21.9414 100.712 21.9414C99.665 21.9414 98.9351 22.481 98.478 23.2046H98.3701C98.1987 22.5508 97.5513 21.9414 96.561 21.9414C95.7612 21.9414 95.0122 22.4492 94.606 23.1729H94.4917L94.7329 22.0557H93.2031L91.7305 29ZM103.486 29H105.067L105.981 24.7217C106.165 23.8457 106.832 23.2871 107.542 23.2871C108.209 23.2871 108.615 23.7505 108.615 24.3535C108.615 24.5249 108.583 24.7153 108.539 24.9312L107.682 29H109.225L110.12 24.7661C110.316 23.8457 110.977 23.2871 111.694 23.2871C112.36 23.2871 112.76 23.7505 112.76 24.3535C112.76 24.5249 112.735 24.7153 112.69 24.9312L111.827 29H113.408L114.322 24.6836C114.379 24.3916 114.411 24.1187 114.411 23.8647C114.411 22.7603 113.598 21.9414 112.468 21.9414C111.421 21.9414 110.691 22.481 110.234 23.2046H110.126C109.955 22.5508 109.307 21.9414 108.317 21.9414C107.517 21.9414 106.768 22.4492 106.362 23.1729H106.248L106.489 22.0557H104.959L103.486 29ZM122.783 22.0557H121.203L120.333 26.1499C120.124 27.1084 119.476 27.7622 118.537 27.7622C117.737 27.7622 117.35 27.3813 117.35 26.6006C117.35 26.4609 117.381 26.1753 117.426 25.9722L118.257 22.0557H116.67L115.794 26.2261C115.737 26.5244 115.699 26.9053 115.699 27.1147C115.699 28.3145 116.537 29.1396 117.807 29.1396C118.803 29.1396 119.495 28.6763 119.901 27.9907H120.009L119.787 29H121.311L122.783 22.0557ZM123.189 29H124.77L125.659 24.855C125.855 23.9536 126.497 23.2871 127.404 23.2871C128.198 23.2871 128.642 23.7822 128.642 24.4868C128.642 24.6646 128.617 24.855 128.572 25.0708L127.734 29H129.309L130.204 24.8042C130.261 24.5186 130.292 24.2393 130.292 23.9917C130.292 22.8618 129.505 21.9414 128.198 21.9414C127.188 21.9414 126.516 22.4556 126.078 23.1348H125.963L126.198 22.0557H124.668L123.189 29ZM133.314 29.1143C134.139 29.1143 134.901 28.7334 135.326 28.124H135.44L135.25 29H136.78L137.738 24.4868C137.77 24.3154 137.795 24.106 137.795 23.9219C137.795 22.7158 136.71 21.916 135.079 21.916C133.555 21.916 132.406 22.6841 132.102 23.9092H133.638C133.828 23.4521 134.298 23.1982 134.958 23.1982C135.751 23.1982 136.234 23.541 136.234 24.0996C136.234 24.1821 136.221 24.252 136.196 24.3789L136.101 24.8232L134.285 24.8931C132.343 24.9629 131.232 25.8135 131.232 27.21C131.232 28.2891 132.127 29.1143 133.314 29.1143ZM133.936 27.8828C133.263 27.8828 132.793 27.5146 132.793 26.9941C132.793 26.3911 133.352 25.9912 134.298 25.9531L135.878 25.8833L135.732 26.5562C135.561 27.3242 134.812 27.8828 133.936 27.8828ZM138.659 29H140.246L142.296 19.3706H140.703L138.659 29ZM145.717 29H147.298L148.187 24.8232C148.383 23.9155 149.031 23.2617 149.951 23.2617C150.751 23.2617 151.221 23.7314 151.221 24.4551C151.221 24.6392 151.189 24.8296 151.151 25.0327L150.307 29H151.887L152.782 24.7725C152.839 24.4805 152.871 24.2075 152.871 23.9536C152.871 22.8428 152.084 21.9287 150.751 21.9287C149.71 21.9287 149.088 22.4429 148.656 23.0967H148.548L149.348 19.4023H147.768L145.717 29ZM155.886 29.1143C156.711 29.1143 157.473 28.7334 157.898 28.124H158.013L157.822 29H159.352L160.311 24.4868C160.342 24.3154 160.368 24.106 160.368 23.9219C160.368 22.7158 159.282 21.916 157.651 21.916C156.127 21.916 154.979 22.6841 154.674 23.9092H156.21C156.4 23.4521 156.87 23.1982 157.53 23.1982C158.324 23.1982 158.806 23.541 158.806 24.0996C158.806 24.1821 158.793 24.252 158.768 24.3789L158.673 24.8232L156.857 24.8931C154.915 24.9629 153.804 25.8135 153.804 27.21C153.804 28.2891 154.699 29.1143 155.886 29.1143ZM156.508 27.8828C155.835 27.8828 155.366 27.5146 155.366 26.9941C155.366 26.3911 155.924 25.9912 156.87 25.9531L158.451 25.8833L158.305 26.5562C158.133 27.3242 157.384 27.8828 156.508 27.8828ZM162.05 24.0996C162.05 25.0137 162.583 25.585 163.675 25.9595L164.754 26.3213C165.325 26.5054 165.522 26.7529 165.522 27.0894C165.522 27.5972 164.982 27.9463 164.183 27.9463C163.427 27.9463 162.9 27.5718 162.773 27.0513H161.231C161.301 28.2954 162.475 29.1396 164.164 29.1396C165.896 29.1396 167.109 28.2383 167.109 26.9243C167.109 26.0229 166.626 25.4644 165.484 25.0835L164.424 24.7217C163.859 24.5312 163.58 24.2964 163.58 23.9409C163.58 23.4585 164.1 23.1157 164.817 23.1157C165.522 23.1157 166.023 23.4268 166.131 23.9219H167.604C167.477 22.7158 166.436 21.916 164.83 21.916C163.199 21.916 162.05 22.7856 162.05 24.0996ZM175.107 29.1396C176.783 29.1396 177.957 28.2891 178.262 27.083H176.707C176.472 27.5591 175.983 27.8574 175.202 27.8574C174.396 27.8574 173.641 27.3369 173.641 26.1372C173.641 26.061 173.647 25.9658 173.653 25.8896H178.554C178.611 25.585 178.655 25.0645 178.655 24.7915C178.649 23.0015 177.405 21.916 175.824 21.916C173.647 21.916 172.124 23.6362 172.124 26.188C172.124 28.0605 173.393 29.1396 175.107 29.1396ZM173.831 24.8232C174.098 23.833 174.815 23.1729 175.742 23.1729C176.637 23.1729 177.132 23.7949 177.132 24.5693C177.132 24.6582 177.125 24.7852 177.119 24.8232H173.831ZM179.48 29H181.061L181.95 24.855C182.146 23.9536 182.788 23.2871 183.695 23.2871C184.489 23.2871 184.933 23.7822 184.933 24.4868C184.933 24.6646 184.908 24.855 184.863 25.0708L184.025 29H185.6L186.495 24.8042C186.552 24.5186 186.583 24.2393 186.583 23.9917C186.583 22.8618 185.796 21.9414 184.489 21.9414C183.479 21.9414 182.807 22.4556 182.369 23.1348H182.254L182.489 22.0557H180.959L179.48 29ZM189.605 29.1143C190.43 29.1143 191.192 28.7334 191.617 28.124H191.731L191.541 29H193.071L194.029 24.4868C194.061 24.3154 194.086 24.106 194.086 23.9219C194.086 22.7158 193.001 21.916 191.37 21.916C189.846 21.916 188.697 22.6841 188.393 23.9092H189.929C190.119 23.4521 190.589 23.1982 191.249 23.1982C192.042 23.1982 192.525 23.541 192.525 24.0996C192.525 24.1821 192.512 24.252 192.487 24.3789L192.392 24.8232L190.576 24.8931C188.634 24.9629 187.523 25.8135 187.523 27.21C187.523 28.2891 188.418 29.1143 189.605 29.1143ZM190.227 27.8828C189.554 27.8828 189.084 27.5146 189.084 26.9941C189.084 26.3911 189.643 25.9912 190.589 25.9531L192.169 25.8833L192.023 26.5562C191.852 27.3242 191.103 27.8828 190.227 27.8828ZM198.942 29.1143C200.91 29.1143 202.44 27.1782 202.44 24.6074C202.44 23.0142 201.424 21.9414 200.034 21.9414C199.101 21.9414 198.39 22.3286 197.914 23.0142L197.8 23.0205L198.568 19.3706H196.994L194.95 29H196.473L196.746 27.7368H196.854C197.108 28.5493 197.978 29.1143 198.942 29.1143ZM198.657 27.7559C197.774 27.7559 197.178 27.1528 197.178 26.1182C197.178 24.5503 198.149 23.2681 199.374 23.2681C200.244 23.2681 200.802 23.8394 200.802 24.8677C200.802 26.5181 199.869 27.7559 198.657 27.7559ZM203.278 29H204.865L206.915 19.3706H205.322L203.278 29ZM210.209 29.1396C211.885 29.1396 213.06 28.2891 213.364 27.083H211.809C211.574 27.5591 211.085 27.8574 210.305 27.8574C209.499 27.8574 208.743 27.3369 208.743 26.1372C208.743 26.061 208.75 25.9658 208.756 25.8896H213.656C213.713 25.585 213.758 25.0645 213.758 24.7915C213.751 23.0015 212.507 21.916 210.927 21.916C208.75 21.916 207.226 23.6362 207.226 26.188C207.226 28.0605 208.496 29.1396 210.209 29.1396ZM208.934 24.8232C209.2 23.833 209.917 23.1729 210.844 23.1729C211.739 23.1729 212.234 23.7949 212.234 24.5693C212.234 24.6582 212.228 24.7852 212.222 24.8232H208.934ZM217.408 29.1143C218.315 29.1143 219.071 28.6953 219.553 28.0415H219.667L219.464 29H220.988L223.032 19.3706H221.451L220.62 23.2744H220.505C220.277 22.5063 219.515 21.9414 218.5 21.9414C216.513 21.9414 214.958 23.8076 214.958 26.3657C214.958 28.0669 216.024 29.1143 217.408 29.1143ZM218.055 27.7876C217.205 27.7876 216.595 27.1338 216.595 26.1055C216.595 24.4805 217.547 23.2935 218.753 23.2935C219.642 23.2935 220.232 23.9028 220.232 24.9312C220.232 26.5054 219.28 27.7876 218.055 27.7876ZM67.2031 45H68.7837L69.6978 40.7217C69.8818 39.8457 70.5483 39.2871 71.2593 39.2871C71.9258 39.2871 72.332 39.7505 72.332 40.3535C72.332 40.5249 72.3003 40.7153 72.2559 40.9312L71.3989 45H72.9414L73.8364 40.7661C74.0332 39.8457 74.6934 39.2871 75.4106 39.2871C76.0771 39.2871 76.4771 39.7505 76.4771 40.3535C76.4771 40.5249 76.4517 40.7153 76.4072 40.9312L75.5439 45H77.1245L78.0386 40.6836C78.0957 40.3916 78.1274 40.1187 78.1274 39.8647C78.1274 38.7603 77.3149 37.9414 76.1851 37.9414C75.1377 37.9414 74.4077 38.481 73.9507 39.2046H73.8428C73.6714 38.5508 73.0239 37.9414 72.0337 37.9414C71.2339 37.9414 70.4849 38.4492 70.0786 39.1729H69.9644L70.2056 38.0557H68.6758L67.2031 45ZM79.0986 47.5327C80.4634 47.5327 81.3013 47.0312 82.1709 45.438L86.2969 38.0557H84.6021L81.8789 43.356H81.7646L81.2124 38.0557H79.6191L80.603 44.9937L80.4253 45.3364C80.0825 46.0093 79.6572 46.2505 79.0986 46.2505C78.9082 46.2505 78.6162 46.2188 78.5273 46.1997L78.2671 47.4692C78.3496 47.4883 78.8765 47.5327 79.0986 47.5327ZM90.1436 45H91.7305L92.9238 39.3569H94.4155L94.6758 38.1001H93.1587L93.2729 37.5098C93.3936 36.9067 93.7427 36.6338 94.2949 36.6338C94.625 36.6338 94.8535 36.6655 94.9932 36.7036L95.2344 35.5483C95.0122 35.4912 94.6504 35.4277 94.2188 35.4277C92.7778 35.4277 91.9971 35.9927 91.7305 37.3511L91.5781 38.1001H90.4546L90.1943 39.3569H91.3306L90.1436 45ZM96.6626 45.1143C97.4878 45.1143 98.2495 44.7334 98.6748 44.124H98.7891L98.5986 45H100.128L101.087 40.4868C101.119 40.3154 101.144 40.106 101.144 39.9219C101.144 38.7158 100.059 37.916 98.4272 37.916C96.9038 37.916 95.7549 38.6841 95.4502 39.9092H96.9863C97.1768 39.4521 97.6465 39.1982 98.3066 39.1982C99.1001 39.1982 99.5825 39.541 99.5825 40.0996C99.5825 40.1821 99.5698 40.252 99.5444 40.3789L99.4492 40.8232L97.6338 40.8931C95.6914 40.9629 94.5806 41.8135 94.5806 43.21C94.5806 44.2891 95.4756 45.1143 96.6626 45.1143ZM97.2847 43.8828C96.6118 43.8828 96.1421 43.5146 96.1421 42.9941C96.1421 42.3911 96.7007 41.9912 97.6465 41.9531L99.2271 41.8833L99.0811 42.5562C98.9097 43.3242 98.1606 43.8828 97.2847 43.8828ZM101.95 45H103.531L104.445 40.7217C104.629 39.8457 105.295 39.2871 106.006 39.2871C106.673 39.2871 107.079 39.7505 107.079 40.3535C107.079 40.5249 107.047 40.7153 107.003 40.9312L106.146 45H107.688L108.583 40.7661C108.78 39.8457 109.44 39.2871 110.158 39.2871C110.824 39.2871 111.224 39.7505 111.224 40.3535C111.224 40.5249 111.199 40.7153 111.154 40.9312L110.291 45H111.872L112.786 40.6836C112.843 40.3916 112.875 40.1187 112.875 39.8647C112.875 38.7603 112.062 37.9414 110.932 37.9414C109.885 37.9414 109.155 38.481 108.698 39.2046H108.59C108.418 38.5508 107.771 37.9414 106.781 37.9414C105.981 37.9414 105.232 38.4492 104.826 39.1729H104.711L104.953 38.0557H103.423L101.95 45ZM116.474 36.9067C116.988 36.9067 117.413 36.4878 117.413 35.9609C117.413 35.4341 116.988 35.0088 116.474 35.0088C115.959 35.0088 115.534 35.4341 115.534 35.9609C115.534 36.4878 115.959 36.9067 116.474 36.9067ZM113.782 45H115.356L116.829 38.0557H115.255L113.782 45ZM117.381 45H118.968L121.019 35.3706H119.425L117.381 45ZM121.311 47.5327C122.675 47.5327 123.513 47.0312 124.383 45.438L128.509 38.0557H126.814L124.091 43.356H123.977L123.424 38.0557H121.831L122.815 44.9937L122.637 45.3364C122.294 46.0093 121.869 46.2505 121.311 46.2505C121.12 46.2505 120.828 46.2188 120.739 46.1997L120.479 47.4692C120.562 47.4883 121.088 47.5327 121.311 47.5327ZM134.571 45.0317C134.926 45.0317 135.25 45.0127 135.453 44.9619L135.707 43.7432C135.555 43.7622 135.383 43.7749 135.18 43.7749C134.666 43.7749 134.374 43.5718 134.374 43.1084C134.374 42.9814 134.399 42.8164 134.438 42.626L135.142 39.3569H136.64L136.913 38.1001H135.396L135.771 36.3545H134.184L133.822 38.1001H132.686L132.425 39.3569H133.555L132.781 42.9814C132.736 43.1973 132.711 43.4067 132.711 43.5845C132.711 44.5239 133.466 45.0317 134.571 45.0317ZM141.128 37.916C138.906 37.916 137.288 39.7061 137.288 42.1626C137.288 43.9399 138.5 45.1396 140.296 45.1396C142.493 45.1396 144.118 43.3306 144.118 40.8931C144.118 39.103 142.918 37.916 141.128 37.916ZM140.417 43.8193C139.522 43.8193 138.938 43.1401 138.938 42.0801C138.938 40.4297 139.814 39.2363 141.026 39.2363C141.928 39.2363 142.461 39.9155 142.461 41.0518C142.461 42.5688 141.541 43.8193 140.417 43.8193ZM152.452 45.1143C154.42 45.1143 155.95 43.1782 155.95 40.6074C155.95 39.0142 154.934 37.9414 153.544 37.9414C152.611 37.9414 151.9 38.3286 151.424 39.0142L151.31 39.0205L152.078 35.3706H150.503L148.459 45H149.983L150.256 43.7368H150.364C150.618 44.5493 151.487 45.1143 152.452 45.1143ZM152.167 43.7559C151.284 43.7559 150.688 43.1528 150.688 42.1182C150.688 40.5503 151.659 39.2681 152.884 39.2681C153.753 39.2681 154.312 39.8394 154.312 40.8677C154.312 42.5181 153.379 43.7559 152.167 43.7559ZM164.271 38.0557H162.691L161.821 42.1499C161.612 43.1084 160.964 43.7622 160.025 43.7622C159.225 43.7622 158.838 43.3813 158.838 42.6006C158.838 42.4609 158.87 42.1753 158.914 41.9722L159.746 38.0557H158.159L157.283 42.2261C157.226 42.5244 157.188 42.9053 157.188 43.1147C157.188 44.3145 158.025 45.1396 159.295 45.1396C160.292 45.1396 160.983 44.6763 161.39 43.9907H161.498L161.275 45H162.799L164.271 38.0557ZM167.445 36.9067C167.959 36.9067 168.385 36.4878 168.385 35.9609C168.385 35.4341 167.959 35.0088 167.445 35.0088C166.931 35.0088 166.506 35.4341 166.506 35.9609C166.506 36.4878 166.931 36.9067 167.445 36.9067ZM164.754 45H166.328L167.801 38.0557H166.227L164.754 45ZM168.353 45H169.94L171.99 35.3706H170.397L168.353 45ZM174.713 45.1143C175.621 45.1143 176.376 44.6953 176.859 44.0415H176.973L176.77 45H178.293L180.337 35.3706H178.757L177.925 39.2744H177.811C177.583 38.5063 176.821 37.9414 175.805 37.9414C173.818 37.9414 172.263 39.8076 172.263 42.3657C172.263 44.0669 173.33 45.1143 174.713 45.1143ZM175.361 43.7876C174.51 43.7876 173.901 43.1338 173.901 42.1055C173.901 40.4805 174.853 39.2935 176.059 39.2935C176.948 39.2935 177.538 39.9028 177.538 40.9312C177.538 42.5054 176.586 43.7876 175.361 43.7876ZM67.1714 61H68.752L69.5898 57.0708C69.8374 55.9346 70.4277 55.3823 71.418 55.3823C71.71 55.3823 72.1543 55.4458 72.4082 55.5347L72.7256 54.0684C72.5415 53.9922 72.1987 53.9414 71.8687 53.9414C71.0942 53.9414 70.4976 54.2969 70.0913 54.9824H69.9834L70.1738 54.0557H68.644L67.1714 61ZM75.9185 61.1396C77.5942 61.1396 78.7686 60.2891 79.0732 59.083H77.5181C77.2832 59.5591 76.7944 59.8574 76.0137 59.8574C75.2075 59.8574 74.4521 59.3369 74.4521 58.1372C74.4521 58.061 74.4585 57.9658 74.4648 57.8896H79.3652C79.4224 57.585 79.4668 57.0645 79.4668 56.7915C79.4604 55.0015 78.2163 53.916 76.6357 53.916C74.4585 53.916 72.9351 55.6362 72.9351 58.188C72.9351 60.0605 74.2046 61.1396 75.9185 61.1396ZM74.6426 56.8232C74.9092 55.833 75.6265 55.1729 76.5532 55.1729C77.4482 55.1729 77.9434 55.7949 77.9434 56.5693C77.9434 56.6582 77.937 56.7852 77.9307 56.8232H74.6426ZM80.3491 61H81.936L83.9863 51.3706H82.3931L80.3491 61ZM86.0493 61.1143C86.8745 61.1143 87.6362 60.7334 88.0615 60.124H88.1758L87.9854 61H89.5151L90.4736 56.4868C90.5054 56.3154 90.5308 56.106 90.5308 55.9219C90.5308 54.7158 89.4453 53.916 87.814 53.916C86.2905 53.916 85.1416 54.6841 84.8369 55.9092H86.373C86.5635 55.4521 87.0332 55.1982 87.6934 55.1982C88.4868 55.1982 88.9692 55.541 88.9692 56.0996C88.9692 56.1821 88.9565 56.252 88.9312 56.3789L88.8359 56.8232L87.0205 56.8931C85.0781 56.9629 83.9673 57.8135 83.9673 59.21C83.9673 60.2891 84.8623 61.1143 86.0493 61.1143ZM86.6714 59.8828C85.9985 59.8828 85.5288 59.5146 85.5288 58.9941C85.5288 58.3911 86.0874 57.9912 87.0332 57.9531L88.6138 57.8833L88.4678 58.5562C88.2964 59.3242 87.5474 59.8828 86.6714 59.8828ZM94.0728 61.0317C94.4282 61.0317 94.752 61.0127 94.9551 60.9619L95.209 59.7432C95.0566 59.7622 94.8853 59.7749 94.6821 59.7749C94.168 59.7749 93.876 59.5718 93.876 59.1084C93.876 58.9814 93.9014 58.8164 93.9395 58.626L94.644 55.3569H96.1421L96.415 54.1001H94.8979L95.2725 52.3545H93.6855L93.3237 54.1001H92.1875L91.9272 55.3569H93.0571L92.2827 58.9814C92.2383 59.1973 92.2129 59.4067 92.2129 59.5845C92.2129 60.5239 92.9683 61.0317 94.0728 61.0317ZM99.2461 52.9067C99.7603 52.9067 100.186 52.4878 100.186 51.9609C100.186 51.4341 99.7603 51.0088 99.2461 51.0088C98.7319 51.0088 98.3066 51.4341 98.3066 51.9609C98.3066 52.4878 98.7319 52.9067 99.2461 52.9067ZM96.5547 61H98.1289L99.6016 54.0557H98.0273L96.5547 61ZM104.337 53.916C102.115 53.916 100.497 55.7061 100.497 58.1626C100.497 59.9399 101.709 61.1396 103.505 61.1396C105.702 61.1396 107.327 59.3306 107.327 56.8931C107.327 55.103 106.127 53.916 104.337 53.916ZM103.626 59.8193C102.731 59.8193 102.147 59.1401 102.147 58.0801C102.147 56.4297 103.023 55.2363 104.235 55.2363C105.137 55.2363 105.67 55.9155 105.67 57.0518C105.67 58.5688 104.75 59.8193 103.626 59.8193ZM108.146 61H109.726L110.615 56.855C110.812 55.9536 111.453 55.2871 112.36 55.2871C113.154 55.2871 113.598 55.7822 113.598 56.4868C113.598 56.6646 113.573 56.855 113.528 57.0708L112.69 61H114.265L115.16 56.8042C115.217 56.5186 115.249 56.2393 115.249 55.9917C115.249 54.8618 114.461 53.9414 113.154 53.9414C112.145 53.9414 111.472 54.4556 111.034 55.1348H110.919L111.154 54.0557H109.625L108.146 61ZM116.981 56.0996C116.981 57.0137 117.515 57.585 118.606 57.9595L119.686 58.3213C120.257 58.5054 120.454 58.7529 120.454 59.0894C120.454 59.5972 119.914 59.9463 119.114 59.9463C118.359 59.9463 117.832 59.5718 117.705 59.0513H116.163C116.232 60.2954 117.407 61.1396 119.095 61.1396C120.828 61.1396 122.041 60.2383 122.041 58.9243C122.041 58.0229 121.558 57.4644 120.416 57.0835L119.355 56.7217C118.791 56.5312 118.511 56.2964 118.511 55.9409C118.511 55.4585 119.032 55.1157 119.749 55.1157C120.454 55.1157 120.955 55.4268 121.063 55.9219H122.536C122.409 54.7158 121.368 53.916 119.762 53.916C118.13 53.916 116.981 54.7856 116.981 56.0996ZM137.44 54.0557H135.866L133.606 59.2417H133.492L133.263 54.0557H131.714L129.328 59.2036H129.22L129.086 54.0557H127.576L127.988 61H129.62L132.006 56.0298H132.114L132.419 61H134.082L137.44 54.0557ZM140.087 52.9067C140.601 52.9067 141.026 52.4878 141.026 51.9609C141.026 51.4341 140.601 51.0088 140.087 51.0088C139.573 51.0088 139.147 51.4341 139.147 51.9609C139.147 52.4878 139.573 52.9067 140.087 52.9067ZM137.396 61H138.97L140.442 54.0557H138.868L137.396 61ZM143.673 61.0317C144.029 61.0317 144.353 61.0127 144.556 60.9619L144.81 59.7432C144.657 59.7622 144.486 59.7749 144.283 59.7749C143.769 59.7749 143.477 59.5718 143.477 59.1084C143.477 58.9814 143.502 58.8164 143.54 58.626L144.245 55.3569H145.743L146.016 54.1001H144.499L144.873 52.3545H143.286L142.924 54.1001H141.788L141.528 55.3569H142.658L141.883 58.9814C141.839 59.1973 141.813 59.4067 141.813 59.5845C141.813 60.5239 142.569 61.0317 143.673 61.0317ZM146.136 61H147.717L148.605 56.8232C148.802 55.9155 149.45 55.2617 150.37 55.2617C151.17 55.2617 151.64 55.7314 151.64 56.4551C151.64 56.6392 151.608 56.8296 151.57 57.0327L150.726 61H152.306L153.201 56.7725C153.258 56.4805 153.29 56.2075 153.29 55.9536C153.29 54.8428 152.503 53.9287 151.17 53.9287C150.129 53.9287 149.507 54.4429 149.075 55.0967H148.967L149.767 51.4023H148.187L146.136 61ZM157.606 61H159.187L160.076 56.855C160.272 55.9536 160.914 55.2871 161.821 55.2871C162.615 55.2871 163.059 55.7822 163.059 56.4868C163.059 56.6646 163.034 56.855 162.989 57.0708L162.151 61H163.726L164.621 56.8042C164.678 56.5186 164.709 56.2393 164.709 55.9917C164.709 54.8618 163.922 53.9414 162.615 53.9414C161.605 53.9414 160.933 54.4556 160.495 55.1348H160.38L160.615 54.0557H159.085L157.606 61ZM168.962 61.1396C170.638 61.1396 171.812 60.2891 172.117 59.083H170.562C170.327 59.5591 169.838 59.8574 169.058 59.8574C168.251 59.8574 167.496 59.3369 167.496 58.1372C167.496 58.061 167.502 57.9658 167.509 57.8896H172.409C172.466 57.585 172.511 57.0645 172.511 56.7915C172.504 55.0015 171.26 53.916 169.68 53.916C167.502 53.916 165.979 55.6362 165.979 58.188C165.979 60.0605 167.249 61.1396 168.962 61.1396ZM167.687 56.8232C167.953 55.833 168.67 55.1729 169.597 55.1729C170.492 55.1729 170.987 55.7949 170.987 56.5693C170.987 56.6582 170.981 56.7852 170.975 56.8232H167.687ZM176.104 52.9067C176.618 52.9067 177.043 52.4878 177.043 51.9609C177.043 51.4341 176.618 51.0088 176.104 51.0088C175.589 51.0088 175.164 51.4341 175.164 51.9609C175.164 52.4878 175.589 52.9067 176.104 52.9067ZM173.412 61H174.986L176.459 54.0557H174.885L173.412 61ZM179.753 63.6406C181.658 63.6406 182.927 62.7456 183.232 61.2983L184.787 54.0557H183.257L182.991 55.2935H182.883C182.616 54.4873 181.766 53.9414 180.801 53.9414C178.858 53.9414 177.354 55.7505 177.354 58.2007C177.354 59.8003 178.408 60.873 179.804 60.873C180.68 60.873 181.397 60.5366 181.867 59.8765H181.975L181.689 61.127C181.505 61.9204 180.928 62.4409 179.861 62.4409C178.954 62.4409 178.395 62.0664 178.332 61.5776H176.738C176.764 62.7266 177.976 63.6406 179.753 63.6406ZM180.433 59.6543C179.544 59.6543 178.979 59.0259 178.979 57.9849C178.979 56.3853 179.868 55.2935 181.055 55.2935C181.975 55.2935 182.559 55.9346 182.559 56.9312C182.559 58.5117 181.632 59.6543 180.433 59.6543ZM185.25 61H186.831L187.72 56.8232C187.917 55.9155 188.564 55.2617 189.484 55.2617C190.284 55.2617 190.754 55.7314 190.754 56.4551C190.754 56.6392 190.722 56.8296 190.684 57.0327L189.84 61H191.42L192.315 56.7725C192.373 56.4805 192.404 56.2075 192.404 55.9536C192.404 54.8428 191.617 53.9287 190.284 53.9287C189.243 53.9287 188.621 54.4429 188.189 55.0967H188.082L188.881 51.4023H187.301L185.25 61ZM197.305 61.1143C199.272 61.1143 200.802 59.1782 200.802 56.6074C200.802 55.0142 199.787 53.9414 198.396 53.9414C197.463 53.9414 196.752 54.3286 196.276 55.0142L196.162 55.0205L196.93 51.3706H195.356L193.312 61H194.835L195.108 59.7368H195.216C195.47 60.5493 196.34 61.1143 197.305 61.1143ZM197.019 59.7559C196.137 59.7559 195.54 59.1528 195.54 58.1182C195.54 56.5503 196.511 55.2681 197.736 55.2681C198.606 55.2681 199.165 55.8394 199.165 56.8677C199.165 58.5181 198.231 59.7559 197.019 59.7559ZM205.823 53.916C203.602 53.916 201.983 55.7061 201.983 58.1626C201.983 59.9399 203.195 61.1396 204.992 61.1396C207.188 61.1396 208.813 59.3306 208.813 56.8931C208.813 55.103 207.613 53.916 205.823 53.916ZM205.112 59.8193C204.217 59.8193 203.633 59.1401 203.633 58.0801C203.633 56.4297 204.509 55.2363 205.722 55.2363C206.623 55.2363 207.156 55.9155 207.156 57.0518C207.156 58.5688 206.236 59.8193 205.112 59.8193ZM209.6 61H211.181L212.019 57.0708C212.266 55.9346 212.856 55.3823 213.847 55.3823C214.139 55.3823 214.583 55.4458 214.837 55.5347L215.154 54.0684C214.97 53.9922 214.627 53.9414 214.297 53.9414C213.523 53.9414 212.926 54.2969 212.52 54.9824H212.412L212.603 54.0557H211.073L209.6 61ZM215.853 56.0996C215.853 57.0137 216.386 57.585 217.478 57.9595L218.557 58.3213C219.128 58.5054 219.325 58.7529 219.325 59.0894C219.325 59.5972 218.785 59.9463 217.985 59.9463C217.23 59.9463 216.703 59.5718 216.576 59.0513H215.034C215.104 60.2954 216.278 61.1396 217.966 61.1396C219.699 61.1396 220.912 60.2383 220.912 58.9243C220.912 58.0229 220.429 57.4644 219.287 57.0835L218.227 56.7217C217.662 56.5312 217.382 56.2964 217.382 55.9409C217.382 55.4585 217.903 55.1157 218.62 55.1157C219.325 55.1157 219.826 55.4268 219.934 55.9219H221.407C221.28 54.7158 220.239 53.916 218.633 53.916C217.001 53.916 215.853 54.7856 215.853 56.0996ZM78.0005 70.0557H76.4263L74.1665 75.2417H74.0522L73.8237 70.0557H72.2749L69.8882 75.2036H69.7803L69.647 70.0557H68.1362L68.5488 77H70.1802L72.5669 72.0298H72.6748L72.9795 77H74.6426L78.0005 70.0557ZM81.1489 77.1396C82.8247 77.1396 83.999 76.2891 84.3037 75.083H82.7485C82.5137 75.5591 82.0249 75.8574 81.2441 75.8574C80.438 75.8574 79.6826 75.3369 79.6826 74.1372C79.6826 74.061 79.689 73.9658 79.6953 73.8896H84.5957C84.6528 73.585 84.6973 73.0645 84.6973 72.7915C84.6909 71.0015 83.4468 69.916 81.8662 69.916C79.689 69.916 78.1655 71.6362 78.1655 74.188C78.1655 76.0605 79.4351 77.1396 81.1489 77.1396ZM79.873 72.8232C80.1396 71.833 80.8569 71.1729 81.7837 71.1729C82.6787 71.1729 83.1738 71.7949 83.1738 72.5693C83.1738 72.6582 83.1675 72.7852 83.1611 72.8232H79.873ZM93.2285 69.916C91.0068 69.916 89.3882 71.7061 89.3882 74.1626C89.3882 75.9399 90.6006 77.1396 92.397 77.1396C94.5933 77.1396 96.2183 75.3306 96.2183 72.8931C96.2183 71.103 95.0186 69.916 93.2285 69.916ZM92.5176 75.8193C91.6226 75.8193 91.0386 75.1401 91.0386 74.0801C91.0386 72.4297 91.9146 71.2363 93.127 71.2363C94.0283 71.2363 94.5615 71.9155 94.5615 73.0518C94.5615 74.5688 93.6411 75.8193 92.5176 75.8193ZM99.7729 77.0317C100.128 77.0317 100.452 77.0127 100.655 76.9619L100.909 75.7432C100.757 75.7622 100.585 75.7749 100.382 75.7749C99.8682 75.7749 99.5762 75.5718 99.5762 75.1084C99.5762 74.9814 99.6016 74.8164 99.6396 74.626L100.344 71.3569H101.842L102.115 70.1001H100.598L100.973 68.3545H99.3857L99.0239 70.1001H97.8877L97.6274 71.3569H98.7573L97.9829 74.9814C97.9385 75.1973 97.9131 75.4067 97.9131 75.5845C97.9131 76.5239 98.6685 77.0317 99.7729 77.0317ZM102.236 77H103.816L104.705 72.8232C104.902 71.9155 105.549 71.2617 106.47 71.2617C107.27 71.2617 107.739 71.7314 107.739 72.4551C107.739 72.6392 107.708 72.8296 107.669 73.0327L106.825 77H108.406L109.301 72.7725C109.358 72.4805 109.39 72.2075 109.39 71.9536C109.39 70.8428 108.603 69.9287 107.27 69.9287C106.229 69.9287 105.606 70.4429 105.175 71.0967H105.067L105.867 67.4023H104.286L102.236 77ZM113.636 77.1396C115.312 77.1396 116.486 76.2891 116.791 75.083H115.236C115.001 75.5591 114.512 75.8574 113.731 75.8574C112.925 75.8574 112.17 75.3369 112.17 74.1372C112.17 74.061 112.176 73.9658 112.183 73.8896H117.083C117.14 73.585 117.185 73.0645 117.185 72.7915C117.178 71.0015 115.934 69.916 114.354 69.916C112.176 69.916 110.653 71.6362 110.653 74.188C110.653 76.0605 111.922 77.1396 113.636 77.1396ZM112.36 72.8232C112.627 71.833 113.344 71.1729 114.271 71.1729C115.166 71.1729 115.661 71.7949 115.661 72.5693C115.661 72.6582 115.655 72.7852 115.648 72.8232H112.36ZM117.978 77H119.559L120.396 73.0708C120.644 71.9346 121.234 71.3823 122.225 71.3823C122.517 71.3823 122.961 71.4458 123.215 71.5347L123.532 70.0684C123.348 69.9922 123.005 69.9414 122.675 69.9414C121.901 69.9414 121.304 70.2969 120.898 70.9824H120.79L120.98 70.0557H119.451L117.978 77ZM134.368 70.0557H132.793L130.534 75.2417H130.419L130.191 70.0557H128.642L126.255 75.2036H126.147L126.014 70.0557H124.503L124.916 77H126.547L128.934 72.0298H129.042L129.347 77H131.01L134.368 70.0557ZM137.015 68.9067C137.529 68.9067 137.954 68.4878 137.954 67.9609C137.954 67.4341 137.529 67.0088 137.015 67.0088C136.5 67.0088 136.075 67.4341 136.075 67.9609C136.075 68.4878 136.5 68.9067 137.015 68.9067ZM134.323 77H135.897L137.37 70.0557H135.796L134.323 77ZM138.741 72.0996C138.741 73.0137 139.274 73.585 140.366 73.9595L141.445 74.3213C142.017 74.5054 142.213 74.7529 142.213 75.0894C142.213 75.5972 141.674 75.9463 140.874 75.9463C140.119 75.9463 139.592 75.5718 139.465 75.0513H137.922C137.992 76.2954 139.167 77.1396 140.855 77.1396C142.588 77.1396 143.8 76.2383 143.8 74.9243C143.8 74.0229 143.318 73.4644 142.175 73.0835L141.115 72.7217C140.55 72.5312 140.271 72.2964 140.271 71.9409C140.271 71.4585 140.792 71.1157 141.509 71.1157C142.213 71.1157 142.715 71.4268 142.823 71.9219H144.295C144.168 70.7158 143.127 69.916 141.521 69.916C139.89 69.916 138.741 70.7856 138.741 72.0996ZM148.333 77.1396C150.008 77.1396 151.183 76.2891 151.487 75.083H149.932C149.697 75.5591 149.208 75.8574 148.428 75.8574C147.622 75.8574 146.866 75.3369 146.866 74.1372C146.866 74.061 146.873 73.9658 146.879 73.8896H151.779C151.836 73.585 151.881 73.0645 151.881 72.7915C151.875 71.0015 150.63 69.916 149.05 69.916C146.873 69.916 145.349 71.6362 145.349 74.188C145.349 76.0605 146.619 77.1396 148.333 77.1396ZM147.057 72.8232C147.323 71.833 148.041 71.1729 148.967 71.1729C149.862 71.1729 150.357 71.7949 150.357 72.5693C150.357 72.6582 150.351 72.7852 150.345 72.8232H147.057ZM166.969 70.0557H165.395L163.135 75.2417H163.021L162.792 70.0557H161.244L158.857 75.2036H158.749L158.616 70.0557H157.105L157.518 77H159.149L161.536 72.0298H161.644L161.948 77H163.611L166.969 70.0557ZM170.962 69.916C168.74 69.916 167.122 71.7061 167.122 74.1626C167.122 75.9399 168.334 77.1396 170.13 77.1396C172.327 77.1396 173.952 75.3306 173.952 72.8931C173.952 71.103 172.752 69.916 170.962 69.916ZM170.251 75.8193C169.356 75.8193 168.772 75.1401 168.772 74.0801C168.772 72.4297 169.648 71.2363 170.86 71.2363C171.762 71.2363 172.295 71.9155 172.295 73.0518C172.295 74.5688 171.375 75.8193 170.251 75.8193ZM182.312 70.0557H180.731L179.861 74.1499C179.652 75.1084 179.004 75.7622 178.065 75.7622C177.265 75.7622 176.878 75.3813 176.878 74.6006C176.878 74.4609 176.91 74.1753 176.954 73.9722L177.786 70.0557H176.199L175.323 74.2261C175.266 74.5244 175.228 74.9053 175.228 75.1147C175.228 76.3145 176.065 77.1396 177.335 77.1396C178.332 77.1396 179.023 76.6763 179.43 75.9907H179.538L179.315 77H180.839L182.312 70.0557ZM182.775 77H184.362L186.412 67.3706H184.819L182.775 77ZM189.135 77.1143C190.043 77.1143 190.798 76.6953 191.281 76.0415H191.395L191.192 77H192.715L194.759 67.3706H193.179L192.347 71.2744H192.233C192.004 70.5063 191.243 69.9414 190.227 69.9414C188.24 69.9414 186.685 71.8076 186.685 74.3657C186.685 76.0669 187.751 77.1143 189.135 77.1143ZM189.783 75.7876C188.932 75.7876 188.323 75.1338 188.323 74.1055C188.323 72.4805 189.275 71.2935 190.481 71.2935C191.37 71.2935 191.96 71.9028 191.96 72.9312C191.96 74.5054 191.008 75.7876 189.783 75.7876ZM198.117 77H199.698L200.586 72.855C200.783 71.9536 201.424 71.2871 202.332 71.2871C203.125 71.2871 203.57 71.7822 203.57 72.4868C203.57 72.6646 203.544 72.855 203.5 73.0708L202.662 77H204.236L205.131 72.8042C205.188 72.5186 205.22 72.2393 205.22 71.9917C205.22 70.8618 204.433 69.9414 203.125 69.9414C202.116 69.9414 201.443 70.4556 201.005 71.1348H200.891L201.126 70.0557H199.596L198.117 77ZM210.317 69.916C208.096 69.916 206.477 71.7061 206.477 74.1626C206.477 75.9399 207.689 77.1396 209.486 77.1396C211.682 77.1396 213.307 75.3306 213.307 72.8931C213.307 71.103 212.107 69.916 210.317 69.916ZM209.606 75.8193C208.711 75.8193 208.127 75.1401 208.127 74.0801C208.127 72.4297 209.003 71.2363 210.216 71.2363C211.117 71.2363 211.65 71.9155 211.65 73.0518C211.65 74.5688 210.73 75.8193 209.606 75.8193ZM216.862 77.0317C217.217 77.0317 217.541 77.0127 217.744 76.9619L217.998 75.7432C217.846 75.7622 217.674 75.7749 217.471 75.7749C216.957 75.7749 216.665 75.5718 216.665 75.1084C216.665 74.9814 216.69 74.8164 216.729 74.626L217.433 71.3569H218.931L219.204 70.1001H217.687L218.062 68.3545H216.475L216.113 70.1001H214.977L214.716 71.3569H215.846L215.072 74.9814C215.027 75.1973 215.002 75.4067 215.002 75.5845C215.002 76.5239 215.757 77.0317 216.862 77.0317ZM67.2603 93H68.8408L69.7295 88.8232C69.9263 87.9155 70.5737 87.2617 71.4941 87.2617C72.2939 87.2617 72.7637 87.7314 72.7637 88.4551C72.7637 88.6392 72.7319 88.8296 72.6938 89.0327L71.8496 93H73.4302L74.3252 88.7725C74.3823 88.4805 74.4141 88.2075 74.4141 87.9536C74.4141 86.8428 73.627 85.9287 72.2939 85.9287C71.2529 85.9287 70.6309 86.4429 70.1992 87.0967H70.0913L70.8911 83.4023H69.3105L67.2603 93ZM77.4292 93.1143C78.2544 93.1143 79.0161 92.7334 79.4414 92.124H79.5557L79.3652 93H80.895L81.8535 88.4868C81.8853 88.3154 81.9106 88.106 81.9106 87.9219C81.9106 86.7158 80.8252 85.916 79.1938 85.916C77.6704 85.916 76.5215 86.6841 76.2168 87.9092H77.7529C77.9434 87.4521 78.4131 87.1982 79.0732 87.1982C79.8667 87.1982 80.3491 87.541 80.3491 88.0996C80.3491 88.1821 80.3364 88.252 80.311 88.3789L80.2158 88.8232L78.4004 88.8931C76.458 88.9629 75.3472 89.8135 75.3472 91.21C75.3472 92.2891 76.2422 93.1143 77.4292 93.1143ZM78.0513 91.8828C77.3784 91.8828 76.9087 91.5146 76.9087 90.9941C76.9087 90.3911 77.4673 89.9912 78.4131 89.9531L79.9937 89.8833L79.8477 90.5562C79.6763 91.3242 78.9272 91.8828 78.0513 91.8828ZM83.3643 86.0557L84.3164 93H86.0747L89.9785 86.0557H88.2773L85.605 91.2925H85.4971L84.9512 86.0557H83.3643ZM93.1079 93.1396C94.7837 93.1396 95.958 92.2891 96.2627 91.083H94.7075C94.4727 91.5591 93.9839 91.8574 93.2031 91.8574C92.397 91.8574 91.6416 91.3369 91.6416 90.1372C91.6416 90.061 91.6479 89.9658 91.6543 89.8896H96.5547C96.6118 89.585 96.6562 89.0645 96.6562 88.7915C96.6499 87.0015 95.4058 85.916 93.8252 85.916C91.6479 85.916 90.1245 87.6362 90.1245 90.188C90.1245 92.0605 91.394 93.1396 93.1079 93.1396ZM91.832 88.8232C92.0986 87.833 92.8159 87.1729 93.7427 87.1729C94.6377 87.1729 95.1328 87.7949 95.1328 88.5693C95.1328 88.6582 95.1265 88.7852 95.1201 88.8232H91.832ZM103.715 84.9067C104.229 84.9067 104.654 84.4878 104.654 83.9609C104.654 83.4341 104.229 83.0088 103.715 83.0088C103.201 83.0088 102.775 83.4341 102.775 83.9609C102.775 84.4878 103.201 84.9067 103.715 84.9067ZM101.023 93H102.598L104.07 86.0557H102.496L101.023 93ZM104.565 93H106.146L107.035 88.855C107.231 87.9536 107.873 87.2871 108.78 87.2871C109.574 87.2871 110.018 87.7822 110.018 88.4868C110.018 88.6646 109.993 88.855 109.948 89.0708L109.11 93H110.685L111.58 88.8042C111.637 88.5186 111.668 88.2393 111.668 87.9917C111.668 86.8618 110.881 85.9414 109.574 85.9414C108.564 85.9414 107.892 86.4556 107.454 87.1348H107.339L107.574 86.0557H106.044L104.565 93ZM115.261 93.0317C115.617 93.0317 115.94 93.0127 116.144 92.9619L116.397 91.7432C116.245 91.7622 116.074 91.7749 115.871 91.7749C115.356 91.7749 115.064 91.5718 115.064 91.1084C115.064 90.9814 115.09 90.8164 115.128 90.626L115.833 87.3569H117.331L117.604 86.1001H116.086L116.461 84.3545H114.874L114.512 86.1001H113.376L113.116 87.3569H114.246L113.471 90.9814C113.427 91.1973 113.401 91.4067 113.401 91.5845C113.401 92.5239 114.157 93.0317 115.261 93.0317ZM120.974 93.1396C122.65 93.1396 123.824 92.2891 124.129 91.083H122.574C122.339 91.5591 121.85 91.8574 121.069 91.8574C120.263 91.8574 119.508 91.3369 119.508 90.1372C119.508 90.061 119.514 89.9658 119.521 89.8896H124.421C124.478 89.585 124.522 89.0645 124.522 88.7915C124.516 87.0015 123.272 85.916 121.691 85.916C119.514 85.916 117.991 87.6362 117.991 90.188C117.991 92.0605 119.26 93.1396 120.974 93.1396ZM119.698 88.8232C119.965 87.833 120.682 87.1729 121.609 87.1729C122.504 87.1729 122.999 87.7949 122.999 88.5693C122.999 88.6582 122.993 88.7852 122.986 88.8232H119.698ZM125.316 93H126.896L127.734 89.0708C127.982 87.9346 128.572 87.3823 129.562 87.3823C129.854 87.3823 130.299 87.4458 130.553 87.5347L130.87 86.0684C130.686 85.9922 130.343 85.9414 130.013 85.9414C129.239 85.9414 128.642 86.2969 128.236 86.9824H128.128L128.318 86.0557H126.789L125.316 93ZM132.857 93.1143C133.682 93.1143 134.444 92.7334 134.869 92.124H134.983L134.793 93H136.323L137.281 88.4868C137.313 88.3154 137.338 88.106 137.338 87.9219C137.338 86.7158 136.253 85.916 134.622 85.916C133.098 85.916 131.949 86.6841 131.645 87.9092H133.181C133.371 87.4521 133.841 87.1982 134.501 87.1982C135.294 87.1982 135.777 87.541 135.777 88.0996C135.777 88.1821 135.764 88.252 135.739 88.3789L135.644 88.8232L133.828 88.8931C131.886 88.9629 130.775 89.8135 130.775 91.21C130.775 92.2891 131.67 93.1143 132.857 93.1143ZM133.479 91.8828C132.806 91.8828 132.336 91.5146 132.336 90.9941C132.336 90.3911 132.895 89.9912 133.841 89.9531L135.421 89.8833L135.275 90.5562C135.104 91.3242 134.355 91.8828 133.479 91.8828ZM142.315 85.916C140.087 85.916 138.544 87.7505 138.544 90.207C138.544 91.9844 139.7 93.1396 141.496 93.1396C143.21 93.1396 144.429 92.1304 144.683 90.7783H143.14C142.912 91.4385 142.347 91.8066 141.598 91.8066C140.747 91.8066 140.138 91.2036 140.138 90.0674C140.138 88.4678 140.995 87.2427 142.207 87.2427C142.962 87.2427 143.553 87.6807 143.604 88.3535H145.121C145.121 88.2583 145.114 88.1567 145.102 88.0679C144.962 86.9189 143.889 85.916 142.315 85.916ZM148.472 93.0317C148.828 93.0317 149.151 93.0127 149.354 92.9619L149.608 91.7432C149.456 91.7622 149.285 91.7749 149.082 91.7749C148.567 91.7749 148.275 91.5718 148.275 91.1084C148.275 90.9814 148.301 90.8164 148.339 90.626L149.043 87.3569H150.542L150.814 86.1001H149.297L149.672 84.3545H148.085L147.723 86.1001H146.587L146.327 87.3569H147.457L146.682 90.9814C146.638 91.1973 146.612 91.4067 146.612 91.5845C146.612 92.5239 147.368 93.0317 148.472 93.0317ZM154.185 93.1396C155.861 93.1396 157.035 92.2891 157.34 91.083H155.785C155.55 91.5591 155.061 91.8574 154.28 91.8574C153.474 91.8574 152.719 91.3369 152.719 90.1372C152.719 90.061 152.725 89.9658 152.731 89.8896H157.632C157.689 89.585 157.733 89.0645 157.733 88.7915C157.727 87.0015 156.483 85.916 154.902 85.916C152.725 85.916 151.202 87.6362 151.202 90.188C151.202 92.0605 152.471 93.1396 154.185 93.1396ZM152.909 88.8232C153.176 87.833 153.893 87.1729 154.82 87.1729C155.715 87.1729 156.21 87.7949 156.21 88.5693C156.21 88.6582 156.204 88.7852 156.197 88.8232H152.909ZM161.383 93.1143C162.291 93.1143 163.046 92.6953 163.529 92.0415H163.643L163.44 93H164.963L167.007 83.3706H165.427L164.595 87.2744H164.481C164.252 86.5063 163.491 85.9414 162.475 85.9414C160.488 85.9414 158.933 87.8076 158.933 90.3657C158.933 92.0669 160 93.1143 161.383 93.1143ZM162.031 91.7876C161.18 91.7876 160.571 91.1338 160.571 90.1055C160.571 88.4805 161.523 87.2935 162.729 87.2935C163.618 87.2935 164.208 87.9028 164.208 88.9312C164.208 90.5054 163.256 91.7876 162.031 91.7876ZM181.163 86.0557H179.588L177.329 91.2417H177.214L176.986 86.0557H175.437L173.05 91.2036H172.942L172.809 86.0557H171.298L171.711 93H173.342L175.729 88.0298H175.837L176.142 93H177.805L181.163 86.0557ZM183.81 84.9067C184.324 84.9067 184.749 84.4878 184.749 83.9609C184.749 83.4341 184.324 83.0088 183.81 83.0088C183.295 83.0088 182.87 83.4341 182.87 83.9609C182.87 84.4878 183.295 84.9067 183.81 84.9067ZM181.118 93H182.692L184.165 86.0557H182.591L181.118 93ZM187.396 93.0317C187.751 93.0317 188.075 93.0127 188.278 92.9619L188.532 91.7432C188.38 91.7622 188.208 91.7749 188.005 91.7749C187.491 91.7749 187.199 91.5718 187.199 91.1084C187.199 90.9814 187.225 90.8164 187.263 90.626L187.967 87.3569H189.465L189.738 86.1001H188.221L188.596 84.3545H187.009L186.647 86.1001H185.511L185.25 87.3569H186.38L185.606 90.9814C185.562 91.1973 185.536 91.4067 185.536 91.5845C185.536 92.5239 186.292 93.0317 187.396 93.0317ZM189.859 93H191.439L192.328 88.8232C192.525 87.9155 193.172 87.2617 194.093 87.2617C194.893 87.2617 195.362 87.7314 195.362 88.4551C195.362 88.6392 195.331 88.8296 195.292 89.0327L194.448 93H196.029L196.924 88.7725C196.981 88.4805 197.013 88.2075 197.013 87.9536C197.013 86.8428 196.226 85.9287 194.893 85.9287C193.852 85.9287 193.229 86.4429 192.798 87.0967H192.69L193.49 83.4023H191.909L189.859 93ZM199.933 87.6807L201.799 83.8403H200.206L198.765 87.6807H199.933ZM202.668 87.6807L204.643 83.8403H203.049L201.5 87.6807H202.668Z" fill="#E3DFDD"/>
<path d="M4.25176 71.5716C4.28037 71.3754 4.16077 71.2147 3.986 71.2147C3.78485 71.2147 3.71542 71.3964 3.79684 71.7096C3.93345 72.2349 4.16523 72.1647 4.25176 71.5716ZM8.32665 82.8572C8.50973 82.5592 7.84611 82.2685 7.48922 82.4904C7.34806 82.5782 7.29498 82.7515 7.37118 82.8757C7.55523 83.1753 8.13808 83.164 8.32658 82.8573L8.32665 82.8572ZM258.952 89.6514C259.237 89.3846 259.583 89.1663 259.721 89.1663C259.859 89.1663 259.972 89.0647 259.972 88.941C259.972 88.8171 260.108 88.5715 260.274 88.3951C261.057 87.5628 261.915 86.2301 261.794 86.0341C261.566 85.6629 260.482 86.3374 260.196 87.0285C260.048 87.3871 259.503 88.1285 258.985 88.6761C258.081 89.6324 257.823 90.1366 258.239 90.1366C258.346 90.1366 258.668 89.9183 258.952 89.6514V89.6514ZM249.403 91.6758C249.879 91.2425 249.98 90.8644 249.62 90.8644C249.33 90.8644 248.638 91.5603 248.638 91.852C248.638 92.1881 248.909 92.1257 249.403 91.6758V91.6758ZM15.6652 92.28C15.5025 91.9684 15.2224 91.6261 15.0428 91.5194C14.8632 91.4127 14.7163 91.1671 14.7163 90.9736C14.7163 90.7801 14.556 90.6218 14.3601 90.6218C14.1642 90.6218 13.8274 90.3508 13.6117 90.0196C13.3959 89.6884 12.848 89.1864 12.394 88.9042C11.9399 88.6219 11.4034 88.2249 11.2016 88.022C10.7159 87.5334 10.5067 87.7785 10.8533 88.4301C11.2913 89.2533 12.5872 90.3959 13.5708 90.826C14.0682 91.0435 14.4751 91.3646 14.4751 91.5397C14.4751 91.8516 15.7243 93.0836 15.8813 92.9265C15.9251 92.8825 15.828 92.5917 15.6652 92.28V92.28ZM247.958 93.1452C248.502 92.95 248.728 92.3199 248.253 92.3199C247.653 92.3199 246.95 92.7931 246.95 93.1977C246.95 93.4118 247.08 93.5125 247.251 93.4319C247.417 93.3542 247.735 93.2251 247.958 93.1452V93.1452ZM246.709 93.7754C246.709 93.642 246.498 93.5328 246.241 93.5328C245.983 93.5328 245.706 93.642 245.624 93.7754C245.538 93.913 245.742 94.018 246.092 94.018C246.431 94.018 246.709 93.9088 246.709 93.7754ZM37.1438 94.7458C37.1438 94.6124 37.0624 94.5017 36.9629 94.4999C36.8635 94.4974 36.5108 94.4298 36.1792 94.3483C35.5911 94.2036 35.5881 94.2094 36.0586 94.5864C36.6076 95.0263 37.1438 95.1051 37.1438 94.7458ZM237.786 94.9884C238.118 94.7274 238.558 94.5115 238.764 94.5085C238.97 94.5061 239.652 94.1757 240.28 93.7754C240.907 93.3751 241.525 93.0476 241.653 93.0476C241.781 93.0476 241.886 92.9624 241.886 92.8582C241.886 92.754 242.184 92.538 242.549 92.3781C243.31 92.0445 244.842 91.1267 245.021 90.8976C245.086 90.8126 245.856 90.3798 246.73 89.9358C247.603 89.4918 248.634 88.8521 249.021 88.5142C249.407 88.1763 250.212 87.503 250.809 87.0179C251.405 86.5328 252.069 85.9444 252.284 85.7104C252.498 85.4763 252.75 85.2848 252.844 85.2848C252.937 85.2848 253.185 85.1121 253.395 84.901C253.674 84.6204 254.01 84.5606 254.644 84.6786C255.121 84.7674 255.547 84.9402 255.591 85.0625C255.694 85.3457 256.596 85.3557 256.596 85.0737C256.596 84.9576 257.042 84.439 257.587 83.9214C258.131 83.4038 258.918 82.6139 259.335 82.1662C259.752 81.7184 260.392 81.0371 260.756 80.6522C261.121 80.2673 261.419 79.8589 261.419 79.7446C261.419 79.6304 261.636 79.2852 261.902 78.9776C262.431 78.3642 262.518 78.0072 262.14 78.0072C261.901 78.0072 260.935 78.4942 260.696 78.7354C260.63 78.8023 260.293 79.0029 259.949 79.1812C259.604 79.3594 259.044 79.7413 258.703 80.0298C257.258 81.2541 257.067 81.4034 256.949 81.4034C256.88 81.4034 256.347 81.8837 255.764 82.4708C255.18 83.0578 254.369 83.7364 253.961 83.9786C253.554 84.2209 253.22 84.5047 253.22 84.6094C253.22 84.714 253.078 84.7997 252.904 84.7997C252.431 84.7997 250.571 85.7481 250.006 86.277C249.735 86.5316 249.207 86.8759 248.834 87.042C248.461 87.2081 248.156 87.4265 248.156 87.5273C248.156 87.6281 247.993 87.7107 247.794 87.7107C247.595 87.7107 247.432 87.8199 247.432 87.9533C247.432 88.0867 247.27 88.1959 247.071 88.1959C246.872 88.1959 246.709 88.305 246.709 88.4385C246.709 88.5719 246.545 88.681 246.344 88.681C246.143 88.681 245.736 88.8073 245.44 88.9615C244.281 89.5638 244.047 89.6514 243.591 89.6514C243.332 89.6514 243.053 89.7605 242.971 89.894C242.888 90.0274 242.563 90.1366 242.248 90.1366C241.932 90.1366 241.606 90.2458 241.524 90.3792C241.442 90.5126 241.164 90.6218 240.907 90.6218C240.649 90.6218 240.439 90.7043 240.439 90.8051C240.439 90.9059 240.092 91.1431 239.668 91.332C238.918 91.6655 238.911 91.6823 239.426 91.9134C240.334 92.3209 240.061 92.9395 238.671 93.6235C237.963 93.9716 237.041 94.3256 236.621 94.4101C236.201 94.4946 235.857 94.6593 235.857 94.7761C235.857 94.8928 235.64 94.9883 235.375 94.9883C235.109 94.9883 234.892 95.0975 234.892 95.2309C234.892 95.683 237.143 95.4943 237.786 94.9883V94.9884ZM248.879 97.3536C248.879 97.0695 248.528 97.1402 248.427 97.4446C248.378 97.5947 248.458 97.6766 248.608 97.6266C248.757 97.5767 248.879 97.4537 248.879 97.3537V97.3536ZM226.587 98.6826C226.507 98.6013 226.253 98.732 226.024 98.9732C225.626 99.3923 225.632 99.3988 226.171 99.121C226.481 98.9612 226.668 98.7639 226.587 98.6826ZM223.92 100.083C224.108 99.7757 223.789 99.7757 223.317 100.083C223.005 100.285 223.011 100.318 223.363 100.322C223.587 100.324 223.838 100.216 223.92 100.083V100.083ZM32.8482 100.16C32.6741 100.089 32.4661 100.098 32.386 100.179C32.3058 100.259 32.4482 100.317 32.7025 100.306C32.9834 100.295 33.0406 100.237 32.8482 100.16V100.16ZM35.094 101.053C35.0119 100.92 34.7279 100.81 34.4626 100.81C34.1974 100.81 34.0474 100.92 34.1294 101.053C34.2114 101.186 34.4954 101.296 34.7607 101.296C35.026 101.296 35.176 101.187 35.094 101.053V101.053ZM220.782 101.534C220.699 101.399 220.53 101.35 220.406 101.427C220.072 101.635 220.134 101.781 220.558 101.781C220.764 101.781 220.865 101.67 220.782 101.534V101.534ZM216.203 103.479C216.285 103.345 216.557 103.236 216.808 103.236C217.393 103.236 218.494 102.735 218.494 102.47C218.494 102.358 218.361 102.266 218.199 102.266C217.769 102.266 215.609 103.326 215.604 103.54C215.598 103.805 216.029 103.762 216.203 103.479V103.479ZM43.6661 103.787C43.4732 103.71 43.1 103.446 42.8368 103.2C42.5736 102.953 42.0596 102.751 41.6946 102.751C41.3295 102.751 40.9637 102.642 40.8817 102.509C40.7997 102.375 40.399 102.266 39.9912 102.266C39.1073 102.266 37.325 101.771 37.1165 101.468C37.0351 101.35 36.7097 101.293 36.3931 101.342C35.8364 101.428 35.8428 101.444 36.5892 101.848C37.0137 102.078 37.5835 102.266 37.8553 102.266C38.1272 102.266 38.3496 102.363 38.3496 102.482C38.3496 102.601 38.7023 102.754 39.1333 102.823C39.5644 102.892 40.3512 103.075 40.8817 103.229C42.8404 103.8 43.3014 103.915 43.6551 103.92C43.9635 103.925 43.9651 103.905 43.6661 103.787V103.787ZM61.7418 104.484C61.7418 104.281 57.9466 102.26 57.5718 102.264C57.4669 102.264 57.1478 102.048 56.8631 101.781C56.5783 101.514 56.1598 101.296 55.933 101.296C55.7062 101.296 54.9262 100.981 54.1995 100.596C52.6554 99.7794 51.1572 99.2475 50.9598 99.4461C50.7074 99.7 51.4215 100.325 51.9636 100.325C52.6157 100.325 54.2665 101.161 55.6886 102.21C56.6282 102.904 57.8783 103.568 59.8125 104.4C60.5485 104.716 61.7418 104.769 61.7418 104.484V104.484ZM213.543 104.662C214.015 104.211 214.013 104.207 213.402 104.207C213.063 104.207 212.705 104.289 212.605 104.389C212.506 104.489 211.972 104.754 211.42 104.979L210.415 105.388L211.741 105.253C212.561 105.17 213.249 104.944 213.543 104.662V104.662ZM232.782 105.755C233.014 105.673 233.204 105.509 233.204 105.391C233.204 105.018 232.72 105.159 232.169 105.693C231.876 105.976 231.799 106.14 231.998 106.057C232.197 105.973 232.55 105.838 232.782 105.755V105.755ZM55.4717 107.36C55.4717 107.227 55.3089 107.118 55.11 107.118C54.911 107.118 54.7482 107.028 54.7482 106.918C54.7482 106.809 54.1785 106.474 53.4822 106.175C52.7858 105.876 52.0276 105.529 51.7973 105.404C51.567 105.279 51.2143 105.177 51.0136 105.177C50.8128 105.177 50.6486 105.068 50.6486 104.934C50.6486 104.801 50.4641 104.692 50.2386 104.692C49.5939 104.692 50.0806 105.051 52.4845 106.347C53.24 106.755 55.0976 107.578 55.2908 107.591C55.3903 107.597 55.4717 107.494 55.4717 107.36V107.36ZM204.991 107.906C204.993 107.634 206.211 107.118 206.849 107.118C207.156 107.118 207.595 107.018 207.826 106.896C208.056 106.773 208.647 106.497 209.138 106.283C209.993 105.909 210.66 105.322 210.005 105.52C209.833 105.572 209.149 105.754 208.486 105.925C207.822 106.095 206.924 106.434 206.489 106.676C206.054 106.919 205.565 107.12 205.404 107.123C205.242 107.126 204.838 107.342 204.507 107.603C203.904 108.077 203.904 108.077 204.446 108.083C204.745 108.085 204.99 108.006 204.991 107.906H204.991ZM56.6775 107.845C56.6775 107.712 56.454 107.603 56.1809 107.603C55.9078 107.603 55.7515 107.712 55.8335 107.845C55.9155 107.979 56.1389 108.088 56.33 108.088C56.5211 108.088 56.6775 107.979 56.6775 107.845ZM220.51 108.306C221.399 108.025 222.258 107.664 222.42 107.503C222.582 107.343 223.229 107.067 223.859 106.89C224.489 106.714 225.005 106.498 225.005 106.411C225.005 106.324 225.52 106.109 226.15 105.933C226.78 105.757 227.756 105.406 228.318 105.153C228.88 104.899 229.45 104.692 229.584 104.692C229.718 104.692 229.828 104.583 229.828 104.449C229.828 104.316 230.03 104.207 230.276 104.207C230.826 104.207 233.686 102.748 233.686 102.468C233.686 102.357 233.846 102.266 234.041 102.266C234.417 102.266 235.798 101.539 236.859 100.782C237.211 100.531 237.591 100.323 237.703 100.32C237.816 100.317 238.178 100.101 238.51 99.8401C238.841 99.5792 239.313 99.3632 239.557 99.3603C239.802 99.3578 240.054 99.1555 240.117 98.9118C240.18 98.6681 240.55 98.2799 240.938 98.049C241.327 97.8182 241.645 97.5315 241.645 97.4119C241.645 97.2922 241.997 97.0189 242.428 96.8044C242.859 96.5899 243.465 96.0936 243.773 95.7014C244.293 95.04 244.301 94.9883 243.879 94.9883C243.629 94.9883 243.209 95.1793 242.947 95.4128C242.685 95.6463 241.932 96.1073 241.274 96.4373C240.616 96.7673 239.913 97.204 239.713 97.4077C239.24 97.8885 238.357 98.3841 237.971 98.3861C237.803 98.3861 237.496 98.6871 237.287 99.0532C237.079 99.4192 236.645 99.8414 236.323 99.9913C236 100.141 235.248 100.481 234.651 100.746C234.055 101.01 232.631 101.679 231.489 102.232C230.346 102.784 229.261 103.239 229.077 103.242C228.893 103.244 228.472 103.461 228.14 103.721C227.809 103.982 227.347 104.198 227.115 104.201C226.883 104.204 226.693 104.316 226.693 104.449C226.693 104.583 226.503 104.692 226.271 104.691C225.878 104.691 223.827 105.618 223.558 105.918C223.363 106.136 221.176 107.118 220.885 107.118C220.738 107.118 220.329 107.325 219.975 107.578C219.621 107.832 219.07 108.078 218.751 108.124C218.047 108.227 217.777 108.816 218.433 108.816C218.687 108.816 219.622 108.586 220.511 108.306H220.51ZM57.8833 108.844C57.8833 108.726 57.6219 108.58 57.3024 108.518C56.8863 108.438 56.7568 108.499 56.8459 108.732C56.9826 109.091 57.8833 109.188 57.8833 108.844V108.844ZM62.9476 109.536C62.9476 109.246 62.2674 108.934 62.069 109.134C61.8578 109.346 62.216 109.786 62.6001 109.786C62.7912 109.786 62.9476 109.673 62.9476 109.536V109.536ZM201.442 111.666C202.256 111.286 202.278 110.999 201.492 110.999C201.16 110.999 200.889 111.087 200.889 111.195C200.889 111.303 200.591 111.509 200.226 111.654L199.563 111.918L200.178 111.944C200.516 111.957 201.085 111.833 201.442 111.666V111.666ZM62.4653 113.241C62.4653 113.139 62.2482 112.92 61.9829 112.753C61.7177 112.587 61.5007 112.231 61.5007 111.962C61.5007 111.676 61.25 111.359 60.8968 111.197C60.2032 110.879 60.1748 110.897 59.9674 111.768C59.8324 112.334 59.9259 112.474 60.7172 112.888C61.6725 113.389 62.4653 113.548 62.4653 113.241V113.241ZM218.779 113.151C219.002 113.035 219.362 112.94 219.578 112.94C220.09 112.94 223.076 111.491 223.076 111.243C223.076 111.138 223.374 110.977 223.739 110.885C224.736 110.635 227.128 109.57 227.57 109.18C228.267 108.564 228.8 108.183 229.409 107.865C229.772 107.676 230.069 107.43 230.069 107.319C230.069 106.948 229.128 107.112 228.207 107.644C226.678 108.526 225.529 109.058 225.151 109.058C224.954 109.058 224.725 109.168 224.643 109.301C224.561 109.434 224.283 109.544 224.026 109.544C223.769 109.544 223.558 109.633 223.558 109.743C223.558 109.929 221.435 110.999 221.067 110.999C220.874 110.999 219.04 111.801 217.687 112.477C217.177 112.731 216.526 112.943 216.24 112.948C215.954 112.951 215.503 113.123 215.238 113.328C214.796 113.67 214.907 113.687 216.564 113.531C217.559 113.438 218.556 113.267 218.779 113.151V113.151ZM173.975 113.709C174.088 113.524 176.144 113.103 178.22 112.839C178.685 112.781 179.553 112.609 180.15 112.459C182.677 111.822 184.533 111.499 188.349 111.033C189.211 110.927 190.405 110.66 191.002 110.438C191.599 110.217 192.328 110.034 192.622 110.032C192.917 110.03 193.544 109.81 194.016 109.544C194.489 109.277 195.082 109.058 195.336 109.058C195.589 109.058 195.863 108.949 195.945 108.816C196.027 108.682 196.288 108.573 196.525 108.573C196.762 108.573 197.147 108.361 197.38 108.102C197.614 107.842 197.983 107.582 198.201 107.524C198.42 107.466 198.114 107.461 197.523 107.513C196.931 107.565 196.34 107.716 196.208 107.848C196.077 107.98 195.701 108.088 195.372 108.088C194.755 108.088 193.369 108.471 192.633 108.846C192.402 108.963 192.002 109.058 191.743 109.058C191.483 109.058 191.204 109.168 191.122 109.301C191.04 109.434 190.715 109.544 190.399 109.544C190.083 109.544 189.757 109.653 189.675 109.786C189.593 109.92 189.105 110.029 188.59 110.029C188.075 110.029 187.587 110.138 187.505 110.271C187.423 110.405 186.968 110.514 186.494 110.514C186.02 110.514 185.239 110.616 184.76 110.741C184.28 110.865 183.074 111.09 182.079 111.241C179.015 111.705 177.488 112.03 177.355 112.247C177.285 112.361 176.838 112.455 176.361 112.455C175.631 112.455 172.915 113.529 172.915 113.817C172.915 114.002 173.854 113.905 173.975 113.709V113.709ZM67.9559 114.588C66.4218 112.719 66.0818 112.375 65.9246 112.533C65.7472 112.711 66.9788 114.637 67.9843 115.754C68.2116 116.006 68.3972 116.045 68.5646 115.877C68.732 115.709 68.5373 115.296 67.9559 114.588V114.588ZM158.084 117.064C158.166 116.93 158.07 116.821 157.871 116.821C157.672 116.821 157.442 116.93 157.36 117.064C157.278 117.197 157.374 117.306 157.573 117.306C157.772 117.306 158.002 117.197 158.084 117.064ZM74.5231 117.064C74.5231 116.93 74.4082 116.821 74.2677 116.821C74.1272 116.821 74.0794 116.93 74.1614 117.064C74.2434 117.197 74.3583 117.306 74.4168 117.306C74.4752 117.306 74.523 117.197 74.523 117.064H74.5231ZM65.7209 117.064C65.6388 116.93 65.4633 116.821 65.3307 116.821C65.1981 116.821 65.1566 116.93 65.2386 117.064C65.3206 117.197 65.4961 117.306 65.6288 117.306C65.7614 117.306 65.8029 117.197 65.7209 117.064V117.064ZM207.292 118.076C207.418 117.966 208.009 117.734 208.606 117.561C209.203 117.387 210.017 117.101 210.415 116.924C211.087 116.625 211.036 116.612 209.691 116.748C208.896 116.829 208.208 116.987 208.164 117.1C208.12 117.214 207.881 117.306 207.633 117.306C207.053 117.306 205.953 117.808 205.953 118.073C205.953 118.336 206.992 118.338 207.292 118.077V118.076ZM155.311 118.034C155.311 117.901 155.521 117.792 155.779 117.792C156.036 117.792 156.325 117.664 156.421 117.508C156.543 117.309 156.457 117.279 156.134 117.407C155.88 117.508 155.317 117.65 154.883 117.724C153.845 117.899 153.633 118.277 154.573 118.277C154.979 118.277 155.311 118.168 155.311 118.034V118.034ZM75.0054 118.277C75.0054 118.002 74.8446 117.792 74.6352 117.792C74.3397 117.792 74.3171 117.89 74.523 118.277C74.665 118.544 74.8316 118.762 74.8933 118.762C74.9549 118.762 75.0054 118.544 75.0054 118.277V118.277ZM149.568 119.567C149.394 119.497 149.186 119.505 149.106 119.586C149.026 119.667 149.168 119.724 149.422 119.713C149.703 119.702 149.76 119.644 149.568 119.567V119.567ZM200.708 120.542C200.542 120.475 200.271 120.475 200.105 120.542C199.94 120.609 200.075 120.664 200.407 120.664C200.738 120.664 200.874 120.609 200.708 120.542ZM153.502 120.945C153.584 120.812 153.909 120.703 154.225 120.703C154.541 120.703 154.867 120.593 154.949 120.46C155.031 120.327 155.581 120.217 156.172 120.217C156.763 120.217 157.435 120.121 157.665 120.003C158.94 119.351 159.644 119.16 161.942 118.845C162.473 118.772 163.01 118.614 163.136 118.495C163.262 118.375 163.671 118.277 164.044 118.277C164.417 118.277 164.911 118.18 165.141 118.062C165.623 117.814 168.528 117.184 171.379 116.71C172.458 116.53 173.563 116.264 173.835 116.117C174.108 115.971 174.533 115.851 174.78 115.851C175.332 115.851 176.528 115.312 176.53 115.062C176.533 114.805 175.383 114.835 175.222 115.096C175.041 115.391 173.66 115.627 171.287 115.768C170.193 115.833 169.298 115.976 169.298 116.085C169.298 116.27 168.765 116.398 166.645 116.722C166.181 116.793 165.584 116.947 165.319 117.064C164.863 117.265 164.538 117.328 162.184 117.678C161.653 117.757 161.002 117.912 160.737 118.022C160.471 118.132 159.82 118.334 159.29 118.472C157.111 119.037 156.142 119.342 155.926 119.532C155.799 119.642 155.449 119.732 155.148 119.732C154.846 119.732 154.243 119.95 153.809 120.217C153.375 120.483 152.782 120.701 152.491 120.702C152.201 120.702 151.896 120.812 151.814 120.945C151.725 121.089 152.007 121.188 152.509 121.188C152.973 121.188 153.42 121.079 153.502 120.945V120.945ZM197.875 121.295L198.839 120.924L197.572 121.045C196.875 121.111 196.115 121.276 195.884 121.412C195.186 121.821 196.745 121.729 197.875 121.295ZM151.331 121.43C151.416 121.293 151.218 121.188 150.878 121.188C150.546 121.188 150.208 121.297 150.126 121.43C150.041 121.567 150.239 121.673 150.58 121.673C150.911 121.673 151.249 121.564 151.331 121.43ZM142.292 121.857C142.82 121.691 143.253 121.472 143.253 121.371C143.253 121.27 143.559 121.188 143.933 121.188C144.307 121.188 145.04 120.966 145.561 120.695L146.508 120.202L145.544 120.318C143.785 120.527 142.901 120.745 141.911 121.211C141.371 121.465 140.693 121.673 140.403 121.673C140.114 121.673 139.877 121.782 139.877 121.916C139.877 122.25 141.135 122.22 142.292 121.856V121.857ZM190.64 123.228C191.569 123.016 192.628 122.785 192.994 122.715C193.361 122.645 193.72 122.491 193.792 122.373C193.865 122.255 194.183 122.158 194.498 122.158C194.814 122.158 195.148 122.036 195.239 121.887C195.428 121.58 194.251 121.693 192.449 122.153C191.852 122.306 191.038 122.486 190.64 122.554C189.946 122.671 189.693 122.757 188.349 123.326L187.746 123.581L188.349 123.597C188.681 123.606 189.712 123.44 190.64 123.228V123.228ZM137.139 122.72C136.947 122.527 135.551 123.201 135.687 123.422C135.752 123.526 136.134 123.441 136.536 123.231C136.939 123.022 137.211 122.792 137.139 122.72ZM77.0022 123.137C77.1252 122.665 76.5725 121.957 76.297 122.234C76.0967 122.435 76.4152 123.614 76.67 123.614C76.7847 123.614 76.9341 123.399 77.0022 123.137V123.137ZM182.32 125.161C182.917 125.076 183.514 124.926 183.646 124.828C183.779 124.73 184.702 124.446 185.696 124.196C187.114 123.84 187.35 123.723 186.789 123.656C186.07 123.571 184.328 124.009 183.9 124.384C183.774 124.494 183.265 124.584 182.768 124.584C182.272 124.584 181.799 124.693 181.717 124.827C181.635 124.96 181.276 125.077 180.919 125.086C180.562 125.096 180.053 125.205 179.788 125.329C179.294 125.561 179.737 125.531 182.32 125.161V125.161ZM178.823 125.797C179.187 125.64 179.028 125.584 178.174 125.571C177.552 125.562 176.976 125.664 176.894 125.797C176.712 126.093 178.138 126.093 178.823 125.797ZM75.0054 125.534C75.0054 124.943 74.4418 125.027 74.3245 125.635C74.2784 125.875 74.4014 126.04 74.626 126.04C74.8497 126.04 75.0054 125.832 75.0054 125.534V125.534ZM154.466 126.282C154.659 125.97 153.38 125.97 152.899 126.282C152.629 126.458 152.764 126.519 153.427 126.521C153.917 126.524 154.385 126.416 154.466 126.282V126.282ZM152.296 126.525C152.378 126.392 152.228 126.282 151.963 126.282C151.698 126.282 151.413 126.392 151.331 126.525C151.249 126.658 151.399 126.768 151.665 126.768C151.93 126.768 152.214 126.658 152.296 126.525ZM127.457 127.495C127.987 127.34 128.91 127.125 129.507 127.017C130.104 126.91 131.204 126.651 131.952 126.441C132.7 126.231 134.396 125.838 135.72 125.566C137.043 125.295 138.43 124.915 138.8 124.721C139.171 124.528 139.768 124.429 140.128 124.502C140.488 124.574 140.856 124.513 140.947 124.366C141.037 124.219 141.301 124.099 141.533 124.099C141.766 124.099 142.189 123.881 142.474 123.614C142.758 123.347 143.186 123.126 143.424 123.123C143.661 123.121 144.127 122.894 144.459 122.62L145.061 122.121L144.338 122.272C143.94 122.355 143.18 122.534 142.65 122.669C142.119 122.805 141.36 122.968 140.962 123.032C139.82 123.216 138.43 123.675 138.43 123.868C138.43 124.032 137.983 124.153 136.139 124.493C135.741 124.566 134.955 124.835 134.393 125.09C133.831 125.346 133.05 125.555 132.659 125.555C132.267 125.555 131.88 125.664 131.798 125.797C131.716 125.931 131.437 126.04 131.177 126.04C130.918 126.04 130.518 126.136 130.287 126.253C129.486 126.66 128.141 127.01 127.38 127.01C126.958 127.01 126.613 127.119 126.613 127.253C126.613 127.386 126.348 127.495 126.024 127.495C125.7 127.495 125.36 127.619 125.267 127.771C125.08 128.073 125.787 127.985 127.457 127.495V127.495ZM78.003 127.495C78.1783 126.487 77.8756 125.904 77.2938 126.128C76.9484 126.262 76.9087 126.476 77.0518 127.437C77.1458 128.069 77.2815 128.683 77.3533 128.8C77.5341 129.095 77.8269 128.507 78.003 127.495V127.495ZM141.203 131.619C141.377 131.336 140.513 131.336 139.635 131.619C139.12 131.785 139.18 131.817 140.043 131.837C140.599 131.851 141.121 131.753 141.203 131.619V131.619ZM74.5024 137.031C75.0176 135.38 74.8643 134.406 74.2662 135.53C74.1003 135.842 73.819 136.243 73.6409 136.422C73.3071 136.758 73.1932 138.206 73.4781 138.492C73.8326 138.849 74.0172 138.586 74.5024 137.031ZM75.126 147.63C75.7043 147.23 76.2875 146.902 76.4218 146.902C76.5562 146.902 76.808 146.711 76.9813 146.478C77.1546 146.244 77.612 145.889 77.9978 145.689C78.3835 145.489 79.0191 145.025 79.41 144.658C79.8009 144.291 80.272 143.991 80.4569 143.991C80.6419 143.991 80.7932 143.909 80.7932 143.808C80.7932 143.707 81.1459 143.471 81.5769 143.284C82.008 143.097 82.6487 142.743 83.0008 142.497C83.3529 142.252 83.8103 142.05 84.0173 142.05C84.2242 142.05 84.5097 141.832 84.6517 141.565C84.7936 141.298 85.1046 141.08 85.3427 141.08C85.8302 141.08 87.8351 140.107 88.4613 139.567C88.6871 139.372 89.0618 139.145 89.2939 139.063C89.526 138.98 89.716 138.726 89.716 138.499C89.716 137.939 90.416 137.199 90.9449 137.199C91.1817 137.199 91.4427 137.089 91.5246 136.956C91.6067 136.823 91.9321 136.713 92.2481 136.713C92.564 136.713 92.8783 136.623 92.9463 136.512C93.0145 136.401 93.672 136.175 94.4075 136.009C95.1431 135.844 95.7448 135.607 95.7448 135.483C95.7448 135.359 96.1804 135.258 96.7128 135.258C97.2451 135.258 97.8691 135.162 98.0995 135.044C98.8393 134.665 99.6972 134.35 100.809 134.049C101.406 133.887 102.083 133.657 102.313 133.536C102.543 133.416 102.886 133.317 103.074 133.317C103.262 133.317 103.833 133.111 104.343 132.858C111.062 129.531 114.423 127.98 114.914 127.98C115.115 127.98 115.279 127.871 115.279 127.738C115.279 127.604 115.489 127.495 115.747 127.495C116.004 127.495 116.282 127.386 116.364 127.253C116.446 127.119 116.725 127.01 116.984 127.01C117.243 127.01 117.644 126.914 117.874 126.796C118.105 126.678 118.564 126.473 118.896 126.341C119.228 126.208 119.802 125.977 120.173 125.827C120.544 125.677 121.065 125.554 121.33 125.554C121.596 125.554 122.262 125.336 122.811 125.069C123.36 124.802 124.061 124.584 124.367 124.584C124.674 124.584 124.925 124.502 124.925 124.401C124.925 124.186 125.838 123.768 127.276 123.326C127.84 123.152 128.301 122.928 128.301 122.827C128.301 122.726 128.572 122.643 128.904 122.643C129.236 122.643 129.507 122.561 129.507 122.46C129.507 122.28 130.009 122.039 131.677 121.422C132.141 121.251 132.624 121.018 132.75 120.906C132.876 120.794 133.262 120.703 133.606 120.703C133.951 120.703 134.337 120.611 134.463 120.499C134.589 120.386 135.506 120.051 136.5 119.754C137.495 119.457 138.58 119.125 138.912 119.016C139.244 118.907 140.003 118.686 140.6 118.524C141.197 118.362 141.874 118.131 142.104 118.011C142.334 117.89 142.79 117.792 143.118 117.792C143.445 117.792 143.962 117.695 144.266 117.576C144.571 117.458 145.417 117.235 146.147 117.081C148.026 116.684 149.335 116.324 149.821 116.07C150.051 115.949 150.615 115.851 151.073 115.851C151.531 115.851 151.973 115.742 152.055 115.608C152.137 115.475 152.462 115.366 152.778 115.366C153.094 115.366 153.42 115.257 153.502 115.123C153.584 114.99 153.894 114.881 154.191 114.881C154.489 114.881 154.835 114.79 154.961 114.68C155.167 114.5 155.867 114.277 158.084 113.684C160.086 113.149 160.846 112.96 162.063 112.697C163.322 112.425 165.721 111.687 166.766 111.251C167.031 111.14 167.899 110.919 168.695 110.759C169.491 110.599 170.391 110.369 170.696 110.248C171 110.128 171.564 110.029 171.947 110.029C172.331 110.029 172.712 109.92 172.794 109.786C172.876 109.653 173.473 109.544 174.121 109.544C174.768 109.544 175.365 109.434 175.447 109.301C175.529 109.168 175.888 109.058 176.245 109.058C176.602 109.058 177.654 108.883 178.582 108.669C179.511 108.454 181.03 108.185 181.958 108.07C182.887 107.955 184.189 107.741 184.852 107.593C185.515 107.446 186.546 107.268 187.143 107.198C187.74 107.128 188.331 106.972 188.457 106.852C188.584 106.731 188.883 106.633 189.124 106.633C189.364 106.633 189.75 106.537 189.98 106.42C190.21 106.303 190.833 106.077 191.363 105.919C191.894 105.76 192.545 105.543 192.81 105.437C194.031 104.949 195.084 104.692 195.862 104.692C196.328 104.692 196.783 104.617 196.874 104.526C197.139 104.259 198.791 103.729 199.368 103.725C199.658 103.723 199.952 103.631 200.02 103.52C200.088 103.41 200.772 103.174 201.541 102.996C202.31 102.818 203.042 102.581 203.168 102.47C203.294 102.357 203.598 102.266 203.843 102.266C204.088 102.266 204.738 102.048 205.287 101.781C205.836 101.514 206.407 101.296 206.556 101.296C206.705 101.296 207.277 101.077 207.826 100.81C208.375 100.544 208.939 100.325 209.08 100.325C209.221 100.325 209.525 100.218 209.755 100.088C210.36 99.7452 213.192 98.8697 213.696 98.8697C213.932 98.8697 214.191 98.7607 214.273 98.6272C214.355 98.4937 214.619 98.3846 214.858 98.3846C215.39 98.3846 217.395 97.6083 219.311 96.661C220.092 96.2747 220.933 95.9587 221.18 95.9587C221.427 95.9587 221.629 95.8495 221.629 95.7161C221.629 95.5827 221.825 95.4735 222.066 95.4735C222.306 95.4735 222.952 95.2552 223.501 94.9884C224.05 94.7215 224.632 94.5032 224.795 94.5032C225.278 94.5032 226.724 93.9475 228.104 93.2317C228.814 92.8636 229.543 92.5625 229.725 92.5625C229.906 92.5625 230.441 92.3442 230.913 92.0773C231.386 91.8105 231.928 91.5921 232.119 91.5921C232.31 91.5921 232.834 91.3841 233.284 91.1298C233.734 90.8755 234.362 90.5207 234.678 90.3413C234.995 90.162 235.308 89.9499 235.375 89.87C235.441 89.7901 236.472 89.2627 237.665 88.6982C238.859 88.1336 240.024 87.5713 240.255 87.4487C240.485 87.326 240.838 87.2255 241.038 87.2255C241.239 87.2255 241.403 87.1164 241.403 86.983C241.403 86.8495 241.622 86.7404 241.889 86.7404C242.322 86.7404 243.25 86.3394 243.574 86.0122C243.64 85.9453 244.02 85.7271 244.418 85.5274C244.816 85.3277 245.196 85.1034 245.262 85.0289C245.328 84.9544 245.735 84.7499 246.166 84.5745C246.597 84.3991 246.95 84.1597 246.95 84.0425C246.95 83.9253 247.114 83.8293 247.315 83.8293C247.709 83.8293 248.551 83.3967 249.05 82.938C249.22 82.7812 249.957 82.3591 250.687 81.9998C251.417 81.6405 252.014 81.2501 252.014 81.1324C252.014 81.0147 252.121 80.9183 252.253 80.9183C252.508 80.9183 253.193 80.4055 254.117 79.5234C254.432 79.2232 254.746 78.9776 254.815 78.9776C254.886 78.9776 255.415 78.6501 255.993 78.2498C256.572 77.8495 257.161 77.522 257.303 77.522C257.445 77.522 257.561 77.4128 257.561 77.2794C257.561 77.146 257.7 77.0369 257.869 77.0369C258.039 77.0369 258.334 76.8185 258.526 76.5517C258.717 76.2848 258.995 76.0665 259.143 76.0665C259.291 76.0665 259.921 75.4934 260.542 74.7929C262.471 72.618 263.194 71.8117 264.214 70.6975C265.131 69.6965 268.197 64.1293 268.321 63.2408C268.351 63.0234 268.552 62.0813 268.766 61.1474C269.448 58.1816 269.455 51.0992 268.78 46.2282C268.195 42.0052 267.565 39.1932 267.205 39.1932C267.112 39.1932 266.969 38.3825 266.885 37.3916C266.801 36.4008 266.58 35.2273 266.392 34.7839C266.204 34.3404 265.858 33.5086 265.622 32.9354C265.387 32.3622 265.024 31.6901 264.814 31.4418C264.257 30.7806 263.877 30.2123 263.279 29.1449C262.986 28.6217 262.09 27.6938 261.288 27.0829C259.922 26.0427 258.284 24.2042 258.284 23.7117C258.284 23.5913 258.04 23.3133 257.742 23.0938C257.068 22.5981 254.921 21.2417 254.81 21.2417C254.765 21.2417 254.263 20.8144 253.695 20.2921C253.127 19.7698 252.384 19.1967 252.044 19.0185C251.704 18.8403 251.233 18.5035 250.997 18.27C250.761 18.0365 250.35 17.8455 250.085 17.8455C249.82 17.8455 249.603 17.7538 249.603 17.6417C249.603 17.5296 249.142 17.2966 248.578 17.1238C246.504 16.4878 245.986 16.2889 245.986 16.1281C245.986 16.0378 245.633 15.8204 245.202 15.6452C244.771 15.4701 244.331 15.1839 244.225 15.0093C244.119 14.8347 243.922 14.6919 243.788 14.6919C243.653 14.6919 242.95 14.419 242.225 14.0854C241.5 13.7518 240.802 13.4789 240.673 13.4789C240.544 13.4789 240.439 13.3924 240.439 13.2866C240.439 13.1809 239.95 12.9628 239.352 12.802C238.754 12.6412 237.805 12.3002 237.242 12.0443C236.679 11.7884 235.785 11.4453 235.254 11.2819C234.328 10.9968 232.164 10.2401 231.154 9.84827C229.814 9.32821 227.416 8.62719 226.977 8.62719C226.704 8.62719 226.422 8.53158 226.35 8.415C226.279 8.2984 225.648 8.154 224.949 8.09433C224.25 8.03467 223.299 7.81257 222.834 7.60083C221.62 7.04697 221.411 7.00571 215.72 6.19399C214.792 6.06159 213.273 5.84323 212.344 5.70878C206.619 4.87989 201.212 4.12091 198.478 3.76249C197.483 3.63206 195.258 3.42737 193.534 3.30759C191.81 3.18778 189.097 2.98423 187.505 2.85514C185.913 2.72608 184.014 2.64869 183.285 2.68314C182.555 2.7176 181.841 2.652 181.698 2.53742C181.114 2.07021 141.395 2.62005 136.621 3.16145C133.584 3.50589 127.645 4.05752 124.684 4.27024C122.893 4.39886 120.289 4.60999 118.896 4.73947C117.503 4.86892 115.279 5.03873 113.952 5.11679C112.626 5.19485 111.107 5.35964 110.576 5.48296C110.045 5.60635 108.689 5.76667 107.562 5.83925C102.491 6.16583 96.7596 6.70019 93.3333 7.1658C92.3386 7.30099 90.3852 7.52018 88.9925 7.65285C87.5999 7.78552 85.9178 7.99965 85.2546 8.12875C84.5914 8.25784 83.0721 8.47654 81.8784 8.61475C80.6847 8.75294 79.2197 8.92375 78.6228 8.99437C77.452 9.13287 74.9435 9.55797 74.1614 9.75045C73.8962 9.81579 72.9737 9.97045 72.1116 10.0943C70.5385 10.3202 69.5107 10.5127 67.0473 11.0426C66.3178 11.1995 65.4496 11.3757 65.118 11.434C63.554 11.7092 59.6098 12.7887 58.4862 13.2492C58.221 13.358 57.5698 13.5766 57.0393 13.7353C56.5087 13.8939 55.8863 14.1194 55.6559 14.2365C55.4256 14.3534 55.0251 14.4492 54.7658 14.4492C54.5066 14.4492 54.2274 14.5583 54.1454 14.6919C54.0634 14.8253 53.7379 14.9345 53.4219 14.9345C53.106 14.9345 52.7872 15.0326 52.7135 15.1526C52.6397 15.2727 52.0093 15.4958 51.3126 15.6485C49.4538 16.0558 48.1475 16.4472 47.8874 16.6747C47.7614 16.785 47.4151 16.8751 47.1179 16.8751C46.8206 16.8751 46.5103 16.9843 46.4284 17.1177C46.3464 17.2512 46.1218 17.3603 45.9293 17.3603C45.7367 17.3603 45.0648 17.5895 44.4362 17.8697C43.8076 18.1498 43.0763 18.4643 42.811 18.5687C41.6169 19.0383 39.894 19.9446 39.4589 20.332C39.1967 20.5655 38.8398 20.7566 38.6659 20.7566C38.492 20.7566 38.3496 20.8528 38.3496 20.9707C38.3496 21.0884 37.7799 21.471 37.0836 21.8208C35.6503 22.5407 34.4288 23.2384 34.25 23.439C34.0519 23.6613 30.9252 25.1231 30.6478 25.1231C30.5068 25.1231 30.3906 25.205 30.3896 25.3051C30.3872 25.5229 29.2195 26.0934 28.7758 26.0934C28.6034 26.0934 28.4623 26.1822 28.4623 26.291C28.4623 26.3996 28.0553 26.7104 27.5579 26.9815C25.4896 28.1086 24.7573 28.5721 24.3893 28.9867C23.9424 29.4903 20.9054 32.0448 19.8978 32.7646C19.5243 33.0315 19.0815 33.3862 18.9139 33.553C18.7464 33.7198 18.5345 33.8563 18.4432 33.8563C18.2517 33.8563 17.1763 34.8648 14.3963 37.6513C10.2024 41.855 10.0571 42.0475 8.10279 45.9866C5.73988 50.7493 5.52913 51.3665 5.74578 52.888C5.87923 53.8251 5.79748 54.4477 5.37405 55.7175C4.85985 57.2598 4.84444 57.5096 5.08147 60.4594C5.21912 62.172 5.48987 64.1894 5.6832 64.9425C5.87653 65.6956 6.03571 66.5143 6.03702 66.7619C6.0407 67.3882 7.06719 69.5141 7.71922 70.2444C8.01703 70.578 8.43762 71.1238 8.65386 71.4573C10.2647 73.9421 17.0783 80.4331 18.0757 80.4331C18.2176 80.4331 18.3336 80.5218 18.3336 80.6304C18.3336 80.7388 18.7135 80.9776 19.1777 81.1609C19.6419 81.3441 20.0218 81.5828 20.0218 81.6913C20.0218 81.7998 20.186 81.8886 20.3868 81.8886C20.5875 81.8886 20.9402 81.985 21.1705 82.1029C21.6318 82.339 22.7682 82.8236 23.5185 83.1043C24.537 83.4853 27.3808 84.9275 27.4574 85.1018C27.5016 85.2025 27.6825 85.2849 27.8593 85.2849C28.0362 85.2849 28.217 85.3707 28.2613 85.4755C28.5028 86.0485 34.1649 89.1663 34.9639 89.1663C35.1814 89.1663 35.4624 89.2531 35.5884 89.3593C35.7144 89.4655 36.2516 89.691 36.7821 89.8605C37.3127 90.03 38.0181 90.2853 38.3496 90.4277C38.6812 90.5701 39.2238 90.794 39.5554 90.9251C39.887 91.0562 40.3468 91.26 40.5771 91.3778C40.8074 91.4958 41.1568 91.5921 41.3535 91.5921C41.5502 91.5921 42.0976 91.8105 42.5699 92.0773C43.0422 92.3442 43.5731 92.5625 43.7497 92.5625C43.9263 92.5625 44.9147 92.9991 45.9461 93.5328C46.9775 94.0665 48.017 94.5032 48.2561 94.5032C48.4953 94.5032 48.758 94.6124 48.84 94.7458C48.922 94.8792 49.1522 94.9884 49.3517 94.9884C49.6502 94.9884 51.7162 95.8654 53.3013 96.665C53.5003 96.7653 54.1785 96.9988 54.8085 97.1838C55.4386 97.3688 55.9541 97.6055 55.9541 97.7098C55.9541 97.8141 56.1647 97.8994 56.4222 97.8994C56.6796 97.8994 56.9573 98.0086 57.0393 98.142C57.1213 98.2754 57.399 98.3846 57.6564 98.3846C57.9139 98.3846 58.1245 98.4937 58.1245 98.6272C58.1245 98.7606 58.361 98.8697 58.65 98.8697C59.2591 98.8697 60.4881 99.2471 61.8624 99.856C62.393 100.091 63.3154 100.5 63.9122 100.765C64.5091 101.029 65.3773 101.38 65.8415 101.544C67.4018 102.096 68.0119 102.383 68.0119 102.568C68.0119 102.669 68.1263 102.751 68.2663 102.751C68.4062 102.751 69.181 103.215 69.9881 103.782C70.7951 104.349 71.8366 105.042 72.3025 105.321C73.702 106.161 76.3323 108.909 77.1886 110.426C77.6302 111.208 78.0793 111.885 78.1866 111.929C78.2939 111.974 78.3817 112.117 78.3817 112.248C78.3817 112.379 78.6599 113.098 79 113.846C79.3402 114.594 79.786 115.869 79.9906 116.681C80.1953 117.492 80.4453 118.265 80.5461 118.398C80.8696 118.826 81.1107 122.418 81.0673 126.161C81.0146 130.699 80.6435 132.737 79.3434 135.622C78.9827 136.422 78.5462 137.459 78.3735 137.926C78.2007 138.393 77.7519 139.245 77.3762 139.819C77.0005 140.393 76.5163 141.206 76.3003 141.627C76.0843 142.047 75.77 142.529 75.6019 142.698C75.4338 142.867 75.1143 143.637 74.8919 144.408C74.6695 145.179 74.3403 146.138 74.1602 146.538C73.2607 148.538 73.471 148.775 75.1261 147.63H75.126ZM80.1226 148.392C80.5577 148.144 81.3478 147.687 81.8783 147.377C82.8044 146.836 84.513 145.98 86.8221 144.9C88.026 144.337 88.4524 144.166 89.7762 143.716C90.2736 143.547 90.6806 143.321 90.6806 143.215C90.6806 143.108 90.9315 143.021 91.2382 143.021C91.5449 143.021 92.245 142.802 92.794 142.536C93.3431 142.269 93.9603 142.05 94.1657 142.05C94.371 142.05 94.5391 141.941 94.5391 141.808C94.5391 141.674 94.804 141.565 95.1277 141.565C95.4515 141.565 95.7835 141.456 95.8654 141.323C95.9475 141.189 96.273 141.08 96.5889 141.08C96.9049 141.08 97.2304 140.971 97.3124 140.837C97.3944 140.704 97.7263 140.595 98.0501 140.595C98.4063 140.595 98.6388 140.454 98.6388 140.24C98.6388 139.662 100.878 138.667 102.196 138.658C102.494 138.655 102.738 138.562 102.738 138.45C102.738 138.338 103.198 138.107 103.759 137.938C104.32 137.769 105.04 137.424 105.359 137.172C105.678 136.92 106.123 136.713 106.348 136.713C106.573 136.713 106.832 136.639 106.923 136.547C107.188 136.281 108.839 135.751 109.416 135.747C109.707 135.744 110.012 135.634 110.094 135.5C110.176 135.367 110.563 135.258 110.955 135.258C111.347 135.258 111.856 135.159 112.087 135.039C112.317 134.919 112.994 134.687 113.59 134.525C114.187 134.363 114.82 134.189 114.997 134.138C115.174 134.086 115.274 133.908 115.22 133.742C115.094 133.356 113.664 133.208 113.006 133.511C111.835 134.051 111.127 134.288 110.682 134.288C110.421 134.288 109.965 134.414 109.668 134.568C108.51 135.17 108.275 135.258 107.82 135.258C107.561 135.258 107.282 135.367 107.2 135.5C107.118 135.634 106.893 135.743 106.701 135.743C106.38 135.743 104.655 136.439 103.646 136.976C103.416 137.098 102.922 137.199 102.549 137.199C102.176 137.199 101.767 137.285 101.641 137.392C101.515 137.498 100.978 137.726 100.447 137.898C99.9169 138.071 98.8114 138.53 97.9908 138.918C97.1702 139.307 96.3291 139.624 96.1218 139.624C95.9145 139.624 95.7448 139.707 95.7448 139.808C95.7448 140.012 94.9081 140.394 93.4539 140.853C92.9233 141.02 92.1332 141.358 91.6981 141.604C91.263 141.849 90.7476 142.05 90.5527 142.05C90.3578 142.05 90.1983 142.148 90.1983 142.266C90.1983 142.385 89.7099 142.627 89.1131 142.804C88.5162 142.982 88.0279 143.212 88.0279 143.316C88.0279 143.421 87.8275 143.506 87.5826 143.506C87.0206 143.506 85.7601 144.131 85.371 144.603C85.2082 144.8 84.9179 144.961 84.7259 144.961C84.3538 144.961 82.1741 146.377 82.0391 146.706C81.9949 146.814 81.8321 146.902 81.6774 146.902C81.5227 146.903 81.0911 147.167 80.7184 147.489C80.3458 147.811 79.8031 148.242 79.5126 148.446C78.7695 148.968 79.1749 148.932 80.1226 148.392V148.392ZM64.2137 159.345C63.7989 158.447 63.8285 157.576 64.2739 157.576C64.4729 157.576 64.6357 157.467 64.6357 157.333C64.6357 157.2 64.7985 157.091 64.9974 157.091C65.1964 157.091 65.3591 156.982 65.3591 156.848C65.3591 156.715 65.5023 156.606 65.6774 156.606C66.045 156.606 66.7713 155.816 67.42 154.711C67.8616 153.959 67.8615 153.936 67.4115 153.605C66.7591 153.125 66.8151 151.401 67.504 150.756C68.1387 150.161 68.1451 149.793 67.5297 149.263C67.0052 148.811 66.9007 148.235 67.2984 147.988C67.4364 147.902 67.4879 147.637 67.4128 147.399C67.1412 146.538 68.0636 144.961 68.8389 144.961C69.1125 144.961 69.2178 144.721 69.2178 144.096C69.2178 143.621 69.319 143.041 69.4427 142.809C69.7803 142.174 69.9635 139.482 69.9753 134.98C69.9852 131.803 69.9094 130.821 69.6259 130.371C69.4278 130.057 69.1497 129.236 69.0077 128.547C68.7774 127.429 68.0918 126.086 67.2395 125.084C67.0761 124.891 66.9129 124.539 66.8767 124.3C66.7403 123.402 63.1089 119.247 62.4597 119.247C62.3302 119.247 62.2242 119.138 62.2242 119.005C62.2242 118.871 62.0747 118.762 61.892 118.762C61.7093 118.762 61.4336 118.609 61.2793 118.422C61.125 118.235 60.721 118.012 60.3815 117.926C59.8474 117.791 58.4868 116.971 58.1246 116.565C58.0584 116.491 57.6242 116.282 57.16 116.102C56.6958 115.921 56.0447 115.533 55.7131 115.24C55.3815 114.946 54.7846 114.547 54.3867 114.353C53.9888 114.158 53.419 113.87 53.1206 113.712C51.8335 113.031 51.5907 112.94 51.062 112.94C50.7551 112.94 50.401 112.848 50.275 112.735C50.149 112.622 49.4218 112.282 48.6592 111.979C47.8965 111.676 47.2726 111.331 47.2726 111.214C47.2726 111.096 46.8928 110.999 46.4285 110.999C45.9643 110.999 45.5844 110.89 45.5844 110.757C45.5844 110.623 45.3878 110.514 45.1474 110.514C44.9071 110.514 44.2612 110.296 43.7122 110.029C43.1631 109.762 42.4526 109.544 42.1332 109.544C41.8139 109.544 40.9133 109.227 40.1321 108.839C37.9924 107.779 36.4591 107.118 36.1388 107.118C35.6445 107.118 34.2501 106.544 34.2501 106.341C34.2501 106.235 34.0535 106.147 33.8132 106.147C33.573 106.147 33.1661 105.954 32.909 105.717C32.6519 105.48 31.9531 105.133 31.3563 104.947C30.7594 104.76 30.168 104.517 30.0419 104.407C29.9159 104.297 29.6115 104.207 29.3654 104.207C29.1194 104.207 28.3001 103.892 27.5447 103.507C26.7894 103.122 25.6759 102.57 25.0703 102.279C24.4648 101.988 23.5966 101.43 23.141 101.039C22.6855 100.647 22.1398 100.326 21.9282 100.326C21.7167 100.326 21.3471 100.107 21.107 99.8401C20.867 99.5733 20.4225 99.3549 20.1193 99.3549C19.8161 99.3549 19.501 99.2457 19.419 99.1123C19.337 98.9789 19.005 98.8697 18.6812 98.8697C18.3575 98.8697 18.0926 98.7607 18.0926 98.6272C18.0926 98.4937 17.9792 98.3846 17.8405 98.3846C17.7018 98.3846 17.3357 98.1389 17.0268 97.8387C16.0114 96.8519 15.4481 96.4503 14.355 95.9334C13.7615 95.6527 12.827 94.9978 12.2783 94.478C11.7296 93.9581 11.2448 93.5328 11.2009 93.5328C11.157 93.5328 10.8583 93.2872 10.5371 92.987C10.2161 92.6868 9.64142 92.1494 9.26016 91.7928C8.34094 90.9331 8.06797 90.5825 7.46291 89.484C7.18289 88.9757 6.70423 88.2869 6.39915 87.9533C6.09408 87.6198 5.77012 86.9921 5.6793 86.5584C5.58844 86.1248 5.42312 85.77 5.31185 85.77C4.97262 85.77 4.10554 84.1736 4.10554 83.5489C4.10554 83.2261 3.78438 82.584 3.39184 82.1221C2.99933 81.6601 2.67378 81.0976 2.6684 80.8719C2.66349 80.6463 2.54831 80.3931 2.41351 80.3093C2.2787 80.2256 2.22098 80.0715 2.28521 79.9669C2.34931 79.8624 2.24616 79.5697 2.05565 79.3165C1.86518 79.0634 1.70583 78.673 1.70162 78.4491C1.69793 78.2251 1.51313 77.86 1.29212 77.6376C1.0711 77.4153 0.857676 76.9435 0.817867 76.5893C0.777961 76.2351 0.676326 75.6177 0.591834 75.2174C0.403328 74.3244 -0.0155538 67.7091 0.000445701 65.8778C0.0156716 64.1325 0.721671 60.6228 1.3433 59.202C1.51959 58.7991 1.66384 57.7415 1.66384 56.8517C1.66384 54.0255 2.3619 51.1029 3.62147 48.6561C4.57838 46.7972 5.76447 44.1251 5.93359 43.4473C6.01144 43.1352 6.27314 42.6662 6.51509 42.4049C6.75706 42.1437 7.18732 41.4718 7.47123 40.912C7.98318 39.9026 11.7313 35.9732 13.7387 34.3414C14.3132 33.8744 15.1208 33.1622 15.5336 32.7586C15.9462 32.3551 16.5263 31.8548 16.8225 31.647C17.4922 31.1771 20.588 28.4152 21.5776 27.4047C22.4012 26.5638 25.1658 24.6379 25.5494 24.6379C25.6861 24.6379 26.1532 24.42 26.5875 24.1536C27.0218 23.8873 27.5502 23.669 27.7618 23.6685C27.9733 23.6685 28.3428 23.4492 28.5829 23.1824C28.823 22.9156 29.1925 22.6948 29.4041 22.6918C29.6156 22.6894 30.06 22.473 30.3916 22.2121C30.7232 21.9512 31.1361 21.7352 31.3092 21.7322C31.4822 21.7298 32.263 21.2902 33.0443 20.7566C33.8256 20.2228 34.613 19.7862 34.7943 19.7862C34.9755 19.7862 35.3568 19.5679 35.6415 19.301C35.9262 19.0342 36.3061 18.8158 36.4855 18.8158C36.6651 18.8158 37.0448 18.5975 37.3296 18.3307C37.6143 18.0638 37.9603 17.8455 38.0985 17.8455C38.2367 17.8455 38.3498 17.7363 38.3498 17.6029C38.3498 17.4695 38.4595 17.3603 38.5935 17.3603C38.9602 17.3603 41.1112 16.3201 41.2035 16.0982C41.2477 15.9918 41.5397 15.9048 41.8524 15.9048C42.1651 15.9048 42.488 15.7956 42.57 15.6622C42.652 15.5288 42.9279 15.4196 43.1833 15.4196C43.4386 15.4196 44.3196 15.0921 45.1411 14.6919C45.9625 14.2916 46.826 13.9641 47.0599 13.9641C47.2939 13.9641 47.5523 13.855 47.6343 13.7215C47.7163 13.5881 48.1568 13.4789 48.6132 13.4789C49.0696 13.4789 49.443 13.3697 49.443 13.2363C49.443 13.1029 49.6729 12.9937 49.9539 12.9937C50.235 12.9937 51.1303 12.783 51.9435 12.5255C52.7567 12.268 53.9104 11.9209 54.5073 11.7541C55.1041 11.5873 55.701 11.3764 55.8336 11.2854C55.9663 11.1943 56.4003 11.0419 56.7983 10.9465C57.1962 10.851 57.8473 10.6296 58.2452 10.4542C58.6431 10.2788 59.5113 10.0075 60.1744 9.85113C60.8376 9.69481 61.76 9.4698 62.2242 9.35111C63.6887 8.9768 64.4819 8.83707 65.6431 8.7489C66.2634 8.70172 66.9888 8.54596 67.2551 8.4026C67.5214 8.25926 68.016 8.14198 68.3544 8.14198C68.9144 8.14198 70.7334 7.76876 71.6294 7.47C71.8283 7.40367 72.3709 7.31036 72.8351 7.26267C73.2994 7.215 74.0591 7.07115 74.5233 6.9431C75.3071 6.72686 75.9998 6.6165 78.5023 6.30915C81.8063 5.90333 83.4546 5.70035 84.4107 5.58149C85.0075 5.50738 86.7439 5.34646 88.2692 5.22414C89.7945 5.10186 91.7478 4.88479 92.61 4.74188C93.4721 4.59894 95.3713 4.38292 96.8303 4.2618C98.2893 4.14063 100.46 3.921 101.653 3.77361C102.847 3.62628 105.126 3.40149 106.718 3.27416C110.781 2.94908 114.685 2.61273 116.243 2.45343C119.623 2.10803 120.647 2.01572 123.237 1.82291C124.762 1.7094 127.095 1.50136 128.422 1.36066C138.101 0.333782 144.134 0.115995 165.439 0.024233C180.314 -0.0398728 185.145 0.0155641 187.987 0.282894C189.977 0.469999 193.07 0.738738 194.86 0.880092C198.488 1.16652 201.197 1.45229 203.542 1.79626C208.264 2.48883 210.624 2.8205 212.465 3.05048C213.592 3.19131 214.977 3.41203 215.543 3.54096C216.109 3.6699 216.862 3.77542 217.217 3.77542C217.887 3.77542 220.165 4.15477 221.629 4.51021C224.424 5.18879 224.908 5.32309 225.126 5.48069C225.354 5.64596 225.919 5.78016 227.718 6.09651C228.149 6.17235 228.719 6.3291 228.984 6.44489C229.249 6.56062 230.28 6.88992 231.275 7.17658C232.27 7.46328 233.272 7.79773 233.502 7.91988C233.733 8.04204 234.133 8.14198 234.393 8.14198C234.652 8.14198 234.931 8.25118 235.013 8.38458C235.096 8.51801 235.475 8.62719 235.857 8.62719C236.239 8.62719 236.619 8.73624 236.701 8.86975C236.784 9.00319 237.04 9.11235 237.273 9.11235C237.505 9.11235 238.145 9.33067 238.694 9.59752C239.243 9.86437 239.807 10.0827 239.948 10.0827C240.089 10.0827 240.393 10.179 240.623 10.2969C240.854 10.4148 241.367 10.6459 241.765 10.8105C242.533 11.1278 242.917 11.3078 243.695 11.7148C243.96 11.8536 244.882 12.2957 245.744 12.6971C249.736 14.5558 252.658 16.0465 253.085 16.4422C253.342 16.6803 253.695 16.8751 253.869 16.8751C254.043 16.8751 254.185 16.9659 254.185 17.0767C254.185 17.1876 254.483 17.4331 254.848 17.6222C255.213 17.8113 255.566 18.028 255.632 18.1037C255.699 18.1794 256.295 18.6111 256.958 19.0629C257.621 19.5147 258.283 19.9988 258.428 20.1385C258.573 20.2783 259.17 20.8351 259.754 21.3757C260.339 21.9164 261.088 22.7617 261.42 23.2541C261.751 23.7465 262.112 24.1502 262.221 24.1511C262.329 24.1511 262.579 24.3141 262.775 24.5113C262.971 24.7085 263.266 24.9541 263.43 25.0571C263.594 25.1602 264.12 25.8448 264.6 26.5786C265.079 27.3124 265.697 28.1858 265.973 28.5193C266.249 28.8529 266.577 29.2486 266.702 29.3986C266.827 29.5487 267.279 30.3674 267.707 31.218C268.385 32.5653 268.646 33.3007 269.288 35.6757C269.931 38.0541 270.564 40.9049 270.849 42.7107C271.206 44.9682 271.717 46.4599 272.387 47.1986C272.781 47.6335 273.009 48.3198 273.193 49.6244C273.335 50.6251 273.433 51.6076 273.413 51.8077C273.392 52.0079 273.458 52.9358 273.56 53.8697C273.661 54.8037 273.783 56.0045 273.83 56.5382C273.877 57.0719 273.945 57.6177 273.981 57.7512C274.095 58.1781 273.681 62.8061 273.428 63.9371C273.294 64.5375 273.157 65.4224 273.123 65.9034C273.09 66.3845 272.722 67.5037 272.306 68.3906C271.889 69.2775 271.548 70.1532 271.548 70.3366C271.548 70.5201 271.397 70.7966 271.212 70.9511C271.027 71.1056 270.809 71.5864 270.728 72.0194C270.648 72.4525 270.368 72.9908 270.107 73.2157C269.846 73.4405 269.557 73.9247 269.466 74.2916C269.375 74.6584 269.116 75.1562 268.893 75.3976C268.669 75.639 268.342 76.2976 268.166 76.8612C267.989 77.4248 267.728 78.0497 267.584 78.2498C267.159 78.8435 266.537 80.23 266.124 81.5062C265.912 82.1631 265.552 82.8727 265.324 83.083C265.096 83.2933 264.493 84.3388 263.983 85.4062C263.474 86.4735 262.827 87.8285 262.546 88.4173C262.264 89.0061 261.435 90.1058 260.702 90.8611C259.969 91.6165 258.638 93.0456 257.743 94.0369C256.848 95.0283 255.777 95.9906 255.361 96.1755C254.946 96.3603 253.725 97.3691 252.647 98.4172C251.57 99.4653 250.553 100.323 250.387 100.324C250.221 100.324 250.085 100.411 250.085 100.516C250.085 100.62 249.787 100.89 249.422 101.114C249.057 101.339 248.421 101.826 248.009 102.197C247.597 102.569 246.9 103.145 246.46 103.479C246.021 103.812 245.413 104.331 245.111 104.631C244.808 104.931 244.491 105.177 244.405 105.177C244.319 105.177 243.875 105.553 243.418 106.013C242.961 106.473 242.374 106.917 242.115 107C241.857 107.083 241.645 107.252 241.645 107.377C241.645 107.501 241.499 107.603 241.32 107.603C241.142 107.603 240.8 107.821 240.56 108.088C240.319 108.355 239.977 108.573 239.799 108.573C239.62 108.573 239.474 108.682 239.474 108.816C239.474 108.949 239.359 109.058 239.22 109.058C239.08 109.058 238.326 109.495 237.545 110.029C236.764 110.562 235.956 110.999 235.75 110.999C235.543 110.999 235.375 111.108 235.375 111.242C235.375 111.375 235.103 111.484 234.772 111.484C234.44 111.484 234.169 111.593 234.169 111.727C234.169 111.86 234.006 111.969 233.807 111.969C233.608 111.969 233.445 112.079 233.445 112.212C233.445 112.345 233.286 112.455 233.091 112.455C232.896 112.455 232.326 112.69 231.825 112.977C230.513 113.729 229.507 114.235 227.055 115.375C224.926 116.365 224.285 116.646 223.076 117.125C222.744 117.256 222.284 117.459 222.054 117.577C221.824 117.695 221.423 117.792 221.164 117.792C220.905 117.792 220.625 117.901 220.543 118.034C220.462 118.168 220.139 118.277 219.826 118.277C219.513 118.277 219.221 118.359 219.177 118.459C219.014 118.827 216.98 119.732 216.315 119.732C215.937 119.732 215.561 119.841 215.479 119.975C215.397 120.108 215.072 120.217 214.756 120.217C214.44 120.217 214.127 120.306 214.06 120.414C213.994 120.523 213.146 120.862 212.177 121.167C211.208 121.473 210.227 121.821 209.996 121.94C209.766 122.06 209.377 122.158 209.132 122.158C208.887 122.158 208.609 122.236 208.514 122.332C208.231 122.617 204.526 123.402 202.577 123.591C201.583 123.688 200.28 123.949 199.684 124.172C199.087 124.395 198.28 124.579 197.892 124.581C197.187 124.584 196.532 124.761 194.258 125.562C193.154 125.951 191.538 126.327 189.675 126.629C189.278 126.693 188.409 126.865 187.746 127.01C187.083 127.155 186.215 127.332 185.817 127.403C185.419 127.473 184.931 127.596 184.732 127.675C184.533 127.755 183.339 128.023 182.079 128.272C180.819 128.521 179.3 128.831 178.703 128.961C178.106 129.091 176.37 129.284 174.844 129.391C173.184 129.508 171.732 129.743 171.227 129.978C170.763 130.194 169.949 130.429 169.418 130.5C167.583 130.747 162.662 131.611 161.581 131.877C160.984 132.024 159.844 132.237 159.049 132.35C158.253 132.463 157.059 132.659 156.396 132.787C155.733 132.914 154.063 133.089 152.686 133.177C151.308 133.264 150.006 133.428 149.792 133.54C149.252 133.825 145.637 134.288 143.952 134.288C143.185 134.288 142.491 134.397 142.409 134.53C142.327 134.664 141.734 134.773 141.092 134.773C140.45 134.773 138.655 134.991 137.103 135.258C135.552 135.525 133.92 135.743 133.478 135.743C133.035 135.743 132.404 135.846 132.074 135.972C131.745 136.098 130.679 136.224 129.707 136.251C128.735 136.278 127.722 136.379 127.457 136.476C126.963 136.656 126.113 136.905 124.201 137.432C123.605 137.597 122.928 137.83 122.698 137.95C122.467 138.07 121.389 138.169 120.301 138.169C118.478 138.169 116.693 138.395 114.555 138.897C114.091 139.006 112.952 139.278 112.023 139.501C111.095 139.723 109.955 139.958 109.491 140.023C109.027 140.087 108.43 140.229 108.165 140.337C107.899 140.446 107.379 140.657 107.008 140.807C106.637 140.957 106.073 141.08 105.756 141.08C105.438 141.08 105.112 141.189 105.03 141.323C104.948 141.456 104.622 141.565 104.306 141.565C103.99 141.565 103.665 141.674 103.583 141.808C103.501 141.941 103.243 142.05 103.011 142.05C102.778 142.05 102.139 142.269 101.59 142.536C101.041 142.802 100.502 143.021 100.392 143.021C100.282 143.021 100.036 143.239 99.8447 143.506C99.6535 143.773 99.3571 143.991 99.1859 143.991C99.0148 143.991 98.3605 144.22 97.7319 144.5C97.1033 144.781 96.372 145.094 96.1067 145.198C95.8415 145.301 95.3209 145.509 94.9499 145.659C94.5789 145.809 94.0092 145.932 93.6839 145.932C93.3585 145.932 93.0923 146.041 93.0923 146.174C93.0923 146.308 92.7731 146.417 92.383 146.417C91.993 146.417 91.6068 146.526 91.5248 146.66C91.4428 146.793 91.1636 146.902 90.9044 146.902C90.6451 146.902 90.2446 147 90.0143 147.12C88.1423 148.093 85.4399 149.332 85.1911 149.33C84.892 149.328 83.9244 149.804 83.6872 150.07C83.621 150.144 83.1868 150.354 82.7226 150.536C82.2584 150.719 81.5905 151.067 81.2384 151.311C80.8863 151.555 80.4998 151.754 80.3794 151.754C80.2589 151.754 79.7112 151.972 79.1621 152.239C78.6131 152.506 77.9959 152.724 77.7905 152.724C77.5851 152.724 77.4171 152.807 77.4171 152.908C77.4171 153.008 77.1187 153.225 76.7539 153.39C76.3892 153.554 75.7109 154.022 75.2467 154.429C74.7825 154.837 73.9187 155.302 73.3272 155.463C72.72 155.629 71.9096 156.1 71.4662 156.545C71.0342 156.979 70.6141 157.333 70.5325 157.333C70.4508 157.333 69.7148 157.73 68.8967 158.216C66.1236 159.86 65.8277 160.002 65.1711 160C64.6955 159.998 64.4324 159.819 64.2138 159.345H64.2137Z" fill="#E3DFDD"/>
</svg>
