<svg width="405" height="266" viewBox="0 0 405 266" fill="none" xmlns="http://www.w3.org/2000/svg">
<path d="M162.497 1C192.377 1 218.905 13.1168 235.776 31.8661C246.901 22.1083 261.708 16.1639 277.914 16.1639C303.667 16.1639 325.703 31.1267 335.326 52.5722C373.166 54.6595 403.147 81.5188 403.147 114.38C403.147 138.603 386.899 159.532 363.191 169.725C363.439 171.907 363.611 174.102 363.611 176.344C363.611 211.404 332.593 239.848 294.364 239.848C281.832 239.848 270.088 236.721 259.949 231.381C244.547 251.08 218.437 264.017 188.852 264.017C151.772 264.017 120.213 243.617 108.274 215.14C100.435 217.454 92.0837 218.68 83.4278 218.68C37.9137 218.68 1 184.126 1 141.553V140.938C1.33868 102.315 32.0095 70.5359 71.7593 65.2746C79.6727 28.6795 117.299 1.00373 162.495 1.00373L162.497 1Z" fill="white" stroke="black" stroke-width="2" stroke-linecap="round" stroke-linejoin="round"/>
</svg>
